G04 #@! TF.GenerationSoftware,KiCad,Pcbnew,7.0.7*
G04 #@! TF.CreationDate,2023-10-08T00:04:21-07:00*
G04 #@! TF.ProjectId,LogicAnalyzer,4c6f6769-6341-46e6-916c-797a65722e6b,rev?*
G04 #@! TF.SameCoordinates,Original*
G04 #@! TF.FileFunction,Soldermask,Bot*
G04 #@! TF.FilePolarity,Negative*
%FSLAX46Y46*%
G04 Gerber Fmt 4.6, Leading zero omitted, Abs format (unit mm)*
G04 Created by KiCad (PCBNEW 7.0.7) date 2023-10-08 00:04:21*
%MOMM*%
%LPD*%
G01*
G04 APERTURE LIST*
G04 Aperture macros list*
%AMRoundRect*
0 Rectangle with rounded corners*
0 $1 Rounding radius*
0 $2 $3 $4 $5 $6 $7 $8 $9 X,Y pos of 4 corners*
0 Add a 4 corners polygon primitive as box body*
4,1,4,$2,$3,$4,$5,$6,$7,$8,$9,$2,$3,0*
0 Add four circle primitives for the rounded corners*
1,1,$1+$1,$2,$3*
1,1,$1+$1,$4,$5*
1,1,$1+$1,$6,$7*
1,1,$1+$1,$8,$9*
0 Add four rect primitives between the rounded corners*
20,1,$1+$1,$2,$3,$4,$5,0*
20,1,$1+$1,$4,$5,$6,$7,0*
20,1,$1+$1,$6,$7,$8,$9,0*
20,1,$1+$1,$8,$9,$2,$3,0*%
%AMFreePoly0*
4,1,19,0.550000,-0.750000,0.000000,-0.750000,0.000000,-0.744911,-0.071157,-0.744911,-0.207708,-0.704816,-0.327430,-0.627875,-0.420627,-0.520320,-0.479746,-0.390866,-0.500000,-0.250000,-0.500000,0.250000,-0.479746,0.390866,-0.420627,0.520320,-0.327430,0.627875,-0.207708,0.704816,-0.071157,0.744911,0.000000,0.744911,0.000000,0.750000,0.550000,0.750000,0.550000,-0.750000,0.550000,-0.750000,
$1*%
%AMFreePoly1*
4,1,19,0.000000,0.744911,0.071157,0.744911,0.207708,0.704816,0.327430,0.627875,0.420627,0.520320,0.479746,0.390866,0.500000,0.250000,0.500000,-0.250000,0.479746,-0.390866,0.420627,-0.520320,0.327430,-0.627875,0.207708,-0.704816,0.071157,-0.744911,0.000000,-0.744911,0.000000,-0.750000,-0.550000,-0.750000,-0.550000,0.750000,0.000000,0.750000,0.000000,0.744911,0.000000,0.744911,
$1*%
G04 Aperture macros list end*
%ADD10C,3.600000*%
%ADD11C,5.600000*%
%ADD12R,1.700000X1.700000*%
%ADD13O,1.700000X1.700000*%
%ADD14C,0.900000*%
%ADD15O,1.800000X1.800000*%
%ADD16O,1.500000X1.500000*%
%ADD17FreePoly0,270.000000*%
%ADD18R,1.500000X1.000000*%
%ADD19FreePoly1,270.000000*%
%ADD20RoundRect,0.100000X0.637500X0.100000X-0.637500X0.100000X-0.637500X-0.100000X0.637500X-0.100000X0*%
%ADD21RoundRect,0.250000X0.475000X-0.250000X0.475000X0.250000X-0.475000X0.250000X-0.475000X-0.250000X0*%
%ADD22RoundRect,0.250000X-0.475000X0.250000X-0.475000X-0.250000X0.475000X-0.250000X0.475000X0.250000X0*%
G04 APERTURE END LIST*
D10*
X65000000Y-117000000D03*
D11*
X65000000Y-117000000D03*
X125000000Y-117000000D03*
D10*
X125000000Y-117000000D03*
D11*
X125000000Y-67000000D03*
D10*
X125000000Y-67000000D03*
D11*
X65000000Y-67000000D03*
D10*
X65000000Y-67000000D03*
D12*
X87475000Y-65725000D03*
D13*
X84935000Y-65725000D03*
X82395000Y-65725000D03*
D14*
X73430000Y-119456000D03*
X76430000Y-119456000D03*
D15*
X105460000Y-64785000D03*
D16*
X105760000Y-67815000D03*
X110610000Y-67815000D03*
D15*
X110910000Y-64785000D03*
D13*
X99295000Y-64655000D03*
X99295000Y-67195000D03*
D12*
X99295000Y-69735000D03*
D13*
X99295000Y-72275000D03*
X99295000Y-74815000D03*
X99295000Y-77355000D03*
X99295000Y-79895000D03*
D12*
X99295000Y-82435000D03*
D13*
X99295000Y-84975000D03*
X99295000Y-87515000D03*
X99295000Y-90055000D03*
X99295000Y-92595000D03*
D12*
X99295000Y-95135000D03*
D13*
X99295000Y-97675000D03*
X99295000Y-100215000D03*
X99295000Y-102755000D03*
X99295000Y-105295000D03*
D12*
X99295000Y-107835000D03*
D13*
X99295000Y-110375000D03*
X99295000Y-112915000D03*
X117075000Y-112915000D03*
X117075000Y-110375000D03*
D12*
X117075000Y-107835000D03*
D13*
X117075000Y-105295000D03*
X117075000Y-102755000D03*
X117075000Y-100215000D03*
X117075000Y-97675000D03*
D12*
X117075000Y-95135000D03*
D13*
X117075000Y-92595000D03*
X117075000Y-90055000D03*
X117075000Y-87515000D03*
X117075000Y-84975000D03*
D12*
X117075000Y-82435000D03*
D13*
X117075000Y-79895000D03*
X117075000Y-77355000D03*
X117075000Y-74815000D03*
X117075000Y-72275000D03*
D12*
X117075000Y-69735000D03*
D13*
X117075000Y-67195000D03*
X117075000Y-64655000D03*
X105645000Y-112685000D03*
D12*
X108185000Y-112685000D03*
D13*
X110725000Y-112685000D03*
X82395000Y-117226000D03*
X84935000Y-117226000D03*
D12*
X87475000Y-117226000D03*
D17*
X125730000Y-75378000D03*
D18*
X125730000Y-76678000D03*
D19*
X125730000Y-77978000D03*
D12*
X64516000Y-73660000D03*
D13*
X61976000Y-73660000D03*
X64516000Y-76200000D03*
X61976000Y-76200000D03*
X64516000Y-78740000D03*
X61976000Y-78740000D03*
X64516000Y-81280000D03*
X61976000Y-81280000D03*
X64516000Y-83820000D03*
X61976000Y-83820000D03*
X64516000Y-86360000D03*
X61976000Y-86360000D03*
X64516000Y-88900000D03*
X61976000Y-88900000D03*
X64516000Y-91440000D03*
X61976000Y-91440000D03*
X64516000Y-93980000D03*
X61976000Y-93980000D03*
X64516000Y-96520000D03*
X61976000Y-96520000D03*
X64516000Y-99060000D03*
X61976000Y-99060000D03*
X64516000Y-101600000D03*
X61976000Y-101600000D03*
X64516000Y-104140000D03*
X61976000Y-104140000D03*
X64516000Y-106680000D03*
X61976000Y-106680000D03*
X64516000Y-109220000D03*
X61976000Y-109220000D03*
D20*
X86936500Y-86483000D03*
X86936500Y-87133000D03*
X86936500Y-87783000D03*
X86936500Y-88433000D03*
X86936500Y-89083000D03*
X86936500Y-89733000D03*
X86936500Y-90383000D03*
X86936500Y-91033000D03*
X86936500Y-91683000D03*
X86936500Y-92333000D03*
X81211500Y-92333000D03*
X81211500Y-91683000D03*
X81211500Y-91033000D03*
X81211500Y-90383000D03*
X81211500Y-89733000D03*
X81211500Y-89083000D03*
X81211500Y-88433000D03*
X81211500Y-87783000D03*
X81211500Y-87133000D03*
X81211500Y-86483000D03*
D21*
X81534000Y-104394000D03*
X81534000Y-102494000D03*
X81534000Y-82296000D03*
X81534000Y-80396000D03*
D22*
X79502000Y-80396000D03*
X79502000Y-82296000D03*
X79502000Y-102494000D03*
X79502000Y-104394000D03*
M02*
