G04 #@! TF.GenerationSoftware,KiCad,Pcbnew,7.0.7*
G04 #@! TF.CreationDate,2023-10-08T00:04:21-07:00*
G04 #@! TF.ProjectId,LogicAnalyzer,4c6f6769-6341-46e6-916c-797a65722e6b,rev?*
G04 #@! TF.SameCoordinates,Original*
G04 #@! TF.FileFunction,Copper,L3,Inr*
G04 #@! TF.FilePolarity,Positive*
%FSLAX46Y46*%
G04 Gerber Fmt 4.6, Leading zero omitted, Abs format (unit mm)*
G04 Created by KiCad (PCBNEW 7.0.7) date 2023-10-08 00:04:21*
%MOMM*%
%LPD*%
G01*
G04 APERTURE LIST*
G04 #@! TA.AperFunction,ComponentPad*
%ADD10C,3.600000*%
G04 #@! TD*
G04 #@! TA.AperFunction,ComponentPad*
%ADD11R,1.700000X1.700000*%
G04 #@! TD*
G04 #@! TA.AperFunction,ComponentPad*
%ADD12O,1.700000X1.700000*%
G04 #@! TD*
G04 #@! TA.AperFunction,ViaPad*
%ADD13C,0.800000*%
G04 #@! TD*
G04 #@! TA.AperFunction,Conductor*
%ADD14C,0.500000*%
G04 #@! TD*
G04 APERTURE END LIST*
D10*
X65000000Y-117000000D03*
X125000000Y-117000000D03*
X125000000Y-67000000D03*
X65000000Y-67000000D03*
D11*
X87475000Y-65725000D03*
D12*
X84935000Y-65725000D03*
X82395000Y-65725000D03*
X99295000Y-64655000D03*
X99295000Y-67195000D03*
D11*
X99295000Y-69735000D03*
D12*
X99295000Y-72275000D03*
X99295000Y-74815000D03*
X99295000Y-77355000D03*
X99295000Y-79895000D03*
D11*
X99295000Y-82435000D03*
D12*
X99295000Y-84975000D03*
X99295000Y-87515000D03*
X99295000Y-90055000D03*
X99295000Y-92595000D03*
D11*
X99295000Y-95135000D03*
D12*
X99295000Y-97675000D03*
X99295000Y-100215000D03*
X99295000Y-102755000D03*
X99295000Y-105295000D03*
D11*
X99295000Y-107835000D03*
D12*
X99295000Y-110375000D03*
X99295000Y-112915000D03*
X117075000Y-112915000D03*
X117075000Y-110375000D03*
D11*
X117075000Y-107835000D03*
D12*
X117075000Y-105295000D03*
X117075000Y-102755000D03*
X117075000Y-100215000D03*
X117075000Y-97675000D03*
D11*
X117075000Y-95135000D03*
D12*
X117075000Y-92595000D03*
X117075000Y-90055000D03*
X117075000Y-87515000D03*
X117075000Y-84975000D03*
D11*
X117075000Y-82435000D03*
D12*
X117075000Y-79895000D03*
X117075000Y-77355000D03*
X117075000Y-74815000D03*
X117075000Y-72275000D03*
D11*
X117075000Y-69735000D03*
D12*
X117075000Y-67195000D03*
X117075000Y-64655000D03*
X105645000Y-112685000D03*
D11*
X108185000Y-112685000D03*
D12*
X110725000Y-112685000D03*
X82395000Y-117226000D03*
X84935000Y-117226000D03*
D11*
X87475000Y-117226000D03*
X64516000Y-73660000D03*
D12*
X61976000Y-73660000D03*
X64516000Y-76200000D03*
X61976000Y-76200000D03*
X64516000Y-78740000D03*
X61976000Y-78740000D03*
X64516000Y-81280000D03*
X61976000Y-81280000D03*
X64516000Y-83820000D03*
X61976000Y-83820000D03*
X64516000Y-86360000D03*
X61976000Y-86360000D03*
X64516000Y-88900000D03*
X61976000Y-88900000D03*
X64516000Y-91440000D03*
X61976000Y-91440000D03*
X64516000Y-93980000D03*
X61976000Y-93980000D03*
X64516000Y-96520000D03*
X61976000Y-96520000D03*
X64516000Y-99060000D03*
X61976000Y-99060000D03*
X64516000Y-101600000D03*
X61976000Y-101600000D03*
X64516000Y-104140000D03*
X61976000Y-104140000D03*
X64516000Y-106680000D03*
X61976000Y-106680000D03*
X64516000Y-109220000D03*
X61976000Y-109220000D03*
D13*
X66802000Y-105664000D03*
X88392000Y-93980000D03*
X83820000Y-95250000D03*
X82042000Y-73152000D03*
X75692000Y-116078000D03*
X125730000Y-79756000D03*
X125729994Y-73660000D03*
X78250000Y-115750000D03*
X123698000Y-80772000D03*
X81788000Y-79502000D03*
X85344000Y-87122000D03*
X82041986Y-101335000D03*
X79248000Y-79502000D03*
X78993996Y-101335000D03*
X82804000Y-87122000D03*
X101853998Y-104394000D03*
X75173778Y-99510000D03*
X74163347Y-100325347D03*
X73147347Y-101595347D03*
X72644000Y-102870000D03*
D14*
X75692000Y-116078000D02*
X77724000Y-114046000D01*
X77724000Y-114046000D02*
X77724000Y-103886000D01*
X77724000Y-103886000D02*
X78867000Y-102743000D01*
X78867000Y-102743000D02*
X78867000Y-101461996D01*
X78867000Y-101461996D02*
X78993996Y-101335000D01*
X81268996Y-99060000D02*
X78993996Y-101335000D01*
X81280000Y-99060000D02*
X81268996Y-99060000D01*
X81280000Y-99060000D02*
X81280000Y-95250000D01*
X82804000Y-93726000D02*
X82804000Y-87122000D01*
X81280000Y-95250000D02*
X82804000Y-93726000D01*
X82804000Y-85598000D02*
X82804000Y-87122000D01*
X82550000Y-85344000D02*
X82804000Y-85598000D01*
X82550000Y-85344000D02*
X80010000Y-82804000D01*
X80010000Y-80264000D02*
X79248000Y-79502000D01*
X80010000Y-80772000D02*
X80010000Y-80264000D01*
X80010000Y-82804000D02*
X80010000Y-80772000D01*
X124714000Y-79756000D02*
X125730000Y-79756000D01*
X122682000Y-77724000D02*
X124714000Y-79756000D01*
X122682000Y-77216000D02*
X122682000Y-77724000D01*
X117075000Y-64655000D02*
X125729994Y-73309994D01*
X125729994Y-73309994D02*
X125729994Y-73660000D01*
X78232000Y-117348000D02*
X78232000Y-115768000D01*
X78232000Y-115768000D02*
X78250000Y-115750000D01*
X81026000Y-120142000D02*
X78232000Y-117348000D01*
X111506000Y-120142000D02*
X81026000Y-120142000D01*
X122682000Y-112776000D02*
X115316000Y-120142000D01*
X123698000Y-111760000D02*
X122682000Y-112776000D01*
X123698000Y-80772000D02*
X123698000Y-111760000D01*
X115316000Y-120142000D02*
X111506000Y-120142000D01*
X122682000Y-72802000D02*
X122682000Y-77216000D01*
X117075000Y-67195000D02*
X122682000Y-72802000D01*
G04 #@! TA.AperFunction,Conductor*
G36*
X125218129Y-62009522D02*
G01*
X125415911Y-62018157D01*
X125420841Y-62018571D01*
X125637074Y-62045524D01*
X125837291Y-62071884D01*
X125841837Y-62072659D01*
X126054348Y-62117218D01*
X126252497Y-62161147D01*
X126256758Y-62162251D01*
X126464640Y-62224141D01*
X126658652Y-62285313D01*
X126662484Y-62286663D01*
X126864515Y-62365495D01*
X127052737Y-62443459D01*
X127056227Y-62445032D01*
X127251080Y-62540291D01*
X127431966Y-62634454D01*
X127435072Y-62636185D01*
X127621450Y-62747242D01*
X127793637Y-62856938D01*
X127796318Y-62858747D01*
X127972970Y-62984874D01*
X128135063Y-63109252D01*
X128137391Y-63111129D01*
X128177502Y-63145101D01*
X128303103Y-63251479D01*
X128454870Y-63390549D01*
X128609446Y-63545125D01*
X128705264Y-63649692D01*
X128748534Y-63696913D01*
X128888850Y-63862586D01*
X128890726Y-63864913D01*
X129015136Y-64027044D01*
X129141237Y-64203659D01*
X129143043Y-64206335D01*
X129220993Y-64328691D01*
X129252774Y-64378578D01*
X129363803Y-64564911D01*
X129365537Y-64568020D01*
X129459728Y-64748959D01*
X129554955Y-64943749D01*
X129556536Y-64947254D01*
X129634516Y-65135518D01*
X129686864Y-65269672D01*
X129709430Y-65327504D01*
X129713317Y-65337464D01*
X129714689Y-65341359D01*
X129775879Y-65535429D01*
X129837739Y-65743214D01*
X129838847Y-65747486D01*
X129882809Y-65945781D01*
X129927326Y-66158101D01*
X129928115Y-66162733D01*
X129954514Y-66363243D01*
X129981423Y-66579127D01*
X129981840Y-66584093D01*
X129990504Y-66782511D01*
X129999500Y-67000000D01*
X129999500Y-117000000D01*
X129990495Y-117217706D01*
X129981842Y-117415892D01*
X129981425Y-117420859D01*
X129954488Y-117636964D01*
X129932536Y-117803710D01*
X129928589Y-117833700D01*
X129928123Y-117837236D01*
X129927333Y-117841869D01*
X129882781Y-118054348D01*
X129838851Y-118252498D01*
X129837743Y-118256770D01*
X129775862Y-118464627D01*
X129714694Y-118658626D01*
X129713322Y-118662521D01*
X129634501Y-118864523D01*
X129556542Y-119052730D01*
X129554962Y-119056234D01*
X129459713Y-119251072D01*
X129365544Y-119431966D01*
X129363811Y-119435074D01*
X129252759Y-119621446D01*
X129143069Y-119793624D01*
X129141237Y-119796339D01*
X129015125Y-119972970D01*
X128890746Y-120135064D01*
X128888869Y-120137391D01*
X128748525Y-120303097D01*
X128609450Y-120454870D01*
X128454873Y-120609448D01*
X128303086Y-120748534D01*
X128137412Y-120888850D01*
X128135085Y-120890726D01*
X127972951Y-121015139D01*
X127796353Y-121141228D01*
X127793638Y-121143060D01*
X127621421Y-121252774D01*
X127435087Y-121363803D01*
X127431978Y-121365537D01*
X127251040Y-121459728D01*
X127056249Y-121554955D01*
X127052745Y-121556535D01*
X126864481Y-121634516D01*
X126662534Y-121713317D01*
X126658639Y-121714689D01*
X126464570Y-121775879D01*
X126256784Y-121837739D01*
X126252512Y-121838847D01*
X126054218Y-121882809D01*
X125841896Y-121927326D01*
X125837265Y-121928115D01*
X125636756Y-121954514D01*
X125420871Y-121981423D01*
X125415905Y-121981840D01*
X125217488Y-121990504D01*
X125000000Y-121999500D01*
X78059838Y-121999500D01*
X77992799Y-121979815D01*
X77963010Y-121952962D01*
X77011529Y-120763609D01*
X77007452Y-120756691D01*
X77000249Y-120749482D01*
X76990094Y-120748366D01*
X76982178Y-120749500D01*
X73017822Y-120749500D01*
X73009960Y-120748374D01*
X72999752Y-120749482D01*
X72992841Y-120756365D01*
X72988742Y-120763268D01*
X72036990Y-121952962D01*
X71979740Y-121993014D01*
X71940162Y-121999500D01*
X65000000Y-121999500D01*
X64782293Y-121990495D01*
X64584106Y-121981842D01*
X64579139Y-121981425D01*
X64363035Y-121954488D01*
X64239608Y-121938239D01*
X64162750Y-121928121D01*
X64158129Y-121927333D01*
X63945651Y-121882781D01*
X63747500Y-121838851D01*
X63743228Y-121837743D01*
X63535372Y-121775862D01*
X63341372Y-121714694D01*
X63337477Y-121713322D01*
X63337464Y-121713317D01*
X63135477Y-121634501D01*
X62947268Y-121556542D01*
X62943764Y-121554962D01*
X62817778Y-121493372D01*
X62748923Y-121459711D01*
X62691765Y-121429956D01*
X62568032Y-121365544D01*
X62564924Y-121363811D01*
X62378553Y-121252759D01*
X62206374Y-121143069D01*
X62203659Y-121141237D01*
X62203646Y-121141228D01*
X62108270Y-121073130D01*
X62027029Y-121015125D01*
X61864935Y-120890746D01*
X61862607Y-120888869D01*
X61735685Y-120781372D01*
X61696897Y-120748521D01*
X61696737Y-120748374D01*
X61545127Y-120609448D01*
X61474589Y-120538910D01*
X61390549Y-120454870D01*
X61251464Y-120303085D01*
X61111148Y-120137412D01*
X61109272Y-120135085D01*
X60984860Y-119972951D01*
X60858738Y-119796306D01*
X60856967Y-119793681D01*
X60747222Y-119621416D01*
X60699338Y-119541055D01*
X72729500Y-119541055D01*
X72770210Y-119706226D01*
X72849263Y-119856849D01*
X72849266Y-119856852D01*
X72962071Y-119984183D01*
X73052318Y-120046476D01*
X73102068Y-120080817D01*
X73102069Y-120080817D01*
X73102070Y-120080818D01*
X73203358Y-120119230D01*
X73251242Y-120137391D01*
X73261128Y-120141140D01*
X73337028Y-120150356D01*
X73387626Y-120156500D01*
X73387628Y-120156500D01*
X73472374Y-120156500D01*
X73514538Y-120151380D01*
X73598872Y-120141140D01*
X73757930Y-120080818D01*
X73897929Y-119984183D01*
X74010734Y-119856852D01*
X74089790Y-119706225D01*
X74130500Y-119541056D01*
X74130500Y-119541055D01*
X75729500Y-119541055D01*
X75770210Y-119706226D01*
X75849263Y-119856849D01*
X75849266Y-119856852D01*
X75962071Y-119984183D01*
X76052318Y-120046476D01*
X76102068Y-120080817D01*
X76102069Y-120080817D01*
X76102070Y-120080818D01*
X76203358Y-120119230D01*
X76251242Y-120137391D01*
X76261128Y-120141140D01*
X76337028Y-120150356D01*
X76387626Y-120156500D01*
X76387628Y-120156500D01*
X76472374Y-120156500D01*
X76514538Y-120151380D01*
X76598872Y-120141140D01*
X76757930Y-120080818D01*
X76897929Y-119984183D01*
X77010734Y-119856852D01*
X77089790Y-119706225D01*
X77130500Y-119541056D01*
X77130500Y-119370944D01*
X77089790Y-119205775D01*
X77085751Y-119198080D01*
X77010736Y-119055150D01*
X76969209Y-119008276D01*
X76897929Y-118927817D01*
X76848177Y-118893475D01*
X76757931Y-118831182D01*
X76598874Y-118770860D01*
X76598868Y-118770859D01*
X76472374Y-118755500D01*
X76472372Y-118755500D01*
X76387628Y-118755500D01*
X76387626Y-118755500D01*
X76261131Y-118770859D01*
X76261125Y-118770860D01*
X76102068Y-118831182D01*
X75962072Y-118927816D01*
X75849263Y-119055150D01*
X75770210Y-119205773D01*
X75729500Y-119370944D01*
X75729500Y-119541055D01*
X74130500Y-119541055D01*
X74130500Y-119370944D01*
X74089790Y-119205775D01*
X74085751Y-119198080D01*
X74010736Y-119055150D01*
X73969209Y-119008276D01*
X73897929Y-118927817D01*
X73848177Y-118893475D01*
X73757931Y-118831182D01*
X73598874Y-118770860D01*
X73598868Y-118770859D01*
X73472374Y-118755500D01*
X73472372Y-118755500D01*
X73387628Y-118755500D01*
X73387626Y-118755500D01*
X73261131Y-118770859D01*
X73261125Y-118770860D01*
X73102068Y-118831182D01*
X72962072Y-118927816D01*
X72849263Y-119055150D01*
X72770210Y-119205773D01*
X72729500Y-119370944D01*
X72729500Y-119541055D01*
X60699338Y-119541055D01*
X60636195Y-119435087D01*
X60634461Y-119431978D01*
X60611914Y-119388666D01*
X60540280Y-119251058D01*
X60445030Y-119056221D01*
X60443475Y-119052773D01*
X60399404Y-118946376D01*
X60365483Y-118864481D01*
X60328951Y-118770859D01*
X60286667Y-118662495D01*
X60285316Y-118658658D01*
X60224136Y-118464623D01*
X60162254Y-118256768D01*
X60161151Y-118252512D01*
X60146609Y-118186917D01*
X60117200Y-118054266D01*
X60072671Y-117841894D01*
X60071885Y-117837288D01*
X60045489Y-117636793D01*
X60018574Y-117420859D01*
X60018158Y-117415904D01*
X60009504Y-117217706D01*
X60000500Y-117000000D01*
X62694564Y-117000000D01*
X62713789Y-117293328D01*
X62714287Y-117300918D01*
X62714288Y-117300930D01*
X62773118Y-117596683D01*
X62773122Y-117596698D01*
X62870053Y-117882247D01*
X62870062Y-117882268D01*
X63003431Y-118152713D01*
X63003435Y-118152720D01*
X63170973Y-118403459D01*
X63369810Y-118630189D01*
X63596540Y-118829026D01*
X63847279Y-118996564D01*
X63847286Y-118996568D01*
X64117731Y-119129937D01*
X64117736Y-119129939D01*
X64117748Y-119129945D01*
X64403309Y-119226880D01*
X64603251Y-119266651D01*
X64699069Y-119285711D01*
X64699070Y-119285711D01*
X64699080Y-119285713D01*
X65000000Y-119305436D01*
X65300920Y-119285713D01*
X65596691Y-119226880D01*
X65882252Y-119129945D01*
X66152718Y-118996566D01*
X66403461Y-118829025D01*
X66630189Y-118630189D01*
X66829025Y-118403461D01*
X66996566Y-118152718D01*
X67129945Y-117882252D01*
X67226880Y-117596691D01*
X67285713Y-117300920D01*
X67305436Y-117000000D01*
X67285713Y-116699080D01*
X67226880Y-116403309D01*
X67129945Y-116117748D01*
X67110343Y-116078000D01*
X74786540Y-116078000D01*
X74806326Y-116266256D01*
X74806327Y-116266259D01*
X74864818Y-116446277D01*
X74864821Y-116446284D01*
X74959467Y-116610216D01*
X75039471Y-116699069D01*
X75086129Y-116750888D01*
X75239265Y-116862148D01*
X75239270Y-116862151D01*
X75412192Y-116939142D01*
X75412197Y-116939144D01*
X75597354Y-116978500D01*
X75597355Y-116978500D01*
X75786644Y-116978500D01*
X75786646Y-116978500D01*
X75971803Y-116939144D01*
X76144730Y-116862151D01*
X76297871Y-116750888D01*
X76424533Y-116610216D01*
X76519179Y-116446284D01*
X76574522Y-116275955D01*
X76604769Y-116226597D01*
X77135684Y-115695682D01*
X77197005Y-115662199D01*
X77266697Y-115667183D01*
X77322630Y-115709055D01*
X77346684Y-115770403D01*
X77364326Y-115938256D01*
X77364327Y-115938259D01*
X77422818Y-116118277D01*
X77422821Y-116118284D01*
X77462786Y-116187506D01*
X77464887Y-116191144D01*
X77481500Y-116253144D01*
X77481500Y-117284294D01*
X77480191Y-117302263D01*
X77476710Y-117326025D01*
X77481264Y-117378064D01*
X77481500Y-117383470D01*
X77481500Y-117391709D01*
X77485306Y-117424274D01*
X77492000Y-117500791D01*
X77493461Y-117507867D01*
X77493403Y-117507878D01*
X77495034Y-117515237D01*
X77495092Y-117515224D01*
X77496757Y-117522250D01*
X77523025Y-117594424D01*
X77547185Y-117667331D01*
X77550236Y-117673874D01*
X77550182Y-117673898D01*
X77553470Y-117680688D01*
X77553521Y-117680663D01*
X77556761Y-117687113D01*
X77556762Y-117687114D01*
X77556763Y-117687117D01*
X77563942Y-117698032D01*
X77598965Y-117751283D01*
X77639287Y-117816655D01*
X77643766Y-117822319D01*
X77643719Y-117822356D01*
X77648482Y-117828202D01*
X77648528Y-117828164D01*
X77653173Y-117833700D01*
X77709018Y-117886386D01*
X80450267Y-120627634D01*
X80462048Y-120641266D01*
X80476390Y-120660530D01*
X80516420Y-120694119D01*
X80520392Y-120697759D01*
X80526224Y-120703591D01*
X80526227Y-120703594D01*
X80551947Y-120723931D01*
X80610788Y-120773304D01*
X80616818Y-120777270D01*
X80616785Y-120777319D01*
X80623147Y-120781372D01*
X80623179Y-120781321D01*
X80629319Y-120785108D01*
X80629323Y-120785111D01*
X80664132Y-120801342D01*
X80698941Y-120817575D01*
X80717336Y-120826813D01*
X80767567Y-120852040D01*
X80767569Y-120852040D01*
X80774357Y-120854511D01*
X80774336Y-120854567D01*
X80781455Y-120857042D01*
X80781474Y-120856986D01*
X80788329Y-120859258D01*
X80863561Y-120874790D01*
X80863562Y-120874791D01*
X80938279Y-120892500D01*
X80938289Y-120892500D01*
X80945452Y-120893338D01*
X80945444Y-120893397D01*
X80952945Y-120894164D01*
X80952951Y-120894105D01*
X80960140Y-120894734D01*
X80960144Y-120894733D01*
X80960145Y-120894734D01*
X81036918Y-120892500D01*
X111418279Y-120892500D01*
X115252295Y-120892500D01*
X115270265Y-120893809D01*
X115294023Y-120897289D01*
X115346068Y-120892735D01*
X115351470Y-120892500D01*
X115359704Y-120892500D01*
X115359709Y-120892500D01*
X115374884Y-120890726D01*
X115392276Y-120888693D01*
X115405028Y-120887577D01*
X115468797Y-120881999D01*
X115468805Y-120881996D01*
X115475866Y-120880539D01*
X115475878Y-120880598D01*
X115483243Y-120878965D01*
X115483229Y-120878906D01*
X115490246Y-120877241D01*
X115490255Y-120877241D01*
X115562423Y-120850974D01*
X115635334Y-120826814D01*
X115635343Y-120826807D01*
X115641882Y-120823760D01*
X115641908Y-120823816D01*
X115648690Y-120820532D01*
X115648663Y-120820478D01*
X115655106Y-120817240D01*
X115655117Y-120817237D01*
X115719283Y-120775034D01*
X115784656Y-120734712D01*
X115784662Y-120734705D01*
X115790325Y-120730229D01*
X115790362Y-120730277D01*
X115796204Y-120725518D01*
X115796164Y-120725471D01*
X115801691Y-120720832D01*
X115801696Y-120720830D01*
X115854386Y-120664981D01*
X119519366Y-117000000D01*
X122694564Y-117000000D01*
X122713789Y-117293328D01*
X122714287Y-117300918D01*
X122714288Y-117300930D01*
X122773118Y-117596683D01*
X122773122Y-117596698D01*
X122870053Y-117882247D01*
X122870062Y-117882268D01*
X123003431Y-118152713D01*
X123003435Y-118152720D01*
X123170973Y-118403459D01*
X123369810Y-118630189D01*
X123596540Y-118829026D01*
X123847279Y-118996564D01*
X123847286Y-118996568D01*
X124117731Y-119129937D01*
X124117736Y-119129939D01*
X124117748Y-119129945D01*
X124403309Y-119226880D01*
X124603251Y-119266651D01*
X124699069Y-119285711D01*
X124699070Y-119285711D01*
X124699080Y-119285713D01*
X125000000Y-119305436D01*
X125300920Y-119285713D01*
X125596691Y-119226880D01*
X125882252Y-119129945D01*
X126152718Y-118996566D01*
X126403461Y-118829025D01*
X126630189Y-118630189D01*
X126829025Y-118403461D01*
X126996566Y-118152718D01*
X127129945Y-117882252D01*
X127226880Y-117596691D01*
X127285713Y-117300920D01*
X127305436Y-117000000D01*
X127285713Y-116699080D01*
X127226880Y-116403309D01*
X127129945Y-116117748D01*
X127110343Y-116078000D01*
X126996568Y-115847286D01*
X126996564Y-115847279D01*
X126829026Y-115596540D01*
X126630189Y-115369810D01*
X126403459Y-115170973D01*
X126152720Y-115003435D01*
X126152713Y-115003431D01*
X125882268Y-114870062D01*
X125882247Y-114870053D01*
X125596698Y-114773122D01*
X125596692Y-114773120D01*
X125596691Y-114773120D01*
X125596689Y-114773119D01*
X125596683Y-114773118D01*
X125300930Y-114714288D01*
X125300921Y-114714287D01*
X125300920Y-114714287D01*
X125000000Y-114694564D01*
X124999999Y-114694564D01*
X124849539Y-114704425D01*
X124699080Y-114714287D01*
X124699079Y-114714287D01*
X124699069Y-114714288D01*
X124403316Y-114773118D01*
X124403301Y-114773122D01*
X124117752Y-114870053D01*
X124117731Y-114870062D01*
X123847286Y-115003431D01*
X123847279Y-115003435D01*
X123596540Y-115170973D01*
X123369810Y-115369810D01*
X123170973Y-115596540D01*
X123003435Y-115847279D01*
X123003431Y-115847286D01*
X122870062Y-116117731D01*
X122870053Y-116117752D01*
X122773122Y-116403301D01*
X122773118Y-116403316D01*
X122714288Y-116699069D01*
X122714287Y-116699079D01*
X122714287Y-116699080D01*
X122694564Y-117000000D01*
X119519366Y-117000000D01*
X123140446Y-113378919D01*
X123140451Y-113378916D01*
X123150654Y-113368712D01*
X123150656Y-113368712D01*
X124183642Y-112335724D01*
X124197271Y-112323947D01*
X124216530Y-112309610D01*
X124250101Y-112269601D01*
X124253761Y-112265606D01*
X124259590Y-112259778D01*
X124279941Y-112234039D01*
X124290601Y-112221335D01*
X124329302Y-112175214D01*
X124329306Y-112175205D01*
X124333274Y-112169175D01*
X124333325Y-112169208D01*
X124337372Y-112162856D01*
X124337320Y-112162824D01*
X124341112Y-112156675D01*
X124373575Y-112087058D01*
X124408036Y-112018440D01*
X124408040Y-112018433D01*
X124408042Y-112018421D01*
X124410509Y-112011646D01*
X124410567Y-112011667D01*
X124413043Y-112004546D01*
X124412986Y-112004528D01*
X124415257Y-111997673D01*
X124430792Y-111922434D01*
X124448500Y-111847721D01*
X124448500Y-111847710D01*
X124449338Y-111840548D01*
X124449398Y-111840555D01*
X124450164Y-111833055D01*
X124450105Y-111833050D01*
X124450734Y-111825860D01*
X124448500Y-111749083D01*
X124448500Y-81306321D01*
X124465113Y-81244321D01*
X124525179Y-81140284D01*
X124583674Y-80960256D01*
X124603460Y-80772000D01*
X124589990Y-80643846D01*
X124602559Y-80575122D01*
X124650291Y-80524098D01*
X124709703Y-80506942D01*
X124724237Y-80506519D01*
X124724918Y-80506500D01*
X125190663Y-80506500D01*
X125257702Y-80526185D01*
X125263548Y-80530182D01*
X125277265Y-80540148D01*
X125277270Y-80540151D01*
X125450192Y-80617142D01*
X125450197Y-80617144D01*
X125635354Y-80656500D01*
X125635355Y-80656500D01*
X125824644Y-80656500D01*
X125824646Y-80656500D01*
X126009803Y-80617144D01*
X126182730Y-80540151D01*
X126335871Y-80428888D01*
X126462533Y-80288216D01*
X126557179Y-80124284D01*
X126615674Y-79944256D01*
X126635460Y-79756000D01*
X126615674Y-79567744D01*
X126557179Y-79387716D01*
X126462533Y-79223784D01*
X126335871Y-79083112D01*
X126335870Y-79083111D01*
X126182734Y-78971851D01*
X126182729Y-78971848D01*
X126009807Y-78894857D01*
X126009802Y-78894855D01*
X125864001Y-78863865D01*
X125824646Y-78855500D01*
X125635354Y-78855500D01*
X125602897Y-78862398D01*
X125450197Y-78894855D01*
X125450192Y-78894857D01*
X125277270Y-78971848D01*
X125277265Y-78971851D01*
X125263548Y-78981818D01*
X125197742Y-79005298D01*
X125190663Y-79005500D01*
X125076229Y-79005500D01*
X125009190Y-78985815D01*
X124988548Y-78969181D01*
X123468819Y-77449451D01*
X123435334Y-77388128D01*
X123432500Y-77361770D01*
X123432500Y-72865705D01*
X123433809Y-72847735D01*
X123437289Y-72823974D01*
X123432736Y-72771939D01*
X123432500Y-72766532D01*
X123432500Y-72758297D01*
X123432500Y-72758296D01*
X123432500Y-72758291D01*
X123428691Y-72725707D01*
X123421998Y-72649202D01*
X123421996Y-72649197D01*
X123420538Y-72642133D01*
X123420597Y-72642120D01*
X123418967Y-72634764D01*
X123418908Y-72634779D01*
X123417242Y-72627753D01*
X123417241Y-72627745D01*
X123390973Y-72555573D01*
X123376007Y-72510408D01*
X123366815Y-72482666D01*
X123363763Y-72476121D01*
X123363817Y-72476095D01*
X123360533Y-72469312D01*
X123360480Y-72469340D01*
X123357238Y-72462885D01*
X123350378Y-72452455D01*
X123315029Y-72398709D01*
X123274711Y-72333344D01*
X123274710Y-72333343D01*
X123274709Y-72333341D01*
X123270233Y-72327681D01*
X123270280Y-72327643D01*
X123265519Y-72321799D01*
X123265474Y-72321838D01*
X123260834Y-72316308D01*
X123204964Y-72263596D01*
X118447869Y-67506501D01*
X118414384Y-67445178D01*
X118412022Y-67408013D01*
X118412998Y-67396860D01*
X118417375Y-67346823D01*
X118442827Y-67281757D01*
X118499418Y-67240778D01*
X118569180Y-67236900D01*
X118628584Y-67269952D01*
X124801171Y-73442539D01*
X124834656Y-73503862D01*
X124836811Y-73543180D01*
X124825945Y-73646575D01*
X124824534Y-73660000D01*
X124844320Y-73848256D01*
X124844321Y-73848259D01*
X124902812Y-74028277D01*
X124902815Y-74028284D01*
X124997461Y-74192216D01*
X125113083Y-74320627D01*
X125124123Y-74332888D01*
X125277259Y-74444148D01*
X125277264Y-74444151D01*
X125450186Y-74521142D01*
X125450191Y-74521144D01*
X125635348Y-74560500D01*
X125635349Y-74560500D01*
X125824638Y-74560500D01*
X125824640Y-74560500D01*
X126009797Y-74521144D01*
X126182724Y-74444151D01*
X126335865Y-74332888D01*
X126462527Y-74192216D01*
X126557173Y-74028284D01*
X126615668Y-73848256D01*
X126635454Y-73660000D01*
X126615668Y-73471744D01*
X126557173Y-73291716D01*
X126467442Y-73136298D01*
X126458309Y-73116710D01*
X126438968Y-73063570D01*
X126422984Y-73015335D01*
X126414808Y-72990660D01*
X126414803Y-72990653D01*
X126411754Y-72984112D01*
X126411809Y-72984085D01*
X126408527Y-72977307D01*
X126408474Y-72977334D01*
X126405229Y-72970874D01*
X126363022Y-72906702D01*
X126322704Y-72841336D01*
X126318228Y-72835676D01*
X126318275Y-72835638D01*
X126313513Y-72829793D01*
X126313468Y-72829832D01*
X126308828Y-72824302D01*
X126308480Y-72823974D01*
X126298522Y-72814578D01*
X126252958Y-72771590D01*
X120481368Y-67000000D01*
X122694564Y-67000000D01*
X122708985Y-67220032D01*
X122714287Y-67300918D01*
X122714288Y-67300930D01*
X122773118Y-67596683D01*
X122773122Y-67596698D01*
X122870053Y-67882247D01*
X122870062Y-67882268D01*
X123003431Y-68152713D01*
X123003435Y-68152720D01*
X123170973Y-68403459D01*
X123369810Y-68630189D01*
X123596540Y-68829026D01*
X123847279Y-68996564D01*
X123847286Y-68996568D01*
X124117731Y-69129937D01*
X124117736Y-69129939D01*
X124117748Y-69129945D01*
X124403309Y-69226880D01*
X124603251Y-69266651D01*
X124699069Y-69285711D01*
X124699070Y-69285711D01*
X124699080Y-69285713D01*
X125000000Y-69305436D01*
X125300920Y-69285713D01*
X125596691Y-69226880D01*
X125882252Y-69129945D01*
X126152718Y-68996566D01*
X126403461Y-68829025D01*
X126630189Y-68630189D01*
X126829025Y-68403461D01*
X126996566Y-68152718D01*
X127129945Y-67882252D01*
X127226880Y-67596691D01*
X127285713Y-67300920D01*
X127305436Y-67000000D01*
X127285713Y-66699080D01*
X127282411Y-66682482D01*
X127265288Y-66596396D01*
X127226880Y-66403309D01*
X127129945Y-66117748D01*
X127126258Y-66110272D01*
X126996568Y-65847286D01*
X126996564Y-65847279D01*
X126829026Y-65596540D01*
X126630189Y-65369810D01*
X126403459Y-65170973D01*
X126152720Y-65003435D01*
X126152713Y-65003431D01*
X125882268Y-64870062D01*
X125882247Y-64870053D01*
X125596698Y-64773122D01*
X125596692Y-64773120D01*
X125596691Y-64773120D01*
X125596689Y-64773119D01*
X125596683Y-64773118D01*
X125300930Y-64714288D01*
X125300921Y-64714287D01*
X125300920Y-64714287D01*
X125000000Y-64694564D01*
X124999999Y-64694564D01*
X124849540Y-64704425D01*
X124699080Y-64714287D01*
X124699079Y-64714287D01*
X124699069Y-64714288D01*
X124403316Y-64773118D01*
X124403301Y-64773122D01*
X124117752Y-64870053D01*
X124117731Y-64870062D01*
X123847286Y-65003431D01*
X123847279Y-65003435D01*
X123596540Y-65170973D01*
X123369810Y-65369810D01*
X123170973Y-65596540D01*
X123003435Y-65847279D01*
X123003431Y-65847286D01*
X122870062Y-66117731D01*
X122870053Y-66117752D01*
X122773122Y-66403301D01*
X122773118Y-66403316D01*
X122714288Y-66699069D01*
X122714287Y-66699079D01*
X122714287Y-66699080D01*
X122694564Y-67000000D01*
X120481368Y-67000000D01*
X118447869Y-64966501D01*
X118414384Y-64905178D01*
X118412022Y-64868012D01*
X118413284Y-64853597D01*
X118430659Y-64655000D01*
X118410063Y-64419592D01*
X118348903Y-64191337D01*
X118249035Y-63977171D01*
X118229456Y-63949208D01*
X118113494Y-63783597D01*
X117946402Y-63616506D01*
X117946395Y-63616501D01*
X117943297Y-63614332D01*
X117905040Y-63587544D01*
X117752834Y-63480967D01*
X117752830Y-63480965D01*
X117751908Y-63480535D01*
X117538663Y-63381097D01*
X117538659Y-63381096D01*
X117538655Y-63381094D01*
X117310413Y-63319938D01*
X117310403Y-63319936D01*
X117075001Y-63299341D01*
X117074999Y-63299341D01*
X116839596Y-63319936D01*
X116839586Y-63319938D01*
X116611344Y-63381094D01*
X116611335Y-63381098D01*
X116397171Y-63480964D01*
X116397169Y-63480965D01*
X116203597Y-63616505D01*
X116036505Y-63783597D01*
X115900965Y-63977169D01*
X115900964Y-63977171D01*
X115801098Y-64191335D01*
X115801094Y-64191344D01*
X115739938Y-64419586D01*
X115739936Y-64419596D01*
X115719341Y-64654999D01*
X115719341Y-64655000D01*
X115739936Y-64890403D01*
X115739938Y-64890413D01*
X115801094Y-65118655D01*
X115801096Y-65118659D01*
X115801097Y-65118663D01*
X115871514Y-65269672D01*
X115900965Y-65332830D01*
X115900967Y-65332834D01*
X116036501Y-65526395D01*
X116036506Y-65526402D01*
X116203597Y-65693493D01*
X116203603Y-65693498D01*
X116389158Y-65823425D01*
X116432783Y-65878002D01*
X116439977Y-65947500D01*
X116408454Y-66009855D01*
X116389158Y-66026575D01*
X116203597Y-66156505D01*
X116036505Y-66323597D01*
X115900965Y-66517169D01*
X115900964Y-66517171D01*
X115801098Y-66731335D01*
X115801094Y-66731344D01*
X115739938Y-66959586D01*
X115739936Y-66959596D01*
X115719341Y-67194999D01*
X115719341Y-67195000D01*
X115739936Y-67430403D01*
X115739938Y-67430413D01*
X115801094Y-67658655D01*
X115801096Y-67658659D01*
X115801097Y-67658663D01*
X115888295Y-67845660D01*
X115900965Y-67872830D01*
X115900967Y-67872834D01*
X115956422Y-67952031D01*
X116036501Y-68066396D01*
X116036506Y-68066402D01*
X116158430Y-68188326D01*
X116191915Y-68249649D01*
X116186931Y-68319341D01*
X116145059Y-68375274D01*
X116114083Y-68392189D01*
X115982669Y-68441203D01*
X115982664Y-68441206D01*
X115867455Y-68527452D01*
X115867452Y-68527455D01*
X115781206Y-68642664D01*
X115781202Y-68642671D01*
X115730908Y-68777517D01*
X115725371Y-68829025D01*
X115724501Y-68837123D01*
X115724500Y-68837135D01*
X115724500Y-70632870D01*
X115724501Y-70632876D01*
X115730908Y-70692483D01*
X115781202Y-70827328D01*
X115781206Y-70827335D01*
X115867452Y-70942544D01*
X115867455Y-70942547D01*
X115982664Y-71028793D01*
X115982671Y-71028797D01*
X116114081Y-71077810D01*
X116170015Y-71119681D01*
X116194432Y-71185145D01*
X116179580Y-71253418D01*
X116158430Y-71281673D01*
X116036503Y-71403600D01*
X115900965Y-71597169D01*
X115900964Y-71597171D01*
X115801098Y-71811335D01*
X115801094Y-71811344D01*
X115739938Y-72039586D01*
X115739936Y-72039596D01*
X115719341Y-72274999D01*
X115719341Y-72275000D01*
X115739936Y-72510403D01*
X115739938Y-72510413D01*
X115801094Y-72738655D01*
X115801096Y-72738659D01*
X115801097Y-72738663D01*
X115856125Y-72856671D01*
X115900965Y-72952830D01*
X115900967Y-72952834D01*
X116036501Y-73146395D01*
X116036506Y-73146402D01*
X116203597Y-73313493D01*
X116203603Y-73313498D01*
X116389594Y-73443730D01*
X116433219Y-73498307D01*
X116440413Y-73567805D01*
X116408890Y-73630160D01*
X116389595Y-73646880D01*
X116203922Y-73776890D01*
X116203920Y-73776891D01*
X116036891Y-73943920D01*
X116036886Y-73943926D01*
X115901400Y-74137420D01*
X115901399Y-74137422D01*
X115801570Y-74351507D01*
X115801567Y-74351513D01*
X115744364Y-74564999D01*
X115744364Y-74565000D01*
X116451231Y-74565000D01*
X116518270Y-74584685D01*
X116564025Y-74637489D01*
X116573969Y-74706647D01*
X116570208Y-74723936D01*
X116565000Y-74741672D01*
X116565000Y-74888327D01*
X116570208Y-74906064D01*
X116570208Y-74975934D01*
X116532434Y-75034712D01*
X116468879Y-75063738D01*
X116451231Y-75065000D01*
X115744364Y-75065000D01*
X115801567Y-75278486D01*
X115801570Y-75278492D01*
X115901399Y-75492578D01*
X116036894Y-75686082D01*
X116203917Y-75853105D01*
X116389595Y-75983119D01*
X116433219Y-76037696D01*
X116440412Y-76107195D01*
X116408890Y-76169549D01*
X116389595Y-76186269D01*
X116203594Y-76316508D01*
X116036505Y-76483597D01*
X115900965Y-76677169D01*
X115900964Y-76677171D01*
X115801098Y-76891335D01*
X115801094Y-76891344D01*
X115739938Y-77119586D01*
X115739936Y-77119596D01*
X115719341Y-77354999D01*
X115719341Y-77355000D01*
X115739936Y-77590403D01*
X115739938Y-77590413D01*
X115801094Y-77818655D01*
X115801096Y-77818659D01*
X115801097Y-77818663D01*
X115871864Y-77970423D01*
X115900965Y-78032830D01*
X115900967Y-78032834D01*
X116009281Y-78187521D01*
X116020934Y-78204164D01*
X116036501Y-78226395D01*
X116036506Y-78226402D01*
X116203597Y-78393493D01*
X116203603Y-78393498D01*
X116389158Y-78523425D01*
X116432783Y-78578002D01*
X116439977Y-78647500D01*
X116408454Y-78709855D01*
X116389158Y-78726575D01*
X116203597Y-78856505D01*
X116036505Y-79023597D01*
X115900965Y-79217169D01*
X115900964Y-79217171D01*
X115801098Y-79431335D01*
X115801094Y-79431344D01*
X115739938Y-79659586D01*
X115739936Y-79659596D01*
X115719341Y-79894999D01*
X115719341Y-79895000D01*
X115739936Y-80130403D01*
X115739938Y-80130413D01*
X115801094Y-80358655D01*
X115801096Y-80358659D01*
X115801097Y-80358663D01*
X115900964Y-80572829D01*
X115900965Y-80572830D01*
X115900967Y-80572834D01*
X116009281Y-80727521D01*
X116036501Y-80766396D01*
X116036506Y-80766402D01*
X116158430Y-80888326D01*
X116191915Y-80949649D01*
X116186931Y-81019341D01*
X116145059Y-81075274D01*
X116114083Y-81092189D01*
X115982669Y-81141203D01*
X115982664Y-81141206D01*
X115867455Y-81227452D01*
X115867452Y-81227455D01*
X115781206Y-81342664D01*
X115781202Y-81342671D01*
X115730908Y-81477517D01*
X115724501Y-81537116D01*
X115724501Y-81537123D01*
X115724500Y-81537135D01*
X115724500Y-83332870D01*
X115724501Y-83332876D01*
X115730908Y-83392483D01*
X115781202Y-83527328D01*
X115781206Y-83527335D01*
X115867452Y-83642544D01*
X115867455Y-83642547D01*
X115982664Y-83728793D01*
X115982671Y-83728797D01*
X116114081Y-83777810D01*
X116170015Y-83819681D01*
X116194432Y-83885145D01*
X116179580Y-83953418D01*
X116158430Y-83981673D01*
X116036503Y-84103600D01*
X115900965Y-84297169D01*
X115900964Y-84297171D01*
X115801098Y-84511335D01*
X115801094Y-84511344D01*
X115739938Y-84739586D01*
X115739936Y-84739596D01*
X115719341Y-84974999D01*
X115719341Y-84975000D01*
X115739936Y-85210403D01*
X115739938Y-85210413D01*
X115801094Y-85438655D01*
X115801096Y-85438659D01*
X115801097Y-85438663D01*
X115855018Y-85554296D01*
X115900965Y-85652830D01*
X115900967Y-85652834D01*
X116009281Y-85807521D01*
X116012876Y-85812656D01*
X116036501Y-85846395D01*
X116036506Y-85846402D01*
X116203597Y-86013493D01*
X116203603Y-86013498D01*
X116389158Y-86143425D01*
X116432783Y-86198002D01*
X116439977Y-86267500D01*
X116408454Y-86329855D01*
X116389158Y-86346575D01*
X116203597Y-86476505D01*
X116036505Y-86643597D01*
X115900965Y-86837169D01*
X115900964Y-86837171D01*
X115801098Y-87051335D01*
X115801094Y-87051344D01*
X115739938Y-87279586D01*
X115739936Y-87279596D01*
X115719341Y-87514999D01*
X115719341Y-87515000D01*
X115739936Y-87750403D01*
X115739938Y-87750413D01*
X115801094Y-87978655D01*
X115801096Y-87978659D01*
X115801097Y-87978663D01*
X115824382Y-88028597D01*
X115900965Y-88192830D01*
X115900967Y-88192834D01*
X116036501Y-88386395D01*
X116036506Y-88386402D01*
X116203597Y-88553493D01*
X116203603Y-88553498D01*
X116389158Y-88683425D01*
X116432783Y-88738002D01*
X116439977Y-88807500D01*
X116408454Y-88869855D01*
X116389158Y-88886575D01*
X116203597Y-89016505D01*
X116036505Y-89183597D01*
X115900965Y-89377169D01*
X115900964Y-89377171D01*
X115801098Y-89591335D01*
X115801094Y-89591344D01*
X115739938Y-89819586D01*
X115739936Y-89819596D01*
X115719341Y-90054999D01*
X115719341Y-90055000D01*
X115739936Y-90290403D01*
X115739938Y-90290413D01*
X115801094Y-90518655D01*
X115801096Y-90518659D01*
X115801097Y-90518663D01*
X115824382Y-90568597D01*
X115900965Y-90732830D01*
X115900967Y-90732834D01*
X116036501Y-90926395D01*
X116036506Y-90926402D01*
X116203597Y-91093493D01*
X116203603Y-91093498D01*
X116389158Y-91223425D01*
X116432783Y-91278002D01*
X116439977Y-91347500D01*
X116408454Y-91409855D01*
X116389158Y-91426575D01*
X116203597Y-91556505D01*
X116036505Y-91723597D01*
X115900965Y-91917169D01*
X115900964Y-91917171D01*
X115801098Y-92131335D01*
X115801094Y-92131344D01*
X115739938Y-92359586D01*
X115739936Y-92359596D01*
X115719341Y-92594999D01*
X115719341Y-92595000D01*
X115739936Y-92830403D01*
X115739938Y-92830413D01*
X115801094Y-93058655D01*
X115801096Y-93058659D01*
X115801097Y-93058663D01*
X115824382Y-93108597D01*
X115900965Y-93272830D01*
X115900967Y-93272834D01*
X115964641Y-93363769D01*
X116036501Y-93466396D01*
X116036506Y-93466402D01*
X116158430Y-93588326D01*
X116191915Y-93649649D01*
X116186931Y-93719341D01*
X116145059Y-93775274D01*
X116114083Y-93792189D01*
X115982669Y-93841203D01*
X115982664Y-93841206D01*
X115867455Y-93927452D01*
X115867452Y-93927455D01*
X115781206Y-94042664D01*
X115781202Y-94042671D01*
X115730908Y-94177517D01*
X115725720Y-94225777D01*
X115724501Y-94237123D01*
X115724500Y-94237135D01*
X115724500Y-96032870D01*
X115724501Y-96032876D01*
X115730908Y-96092483D01*
X115781202Y-96227328D01*
X115781206Y-96227335D01*
X115867452Y-96342544D01*
X115867455Y-96342547D01*
X115982664Y-96428793D01*
X115982671Y-96428797D01*
X116114081Y-96477810D01*
X116170015Y-96519681D01*
X116194432Y-96585145D01*
X116179580Y-96653418D01*
X116158430Y-96681673D01*
X116036503Y-96803600D01*
X115900965Y-96997169D01*
X115900964Y-96997171D01*
X115801098Y-97211335D01*
X115801094Y-97211344D01*
X115739938Y-97439586D01*
X115739936Y-97439596D01*
X115719341Y-97674999D01*
X115719341Y-97675000D01*
X115739936Y-97910403D01*
X115739938Y-97910413D01*
X115801094Y-98138655D01*
X115801096Y-98138659D01*
X115801097Y-98138663D01*
X115824382Y-98188597D01*
X115900965Y-98352830D01*
X115900967Y-98352834D01*
X116036501Y-98546395D01*
X116036506Y-98546402D01*
X116203597Y-98713493D01*
X116203603Y-98713498D01*
X116389158Y-98843425D01*
X116432783Y-98898002D01*
X116439977Y-98967500D01*
X116408454Y-99029855D01*
X116389158Y-99046575D01*
X116203597Y-99176505D01*
X116036505Y-99343597D01*
X115900965Y-99537169D01*
X115900964Y-99537171D01*
X115801098Y-99751335D01*
X115801094Y-99751344D01*
X115739938Y-99979586D01*
X115739936Y-99979596D01*
X115719341Y-100214999D01*
X115719341Y-100215000D01*
X115739936Y-100450403D01*
X115739938Y-100450413D01*
X115801094Y-100678655D01*
X115801096Y-100678659D01*
X115801097Y-100678663D01*
X115862899Y-100811198D01*
X115900965Y-100892830D01*
X115900967Y-100892834D01*
X116036501Y-101086395D01*
X116036506Y-101086402D01*
X116203597Y-101253493D01*
X116203603Y-101253498D01*
X116389158Y-101383425D01*
X116432783Y-101438002D01*
X116439977Y-101507500D01*
X116408454Y-101569855D01*
X116389158Y-101586575D01*
X116203597Y-101716505D01*
X116036505Y-101883597D01*
X115900965Y-102077169D01*
X115900964Y-102077171D01*
X115801098Y-102291335D01*
X115801094Y-102291344D01*
X115739938Y-102519586D01*
X115739936Y-102519596D01*
X115719341Y-102754999D01*
X115719341Y-102755000D01*
X115739936Y-102990403D01*
X115739938Y-102990413D01*
X115801094Y-103218655D01*
X115801096Y-103218659D01*
X115801097Y-103218663D01*
X115886689Y-103402216D01*
X115900965Y-103432830D01*
X115900967Y-103432834D01*
X115989269Y-103558941D01*
X116024914Y-103609848D01*
X116036501Y-103626395D01*
X116036506Y-103626402D01*
X116203597Y-103793493D01*
X116203603Y-103793498D01*
X116389158Y-103923425D01*
X116432783Y-103978002D01*
X116439977Y-104047500D01*
X116408454Y-104109855D01*
X116389158Y-104126575D01*
X116203597Y-104256505D01*
X116036505Y-104423597D01*
X115900965Y-104617169D01*
X115900964Y-104617171D01*
X115801098Y-104831335D01*
X115801094Y-104831344D01*
X115739938Y-105059586D01*
X115739936Y-105059596D01*
X115719341Y-105294999D01*
X115719341Y-105295000D01*
X115739936Y-105530403D01*
X115739938Y-105530413D01*
X115801094Y-105758655D01*
X115801096Y-105758659D01*
X115801097Y-105758663D01*
X115824535Y-105808926D01*
X115900965Y-105972830D01*
X115900967Y-105972834D01*
X116009281Y-106127521D01*
X116036501Y-106166396D01*
X116036506Y-106166402D01*
X116158430Y-106288326D01*
X116191915Y-106349649D01*
X116186931Y-106419341D01*
X116145059Y-106475274D01*
X116114083Y-106492189D01*
X115982669Y-106541203D01*
X115982664Y-106541206D01*
X115867455Y-106627452D01*
X115867452Y-106627455D01*
X115781206Y-106742664D01*
X115781202Y-106742671D01*
X115730908Y-106877517D01*
X115725402Y-106928738D01*
X115724501Y-106937123D01*
X115724500Y-106937135D01*
X115724500Y-108732870D01*
X115724501Y-108732876D01*
X115730908Y-108792483D01*
X115781202Y-108927328D01*
X115781206Y-108927335D01*
X115867452Y-109042544D01*
X115867455Y-109042547D01*
X115982664Y-109128793D01*
X115982671Y-109128797D01*
X116114081Y-109177810D01*
X116170015Y-109219681D01*
X116194432Y-109285145D01*
X116179580Y-109353418D01*
X116158430Y-109381673D01*
X116036503Y-109503600D01*
X115900965Y-109697169D01*
X115900964Y-109697171D01*
X115801098Y-109911335D01*
X115801094Y-109911344D01*
X115739938Y-110139586D01*
X115739936Y-110139596D01*
X115719341Y-110374999D01*
X115719341Y-110375000D01*
X115739936Y-110610403D01*
X115739938Y-110610413D01*
X115801094Y-110838655D01*
X115801096Y-110838659D01*
X115801097Y-110838663D01*
X115900964Y-111052829D01*
X115900965Y-111052830D01*
X115900967Y-111052834D01*
X116036501Y-111246395D01*
X116036506Y-111246402D01*
X116203597Y-111413493D01*
X116203603Y-111413498D01*
X116389158Y-111543425D01*
X116432783Y-111598002D01*
X116439977Y-111667500D01*
X116408454Y-111729855D01*
X116389158Y-111746575D01*
X116203597Y-111876505D01*
X116036505Y-112043597D01*
X115900965Y-112237169D01*
X115900964Y-112237171D01*
X115801098Y-112451335D01*
X115801094Y-112451344D01*
X115739938Y-112679586D01*
X115739936Y-112679596D01*
X115719341Y-112914999D01*
X115719341Y-112915000D01*
X115739936Y-113150403D01*
X115739938Y-113150413D01*
X115801094Y-113378655D01*
X115801096Y-113378659D01*
X115801097Y-113378663D01*
X115896322Y-113582873D01*
X115900965Y-113592830D01*
X115900967Y-113592834D01*
X115964641Y-113683769D01*
X116036505Y-113786401D01*
X116203599Y-113953495D01*
X116239733Y-113978796D01*
X116397165Y-114089032D01*
X116397167Y-114089033D01*
X116397170Y-114089035D01*
X116611337Y-114188903D01*
X116839592Y-114250063D01*
X117027918Y-114266539D01*
X117074999Y-114270659D01*
X117075000Y-114270659D01*
X117075001Y-114270659D01*
X117114234Y-114267226D01*
X117310408Y-114250063D01*
X117538663Y-114188903D01*
X117752830Y-114089035D01*
X117946401Y-113953495D01*
X118113495Y-113786401D01*
X118249035Y-113592830D01*
X118348903Y-113378663D01*
X118410063Y-113150408D01*
X118430659Y-112915000D01*
X118410063Y-112679592D01*
X118348903Y-112451337D01*
X118249035Y-112237171D01*
X118223519Y-112200729D01*
X118113494Y-112043597D01*
X117946402Y-111876506D01*
X117946396Y-111876501D01*
X117760842Y-111746575D01*
X117717217Y-111691998D01*
X117710023Y-111622500D01*
X117741546Y-111560145D01*
X117760842Y-111543425D01*
X117807197Y-111510967D01*
X117946401Y-111413495D01*
X118113495Y-111246401D01*
X118249035Y-111052830D01*
X118348903Y-110838663D01*
X118410063Y-110610408D01*
X118430659Y-110375000D01*
X118410063Y-110139592D01*
X118348903Y-109911337D01*
X118249035Y-109697171D01*
X118239577Y-109683664D01*
X118113496Y-109503600D01*
X118065299Y-109455403D01*
X117991567Y-109381671D01*
X117958084Y-109320351D01*
X117963068Y-109250659D01*
X118004939Y-109194725D01*
X118035915Y-109177810D01*
X118167331Y-109128796D01*
X118282546Y-109042546D01*
X118368796Y-108927331D01*
X118419091Y-108792483D01*
X118425500Y-108732873D01*
X118425499Y-106937128D01*
X118419091Y-106877517D01*
X118405447Y-106840936D01*
X118368797Y-106742671D01*
X118368793Y-106742664D01*
X118282547Y-106627455D01*
X118282544Y-106627452D01*
X118167335Y-106541206D01*
X118167328Y-106541202D01*
X118035917Y-106492189D01*
X117979983Y-106450318D01*
X117955566Y-106384853D01*
X117970418Y-106316580D01*
X117991563Y-106288332D01*
X118113495Y-106166401D01*
X118249035Y-105972830D01*
X118348903Y-105758663D01*
X118410063Y-105530408D01*
X118430659Y-105295000D01*
X118410063Y-105059592D01*
X118348903Y-104831337D01*
X118249035Y-104617171D01*
X118239578Y-104603664D01*
X118113494Y-104423597D01*
X117946402Y-104256506D01*
X117946396Y-104256501D01*
X117760842Y-104126575D01*
X117717217Y-104071998D01*
X117710023Y-104002500D01*
X117741546Y-103940145D01*
X117760842Y-103923425D01*
X117908342Y-103820144D01*
X117946401Y-103793495D01*
X118113495Y-103626401D01*
X118249035Y-103432830D01*
X118348903Y-103218663D01*
X118410063Y-102990408D01*
X118430659Y-102755000D01*
X118410063Y-102519592D01*
X118348903Y-102291337D01*
X118249035Y-102077171D01*
X118239578Y-102063664D01*
X118113494Y-101883597D01*
X117946402Y-101716506D01*
X117946396Y-101716501D01*
X117760842Y-101586575D01*
X117717217Y-101531998D01*
X117710023Y-101462500D01*
X117741546Y-101400145D01*
X117760842Y-101383425D01*
X117830000Y-101335000D01*
X117946401Y-101253495D01*
X118113495Y-101086401D01*
X118249035Y-100892830D01*
X118348903Y-100678663D01*
X118410063Y-100450408D01*
X118430659Y-100215000D01*
X118410063Y-99979592D01*
X118348903Y-99751337D01*
X118249035Y-99537171D01*
X118239578Y-99523664D01*
X118113494Y-99343597D01*
X117946402Y-99176506D01*
X117946396Y-99176501D01*
X117760842Y-99046575D01*
X117717217Y-98991998D01*
X117710023Y-98922500D01*
X117741546Y-98860145D01*
X117760842Y-98843425D01*
X117859354Y-98774446D01*
X117946401Y-98713495D01*
X118113495Y-98546401D01*
X118249035Y-98352830D01*
X118348903Y-98138663D01*
X118410063Y-97910408D01*
X118430659Y-97675000D01*
X118410063Y-97439592D01*
X118348903Y-97211337D01*
X118249035Y-96997171D01*
X118239577Y-96983664D01*
X118113496Y-96803600D01*
X118065299Y-96755403D01*
X117991567Y-96681671D01*
X117958084Y-96620351D01*
X117963068Y-96550659D01*
X118004939Y-96494725D01*
X118035915Y-96477810D01*
X118167331Y-96428796D01*
X118282546Y-96342546D01*
X118368796Y-96227331D01*
X118419091Y-96092483D01*
X118425500Y-96032873D01*
X118425499Y-94237128D01*
X118419091Y-94177517D01*
X118405551Y-94141215D01*
X118368797Y-94042671D01*
X118368793Y-94042664D01*
X118282547Y-93927455D01*
X118282544Y-93927452D01*
X118167335Y-93841206D01*
X118167328Y-93841202D01*
X118035917Y-93792189D01*
X117979983Y-93750318D01*
X117955566Y-93684853D01*
X117970418Y-93616580D01*
X117991563Y-93588332D01*
X118113495Y-93466401D01*
X118249035Y-93272830D01*
X118348903Y-93058663D01*
X118410063Y-92830408D01*
X118430659Y-92595000D01*
X118410063Y-92359592D01*
X118348903Y-92131337D01*
X118249035Y-91917171D01*
X118239578Y-91903664D01*
X118113494Y-91723597D01*
X117946402Y-91556506D01*
X117946396Y-91556501D01*
X117760842Y-91426575D01*
X117717217Y-91371998D01*
X117710023Y-91302500D01*
X117741546Y-91240145D01*
X117760842Y-91223425D01*
X117787747Y-91204586D01*
X117946401Y-91093495D01*
X118113495Y-90926401D01*
X118249035Y-90732830D01*
X118348903Y-90518663D01*
X118410063Y-90290408D01*
X118430659Y-90055000D01*
X118410063Y-89819592D01*
X118348903Y-89591337D01*
X118249035Y-89377171D01*
X118239578Y-89363664D01*
X118113494Y-89183597D01*
X117946402Y-89016506D01*
X117946396Y-89016501D01*
X117760842Y-88886575D01*
X117717217Y-88831998D01*
X117710023Y-88762500D01*
X117741546Y-88700145D01*
X117760842Y-88683425D01*
X117787747Y-88664586D01*
X117946401Y-88553495D01*
X118113495Y-88386401D01*
X118249035Y-88192830D01*
X118348903Y-87978663D01*
X118410063Y-87750408D01*
X118430659Y-87515000D01*
X118410063Y-87279592D01*
X118348903Y-87051337D01*
X118249035Y-86837171D01*
X118239578Y-86823664D01*
X118113494Y-86643597D01*
X117946402Y-86476506D01*
X117946396Y-86476501D01*
X117760842Y-86346575D01*
X117717217Y-86291998D01*
X117710023Y-86222500D01*
X117741546Y-86160145D01*
X117760842Y-86143425D01*
X117787747Y-86124586D01*
X117946401Y-86013495D01*
X118113495Y-85846401D01*
X118249035Y-85652830D01*
X118348903Y-85438663D01*
X118410063Y-85210408D01*
X118430659Y-84975000D01*
X118410063Y-84739592D01*
X118348903Y-84511337D01*
X118249035Y-84297171D01*
X118239577Y-84283664D01*
X118113496Y-84103600D01*
X118065299Y-84055403D01*
X117991567Y-83981671D01*
X117958084Y-83920351D01*
X117963068Y-83850659D01*
X118004939Y-83794725D01*
X118035915Y-83777810D01*
X118167331Y-83728796D01*
X118282546Y-83642546D01*
X118368796Y-83527331D01*
X118419091Y-83392483D01*
X118425500Y-83332873D01*
X118425499Y-81537128D01*
X118419091Y-81477517D01*
X118368796Y-81342669D01*
X118368795Y-81342668D01*
X118368793Y-81342664D01*
X118282547Y-81227455D01*
X118282544Y-81227452D01*
X118167335Y-81141206D01*
X118167328Y-81141202D01*
X118035917Y-81092189D01*
X117979983Y-81050318D01*
X117955566Y-80984853D01*
X117970418Y-80916580D01*
X117991563Y-80888332D01*
X118113495Y-80766401D01*
X118249035Y-80572830D01*
X118348903Y-80358663D01*
X118410063Y-80130408D01*
X118430659Y-79895000D01*
X118410063Y-79659592D01*
X118348903Y-79431337D01*
X118249035Y-79217171D01*
X118239578Y-79203664D01*
X118113494Y-79023597D01*
X117946402Y-78856506D01*
X117946396Y-78856501D01*
X117760842Y-78726575D01*
X117717217Y-78671998D01*
X117710023Y-78602500D01*
X117741546Y-78540145D01*
X117760842Y-78523425D01*
X117787747Y-78504586D01*
X117946401Y-78393495D01*
X118113495Y-78226401D01*
X118249035Y-78032830D01*
X118348903Y-77818663D01*
X118410063Y-77590408D01*
X118430659Y-77355000D01*
X118410063Y-77119592D01*
X118348903Y-76891337D01*
X118249035Y-76677171D01*
X118239578Y-76663664D01*
X118113494Y-76483597D01*
X117946402Y-76316506D01*
X117946401Y-76316505D01*
X117760405Y-76186269D01*
X117716781Y-76131692D01*
X117709588Y-76062193D01*
X117741110Y-75999839D01*
X117760405Y-75983119D01*
X117946082Y-75853105D01*
X118113105Y-75686082D01*
X118248600Y-75492578D01*
X118348429Y-75278492D01*
X118348432Y-75278486D01*
X118405636Y-75065000D01*
X117698769Y-75065000D01*
X117631730Y-75045315D01*
X117585975Y-74992511D01*
X117576031Y-74923353D01*
X117579792Y-74906064D01*
X117585000Y-74888327D01*
X117585000Y-74741672D01*
X117579792Y-74723936D01*
X117579792Y-74654066D01*
X117617566Y-74595288D01*
X117681121Y-74566262D01*
X117698769Y-74565000D01*
X118405636Y-74565000D01*
X118405635Y-74564999D01*
X118348432Y-74351513D01*
X118348429Y-74351507D01*
X118248600Y-74137422D01*
X118248599Y-74137420D01*
X118113113Y-73943926D01*
X118113108Y-73943920D01*
X117946078Y-73776890D01*
X117760405Y-73646879D01*
X117716780Y-73592302D01*
X117709588Y-73522804D01*
X117741110Y-73460449D01*
X117760406Y-73443730D01*
X117787738Y-73424592D01*
X117946401Y-73313495D01*
X118113495Y-73146401D01*
X118249035Y-72952830D01*
X118348903Y-72738663D01*
X118410063Y-72510408D01*
X118430659Y-72275000D01*
X118410063Y-72039592D01*
X118348903Y-71811337D01*
X118249035Y-71597171D01*
X118113495Y-71403599D01*
X117991567Y-71281671D01*
X117958084Y-71220351D01*
X117963068Y-71150659D01*
X118004939Y-71094725D01*
X118035915Y-71077810D01*
X118167331Y-71028796D01*
X118282546Y-70942546D01*
X118368796Y-70827331D01*
X118419091Y-70692483D01*
X118425500Y-70632873D01*
X118425499Y-69906228D01*
X118445183Y-69839190D01*
X118497987Y-69793435D01*
X118567146Y-69783491D01*
X118630702Y-69812516D01*
X118637180Y-69818548D01*
X121895181Y-73076548D01*
X121928666Y-73137871D01*
X121931500Y-73164229D01*
X121931500Y-77660294D01*
X121930191Y-77678263D01*
X121926710Y-77702025D01*
X121931264Y-77754064D01*
X121931500Y-77759470D01*
X121931500Y-77767709D01*
X121935306Y-77800274D01*
X121942000Y-77876791D01*
X121943461Y-77883867D01*
X121943403Y-77883878D01*
X121945034Y-77891237D01*
X121945092Y-77891224D01*
X121946757Y-77898250D01*
X121973025Y-77970424D01*
X121997185Y-78043331D01*
X122000236Y-78049874D01*
X122000182Y-78049898D01*
X122003470Y-78056688D01*
X122003521Y-78056663D01*
X122006761Y-78063113D01*
X122006762Y-78063114D01*
X122006763Y-78063117D01*
X122048964Y-78127283D01*
X122048965Y-78127283D01*
X122089287Y-78192655D01*
X122093766Y-78198319D01*
X122093719Y-78198356D01*
X122098482Y-78204202D01*
X122098528Y-78204164D01*
X122103173Y-78209700D01*
X122159017Y-78262385D01*
X123577758Y-79681126D01*
X123611243Y-79742449D01*
X123606259Y-79812141D01*
X123564387Y-79868074D01*
X123515858Y-79890097D01*
X123418197Y-79910855D01*
X123418192Y-79910857D01*
X123245270Y-79987848D01*
X123245265Y-79987851D01*
X123092129Y-80099111D01*
X122965466Y-80239785D01*
X122870821Y-80403715D01*
X122870818Y-80403722D01*
X122826491Y-80540148D01*
X122812326Y-80583744D01*
X122792540Y-80772000D01*
X122812326Y-80960256D01*
X122812327Y-80960259D01*
X122870818Y-81140277D01*
X122870820Y-81140281D01*
X122870821Y-81140284D01*
X122912111Y-81211800D01*
X122930887Y-81244322D01*
X122947499Y-81306321D01*
X122947500Y-111397769D01*
X122927815Y-111464808D01*
X122911181Y-111485450D01*
X122195902Y-112200729D01*
X115041451Y-119355181D01*
X114980128Y-119388666D01*
X114953770Y-119391500D01*
X81388229Y-119391500D01*
X81321190Y-119371815D01*
X81300548Y-119355181D01*
X79171368Y-117226000D01*
X81039341Y-117226000D01*
X81059936Y-117461403D01*
X81059938Y-117461413D01*
X81121094Y-117689655D01*
X81121096Y-117689659D01*
X81121097Y-117689663D01*
X81183958Y-117824469D01*
X81220965Y-117903830D01*
X81220967Y-117903834D01*
X81326223Y-118054154D01*
X81356505Y-118097401D01*
X81523599Y-118264495D01*
X81620384Y-118332264D01*
X81717165Y-118400032D01*
X81717167Y-118400033D01*
X81717170Y-118400035D01*
X81931337Y-118499903D01*
X82159592Y-118561063D01*
X82336034Y-118576500D01*
X82394999Y-118581659D01*
X82395000Y-118581659D01*
X82395001Y-118581659D01*
X82453966Y-118576500D01*
X82630408Y-118561063D01*
X82858663Y-118499903D01*
X83072830Y-118400035D01*
X83266401Y-118264495D01*
X83433495Y-118097401D01*
X83563424Y-117911842D01*
X83618002Y-117868217D01*
X83687500Y-117861023D01*
X83749855Y-117892546D01*
X83766575Y-117911842D01*
X83896500Y-118097395D01*
X83896505Y-118097401D01*
X84063599Y-118264495D01*
X84160384Y-118332264D01*
X84257165Y-118400032D01*
X84257167Y-118400033D01*
X84257170Y-118400035D01*
X84471337Y-118499903D01*
X84699592Y-118561063D01*
X84876034Y-118576500D01*
X84934999Y-118581659D01*
X84935000Y-118581659D01*
X84935001Y-118581659D01*
X84993966Y-118576500D01*
X85170408Y-118561063D01*
X85398663Y-118499903D01*
X85612830Y-118400035D01*
X85806401Y-118264495D01*
X85928329Y-118142566D01*
X85989648Y-118109084D01*
X86059340Y-118114068D01*
X86115274Y-118155939D01*
X86132189Y-118186917D01*
X86181202Y-118318328D01*
X86181206Y-118318335D01*
X86267452Y-118433544D01*
X86267455Y-118433547D01*
X86382664Y-118519793D01*
X86382671Y-118519797D01*
X86517517Y-118570091D01*
X86517516Y-118570091D01*
X86524444Y-118570835D01*
X86577127Y-118576500D01*
X88372872Y-118576499D01*
X88432483Y-118570091D01*
X88567331Y-118519796D01*
X88682546Y-118433546D01*
X88768796Y-118318331D01*
X88819091Y-118183483D01*
X88825500Y-118123873D01*
X88825499Y-116328128D01*
X88819091Y-116268517D01*
X88817810Y-116265083D01*
X88768797Y-116133671D01*
X88768793Y-116133664D01*
X88682547Y-116018455D01*
X88682544Y-116018452D01*
X88567335Y-115932206D01*
X88567328Y-115932202D01*
X88432482Y-115881908D01*
X88432483Y-115881908D01*
X88372883Y-115875501D01*
X88372881Y-115875500D01*
X88372873Y-115875500D01*
X88372864Y-115875500D01*
X86577129Y-115875500D01*
X86577123Y-115875501D01*
X86517516Y-115881908D01*
X86382671Y-115932202D01*
X86382664Y-115932206D01*
X86267455Y-116018452D01*
X86267452Y-116018455D01*
X86181206Y-116133664D01*
X86181203Y-116133669D01*
X86132189Y-116265083D01*
X86090317Y-116321016D01*
X86024853Y-116345433D01*
X85956580Y-116330581D01*
X85928326Y-116309430D01*
X85806402Y-116187506D01*
X85806395Y-116187501D01*
X85612834Y-116051967D01*
X85612830Y-116051965D01*
X85612830Y-116051964D01*
X85398663Y-115952097D01*
X85398659Y-115952096D01*
X85398655Y-115952094D01*
X85170413Y-115890938D01*
X85170403Y-115890936D01*
X84935001Y-115870341D01*
X84934999Y-115870341D01*
X84699596Y-115890936D01*
X84699586Y-115890938D01*
X84471344Y-115952094D01*
X84471335Y-115952098D01*
X84257171Y-116051964D01*
X84257169Y-116051965D01*
X84063597Y-116187505D01*
X83896505Y-116354597D01*
X83766575Y-116540158D01*
X83711998Y-116583783D01*
X83642500Y-116590977D01*
X83580145Y-116559454D01*
X83563425Y-116540158D01*
X83433494Y-116354597D01*
X83266402Y-116187506D01*
X83266395Y-116187501D01*
X83072834Y-116051967D01*
X83072830Y-116051965D01*
X83072828Y-116051964D01*
X82858663Y-115952097D01*
X82858659Y-115952096D01*
X82858655Y-115952094D01*
X82630413Y-115890938D01*
X82630403Y-115890936D01*
X82395001Y-115870341D01*
X82394999Y-115870341D01*
X82159596Y-115890936D01*
X82159586Y-115890938D01*
X81931344Y-115952094D01*
X81931335Y-115952098D01*
X81717171Y-116051964D01*
X81717169Y-116051965D01*
X81523597Y-116187505D01*
X81356505Y-116354597D01*
X81220965Y-116548169D01*
X81220964Y-116548171D01*
X81121098Y-116762335D01*
X81121094Y-116762344D01*
X81059938Y-116990586D01*
X81059936Y-116990596D01*
X81039341Y-117225999D01*
X81039341Y-117226000D01*
X79171368Y-117226000D01*
X79018819Y-117073451D01*
X78985334Y-117012128D01*
X78982500Y-116985770D01*
X78982500Y-116315498D01*
X78999113Y-116253498D01*
X79077179Y-116118284D01*
X79135674Y-115938256D01*
X79155460Y-115750000D01*
X79135674Y-115561744D01*
X79077179Y-115381716D01*
X78982533Y-115217784D01*
X78855871Y-115077112D01*
X78855870Y-115077111D01*
X78702734Y-114965851D01*
X78702729Y-114965848D01*
X78529807Y-114888857D01*
X78529802Y-114888855D01*
X78384001Y-114857865D01*
X78344646Y-114849500D01*
X78281229Y-114849500D01*
X78214190Y-114829815D01*
X78168435Y-114777011D01*
X78158491Y-114707853D01*
X78187516Y-114644297D01*
X78193531Y-114637835D01*
X78209646Y-114621720D01*
X78223271Y-114609947D01*
X78242530Y-114595610D01*
X78276101Y-114555601D01*
X78279761Y-114551606D01*
X78285590Y-114545778D01*
X78305941Y-114520039D01*
X78311948Y-114512879D01*
X78355302Y-114461214D01*
X78355306Y-114461205D01*
X78359274Y-114455175D01*
X78359325Y-114455208D01*
X78363372Y-114448856D01*
X78363320Y-114448824D01*
X78367112Y-114442675D01*
X78399575Y-114373058D01*
X78434036Y-114304440D01*
X78434040Y-114304433D01*
X78434042Y-114304421D01*
X78436509Y-114297646D01*
X78436567Y-114297667D01*
X78439043Y-114290546D01*
X78438986Y-114290528D01*
X78441257Y-114283673D01*
X78456792Y-114208434D01*
X78461421Y-114188903D01*
X78474500Y-114133721D01*
X78474500Y-114133710D01*
X78475338Y-114126548D01*
X78475398Y-114126555D01*
X78476164Y-114119055D01*
X78476105Y-114119050D01*
X78476734Y-114111860D01*
X78474500Y-114035083D01*
X78474500Y-112915000D01*
X97939341Y-112915000D01*
X97959936Y-113150403D01*
X97959938Y-113150413D01*
X98021094Y-113378655D01*
X98021096Y-113378659D01*
X98021097Y-113378663D01*
X98116322Y-113582873D01*
X98120965Y-113592830D01*
X98120967Y-113592834D01*
X98184641Y-113683769D01*
X98256505Y-113786401D01*
X98423599Y-113953495D01*
X98459733Y-113978796D01*
X98617165Y-114089032D01*
X98617167Y-114089033D01*
X98617170Y-114089035D01*
X98831337Y-114188903D01*
X99059592Y-114250063D01*
X99247918Y-114266539D01*
X99294999Y-114270659D01*
X99295000Y-114270659D01*
X99295001Y-114270659D01*
X99334234Y-114267226D01*
X99530408Y-114250063D01*
X99758663Y-114188903D01*
X99972830Y-114089035D01*
X100166401Y-113953495D01*
X100333495Y-113786401D01*
X100469035Y-113592830D01*
X100568903Y-113378663D01*
X100630063Y-113150408D01*
X100650659Y-112915000D01*
X100630536Y-112685000D01*
X104289341Y-112685000D01*
X104309936Y-112920403D01*
X104309938Y-112920413D01*
X104371094Y-113148655D01*
X104371096Y-113148659D01*
X104371097Y-113148663D01*
X104455499Y-113329663D01*
X104470965Y-113362830D01*
X104470967Y-113362834D01*
X104579281Y-113517521D01*
X104606505Y-113556401D01*
X104773599Y-113723495D01*
X104863429Y-113786395D01*
X104967165Y-113859032D01*
X104967167Y-113859033D01*
X104967170Y-113859035D01*
X105181337Y-113958903D01*
X105409592Y-114020063D01*
X105586034Y-114035500D01*
X105644999Y-114040659D01*
X105645000Y-114040659D01*
X105645001Y-114040659D01*
X105703966Y-114035500D01*
X105880408Y-114020063D01*
X106108663Y-113958903D01*
X106322830Y-113859035D01*
X106516401Y-113723495D01*
X106638329Y-113601566D01*
X106699648Y-113568084D01*
X106769340Y-113573068D01*
X106825274Y-113614939D01*
X106842189Y-113645917D01*
X106891202Y-113777328D01*
X106891206Y-113777335D01*
X106977452Y-113892544D01*
X106977455Y-113892547D01*
X107092664Y-113978793D01*
X107092671Y-113978797D01*
X107227517Y-114029091D01*
X107227516Y-114029091D01*
X107234444Y-114029835D01*
X107287127Y-114035500D01*
X109082872Y-114035499D01*
X109142483Y-114029091D01*
X109277331Y-113978796D01*
X109392546Y-113892546D01*
X109478796Y-113777331D01*
X109527810Y-113645916D01*
X109569681Y-113589984D01*
X109635145Y-113565566D01*
X109703418Y-113580417D01*
X109731672Y-113601568D01*
X109853599Y-113723495D01*
X109943429Y-113786395D01*
X110047165Y-113859032D01*
X110047167Y-113859033D01*
X110047170Y-113859035D01*
X110261337Y-113958903D01*
X110489592Y-114020063D01*
X110666034Y-114035500D01*
X110724999Y-114040659D01*
X110725000Y-114040659D01*
X110725001Y-114040659D01*
X110783966Y-114035500D01*
X110960408Y-114020063D01*
X111188663Y-113958903D01*
X111402830Y-113859035D01*
X111596401Y-113723495D01*
X111763495Y-113556401D01*
X111899035Y-113362830D01*
X111998903Y-113148663D01*
X112060063Y-112920408D01*
X112080659Y-112685000D01*
X112060063Y-112449592D01*
X112002307Y-112234040D01*
X111998905Y-112221344D01*
X111998904Y-112221343D01*
X111998903Y-112221337D01*
X111899035Y-112007171D01*
X111897185Y-112004528D01*
X111763494Y-111813597D01*
X111596402Y-111646506D01*
X111596395Y-111646501D01*
X111594251Y-111645000D01*
X111519518Y-111592671D01*
X111402834Y-111510967D01*
X111402830Y-111510965D01*
X111348113Y-111485450D01*
X111188663Y-111411097D01*
X111188659Y-111411096D01*
X111188655Y-111411094D01*
X110960413Y-111349938D01*
X110960403Y-111349936D01*
X110725001Y-111329341D01*
X110724999Y-111329341D01*
X110489596Y-111349936D01*
X110489586Y-111349938D01*
X110261344Y-111411094D01*
X110261335Y-111411098D01*
X110047171Y-111510964D01*
X110047169Y-111510965D01*
X109853600Y-111646503D01*
X109731673Y-111768430D01*
X109670350Y-111801914D01*
X109600658Y-111796930D01*
X109544725Y-111755058D01*
X109527810Y-111724081D01*
X109478797Y-111592671D01*
X109478793Y-111592664D01*
X109392547Y-111477455D01*
X109392544Y-111477452D01*
X109277335Y-111391206D01*
X109277328Y-111391202D01*
X109142482Y-111340908D01*
X109142483Y-111340908D01*
X109082883Y-111334501D01*
X109082881Y-111334500D01*
X109082873Y-111334500D01*
X109082864Y-111334500D01*
X107287129Y-111334500D01*
X107287123Y-111334501D01*
X107227516Y-111340908D01*
X107092671Y-111391202D01*
X107092664Y-111391206D01*
X106977455Y-111477452D01*
X106977452Y-111477455D01*
X106891206Y-111592664D01*
X106891203Y-111592669D01*
X106842189Y-111724083D01*
X106800317Y-111780016D01*
X106734853Y-111804433D01*
X106666580Y-111789581D01*
X106638326Y-111768430D01*
X106516402Y-111646506D01*
X106516395Y-111646501D01*
X106514251Y-111645000D01*
X106439518Y-111592671D01*
X106322834Y-111510967D01*
X106322830Y-111510965D01*
X106268113Y-111485450D01*
X106108663Y-111411097D01*
X106108659Y-111411096D01*
X106108655Y-111411094D01*
X105880413Y-111349938D01*
X105880403Y-111349936D01*
X105645001Y-111329341D01*
X105644999Y-111329341D01*
X105409596Y-111349936D01*
X105409586Y-111349938D01*
X105181344Y-111411094D01*
X105181335Y-111411098D01*
X104967171Y-111510964D01*
X104967169Y-111510965D01*
X104773597Y-111646505D01*
X104606505Y-111813597D01*
X104470965Y-112007169D01*
X104470964Y-112007171D01*
X104371098Y-112221335D01*
X104371094Y-112221344D01*
X104309938Y-112449586D01*
X104309936Y-112449596D01*
X104289341Y-112684999D01*
X104289341Y-112685000D01*
X100630536Y-112685000D01*
X100630063Y-112679592D01*
X100568903Y-112451337D01*
X100469035Y-112237171D01*
X100443519Y-112200729D01*
X100333494Y-112043597D01*
X100166402Y-111876506D01*
X100166401Y-111876505D01*
X99980842Y-111746575D01*
X99980841Y-111746574D01*
X99937216Y-111691997D01*
X99930024Y-111622498D01*
X99961546Y-111560144D01*
X99980836Y-111543428D01*
X100166401Y-111413495D01*
X100333495Y-111246401D01*
X100469035Y-111052830D01*
X100568903Y-110838663D01*
X100630063Y-110610408D01*
X100650659Y-110375000D01*
X100630063Y-110139592D01*
X100568903Y-109911337D01*
X100469035Y-109697171D01*
X100459577Y-109683664D01*
X100333496Y-109503600D01*
X100285299Y-109455403D01*
X100211567Y-109381671D01*
X100178084Y-109320351D01*
X100183068Y-109250659D01*
X100224939Y-109194725D01*
X100255915Y-109177810D01*
X100387331Y-109128796D01*
X100502546Y-109042546D01*
X100588796Y-108927331D01*
X100639091Y-108792483D01*
X100645500Y-108732873D01*
X100645499Y-106937128D01*
X100639091Y-106877517D01*
X100625447Y-106840936D01*
X100588797Y-106742671D01*
X100588793Y-106742664D01*
X100502547Y-106627455D01*
X100502544Y-106627452D01*
X100387335Y-106541206D01*
X100387328Y-106541202D01*
X100255917Y-106492189D01*
X100199983Y-106450318D01*
X100175566Y-106384853D01*
X100190418Y-106316580D01*
X100211563Y-106288332D01*
X100333495Y-106166401D01*
X100469035Y-105972830D01*
X100568903Y-105758663D01*
X100630063Y-105530408D01*
X100650659Y-105295000D01*
X100630063Y-105059592D01*
X100568903Y-104831337D01*
X100469035Y-104617171D01*
X100459578Y-104603664D01*
X100333494Y-104423597D01*
X100303897Y-104394000D01*
X100948538Y-104394000D01*
X100968324Y-104582256D01*
X100968325Y-104582259D01*
X101026816Y-104762277D01*
X101026819Y-104762284D01*
X101121465Y-104926216D01*
X101198161Y-105011395D01*
X101248127Y-105066888D01*
X101401263Y-105178148D01*
X101401268Y-105178151D01*
X101574190Y-105255142D01*
X101574195Y-105255144D01*
X101759352Y-105294500D01*
X101759353Y-105294500D01*
X101948642Y-105294500D01*
X101948644Y-105294500D01*
X102133801Y-105255144D01*
X102306728Y-105178151D01*
X102459869Y-105066888D01*
X102586531Y-104926216D01*
X102681177Y-104762284D01*
X102739672Y-104582256D01*
X102759458Y-104394000D01*
X102739672Y-104205744D01*
X102681177Y-104025716D01*
X102586531Y-103861784D01*
X102459869Y-103721112D01*
X102459868Y-103721111D01*
X102306732Y-103609851D01*
X102306727Y-103609848D01*
X102133805Y-103532857D01*
X102133800Y-103532855D01*
X101968794Y-103497783D01*
X101948644Y-103493500D01*
X101759352Y-103493500D01*
X101739202Y-103497783D01*
X101574195Y-103532855D01*
X101574190Y-103532857D01*
X101401268Y-103609848D01*
X101401263Y-103609851D01*
X101248127Y-103721111D01*
X101121464Y-103861785D01*
X101026819Y-104025715D01*
X101026816Y-104025722D01*
X100983009Y-104160547D01*
X100968324Y-104205744D01*
X100948538Y-104394000D01*
X100303897Y-104394000D01*
X100166402Y-104256506D01*
X100166396Y-104256501D01*
X99980842Y-104126575D01*
X99937217Y-104071998D01*
X99930023Y-104002500D01*
X99961546Y-103940145D01*
X99980842Y-103923425D01*
X100128342Y-103820144D01*
X100166401Y-103793495D01*
X100333495Y-103626401D01*
X100469035Y-103432830D01*
X100568903Y-103218663D01*
X100630063Y-102990408D01*
X100650659Y-102755000D01*
X100630063Y-102519592D01*
X100568903Y-102291337D01*
X100469035Y-102077171D01*
X100459578Y-102063664D01*
X100333494Y-101883597D01*
X100166402Y-101716506D01*
X100166401Y-101716505D01*
X100000015Y-101600000D01*
X99980841Y-101586574D01*
X99937216Y-101531997D01*
X99930024Y-101462498D01*
X99961546Y-101400144D01*
X99980836Y-101383428D01*
X100166401Y-101253495D01*
X100333495Y-101086401D01*
X100469035Y-100892830D01*
X100568903Y-100678663D01*
X100630063Y-100450408D01*
X100650659Y-100215000D01*
X100630063Y-99979592D01*
X100568903Y-99751337D01*
X100469035Y-99537171D01*
X100459578Y-99523664D01*
X100333494Y-99343597D01*
X100166402Y-99176506D01*
X100166396Y-99176501D01*
X99980842Y-99046575D01*
X99937217Y-98991998D01*
X99930023Y-98922500D01*
X99961546Y-98860145D01*
X99980842Y-98843425D01*
X100079354Y-98774446D01*
X100166401Y-98713495D01*
X100333495Y-98546401D01*
X100469035Y-98352830D01*
X100568903Y-98138663D01*
X100630063Y-97910408D01*
X100650659Y-97675000D01*
X100630063Y-97439592D01*
X100568903Y-97211337D01*
X100469035Y-96997171D01*
X100459577Y-96983664D01*
X100333496Y-96803600D01*
X100285299Y-96755403D01*
X100211567Y-96681671D01*
X100178084Y-96620351D01*
X100183068Y-96550659D01*
X100224939Y-96494725D01*
X100255915Y-96477810D01*
X100387331Y-96428796D01*
X100502546Y-96342546D01*
X100588796Y-96227331D01*
X100639091Y-96092483D01*
X100645500Y-96032873D01*
X100645499Y-94237128D01*
X100639091Y-94177517D01*
X100625551Y-94141215D01*
X100588797Y-94042671D01*
X100588793Y-94042664D01*
X100502547Y-93927455D01*
X100502544Y-93927452D01*
X100387335Y-93841206D01*
X100387328Y-93841202D01*
X100255917Y-93792189D01*
X100199983Y-93750318D01*
X100175566Y-93684853D01*
X100190418Y-93616580D01*
X100211563Y-93588332D01*
X100333495Y-93466401D01*
X100469035Y-93272830D01*
X100568903Y-93058663D01*
X100630063Y-92830408D01*
X100650659Y-92595000D01*
X100630063Y-92359592D01*
X100568903Y-92131337D01*
X100469035Y-91917171D01*
X100459578Y-91903664D01*
X100333494Y-91723597D01*
X100166402Y-91556506D01*
X100166401Y-91556505D01*
X100000015Y-91440000D01*
X99980841Y-91426574D01*
X99937216Y-91371997D01*
X99930024Y-91302498D01*
X99961546Y-91240144D01*
X99980836Y-91223428D01*
X100166401Y-91093495D01*
X100333495Y-90926401D01*
X100469035Y-90732830D01*
X100568903Y-90518663D01*
X100630063Y-90290408D01*
X100650659Y-90055000D01*
X100630063Y-89819592D01*
X100568903Y-89591337D01*
X100469035Y-89377171D01*
X100459578Y-89363664D01*
X100333494Y-89183597D01*
X100166402Y-89016506D01*
X100166396Y-89016501D01*
X99980842Y-88886575D01*
X99937217Y-88831998D01*
X99930023Y-88762500D01*
X99961546Y-88700145D01*
X99980842Y-88683425D01*
X100007747Y-88664586D01*
X100166401Y-88553495D01*
X100333495Y-88386401D01*
X100469035Y-88192830D01*
X100568903Y-87978663D01*
X100630063Y-87750408D01*
X100650659Y-87515000D01*
X100630063Y-87279592D01*
X100568903Y-87051337D01*
X100469035Y-86837171D01*
X100459578Y-86823664D01*
X100333494Y-86643597D01*
X100166402Y-86476506D01*
X100166396Y-86476501D01*
X99980842Y-86346575D01*
X99937217Y-86291998D01*
X99930023Y-86222500D01*
X99961546Y-86160145D01*
X99980842Y-86143425D01*
X100007747Y-86124586D01*
X100166401Y-86013495D01*
X100333495Y-85846401D01*
X100469035Y-85652830D01*
X100568903Y-85438663D01*
X100630063Y-85210408D01*
X100650659Y-84975000D01*
X100630063Y-84739592D01*
X100568903Y-84511337D01*
X100469035Y-84297171D01*
X100459577Y-84283664D01*
X100333496Y-84103600D01*
X100285299Y-84055403D01*
X100211567Y-83981671D01*
X100178084Y-83920351D01*
X100183068Y-83850659D01*
X100224939Y-83794725D01*
X100255915Y-83777810D01*
X100387331Y-83728796D01*
X100502546Y-83642546D01*
X100588796Y-83527331D01*
X100639091Y-83392483D01*
X100645500Y-83332873D01*
X100645499Y-81537128D01*
X100639091Y-81477517D01*
X100588796Y-81342669D01*
X100588795Y-81342668D01*
X100588793Y-81342664D01*
X100502547Y-81227455D01*
X100502544Y-81227452D01*
X100387335Y-81141206D01*
X100387328Y-81141202D01*
X100255917Y-81092189D01*
X100199983Y-81050318D01*
X100175566Y-80984853D01*
X100190418Y-80916580D01*
X100211563Y-80888332D01*
X100333495Y-80766401D01*
X100469035Y-80572830D01*
X100568903Y-80358663D01*
X100630063Y-80130408D01*
X100650659Y-79895000D01*
X100630063Y-79659592D01*
X100568903Y-79431337D01*
X100469035Y-79217171D01*
X100459578Y-79203664D01*
X100333494Y-79023597D01*
X100166402Y-78856506D01*
X100166396Y-78856501D01*
X99980842Y-78726575D01*
X99937217Y-78671998D01*
X99930023Y-78602500D01*
X99961546Y-78540145D01*
X99980842Y-78523425D01*
X100007747Y-78504586D01*
X100166401Y-78393495D01*
X100333495Y-78226401D01*
X100469035Y-78032830D01*
X100568903Y-77818663D01*
X100630063Y-77590408D01*
X100650659Y-77355000D01*
X100630063Y-77119592D01*
X100568903Y-76891337D01*
X100469035Y-76677171D01*
X100459578Y-76663664D01*
X100333494Y-76483597D01*
X100166402Y-76316506D01*
X100166396Y-76316501D01*
X99980842Y-76186575D01*
X99937217Y-76131998D01*
X99930023Y-76062500D01*
X99961546Y-76000145D01*
X99980842Y-75983425D01*
X100007747Y-75964586D01*
X100166401Y-75853495D01*
X100333495Y-75686401D01*
X100469035Y-75492830D01*
X100568903Y-75278663D01*
X100630063Y-75050408D01*
X100650659Y-74815000D01*
X100630063Y-74579592D01*
X100568903Y-74351337D01*
X100469035Y-74137171D01*
X100459578Y-74123664D01*
X100333494Y-73943597D01*
X100166402Y-73776506D01*
X100166396Y-73776501D01*
X99980842Y-73646575D01*
X99937217Y-73591998D01*
X99930023Y-73522500D01*
X99961546Y-73460145D01*
X99980842Y-73443425D01*
X100007747Y-73424586D01*
X100166401Y-73313495D01*
X100333495Y-73146401D01*
X100469035Y-72952830D01*
X100568903Y-72738663D01*
X100630063Y-72510408D01*
X100650659Y-72275000D01*
X100630063Y-72039592D01*
X100568903Y-71811337D01*
X100469035Y-71597171D01*
X100333495Y-71403599D01*
X100211567Y-71281671D01*
X100178084Y-71220351D01*
X100183068Y-71150659D01*
X100224939Y-71094725D01*
X100255915Y-71077810D01*
X100387331Y-71028796D01*
X100502546Y-70942546D01*
X100588796Y-70827331D01*
X100639091Y-70692483D01*
X100645500Y-70632873D01*
X100645499Y-68837128D01*
X100639091Y-68777517D01*
X100638748Y-68776598D01*
X100588797Y-68642671D01*
X100588793Y-68642664D01*
X100502547Y-68527455D01*
X100502544Y-68527452D01*
X100387335Y-68441206D01*
X100387328Y-68441202D01*
X100255917Y-68392189D01*
X100199983Y-68350318D01*
X100175566Y-68284853D01*
X100190418Y-68216580D01*
X100211563Y-68188332D01*
X100333495Y-68066401D01*
X100469035Y-67872830D01*
X100496000Y-67815003D01*
X104504723Y-67815003D01*
X104506688Y-67837470D01*
X104506862Y-67845660D01*
X104505709Y-67871324D01*
X104505710Y-67871328D01*
X104505710Y-67871330D01*
X104507192Y-67882268D01*
X104516641Y-67952031D01*
X104516966Y-67954949D01*
X104523792Y-68032972D01*
X104523795Y-68032987D01*
X104530482Y-68057941D01*
X104532034Y-68065670D01*
X104535924Y-68094381D01*
X104535926Y-68094392D01*
X104560075Y-68168713D01*
X104560997Y-68171825D01*
X104580423Y-68244324D01*
X104580427Y-68244336D01*
X104592736Y-68270732D01*
X104595512Y-68277779D01*
X104605483Y-68308464D01*
X104640970Y-68374411D01*
X104642558Y-68377576D01*
X104672898Y-68442639D01*
X104691490Y-68469191D01*
X104695303Y-68475378D01*
X104712146Y-68506678D01*
X104712152Y-68506687D01*
X104756792Y-68562663D01*
X104759106Y-68565758D01*
X104785510Y-68603465D01*
X104798402Y-68621877D01*
X104798405Y-68621880D01*
X104823646Y-68647121D01*
X104828283Y-68652309D01*
X104852492Y-68682666D01*
X104903959Y-68727632D01*
X104907008Y-68730483D01*
X104953116Y-68776592D01*
X104953122Y-68776597D01*
X104953123Y-68776598D01*
X104954434Y-68777516D01*
X104985055Y-68798957D01*
X104990290Y-68803057D01*
X105022004Y-68830765D01*
X105022013Y-68830771D01*
X105077849Y-68864131D01*
X105081613Y-68866568D01*
X105132359Y-68902101D01*
X105132364Y-68902104D01*
X105154917Y-68912620D01*
X105170677Y-68919969D01*
X105176271Y-68922935D01*
X105213349Y-68945088D01*
X105215236Y-68946215D01*
X105233828Y-68953192D01*
X105273083Y-68967925D01*
X105277503Y-68969782D01*
X105330670Y-68994575D01*
X105330674Y-68994577D01*
X105361069Y-69002720D01*
X105374677Y-69006366D01*
X105380413Y-69008207D01*
X105397264Y-69014531D01*
X105425976Y-69025307D01*
X105483545Y-69035754D01*
X105488511Y-69036868D01*
X105542023Y-69051207D01*
X105590689Y-69055464D01*
X105596306Y-69056218D01*
X105647453Y-69065500D01*
X105702691Y-69065500D01*
X105708092Y-69065735D01*
X105736548Y-69068225D01*
X105759998Y-69070277D01*
X105760000Y-69070277D01*
X105812992Y-69065640D01*
X105816121Y-69065500D01*
X105816155Y-69065500D01*
X105870172Y-69060638D01*
X105977977Y-69051207D01*
X105978000Y-69051200D01*
X105978475Y-69051117D01*
X105983713Y-69050419D01*
X105984188Y-69050377D01*
X106087997Y-69021726D01*
X106189330Y-68994575D01*
X106189337Y-68994571D01*
X106196254Y-68992053D01*
X106200948Y-68990554D01*
X106201170Y-68990493D01*
X106201181Y-68990487D01*
X106201183Y-68990487D01*
X106295454Y-68945088D01*
X106295453Y-68945088D01*
X106387639Y-68902102D01*
X106387644Y-68902097D01*
X106392327Y-68899395D01*
X106392400Y-68899522D01*
X106403164Y-68893218D01*
X106403973Y-68892829D01*
X106486156Y-68833118D01*
X106566877Y-68776598D01*
X106567747Y-68775727D01*
X106582550Y-68763084D01*
X106586078Y-68760522D01*
X106654131Y-68689343D01*
X106721598Y-68621877D01*
X106724285Y-68618039D01*
X106736239Y-68603465D01*
X106741629Y-68597828D01*
X106741628Y-68597828D01*
X106741632Y-68597825D01*
X106794164Y-68518241D01*
X106847102Y-68442639D01*
X106850543Y-68435259D01*
X106859432Y-68419364D01*
X106865635Y-68409968D01*
X106901889Y-68325146D01*
X106939575Y-68244330D01*
X106942570Y-68233148D01*
X106948325Y-68216505D01*
X106954103Y-68202988D01*
X106973936Y-68116092D01*
X106996207Y-68032977D01*
X106997887Y-68013766D01*
X106999206Y-68005377D01*
X106999445Y-68004325D01*
X107004191Y-67983537D01*
X107008050Y-67897602D01*
X107015277Y-67815003D01*
X109354723Y-67815003D01*
X109356688Y-67837470D01*
X109356862Y-67845660D01*
X109355709Y-67871324D01*
X109355710Y-67871328D01*
X109355710Y-67871330D01*
X109357192Y-67882268D01*
X109366641Y-67952031D01*
X109366966Y-67954949D01*
X109373792Y-68032972D01*
X109373795Y-68032987D01*
X109380482Y-68057941D01*
X109382034Y-68065670D01*
X109385924Y-68094381D01*
X109385926Y-68094392D01*
X109410075Y-68168713D01*
X109410997Y-68171825D01*
X109430423Y-68244324D01*
X109430427Y-68244336D01*
X109442736Y-68270732D01*
X109445512Y-68277779D01*
X109455483Y-68308464D01*
X109490970Y-68374411D01*
X109492558Y-68377576D01*
X109522898Y-68442639D01*
X109541490Y-68469191D01*
X109545303Y-68475378D01*
X109562146Y-68506678D01*
X109562152Y-68506687D01*
X109606792Y-68562663D01*
X109609106Y-68565758D01*
X109635510Y-68603465D01*
X109648402Y-68621877D01*
X109648405Y-68621880D01*
X109673646Y-68647121D01*
X109678283Y-68652309D01*
X109702492Y-68682666D01*
X109753959Y-68727632D01*
X109757008Y-68730483D01*
X109803116Y-68776592D01*
X109803122Y-68776597D01*
X109803123Y-68776598D01*
X109804434Y-68777516D01*
X109835055Y-68798957D01*
X109840290Y-68803057D01*
X109872004Y-68830765D01*
X109872013Y-68830771D01*
X109927849Y-68864131D01*
X109931613Y-68866568D01*
X109982359Y-68902101D01*
X109982364Y-68902104D01*
X110004917Y-68912620D01*
X110020677Y-68919969D01*
X110026271Y-68922935D01*
X110063349Y-68945088D01*
X110065236Y-68946215D01*
X110083828Y-68953192D01*
X110123083Y-68967925D01*
X110127503Y-68969782D01*
X110180670Y-68994575D01*
X110180674Y-68994577D01*
X110211069Y-69002720D01*
X110224677Y-69006366D01*
X110230413Y-69008207D01*
X110247264Y-69014531D01*
X110275976Y-69025307D01*
X110333545Y-69035754D01*
X110338511Y-69036868D01*
X110392023Y-69051207D01*
X110440689Y-69055464D01*
X110446306Y-69056218D01*
X110497453Y-69065500D01*
X110552691Y-69065500D01*
X110558092Y-69065735D01*
X110586548Y-69068225D01*
X110609998Y-69070277D01*
X110610000Y-69070277D01*
X110662992Y-69065640D01*
X110666121Y-69065500D01*
X110666155Y-69065500D01*
X110720172Y-69060638D01*
X110827977Y-69051207D01*
X110828000Y-69051200D01*
X110828475Y-69051117D01*
X110833713Y-69050419D01*
X110834188Y-69050377D01*
X110937997Y-69021726D01*
X111039330Y-68994575D01*
X111039337Y-68994571D01*
X111046254Y-68992053D01*
X111050948Y-68990554D01*
X111051170Y-68990493D01*
X111051181Y-68990487D01*
X111051183Y-68990487D01*
X111145454Y-68945088D01*
X111237639Y-68902102D01*
X111237644Y-68902097D01*
X111242327Y-68899395D01*
X111242400Y-68899522D01*
X111253164Y-68893218D01*
X111253973Y-68892829D01*
X111336156Y-68833118D01*
X111416877Y-68776598D01*
X111417747Y-68775727D01*
X111432550Y-68763084D01*
X111436078Y-68760522D01*
X111504131Y-68689343D01*
X111571598Y-68621877D01*
X111574285Y-68618039D01*
X111586239Y-68603465D01*
X111591629Y-68597828D01*
X111591628Y-68597828D01*
X111591632Y-68597825D01*
X111644164Y-68518241D01*
X111697102Y-68442639D01*
X111700543Y-68435259D01*
X111709432Y-68419364D01*
X111715635Y-68409968D01*
X111751889Y-68325146D01*
X111789575Y-68244330D01*
X111792570Y-68233148D01*
X111798325Y-68216505D01*
X111804103Y-68202988D01*
X111823936Y-68116092D01*
X111846207Y-68032977D01*
X111847887Y-68013766D01*
X111849206Y-68005377D01*
X111849445Y-68004325D01*
X111854191Y-67983537D01*
X111858050Y-67897602D01*
X111865277Y-67815000D01*
X111863310Y-67792528D01*
X111863137Y-67784334D01*
X111864290Y-67758670D01*
X111853353Y-67677939D01*
X111853034Y-67675067D01*
X111846207Y-67597023D01*
X111839515Y-67572053D01*
X111837963Y-67564322D01*
X111834076Y-67535618D01*
X111834075Y-67535616D01*
X111834075Y-67535613D01*
X111809921Y-67461276D01*
X111808998Y-67458161D01*
X111805519Y-67445178D01*
X111789575Y-67385670D01*
X111777266Y-67359274D01*
X111774488Y-67352222D01*
X111764519Y-67321541D01*
X111764517Y-67321537D01*
X111764517Y-67321536D01*
X111743111Y-67281757D01*
X111729027Y-67255583D01*
X111727432Y-67252405D01*
X111712338Y-67220036D01*
X111697102Y-67187362D01*
X111678512Y-67160813D01*
X111674698Y-67154625D01*
X111674359Y-67153995D01*
X111657852Y-67123319D01*
X111613192Y-67067318D01*
X111610896Y-67064247D01*
X111571598Y-67008123D01*
X111546353Y-66982878D01*
X111541715Y-66977689D01*
X111517508Y-66947334D01*
X111509866Y-66940657D01*
X111466039Y-66902366D01*
X111462990Y-66899515D01*
X111416878Y-66853402D01*
X111384940Y-66831039D01*
X111379705Y-66826939D01*
X111347996Y-66799235D01*
X111347994Y-66799233D01*
X111347992Y-66799232D01*
X111292149Y-66765868D01*
X111288386Y-66763431D01*
X111237641Y-66727899D01*
X111199333Y-66710035D01*
X111193735Y-66707067D01*
X111154769Y-66683787D01*
X111154767Y-66683786D01*
X111096928Y-66662079D01*
X111092515Y-66660226D01*
X111039330Y-66635425D01*
X111039329Y-66635425D01*
X110995321Y-66623632D01*
X110989581Y-66621790D01*
X110944025Y-66604692D01*
X110886456Y-66594245D01*
X110881480Y-66593128D01*
X110827977Y-66578793D01*
X110779327Y-66574536D01*
X110773659Y-66573775D01*
X110722551Y-66564500D01*
X110722547Y-66564500D01*
X110667309Y-66564500D01*
X110661907Y-66564264D01*
X110633451Y-66561774D01*
X110610002Y-66559723D01*
X110609997Y-66559723D01*
X110557050Y-66564355D01*
X110553862Y-66564499D01*
X110553851Y-66564500D01*
X110553845Y-66564500D01*
X110507671Y-66568655D01*
X110499826Y-66569361D01*
X110392020Y-66578793D01*
X110391468Y-66578891D01*
X110386275Y-66579581D01*
X110385812Y-66579622D01*
X110385809Y-66579623D01*
X110282687Y-66608084D01*
X110282002Y-66608273D01*
X110227515Y-66622873D01*
X110180659Y-66635428D01*
X110173739Y-66637946D01*
X110169050Y-66639444D01*
X110168849Y-66639499D01*
X110168832Y-66639505D01*
X110074528Y-66684919D01*
X109982358Y-66727899D01*
X109977670Y-66730606D01*
X109977598Y-66730481D01*
X109966871Y-66736764D01*
X109966030Y-66737168D01*
X109883831Y-66796889D01*
X109803123Y-66853401D01*
X109802241Y-66854284D01*
X109787461Y-66866906D01*
X109783928Y-66869472D01*
X109783916Y-66869483D01*
X109752477Y-66902366D01*
X109715868Y-66940656D01*
X109696938Y-66959586D01*
X109648403Y-67008120D01*
X109648402Y-67008121D01*
X109645711Y-67011965D01*
X109633773Y-67026521D01*
X109628368Y-67032174D01*
X109609960Y-67060061D01*
X109575828Y-67111768D01*
X109522898Y-67187362D01*
X109522891Y-67187374D01*
X109519457Y-67194738D01*
X109510572Y-67210628D01*
X109504362Y-67220035D01*
X109504362Y-67220036D01*
X109483028Y-67269952D01*
X109469792Y-67300920D01*
X109468108Y-67304859D01*
X109430425Y-67385669D01*
X109430424Y-67385671D01*
X109427425Y-67396860D01*
X109421681Y-67413475D01*
X109415899Y-67427005D01*
X109415896Y-67427016D01*
X109396063Y-67513907D01*
X109373793Y-67597022D01*
X109373793Y-67597023D01*
X109372112Y-67616226D01*
X109370793Y-67624625D01*
X109365809Y-67646459D01*
X109365809Y-67646464D01*
X109361949Y-67732397D01*
X109354723Y-67814996D01*
X109354723Y-67815003D01*
X107015277Y-67815003D01*
X107015277Y-67815000D01*
X107013310Y-67792528D01*
X107013137Y-67784334D01*
X107014290Y-67758670D01*
X107003353Y-67677939D01*
X107003034Y-67675067D01*
X106996207Y-67597023D01*
X106989515Y-67572053D01*
X106987963Y-67564322D01*
X106984076Y-67535618D01*
X106984075Y-67535616D01*
X106984075Y-67535613D01*
X106959921Y-67461276D01*
X106958998Y-67458161D01*
X106955519Y-67445178D01*
X106939575Y-67385670D01*
X106927266Y-67359274D01*
X106924488Y-67352222D01*
X106914519Y-67321541D01*
X106914517Y-67321537D01*
X106914517Y-67321536D01*
X106893111Y-67281757D01*
X106879027Y-67255583D01*
X106877432Y-67252405D01*
X106862338Y-67220036D01*
X106847102Y-67187362D01*
X106828512Y-67160813D01*
X106824698Y-67154625D01*
X106824359Y-67153995D01*
X106807852Y-67123319D01*
X106763192Y-67067318D01*
X106760896Y-67064247D01*
X106721598Y-67008123D01*
X106696353Y-66982878D01*
X106691715Y-66977689D01*
X106667508Y-66947334D01*
X106659866Y-66940657D01*
X106616039Y-66902366D01*
X106612990Y-66899515D01*
X106566878Y-66853402D01*
X106534940Y-66831039D01*
X106529705Y-66826939D01*
X106497996Y-66799235D01*
X106497994Y-66799233D01*
X106497992Y-66799232D01*
X106442149Y-66765868D01*
X106438386Y-66763431D01*
X106387641Y-66727899D01*
X106349333Y-66710035D01*
X106343735Y-66707067D01*
X106304769Y-66683787D01*
X106304767Y-66683786D01*
X106246928Y-66662079D01*
X106242515Y-66660226D01*
X106189330Y-66635425D01*
X106189329Y-66635425D01*
X106145321Y-66623632D01*
X106139581Y-66621790D01*
X106094025Y-66604692D01*
X106036456Y-66594245D01*
X106031480Y-66593128D01*
X105977977Y-66578793D01*
X105929327Y-66574536D01*
X105923659Y-66573775D01*
X105872551Y-66564500D01*
X105872547Y-66564500D01*
X105817309Y-66564500D01*
X105811907Y-66564264D01*
X105783451Y-66561774D01*
X105760002Y-66559723D01*
X105759997Y-66559723D01*
X105707050Y-66564355D01*
X105703862Y-66564499D01*
X105703851Y-66564500D01*
X105703845Y-66564500D01*
X105657671Y-66568655D01*
X105649826Y-66569361D01*
X105542020Y-66578793D01*
X105541468Y-66578891D01*
X105536275Y-66579581D01*
X105535812Y-66579622D01*
X105535809Y-66579623D01*
X105432687Y-66608084D01*
X105432002Y-66608273D01*
X105377515Y-66622873D01*
X105330659Y-66635428D01*
X105323739Y-66637946D01*
X105319050Y-66639444D01*
X105318849Y-66639499D01*
X105318832Y-66639505D01*
X105224528Y-66684919D01*
X105132358Y-66727899D01*
X105127670Y-66730606D01*
X105127598Y-66730481D01*
X105116871Y-66736764D01*
X105116030Y-66737168D01*
X105033831Y-66796889D01*
X104953123Y-66853401D01*
X104952241Y-66854284D01*
X104937461Y-66866906D01*
X104933928Y-66869472D01*
X104933916Y-66869483D01*
X104902477Y-66902366D01*
X104865868Y-66940656D01*
X104846938Y-66959586D01*
X104798403Y-67008120D01*
X104798402Y-67008121D01*
X104795711Y-67011965D01*
X104783773Y-67026521D01*
X104778368Y-67032174D01*
X104759960Y-67060061D01*
X104725828Y-67111768D01*
X104672897Y-67187362D01*
X104672898Y-67187362D01*
X104672891Y-67187374D01*
X104669457Y-67194738D01*
X104660572Y-67210628D01*
X104654362Y-67220035D01*
X104654362Y-67220036D01*
X104633028Y-67269952D01*
X104619792Y-67300920D01*
X104618108Y-67304859D01*
X104580425Y-67385669D01*
X104580424Y-67385671D01*
X104577425Y-67396860D01*
X104571681Y-67413475D01*
X104565899Y-67427005D01*
X104565896Y-67427016D01*
X104546063Y-67513907D01*
X104523793Y-67597022D01*
X104523793Y-67597023D01*
X104522112Y-67616226D01*
X104520793Y-67624625D01*
X104515809Y-67646459D01*
X104515809Y-67646464D01*
X104511949Y-67732397D01*
X104504723Y-67814996D01*
X104504723Y-67815003D01*
X100496000Y-67815003D01*
X100568903Y-67658663D01*
X100630063Y-67430408D01*
X100650659Y-67195000D01*
X100630063Y-66959592D01*
X100578155Y-66765868D01*
X100568905Y-66731344D01*
X100568904Y-66731343D01*
X100568903Y-66731337D01*
X100469035Y-66517171D01*
X100389314Y-66403316D01*
X100333494Y-66323597D01*
X100166402Y-66156506D01*
X100166396Y-66156501D01*
X99980842Y-66026575D01*
X99937217Y-65971998D01*
X99930023Y-65902500D01*
X99961546Y-65840145D01*
X99980842Y-65823425D01*
X100053292Y-65772695D01*
X100166401Y-65693495D01*
X100333495Y-65526401D01*
X100469035Y-65332830D01*
X100568903Y-65118663D01*
X100630063Y-64890408D01*
X100639285Y-64785000D01*
X104054700Y-64785000D01*
X104061578Y-64868012D01*
X104061955Y-64872567D01*
X104065819Y-64963523D01*
X104065820Y-64963534D01*
X104070939Y-64987284D01*
X104072120Y-64995233D01*
X104073865Y-65016301D01*
X104073865Y-65016304D01*
X104073866Y-65016305D01*
X104096205Y-65104520D01*
X104099253Y-65118663D01*
X104116046Y-65196582D01*
X104123883Y-65216084D01*
X104126458Y-65223987D01*
X104130844Y-65241303D01*
X104168655Y-65327504D01*
X104204934Y-65417787D01*
X104204935Y-65417788D01*
X104214232Y-65432888D01*
X104218218Y-65440495D01*
X104224076Y-65453850D01*
X104277275Y-65535277D01*
X104329930Y-65620794D01*
X104336543Y-65628308D01*
X104347263Y-65642402D01*
X104349738Y-65646189D01*
X104351021Y-65648153D01*
X104419027Y-65722028D01*
X104487436Y-65799755D01*
X104492564Y-65803895D01*
X104505882Y-65816377D01*
X104508216Y-65818913D01*
X104589933Y-65882515D01*
X104672920Y-65949523D01*
X104672922Y-65949524D01*
X104675678Y-65951064D01*
X104691360Y-65961460D01*
X104691367Y-65961465D01*
X104691371Y-65961467D01*
X104691374Y-65961470D01*
X104780783Y-66009855D01*
X104785162Y-66012225D01*
X104881046Y-66065790D01*
X104883849Y-66067058D01*
X104890695Y-66070097D01*
X104890794Y-66069873D01*
X104895490Y-66071932D01*
X104895497Y-66071936D01*
X104999276Y-66107563D01*
X105105829Y-66145211D01*
X105106398Y-66145308D01*
X105111129Y-66146312D01*
X105115007Y-66147294D01*
X105115019Y-66147298D01*
X105226323Y-66165870D01*
X105226324Y-66165871D01*
X105340791Y-66185499D01*
X105340800Y-66185500D01*
X105576044Y-66185500D01*
X105576049Y-66185500D01*
X105609073Y-66179988D01*
X105632469Y-66176085D01*
X105637407Y-66175463D01*
X105697541Y-66170346D01*
X105749615Y-66156786D01*
X105755017Y-66155634D01*
X105804981Y-66147298D01*
X105862186Y-66127658D01*
X105866663Y-66126309D01*
X105928249Y-66110275D01*
X105934249Y-66107563D01*
X105939262Y-66105296D01*
X105974297Y-66089459D01*
X105979681Y-66087322D01*
X106024503Y-66071936D01*
X106080554Y-66041601D01*
X106084527Y-66039632D01*
X106093156Y-66035730D01*
X106145486Y-66012077D01*
X106184647Y-65985608D01*
X106189820Y-65982469D01*
X106228626Y-65961470D01*
X106281532Y-65920290D01*
X106284850Y-65917881D01*
X106343003Y-65878579D01*
X106374770Y-65848131D01*
X106379548Y-65844002D01*
X106411784Y-65818913D01*
X106414109Y-65816388D01*
X106429420Y-65799755D01*
X106459389Y-65767198D01*
X106462101Y-65764432D01*
X106515118Y-65713621D01*
X106539329Y-65680883D01*
X106543540Y-65675785D01*
X106568979Y-65648153D01*
X106609206Y-65586578D01*
X106611241Y-65583652D01*
X106656879Y-65521947D01*
X106673733Y-65488517D01*
X106677170Y-65482552D01*
X106695924Y-65453849D01*
X106726805Y-65383445D01*
X106728174Y-65380538D01*
X106764207Y-65309074D01*
X106774208Y-65276413D01*
X106776701Y-65269694D01*
X106789157Y-65241300D01*
X106808827Y-65163621D01*
X106809635Y-65160732D01*
X106834016Y-65081123D01*
X106837936Y-65050508D01*
X106839330Y-65043170D01*
X106846134Y-65016305D01*
X106853132Y-64931845D01*
X106864298Y-64844654D01*
X106863126Y-64817079D01*
X106863281Y-64809355D01*
X106865300Y-64785000D01*
X109504700Y-64785000D01*
X109511578Y-64868012D01*
X109511955Y-64872567D01*
X109515819Y-64963523D01*
X109515820Y-64963534D01*
X109520939Y-64987284D01*
X109522120Y-64995233D01*
X109523865Y-65016301D01*
X109523865Y-65016304D01*
X109523866Y-65016305D01*
X109546205Y-65104520D01*
X109549253Y-65118663D01*
X109566046Y-65196582D01*
X109573883Y-65216084D01*
X109576458Y-65223987D01*
X109580844Y-65241303D01*
X109618655Y-65327504D01*
X109654934Y-65417787D01*
X109654935Y-65417788D01*
X109664232Y-65432888D01*
X109668218Y-65440495D01*
X109674076Y-65453850D01*
X109727275Y-65535277D01*
X109779930Y-65620794D01*
X109786543Y-65628308D01*
X109797263Y-65642402D01*
X109799738Y-65646189D01*
X109801021Y-65648153D01*
X109869027Y-65722028D01*
X109937436Y-65799755D01*
X109942564Y-65803895D01*
X109955882Y-65816377D01*
X109958216Y-65818913D01*
X110039933Y-65882515D01*
X110122920Y-65949523D01*
X110122922Y-65949524D01*
X110125678Y-65951064D01*
X110141360Y-65961460D01*
X110141367Y-65961465D01*
X110141371Y-65961467D01*
X110141374Y-65961470D01*
X110230783Y-66009855D01*
X110235162Y-66012225D01*
X110331046Y-66065790D01*
X110333849Y-66067058D01*
X110340695Y-66070097D01*
X110340794Y-66069873D01*
X110345490Y-66071932D01*
X110345497Y-66071936D01*
X110449276Y-66107563D01*
X110555829Y-66145211D01*
X110556398Y-66145308D01*
X110561129Y-66146312D01*
X110565007Y-66147294D01*
X110565019Y-66147298D01*
X110676323Y-66165870D01*
X110676324Y-66165871D01*
X110790791Y-66185499D01*
X110790800Y-66185500D01*
X111026044Y-66185500D01*
X111026049Y-66185500D01*
X111059073Y-66179988D01*
X111082469Y-66176085D01*
X111087407Y-66175463D01*
X111147541Y-66170346D01*
X111199615Y-66156786D01*
X111205017Y-66155634D01*
X111254981Y-66147298D01*
X111312186Y-66127658D01*
X111316663Y-66126309D01*
X111378249Y-66110275D01*
X111384249Y-66107563D01*
X111389262Y-66105296D01*
X111424297Y-66089459D01*
X111429681Y-66087322D01*
X111474503Y-66071936D01*
X111530554Y-66041601D01*
X111534527Y-66039632D01*
X111543156Y-66035730D01*
X111595486Y-66012077D01*
X111634647Y-65985608D01*
X111639820Y-65982469D01*
X111678626Y-65961470D01*
X111731532Y-65920290D01*
X111734850Y-65917881D01*
X111793003Y-65878579D01*
X111824770Y-65848131D01*
X111829548Y-65844002D01*
X111861784Y-65818913D01*
X111864109Y-65816388D01*
X111879420Y-65799755D01*
X111909389Y-65767198D01*
X111912101Y-65764432D01*
X111965118Y-65713621D01*
X111989329Y-65680883D01*
X111993540Y-65675785D01*
X112018979Y-65648153D01*
X112059206Y-65586578D01*
X112061241Y-65583652D01*
X112106879Y-65521947D01*
X112123733Y-65488517D01*
X112127170Y-65482552D01*
X112145924Y-65453849D01*
X112176805Y-65383445D01*
X112178174Y-65380538D01*
X112214207Y-65309074D01*
X112224208Y-65276413D01*
X112226701Y-65269694D01*
X112239157Y-65241300D01*
X112258827Y-65163621D01*
X112259635Y-65160732D01*
X112284016Y-65081123D01*
X112287936Y-65050508D01*
X112289330Y-65043170D01*
X112296134Y-65016305D01*
X112303132Y-64931845D01*
X112314298Y-64844654D01*
X112313126Y-64817079D01*
X112313281Y-64809355D01*
X112315300Y-64785000D01*
X112314315Y-64773118D01*
X112308044Y-64697432D01*
X112307580Y-64686501D01*
X112304180Y-64606468D01*
X112299059Y-64582709D01*
X112297879Y-64574762D01*
X112296134Y-64553695D01*
X112296133Y-64553692D01*
X112296133Y-64553688D01*
X112273794Y-64465480D01*
X112273794Y-64465479D01*
X112253954Y-64373419D01*
X112246115Y-64353912D01*
X112243541Y-64346015D01*
X112239157Y-64328700D01*
X112201344Y-64242495D01*
X112165064Y-64152210D01*
X112155768Y-64137112D01*
X112151779Y-64129500D01*
X112145924Y-64116151D01*
X112092724Y-64034721D01*
X112040071Y-63949208D01*
X112040070Y-63949207D01*
X112040069Y-63949205D01*
X112033451Y-63941686D01*
X112022727Y-63927584D01*
X112018978Y-63921845D01*
X111950972Y-63847971D01*
X111882565Y-63770246D01*
X111877439Y-63766107D01*
X111864117Y-63753621D01*
X111861785Y-63751088D01*
X111861783Y-63751086D01*
X111780066Y-63687484D01*
X111697080Y-63620477D01*
X111697073Y-63620472D01*
X111694311Y-63618929D01*
X111678643Y-63608542D01*
X111678634Y-63608535D01*
X111678628Y-63608532D01*
X111678626Y-63608530D01*
X111584837Y-63557774D01*
X111488954Y-63504210D01*
X111488953Y-63504209D01*
X111488952Y-63504209D01*
X111486381Y-63503047D01*
X111479284Y-63499898D01*
X111479188Y-63500119D01*
X111474506Y-63498065D01*
X111370723Y-63462436D01*
X111264168Y-63424788D01*
X111264160Y-63424786D01*
X111263612Y-63424692D01*
X111258889Y-63423691D01*
X111254989Y-63422703D01*
X111143675Y-63404128D01*
X111029209Y-63384500D01*
X111029200Y-63384500D01*
X111026049Y-63384500D01*
X110793951Y-63384500D01*
X110793950Y-63384500D01*
X110737533Y-63393913D01*
X110732587Y-63394535D01*
X110730099Y-63394747D01*
X110672469Y-63399652D01*
X110672461Y-63399653D01*
X110620397Y-63413208D01*
X110614981Y-63414363D01*
X110565013Y-63422703D01*
X110507840Y-63442331D01*
X110503330Y-63443690D01*
X110441749Y-63459725D01*
X110441744Y-63459727D01*
X110395711Y-63480535D01*
X110390304Y-63482680D01*
X110345503Y-63498060D01*
X110345498Y-63498063D01*
X110289448Y-63528395D01*
X110285478Y-63530363D01*
X110224514Y-63557922D01*
X110185359Y-63584385D01*
X110180149Y-63587544D01*
X110141379Y-63608526D01*
X110141367Y-63608533D01*
X110088487Y-63649692D01*
X110085124Y-63652133D01*
X110027001Y-63691417D01*
X110026994Y-63691422D01*
X109995248Y-63721847D01*
X109990430Y-63726011D01*
X109958218Y-63751085D01*
X109958209Y-63751093D01*
X109910613Y-63802795D01*
X109907900Y-63805564D01*
X109854882Y-63856378D01*
X109854880Y-63856380D01*
X109830681Y-63889098D01*
X109826448Y-63894223D01*
X109801022Y-63921845D01*
X109760797Y-63983412D01*
X109758741Y-63986367D01*
X109713124Y-64048047D01*
X109713120Y-64048054D01*
X109696268Y-64081475D01*
X109692811Y-64087472D01*
X109674076Y-64116149D01*
X109643219Y-64186496D01*
X109641803Y-64189503D01*
X109605790Y-64260931D01*
X109595792Y-64293573D01*
X109593288Y-64300323D01*
X109580845Y-64328691D01*
X109580845Y-64328692D01*
X109561178Y-64406347D01*
X109560358Y-64409279D01*
X109535984Y-64488876D01*
X109535983Y-64488879D01*
X109532063Y-64519485D01*
X109530668Y-64526830D01*
X109523867Y-64553688D01*
X109523864Y-64553705D01*
X109516867Y-64638154D01*
X109505702Y-64725344D01*
X109505701Y-64725344D01*
X109506872Y-64752900D01*
X109506716Y-64760655D01*
X109504700Y-64784995D01*
X109504700Y-64785000D01*
X106865300Y-64785000D01*
X106864315Y-64773118D01*
X106858044Y-64697432D01*
X106857580Y-64686501D01*
X106854180Y-64606468D01*
X106849059Y-64582709D01*
X106847879Y-64574762D01*
X106846134Y-64553695D01*
X106846133Y-64553692D01*
X106846133Y-64553688D01*
X106823794Y-64465480D01*
X106823794Y-64465479D01*
X106803954Y-64373419D01*
X106796115Y-64353912D01*
X106793541Y-64346015D01*
X106789157Y-64328700D01*
X106751344Y-64242495D01*
X106715064Y-64152210D01*
X106705768Y-64137112D01*
X106701779Y-64129500D01*
X106695924Y-64116151D01*
X106642724Y-64034721D01*
X106590071Y-63949208D01*
X106590070Y-63949207D01*
X106590069Y-63949205D01*
X106583451Y-63941686D01*
X106572727Y-63927584D01*
X106568978Y-63921845D01*
X106500972Y-63847971D01*
X106432565Y-63770246D01*
X106427439Y-63766107D01*
X106414117Y-63753621D01*
X106411785Y-63751088D01*
X106411783Y-63751086D01*
X106330066Y-63687484D01*
X106247080Y-63620477D01*
X106247073Y-63620472D01*
X106244311Y-63618929D01*
X106228643Y-63608542D01*
X106228634Y-63608535D01*
X106228628Y-63608532D01*
X106228626Y-63608530D01*
X106134837Y-63557774D01*
X106038954Y-63504210D01*
X106038953Y-63504209D01*
X106038952Y-63504209D01*
X106036381Y-63503047D01*
X106029284Y-63499898D01*
X106029188Y-63500119D01*
X106024506Y-63498065D01*
X105920723Y-63462436D01*
X105814168Y-63424788D01*
X105814160Y-63424786D01*
X105813612Y-63424692D01*
X105808889Y-63423691D01*
X105804989Y-63422703D01*
X105693675Y-63404128D01*
X105579209Y-63384500D01*
X105579200Y-63384500D01*
X105576049Y-63384500D01*
X105343951Y-63384500D01*
X105343950Y-63384500D01*
X105287533Y-63393913D01*
X105282587Y-63394535D01*
X105280099Y-63394747D01*
X105222469Y-63399652D01*
X105222461Y-63399653D01*
X105170397Y-63413208D01*
X105164981Y-63414363D01*
X105115013Y-63422703D01*
X105057840Y-63442331D01*
X105053330Y-63443690D01*
X104991749Y-63459725D01*
X104991744Y-63459727D01*
X104945711Y-63480535D01*
X104940304Y-63482680D01*
X104895503Y-63498060D01*
X104895498Y-63498063D01*
X104839448Y-63528395D01*
X104835478Y-63530363D01*
X104774514Y-63557922D01*
X104735359Y-63584385D01*
X104730149Y-63587544D01*
X104691379Y-63608526D01*
X104691367Y-63608533D01*
X104638487Y-63649692D01*
X104635124Y-63652133D01*
X104577001Y-63691417D01*
X104576994Y-63691422D01*
X104545248Y-63721847D01*
X104540430Y-63726011D01*
X104508218Y-63751085D01*
X104508209Y-63751093D01*
X104460613Y-63802795D01*
X104457900Y-63805564D01*
X104404882Y-63856378D01*
X104404880Y-63856380D01*
X104380681Y-63889098D01*
X104376448Y-63894223D01*
X104351022Y-63921845D01*
X104310797Y-63983412D01*
X104308741Y-63986367D01*
X104263124Y-64048047D01*
X104263120Y-64048054D01*
X104246268Y-64081475D01*
X104242811Y-64087472D01*
X104224076Y-64116149D01*
X104193219Y-64186496D01*
X104191803Y-64189503D01*
X104155790Y-64260931D01*
X104145792Y-64293573D01*
X104143288Y-64300323D01*
X104130845Y-64328691D01*
X104130845Y-64328692D01*
X104111178Y-64406347D01*
X104110358Y-64409279D01*
X104085984Y-64488876D01*
X104085983Y-64488879D01*
X104082063Y-64519485D01*
X104080668Y-64526830D01*
X104073867Y-64553688D01*
X104073864Y-64553705D01*
X104066867Y-64638154D01*
X104055702Y-64725344D01*
X104055701Y-64725344D01*
X104056872Y-64752900D01*
X104056716Y-64760655D01*
X104054700Y-64784995D01*
X104054700Y-64785000D01*
X100639285Y-64785000D01*
X100650659Y-64655000D01*
X100630063Y-64419592D01*
X100568903Y-64191337D01*
X100469035Y-63977171D01*
X100449456Y-63949208D01*
X100333494Y-63783597D01*
X100166402Y-63616506D01*
X100166395Y-63616501D01*
X100163297Y-63614332D01*
X100125040Y-63587544D01*
X99972834Y-63480967D01*
X99972830Y-63480965D01*
X99971908Y-63480535D01*
X99758663Y-63381097D01*
X99758659Y-63381096D01*
X99758655Y-63381094D01*
X99530413Y-63319938D01*
X99530403Y-63319936D01*
X99295001Y-63299341D01*
X99294999Y-63299341D01*
X99059596Y-63319936D01*
X99059586Y-63319938D01*
X98831344Y-63381094D01*
X98831335Y-63381098D01*
X98617171Y-63480964D01*
X98617169Y-63480965D01*
X98423597Y-63616505D01*
X98256505Y-63783597D01*
X98120965Y-63977169D01*
X98120964Y-63977171D01*
X98021098Y-64191335D01*
X98021094Y-64191344D01*
X97959938Y-64419586D01*
X97959936Y-64419596D01*
X97939341Y-64654999D01*
X97939341Y-64655000D01*
X97959936Y-64890403D01*
X97959938Y-64890413D01*
X98021094Y-65118655D01*
X98021096Y-65118659D01*
X98021097Y-65118663D01*
X98091514Y-65269672D01*
X98120965Y-65332830D01*
X98120967Y-65332834D01*
X98256501Y-65526395D01*
X98256506Y-65526402D01*
X98423597Y-65693493D01*
X98423603Y-65693498D01*
X98609158Y-65823425D01*
X98652783Y-65878002D01*
X98659977Y-65947500D01*
X98628454Y-66009855D01*
X98609158Y-66026575D01*
X98423597Y-66156505D01*
X98256505Y-66323597D01*
X98120965Y-66517169D01*
X98120964Y-66517171D01*
X98021098Y-66731335D01*
X98021094Y-66731344D01*
X97959938Y-66959586D01*
X97959936Y-66959596D01*
X97939341Y-67194999D01*
X97939341Y-67195000D01*
X97959936Y-67430403D01*
X97959938Y-67430413D01*
X98021094Y-67658655D01*
X98021096Y-67658659D01*
X98021097Y-67658663D01*
X98108295Y-67845660D01*
X98120965Y-67872830D01*
X98120967Y-67872834D01*
X98176422Y-67952031D01*
X98256501Y-68066396D01*
X98256506Y-68066402D01*
X98378430Y-68188326D01*
X98411915Y-68249649D01*
X98406931Y-68319341D01*
X98365059Y-68375274D01*
X98334083Y-68392189D01*
X98202669Y-68441203D01*
X98202664Y-68441206D01*
X98087455Y-68527452D01*
X98087452Y-68527455D01*
X98001206Y-68642664D01*
X98001202Y-68642671D01*
X97950908Y-68777517D01*
X97945371Y-68829025D01*
X97944501Y-68837123D01*
X97944500Y-68837135D01*
X97944500Y-70632870D01*
X97944501Y-70632876D01*
X97950908Y-70692483D01*
X98001202Y-70827328D01*
X98001206Y-70827335D01*
X98087452Y-70942544D01*
X98087455Y-70942547D01*
X98202664Y-71028793D01*
X98202671Y-71028797D01*
X98334081Y-71077810D01*
X98390015Y-71119681D01*
X98414432Y-71185145D01*
X98399580Y-71253418D01*
X98378430Y-71281673D01*
X98256503Y-71403600D01*
X98120965Y-71597169D01*
X98120964Y-71597171D01*
X98021098Y-71811335D01*
X98021094Y-71811344D01*
X97959938Y-72039586D01*
X97959936Y-72039596D01*
X97939341Y-72274999D01*
X97939341Y-72275000D01*
X97959936Y-72510403D01*
X97959938Y-72510413D01*
X98021094Y-72738655D01*
X98021096Y-72738659D01*
X98021097Y-72738663D01*
X98076125Y-72856671D01*
X98120965Y-72952830D01*
X98120967Y-72952834D01*
X98256501Y-73146395D01*
X98256506Y-73146402D01*
X98423597Y-73313493D01*
X98423603Y-73313498D01*
X98609158Y-73443425D01*
X98652783Y-73498002D01*
X98659977Y-73567500D01*
X98628454Y-73629855D01*
X98609158Y-73646575D01*
X98423597Y-73776505D01*
X98256505Y-73943597D01*
X98120965Y-74137169D01*
X98120964Y-74137171D01*
X98021098Y-74351335D01*
X98021094Y-74351344D01*
X97959938Y-74579586D01*
X97959936Y-74579596D01*
X97939341Y-74814999D01*
X97939341Y-74815000D01*
X97959936Y-75050403D01*
X97959938Y-75050413D01*
X98021094Y-75278655D01*
X98021096Y-75278659D01*
X98021097Y-75278663D01*
X98044382Y-75328597D01*
X98120965Y-75492830D01*
X98120967Y-75492834D01*
X98256501Y-75686395D01*
X98256506Y-75686402D01*
X98423597Y-75853493D01*
X98423603Y-75853498D01*
X98609158Y-75983425D01*
X98652783Y-76038002D01*
X98659977Y-76107500D01*
X98628454Y-76169855D01*
X98609158Y-76186575D01*
X98423597Y-76316505D01*
X98256505Y-76483597D01*
X98120965Y-76677169D01*
X98120964Y-76677171D01*
X98021098Y-76891335D01*
X98021094Y-76891344D01*
X97959938Y-77119586D01*
X97959936Y-77119596D01*
X97939341Y-77354999D01*
X97939341Y-77355000D01*
X97959936Y-77590403D01*
X97959938Y-77590413D01*
X98021094Y-77818655D01*
X98021096Y-77818659D01*
X98021097Y-77818663D01*
X98091864Y-77970423D01*
X98120965Y-78032830D01*
X98120967Y-78032834D01*
X98229281Y-78187521D01*
X98240934Y-78204164D01*
X98256501Y-78226395D01*
X98256506Y-78226402D01*
X98423597Y-78393493D01*
X98423603Y-78393498D01*
X98609158Y-78523425D01*
X98652783Y-78578002D01*
X98659977Y-78647500D01*
X98628454Y-78709855D01*
X98609158Y-78726575D01*
X98423597Y-78856505D01*
X98256505Y-79023597D01*
X98120965Y-79217169D01*
X98120964Y-79217171D01*
X98021098Y-79431335D01*
X98021094Y-79431344D01*
X97959938Y-79659586D01*
X97959936Y-79659596D01*
X97939341Y-79894999D01*
X97939341Y-79895000D01*
X97959936Y-80130403D01*
X97959938Y-80130413D01*
X98021094Y-80358655D01*
X98021096Y-80358659D01*
X98021097Y-80358663D01*
X98120964Y-80572830D01*
X98120965Y-80572830D01*
X98120967Y-80572834D01*
X98229281Y-80727521D01*
X98256501Y-80766396D01*
X98256506Y-80766402D01*
X98378430Y-80888326D01*
X98411915Y-80949649D01*
X98406931Y-81019341D01*
X98365059Y-81075274D01*
X98334083Y-81092189D01*
X98202669Y-81141203D01*
X98202664Y-81141206D01*
X98087455Y-81227452D01*
X98087452Y-81227455D01*
X98001206Y-81342664D01*
X98001202Y-81342671D01*
X97950908Y-81477517D01*
X97944501Y-81537116D01*
X97944501Y-81537123D01*
X97944500Y-81537135D01*
X97944500Y-83332870D01*
X97944501Y-83332876D01*
X97950908Y-83392483D01*
X98001202Y-83527328D01*
X98001206Y-83527335D01*
X98087452Y-83642544D01*
X98087455Y-83642547D01*
X98202664Y-83728793D01*
X98202671Y-83728797D01*
X98334081Y-83777810D01*
X98390015Y-83819681D01*
X98414432Y-83885145D01*
X98399580Y-83953418D01*
X98378430Y-83981673D01*
X98256503Y-84103600D01*
X98120965Y-84297169D01*
X98120964Y-84297171D01*
X98021098Y-84511335D01*
X98021094Y-84511344D01*
X97959938Y-84739586D01*
X97959936Y-84739596D01*
X97939341Y-84974999D01*
X97939341Y-84975000D01*
X97959936Y-85210403D01*
X97959938Y-85210413D01*
X98021094Y-85438655D01*
X98021096Y-85438659D01*
X98021097Y-85438663D01*
X98075018Y-85554296D01*
X98120965Y-85652830D01*
X98120967Y-85652834D01*
X98229281Y-85807521D01*
X98232876Y-85812656D01*
X98256501Y-85846395D01*
X98256506Y-85846402D01*
X98423597Y-86013493D01*
X98423603Y-86013498D01*
X98609158Y-86143425D01*
X98652783Y-86198002D01*
X98659977Y-86267500D01*
X98628454Y-86329855D01*
X98609158Y-86346575D01*
X98423597Y-86476505D01*
X98256505Y-86643597D01*
X98120965Y-86837169D01*
X98120964Y-86837171D01*
X98021098Y-87051335D01*
X98021094Y-87051344D01*
X97959938Y-87279586D01*
X97959936Y-87279596D01*
X97939341Y-87514999D01*
X97939341Y-87515000D01*
X97959936Y-87750403D01*
X97959938Y-87750413D01*
X98021094Y-87978655D01*
X98021096Y-87978659D01*
X98021097Y-87978663D01*
X98044382Y-88028597D01*
X98120965Y-88192830D01*
X98120967Y-88192834D01*
X98256501Y-88386395D01*
X98256506Y-88386402D01*
X98423597Y-88553493D01*
X98423603Y-88553498D01*
X98609158Y-88683425D01*
X98652783Y-88738002D01*
X98659977Y-88807500D01*
X98628454Y-88869855D01*
X98609158Y-88886575D01*
X98423597Y-89016505D01*
X98256505Y-89183597D01*
X98120965Y-89377169D01*
X98120964Y-89377171D01*
X98021098Y-89591335D01*
X98021094Y-89591344D01*
X97959938Y-89819586D01*
X97959936Y-89819596D01*
X97939341Y-90054999D01*
X97939341Y-90055000D01*
X97959936Y-90290403D01*
X97959938Y-90290413D01*
X98021094Y-90518655D01*
X98021096Y-90518659D01*
X98021097Y-90518663D01*
X98044382Y-90568597D01*
X98120965Y-90732830D01*
X98120967Y-90732834D01*
X98256501Y-90926395D01*
X98256506Y-90926402D01*
X98423597Y-91093493D01*
X98423603Y-91093498D01*
X98609158Y-91223425D01*
X98652783Y-91278002D01*
X98659977Y-91347500D01*
X98628454Y-91409855D01*
X98609158Y-91426575D01*
X98423597Y-91556505D01*
X98256505Y-91723597D01*
X98120965Y-91917169D01*
X98120964Y-91917171D01*
X98021098Y-92131335D01*
X98021094Y-92131344D01*
X97959938Y-92359586D01*
X97959936Y-92359596D01*
X97939341Y-92594999D01*
X97939341Y-92595000D01*
X97959936Y-92830403D01*
X97959938Y-92830413D01*
X98021094Y-93058655D01*
X98021096Y-93058659D01*
X98021097Y-93058663D01*
X98044382Y-93108597D01*
X98120965Y-93272830D01*
X98120967Y-93272834D01*
X98184641Y-93363769D01*
X98256501Y-93466396D01*
X98256506Y-93466402D01*
X98378430Y-93588326D01*
X98411915Y-93649649D01*
X98406931Y-93719341D01*
X98365059Y-93775274D01*
X98334083Y-93792189D01*
X98202669Y-93841203D01*
X98202664Y-93841206D01*
X98087455Y-93927452D01*
X98087452Y-93927455D01*
X98001206Y-94042664D01*
X98001202Y-94042671D01*
X97950908Y-94177517D01*
X97945720Y-94225777D01*
X97944501Y-94237123D01*
X97944500Y-94237135D01*
X97944500Y-96032870D01*
X97944501Y-96032876D01*
X97950908Y-96092483D01*
X98001202Y-96227328D01*
X98001206Y-96227335D01*
X98087452Y-96342544D01*
X98087455Y-96342547D01*
X98202664Y-96428793D01*
X98202671Y-96428797D01*
X98334081Y-96477810D01*
X98390015Y-96519681D01*
X98414432Y-96585145D01*
X98399580Y-96653418D01*
X98378430Y-96681673D01*
X98256503Y-96803600D01*
X98120965Y-96997169D01*
X98120964Y-96997171D01*
X98021098Y-97211335D01*
X98021094Y-97211344D01*
X97959938Y-97439586D01*
X97959936Y-97439596D01*
X97939341Y-97674999D01*
X97939341Y-97675000D01*
X97959936Y-97910403D01*
X97959938Y-97910413D01*
X98021094Y-98138655D01*
X98021096Y-98138659D01*
X98021097Y-98138663D01*
X98044382Y-98188597D01*
X98120965Y-98352830D01*
X98120967Y-98352834D01*
X98256501Y-98546395D01*
X98256506Y-98546402D01*
X98423597Y-98713493D01*
X98423603Y-98713498D01*
X98609158Y-98843425D01*
X98652783Y-98898002D01*
X98659977Y-98967500D01*
X98628454Y-99029855D01*
X98609158Y-99046575D01*
X98423597Y-99176505D01*
X98256505Y-99343597D01*
X98120965Y-99537169D01*
X98120964Y-99537171D01*
X98021098Y-99751335D01*
X98021094Y-99751344D01*
X97959938Y-99979586D01*
X97959936Y-99979596D01*
X97939341Y-100214999D01*
X97939341Y-100215000D01*
X97959936Y-100450403D01*
X97959938Y-100450413D01*
X98021094Y-100678655D01*
X98021096Y-100678659D01*
X98021097Y-100678663D01*
X98082899Y-100811198D01*
X98120965Y-100892830D01*
X98120967Y-100892834D01*
X98256501Y-101086395D01*
X98256506Y-101086402D01*
X98423597Y-101253493D01*
X98423603Y-101253498D01*
X98609158Y-101383425D01*
X98652783Y-101438002D01*
X98659977Y-101507500D01*
X98628454Y-101569855D01*
X98609158Y-101586575D01*
X98423597Y-101716505D01*
X98256505Y-101883597D01*
X98120965Y-102077169D01*
X98120964Y-102077171D01*
X98021098Y-102291335D01*
X98021094Y-102291344D01*
X97959938Y-102519586D01*
X97959936Y-102519596D01*
X97939341Y-102754999D01*
X97939341Y-102755000D01*
X97959936Y-102990403D01*
X97959938Y-102990413D01*
X98021094Y-103218655D01*
X98021096Y-103218659D01*
X98021097Y-103218663D01*
X98106689Y-103402216D01*
X98120965Y-103432830D01*
X98120967Y-103432834D01*
X98209269Y-103558941D01*
X98244914Y-103609848D01*
X98256501Y-103626395D01*
X98256506Y-103626402D01*
X98423597Y-103793493D01*
X98423603Y-103793498D01*
X98609158Y-103923425D01*
X98652783Y-103978002D01*
X98659977Y-104047500D01*
X98628454Y-104109855D01*
X98609158Y-104126575D01*
X98423597Y-104256505D01*
X98256505Y-104423597D01*
X98120965Y-104617169D01*
X98120964Y-104617171D01*
X98021098Y-104831335D01*
X98021094Y-104831344D01*
X97959938Y-105059586D01*
X97959936Y-105059596D01*
X97939341Y-105294999D01*
X97939341Y-105295000D01*
X97959936Y-105530403D01*
X97959938Y-105530413D01*
X98021094Y-105758655D01*
X98021096Y-105758659D01*
X98021097Y-105758663D01*
X98044535Y-105808926D01*
X98120965Y-105972830D01*
X98120967Y-105972834D01*
X98229281Y-106127521D01*
X98256501Y-106166396D01*
X98256506Y-106166402D01*
X98378430Y-106288326D01*
X98411915Y-106349649D01*
X98406931Y-106419341D01*
X98365059Y-106475274D01*
X98334083Y-106492189D01*
X98202669Y-106541203D01*
X98202664Y-106541206D01*
X98087455Y-106627452D01*
X98087452Y-106627455D01*
X98001206Y-106742664D01*
X98001202Y-106742671D01*
X97950908Y-106877517D01*
X97945402Y-106928738D01*
X97944501Y-106937123D01*
X97944500Y-106937135D01*
X97944500Y-108732870D01*
X97944501Y-108732876D01*
X97950908Y-108792483D01*
X98001202Y-108927328D01*
X98001206Y-108927335D01*
X98087452Y-109042544D01*
X98087455Y-109042547D01*
X98202664Y-109128793D01*
X98202671Y-109128797D01*
X98334081Y-109177810D01*
X98390015Y-109219681D01*
X98414432Y-109285145D01*
X98399580Y-109353418D01*
X98378430Y-109381673D01*
X98256503Y-109503600D01*
X98120965Y-109697169D01*
X98120964Y-109697171D01*
X98021098Y-109911335D01*
X98021094Y-109911344D01*
X97959938Y-110139586D01*
X97959936Y-110139596D01*
X97939341Y-110374999D01*
X97939341Y-110375000D01*
X97959936Y-110610403D01*
X97959938Y-110610413D01*
X98021094Y-110838655D01*
X98021096Y-110838659D01*
X98021097Y-110838663D01*
X98120965Y-111052830D01*
X98120967Y-111052834D01*
X98256501Y-111246395D01*
X98256506Y-111246402D01*
X98423597Y-111413493D01*
X98423603Y-111413498D01*
X98609158Y-111543425D01*
X98652783Y-111598002D01*
X98659977Y-111667500D01*
X98628454Y-111729855D01*
X98609158Y-111746575D01*
X98423597Y-111876505D01*
X98256505Y-112043597D01*
X98120965Y-112237169D01*
X98120964Y-112237171D01*
X98021098Y-112451335D01*
X98021094Y-112451344D01*
X97959938Y-112679586D01*
X97959936Y-112679596D01*
X97939341Y-112914999D01*
X97939341Y-112915000D01*
X78474500Y-112915000D01*
X78474500Y-104248228D01*
X78494185Y-104181189D01*
X78510815Y-104160551D01*
X79352638Y-103318727D01*
X79366267Y-103306950D01*
X79385530Y-103292610D01*
X79385532Y-103292606D01*
X79385534Y-103292606D01*
X79405679Y-103268597D01*
X79419113Y-103252585D01*
X79422767Y-103248599D01*
X79428589Y-103242778D01*
X79448928Y-103217054D01*
X79454162Y-103210815D01*
X79498302Y-103158214D01*
X79498304Y-103158209D01*
X79502272Y-103152179D01*
X79502323Y-103152212D01*
X79506372Y-103145856D01*
X79506320Y-103145824D01*
X79510112Y-103139675D01*
X79542575Y-103070058D01*
X79577036Y-103001440D01*
X79577040Y-103001433D01*
X79577042Y-103001421D01*
X79579509Y-102994646D01*
X79579567Y-102994667D01*
X79582043Y-102987546D01*
X79581986Y-102987527D01*
X79584255Y-102980678D01*
X79584255Y-102980676D01*
X79584257Y-102980673D01*
X79599788Y-102905449D01*
X79617500Y-102830721D01*
X79617500Y-102830718D01*
X79618339Y-102823548D01*
X79618397Y-102823554D01*
X79619164Y-102816056D01*
X79619104Y-102816051D01*
X79619733Y-102808860D01*
X79617500Y-102732103D01*
X79617500Y-102035903D01*
X79637185Y-101968864D01*
X79649343Y-101952938D01*
X79726529Y-101867216D01*
X79821175Y-101703284D01*
X79876518Y-101532955D01*
X79906765Y-101483597D01*
X81715366Y-99674996D01*
X81734903Y-99659081D01*
X81765696Y-99638830D01*
X81773391Y-99630672D01*
X81789534Y-99616306D01*
X81798530Y-99609610D01*
X81839751Y-99560482D01*
X81842090Y-99557855D01*
X81886092Y-99511218D01*
X81891700Y-99501502D01*
X81904093Y-99483803D01*
X81911302Y-99475214D01*
X81940080Y-99417909D01*
X81941741Y-99414826D01*
X81973812Y-99359281D01*
X81977029Y-99348533D01*
X81985006Y-99328455D01*
X81990040Y-99318433D01*
X82004822Y-99256059D01*
X82005744Y-99252617D01*
X82024130Y-99191210D01*
X82024781Y-99180018D01*
X82027917Y-99158617D01*
X82030499Y-99147725D01*
X82030500Y-99147721D01*
X82030500Y-99083640D01*
X82030605Y-99080034D01*
X82031772Y-99059999D01*
X82034331Y-99016065D01*
X82032384Y-99005021D01*
X82030500Y-98983490D01*
X82030500Y-95612228D01*
X82050185Y-95545189D01*
X82066814Y-95524552D01*
X83289638Y-94301727D01*
X83303267Y-94289950D01*
X83322530Y-94275610D01*
X83322532Y-94275606D01*
X83322534Y-94275606D01*
X83340663Y-94253999D01*
X83356113Y-94235585D01*
X83359767Y-94231599D01*
X83365590Y-94225777D01*
X83385923Y-94200060D01*
X83435302Y-94141214D01*
X83435309Y-94141198D01*
X83439272Y-94135176D01*
X83439324Y-94135210D01*
X83443371Y-94128858D01*
X83443317Y-94128825D01*
X83447104Y-94122684D01*
X83447110Y-94122677D01*
X83479561Y-94053086D01*
X83514036Y-93984440D01*
X83514040Y-93984433D01*
X83514042Y-93984421D01*
X83516510Y-93977644D01*
X83516568Y-93977665D01*
X83519043Y-93970546D01*
X83518985Y-93970527D01*
X83521256Y-93963672D01*
X83536784Y-93888467D01*
X83554500Y-93813721D01*
X83554500Y-93813720D01*
X83555339Y-93806548D01*
X83555397Y-93806554D01*
X83556164Y-93799056D01*
X83556104Y-93799051D01*
X83556733Y-93791860D01*
X83556250Y-93775274D01*
X83554500Y-93715102D01*
X83554500Y-87656321D01*
X83571113Y-87594321D01*
X83577648Y-87583002D01*
X83631179Y-87490284D01*
X83689674Y-87310256D01*
X83709460Y-87122000D01*
X83689674Y-86933744D01*
X83631179Y-86753716D01*
X83571113Y-86649677D01*
X83554500Y-86587677D01*
X83554500Y-85661705D01*
X83555809Y-85643735D01*
X83559289Y-85619974D01*
X83554736Y-85567939D01*
X83554500Y-85562532D01*
X83554500Y-85554296D01*
X83554500Y-85554291D01*
X83550691Y-85521705D01*
X83543998Y-85445203D01*
X83543995Y-85445194D01*
X83542538Y-85438135D01*
X83542598Y-85438122D01*
X83540965Y-85430757D01*
X83540906Y-85430772D01*
X83539241Y-85423749D01*
X83539241Y-85423745D01*
X83512971Y-85351568D01*
X83503010Y-85321506D01*
X83488816Y-85278670D01*
X83485761Y-85272118D01*
X83485815Y-85272092D01*
X83482533Y-85265312D01*
X83482480Y-85265340D01*
X83479238Y-85258886D01*
X83479237Y-85258883D01*
X83437038Y-85194723D01*
X83396712Y-85129344D01*
X83396711Y-85129343D01*
X83396710Y-85129341D01*
X83392234Y-85123681D01*
X83392280Y-85123643D01*
X83387519Y-85117799D01*
X83387474Y-85117838D01*
X83382834Y-85112308D01*
X83326982Y-85059613D01*
X83048541Y-84781172D01*
X83048502Y-84781135D01*
X80796819Y-82529451D01*
X80763334Y-82468128D01*
X80760500Y-82441770D01*
X80760500Y-80327705D01*
X80761809Y-80309735D01*
X80764961Y-80288214D01*
X80765289Y-80285977D01*
X80760735Y-80233931D01*
X80760500Y-80228528D01*
X80760500Y-80220297D01*
X80760500Y-80220291D01*
X80756693Y-80187724D01*
X80755570Y-80174888D01*
X80749999Y-80111201D01*
X80748539Y-80104129D01*
X80748597Y-80104116D01*
X80746965Y-80096757D01*
X80746906Y-80096772D01*
X80745242Y-80089753D01*
X80745241Y-80089745D01*
X80718974Y-80017576D01*
X80694814Y-79944666D01*
X80694809Y-79944659D01*
X80691760Y-79938118D01*
X80691815Y-79938091D01*
X80688533Y-79931313D01*
X80688480Y-79931340D01*
X80685235Y-79924880D01*
X80643028Y-79860708D01*
X80602710Y-79795342D01*
X80598234Y-79789682D01*
X80598281Y-79789644D01*
X80593519Y-79783799D01*
X80593474Y-79783838D01*
X80588834Y-79778309D01*
X80588832Y-79778307D01*
X80588830Y-79778304D01*
X80550826Y-79742449D01*
X80532965Y-79725597D01*
X80160770Y-79353402D01*
X80130521Y-79304041D01*
X80075179Y-79133716D01*
X79980533Y-78969784D01*
X79853871Y-78829112D01*
X79853870Y-78829111D01*
X79700734Y-78717851D01*
X79700729Y-78717848D01*
X79527807Y-78640857D01*
X79527802Y-78640855D01*
X79382001Y-78609865D01*
X79342646Y-78601500D01*
X79153354Y-78601500D01*
X79120897Y-78608398D01*
X78968197Y-78640855D01*
X78968192Y-78640857D01*
X78795270Y-78717848D01*
X78795265Y-78717851D01*
X78642129Y-78829111D01*
X78515466Y-78969785D01*
X78420821Y-79133715D01*
X78420818Y-79133722D01*
X78365479Y-79304039D01*
X78362326Y-79313744D01*
X78342540Y-79502000D01*
X78362326Y-79690256D01*
X78362327Y-79690259D01*
X78420818Y-79870277D01*
X78420821Y-79870284D01*
X78515467Y-80034216D01*
X78642129Y-80174888D01*
X78795265Y-80286148D01*
X78795270Y-80286151D01*
X78968191Y-80363142D01*
X78968193Y-80363142D01*
X78968197Y-80363144D01*
X79033329Y-80376987D01*
X79094809Y-80410178D01*
X79095228Y-80410596D01*
X79223181Y-80538549D01*
X79256666Y-80599872D01*
X79259500Y-80626230D01*
X79259500Y-82740294D01*
X79258191Y-82758263D01*
X79254710Y-82782025D01*
X79259264Y-82834064D01*
X79259500Y-82839470D01*
X79259500Y-82847709D01*
X79263306Y-82880274D01*
X79270000Y-82956791D01*
X79271461Y-82963867D01*
X79271403Y-82963878D01*
X79273034Y-82971237D01*
X79273092Y-82971224D01*
X79274757Y-82978250D01*
X79301025Y-83050424D01*
X79325185Y-83123331D01*
X79328236Y-83129874D01*
X79328182Y-83129898D01*
X79331470Y-83136688D01*
X79331521Y-83136663D01*
X79334761Y-83143113D01*
X79334762Y-83143114D01*
X79334763Y-83143117D01*
X79376965Y-83207282D01*
X79376965Y-83207283D01*
X79417287Y-83272655D01*
X79421766Y-83278319D01*
X79421719Y-83278356D01*
X79426482Y-83284202D01*
X79426528Y-83284164D01*
X79431173Y-83289700D01*
X79476934Y-83332872D01*
X79487018Y-83342386D01*
X81954951Y-85810318D01*
X81954962Y-85810330D01*
X82017181Y-85872549D01*
X82050666Y-85933872D01*
X82053500Y-85960230D01*
X82053500Y-86587677D01*
X82036887Y-86649677D01*
X81976821Y-86753714D01*
X81918327Y-86933740D01*
X81918326Y-86933744D01*
X81898540Y-87122000D01*
X81918326Y-87310256D01*
X81918327Y-87310259D01*
X81976818Y-87490277D01*
X81976821Y-87490284D01*
X82008494Y-87545144D01*
X82036887Y-87594321D01*
X82053500Y-87656321D01*
X82053500Y-93363769D01*
X82033815Y-93430808D01*
X82017181Y-93451450D01*
X80794358Y-94674272D01*
X80780729Y-94686051D01*
X80761468Y-94700390D01*
X80727898Y-94740397D01*
X80724253Y-94744376D01*
X80718409Y-94750222D01*
X80698059Y-94775959D01*
X80648695Y-94834789D01*
X80644729Y-94840819D01*
X80644682Y-94840788D01*
X80640630Y-94847147D01*
X80640679Y-94847177D01*
X80636889Y-94853321D01*
X80604424Y-94922941D01*
X80569960Y-94991566D01*
X80567488Y-94998357D01*
X80567432Y-94998336D01*
X80564960Y-95005450D01*
X80565015Y-95005469D01*
X80562742Y-95012327D01*
X80554974Y-95049945D01*
X80547207Y-95087565D01*
X80534001Y-95143284D01*
X80529498Y-95162286D01*
X80528661Y-95169454D01*
X80528601Y-95169447D01*
X80527835Y-95176945D01*
X80527895Y-95176951D01*
X80527265Y-95184140D01*
X80529500Y-95260916D01*
X80529500Y-98686765D01*
X80509815Y-98753804D01*
X80493181Y-98774446D01*
X78841224Y-100426402D01*
X78779901Y-100459887D01*
X78779325Y-100460011D01*
X78714192Y-100473856D01*
X78714188Y-100473857D01*
X78541266Y-100550848D01*
X78541261Y-100550851D01*
X78388125Y-100662111D01*
X78261462Y-100802785D01*
X78166817Y-100966715D01*
X78166814Y-100966722D01*
X78127928Y-101086402D01*
X78108322Y-101146744D01*
X78088536Y-101335000D01*
X78108322Y-101523256D01*
X78108323Y-101523259D01*
X78110431Y-101529747D01*
X78116500Y-101568065D01*
X78116500Y-102380769D01*
X78096815Y-102447808D01*
X78080181Y-102468450D01*
X77238358Y-103310272D01*
X77224729Y-103322051D01*
X77205468Y-103336390D01*
X77171898Y-103376397D01*
X77168253Y-103380376D01*
X77162409Y-103386222D01*
X77142059Y-103411959D01*
X77092695Y-103470789D01*
X77088729Y-103476819D01*
X77088682Y-103476788D01*
X77084630Y-103483147D01*
X77084679Y-103483177D01*
X77080889Y-103489321D01*
X77048424Y-103558941D01*
X77013960Y-103627566D01*
X77011488Y-103634357D01*
X77011432Y-103634336D01*
X77008960Y-103641450D01*
X77009015Y-103641469D01*
X77006742Y-103648327D01*
X76998974Y-103685945D01*
X76991207Y-103723565D01*
X76980084Y-103770500D01*
X76973498Y-103798286D01*
X76972661Y-103805454D01*
X76972601Y-103805447D01*
X76971835Y-103812945D01*
X76971895Y-103812951D01*
X76971265Y-103820140D01*
X76973500Y-103896916D01*
X76973500Y-113683769D01*
X76953815Y-113750808D01*
X76937181Y-113771450D01*
X75539228Y-115169402D01*
X75477905Y-115202887D01*
X75477329Y-115203011D01*
X75412196Y-115216856D01*
X75412192Y-115216857D01*
X75239270Y-115293848D01*
X75239265Y-115293851D01*
X75086129Y-115405111D01*
X74959466Y-115545785D01*
X74864821Y-115709715D01*
X74864818Y-115709722D01*
X74806327Y-115889740D01*
X74806326Y-115889744D01*
X74786540Y-116078000D01*
X67110343Y-116078000D01*
X66996568Y-115847286D01*
X66996564Y-115847279D01*
X66829026Y-115596540D01*
X66630189Y-115369810D01*
X66403459Y-115170973D01*
X66152720Y-115003435D01*
X66152713Y-115003431D01*
X65882268Y-114870062D01*
X65882247Y-114870053D01*
X65596698Y-114773122D01*
X65596692Y-114773120D01*
X65596691Y-114773120D01*
X65596689Y-114773119D01*
X65596683Y-114773118D01*
X65300930Y-114714288D01*
X65300921Y-114714287D01*
X65300920Y-114714287D01*
X65000000Y-114694564D01*
X64999999Y-114694564D01*
X64849540Y-114704425D01*
X64699080Y-114714287D01*
X64699079Y-114714287D01*
X64699069Y-114714288D01*
X64403316Y-114773118D01*
X64403301Y-114773122D01*
X64117752Y-114870053D01*
X64117731Y-114870062D01*
X63847286Y-115003431D01*
X63847279Y-115003435D01*
X63596540Y-115170973D01*
X63369810Y-115369810D01*
X63170973Y-115596540D01*
X63003435Y-115847279D01*
X63003431Y-115847286D01*
X62870062Y-116117731D01*
X62870053Y-116117752D01*
X62773122Y-116403301D01*
X62773118Y-116403316D01*
X62714288Y-116699069D01*
X62714287Y-116699079D01*
X62714287Y-116699080D01*
X62694564Y-117000000D01*
X60000500Y-117000000D01*
X60000500Y-116999500D01*
X60000500Y-109220000D01*
X60620341Y-109220000D01*
X60640936Y-109455403D01*
X60640938Y-109455413D01*
X60702094Y-109683655D01*
X60702096Y-109683659D01*
X60702097Y-109683663D01*
X60706000Y-109692032D01*
X60801965Y-109897830D01*
X60801967Y-109897834D01*
X60910281Y-110052521D01*
X60937505Y-110091401D01*
X61104599Y-110258495D01*
X61201384Y-110326264D01*
X61298165Y-110394032D01*
X61298167Y-110394033D01*
X61298170Y-110394035D01*
X61512337Y-110493903D01*
X61740592Y-110555063D01*
X61928918Y-110571539D01*
X61975999Y-110575659D01*
X61976000Y-110575659D01*
X61976001Y-110575659D01*
X62015234Y-110572226D01*
X62211408Y-110555063D01*
X62439663Y-110493903D01*
X62653830Y-110394035D01*
X62847401Y-110258495D01*
X63014495Y-110091401D01*
X63144424Y-109905842D01*
X63199002Y-109862217D01*
X63268500Y-109855023D01*
X63330855Y-109886546D01*
X63347575Y-109905842D01*
X63477500Y-110091395D01*
X63477505Y-110091401D01*
X63644599Y-110258495D01*
X63741384Y-110326264D01*
X63838165Y-110394032D01*
X63838167Y-110394033D01*
X63838170Y-110394035D01*
X64052337Y-110493903D01*
X64280592Y-110555063D01*
X64468918Y-110571539D01*
X64515999Y-110575659D01*
X64516000Y-110575659D01*
X64516001Y-110575659D01*
X64555234Y-110572226D01*
X64751408Y-110555063D01*
X64979663Y-110493903D01*
X65193830Y-110394035D01*
X65387401Y-110258495D01*
X65554495Y-110091401D01*
X65690035Y-109897830D01*
X65789903Y-109683663D01*
X65851063Y-109455408D01*
X65871659Y-109220000D01*
X65868640Y-109185499D01*
X65863680Y-109128797D01*
X65851063Y-108984592D01*
X65789903Y-108756337D01*
X65690035Y-108542171D01*
X65684425Y-108534158D01*
X65554494Y-108348597D01*
X65387402Y-108181506D01*
X65387401Y-108181505D01*
X65201842Y-108051575D01*
X65201841Y-108051574D01*
X65158216Y-107996997D01*
X65151024Y-107927498D01*
X65182546Y-107865144D01*
X65201836Y-107848428D01*
X65387401Y-107718495D01*
X65554495Y-107551401D01*
X65690035Y-107357830D01*
X65789903Y-107143663D01*
X65851063Y-106915408D01*
X65871659Y-106680000D01*
X65851063Y-106444592D01*
X65789903Y-106216337D01*
X65690035Y-106002171D01*
X65684731Y-105994595D01*
X65554494Y-105808597D01*
X65387402Y-105641506D01*
X65387396Y-105641501D01*
X65201842Y-105511575D01*
X65158217Y-105456998D01*
X65151023Y-105387500D01*
X65182546Y-105325145D01*
X65201842Y-105308425D01*
X65277938Y-105255142D01*
X65387401Y-105178495D01*
X65554495Y-105011401D01*
X65690035Y-104817830D01*
X65789903Y-104603663D01*
X65851063Y-104375408D01*
X65871659Y-104140000D01*
X65870484Y-104126575D01*
X65861660Y-104025715D01*
X65851063Y-103904592D01*
X65789903Y-103676337D01*
X65690035Y-103462171D01*
X65684425Y-103454158D01*
X65554494Y-103268597D01*
X65387402Y-103101506D01*
X65387401Y-103101505D01*
X65229138Y-102990688D01*
X65201841Y-102971574D01*
X65158216Y-102916997D01*
X65153353Y-102870000D01*
X71738540Y-102870000D01*
X71758326Y-103058256D01*
X71758327Y-103058259D01*
X71816818Y-103238277D01*
X71816821Y-103238284D01*
X71911467Y-103402216D01*
X71978612Y-103476788D01*
X72038129Y-103542888D01*
X72191265Y-103654148D01*
X72191270Y-103654151D01*
X72364192Y-103731142D01*
X72364197Y-103731144D01*
X72549354Y-103770500D01*
X72549355Y-103770500D01*
X72738644Y-103770500D01*
X72738646Y-103770500D01*
X72923803Y-103731144D01*
X73096730Y-103654151D01*
X73249871Y-103542888D01*
X73376533Y-103402216D01*
X73471179Y-103238284D01*
X73529674Y-103058256D01*
X73549460Y-102870000D01*
X73529674Y-102681744D01*
X73487277Y-102551263D01*
X73485283Y-102481425D01*
X73521363Y-102421592D01*
X73554771Y-102399669D01*
X73600077Y-102379498D01*
X73753218Y-102268235D01*
X73879880Y-102127563D01*
X73974526Y-101963631D01*
X74033021Y-101783603D01*
X74052807Y-101595347D01*
X74033021Y-101407091D01*
X74026871Y-101388163D01*
X74024877Y-101318322D01*
X74060959Y-101258490D01*
X74123660Y-101227663D01*
X74144803Y-101225847D01*
X74257991Y-101225847D01*
X74257993Y-101225847D01*
X74443150Y-101186491D01*
X74616077Y-101109498D01*
X74769218Y-100998235D01*
X74895880Y-100857563D01*
X74990526Y-100693631D01*
X75049021Y-100513603D01*
X75049021Y-100513601D01*
X75050061Y-100508712D01*
X75083257Y-100447232D01*
X75144422Y-100413459D01*
X75171350Y-100410500D01*
X75268422Y-100410500D01*
X75268424Y-100410500D01*
X75453581Y-100371144D01*
X75626508Y-100294151D01*
X75779649Y-100182888D01*
X75906311Y-100042216D01*
X76000957Y-99878284D01*
X76059452Y-99698256D01*
X76079238Y-99510000D01*
X76059452Y-99321744D01*
X76000957Y-99141716D01*
X75906311Y-98977784D01*
X75779649Y-98837112D01*
X75779648Y-98837111D01*
X75626512Y-98725851D01*
X75626507Y-98725848D01*
X75453585Y-98648857D01*
X75453580Y-98648855D01*
X75307778Y-98617865D01*
X75268424Y-98609500D01*
X75079132Y-98609500D01*
X75046675Y-98616398D01*
X74893975Y-98648855D01*
X74893970Y-98648857D01*
X74721048Y-98725848D01*
X74721043Y-98725851D01*
X74567907Y-98837111D01*
X74441244Y-98977785D01*
X74346599Y-99141715D01*
X74346596Y-99141722D01*
X74288104Y-99321742D01*
X74287067Y-99326624D01*
X74253876Y-99388107D01*
X74192714Y-99421886D01*
X74165776Y-99424847D01*
X74068701Y-99424847D01*
X74036244Y-99431745D01*
X73883544Y-99464202D01*
X73883539Y-99464204D01*
X73710617Y-99541195D01*
X73710612Y-99541198D01*
X73557476Y-99652458D01*
X73430813Y-99793132D01*
X73336168Y-99957062D01*
X73336165Y-99957069D01*
X73277674Y-100137087D01*
X73277673Y-100137091D01*
X73257887Y-100325347D01*
X73263316Y-100376998D01*
X73277673Y-100513605D01*
X73283823Y-100532531D01*
X73285817Y-100602372D01*
X73249735Y-100662204D01*
X73187034Y-100693031D01*
X73165891Y-100694847D01*
X73052701Y-100694847D01*
X73020244Y-100701745D01*
X72867544Y-100734202D01*
X72867539Y-100734204D01*
X72694617Y-100811195D01*
X72694612Y-100811198D01*
X72541476Y-100922458D01*
X72414813Y-101063132D01*
X72320168Y-101227062D01*
X72320165Y-101227069D01*
X72263930Y-101400144D01*
X72261673Y-101407091D01*
X72241887Y-101595347D01*
X72261673Y-101783603D01*
X72261673Y-101783605D01*
X72261674Y-101783607D01*
X72304067Y-101914082D01*
X72306062Y-101983923D01*
X72269981Y-102043755D01*
X72236573Y-102065678D01*
X72191267Y-102085849D01*
X72038129Y-102197111D01*
X71911466Y-102337785D01*
X71816821Y-102501715D01*
X71816818Y-102501722D01*
X71758327Y-102681740D01*
X71758326Y-102681744D01*
X71738540Y-102870000D01*
X65153353Y-102870000D01*
X65151024Y-102847498D01*
X65182546Y-102785144D01*
X65201836Y-102768428D01*
X65387401Y-102638495D01*
X65554495Y-102471401D01*
X65690035Y-102277830D01*
X65789903Y-102063663D01*
X65851063Y-101835408D01*
X65871659Y-101600000D01*
X65870484Y-101586575D01*
X65865709Y-101531997D01*
X65851063Y-101364592D01*
X65792692Y-101146744D01*
X65789905Y-101136344D01*
X65789904Y-101136343D01*
X65789903Y-101136337D01*
X65690035Y-100922171D01*
X65684425Y-100914158D01*
X65554494Y-100728597D01*
X65387402Y-100561506D01*
X65387396Y-100561501D01*
X65201842Y-100431575D01*
X65158217Y-100376998D01*
X65151023Y-100307500D01*
X65182546Y-100245145D01*
X65201842Y-100228425D01*
X65332280Y-100137091D01*
X65387401Y-100098495D01*
X65554495Y-99931401D01*
X65690035Y-99737830D01*
X65789903Y-99523663D01*
X65851063Y-99295408D01*
X65871659Y-99060000D01*
X65870484Y-99046575D01*
X65863566Y-98967500D01*
X65851063Y-98824592D01*
X65789903Y-98596337D01*
X65690035Y-98382171D01*
X65684425Y-98374158D01*
X65554494Y-98188597D01*
X65387402Y-98021506D01*
X65387401Y-98021505D01*
X65265746Y-97936321D01*
X65201841Y-97891574D01*
X65158216Y-97836997D01*
X65151024Y-97767498D01*
X65182546Y-97705144D01*
X65201836Y-97688428D01*
X65387401Y-97558495D01*
X65554495Y-97391401D01*
X65690035Y-97197830D01*
X65789903Y-96983663D01*
X65851063Y-96755408D01*
X65871659Y-96520000D01*
X65868640Y-96485499D01*
X65863680Y-96428797D01*
X65851063Y-96284592D01*
X65789903Y-96056337D01*
X65690035Y-95842171D01*
X65684425Y-95834158D01*
X65554494Y-95648597D01*
X65387402Y-95481506D01*
X65387396Y-95481501D01*
X65201842Y-95351575D01*
X65158217Y-95296998D01*
X65151023Y-95227500D01*
X65182546Y-95165145D01*
X65201842Y-95148425D01*
X65288759Y-95087565D01*
X65387401Y-95018495D01*
X65554495Y-94851401D01*
X65690035Y-94657830D01*
X65789903Y-94443663D01*
X65851063Y-94215408D01*
X65871659Y-93980000D01*
X65870230Y-93963672D01*
X65859516Y-93841206D01*
X65851063Y-93744592D01*
X65789903Y-93516337D01*
X65690035Y-93302171D01*
X65684425Y-93294158D01*
X65554494Y-93108597D01*
X65387402Y-92941506D01*
X65387401Y-92941505D01*
X65265746Y-92856321D01*
X65201841Y-92811574D01*
X65158216Y-92756997D01*
X65151024Y-92687498D01*
X65182546Y-92625144D01*
X65201836Y-92608428D01*
X65387401Y-92478495D01*
X65554495Y-92311401D01*
X65690035Y-92117830D01*
X65789903Y-91903663D01*
X65851063Y-91675408D01*
X65871659Y-91440000D01*
X65870484Y-91426575D01*
X65863566Y-91347500D01*
X65851063Y-91204592D01*
X65789903Y-90976337D01*
X65690035Y-90762171D01*
X65684425Y-90754158D01*
X65554494Y-90568597D01*
X65387402Y-90401506D01*
X65387396Y-90401501D01*
X65201842Y-90271575D01*
X65158217Y-90216998D01*
X65151023Y-90147500D01*
X65182546Y-90085145D01*
X65201842Y-90068425D01*
X65224026Y-90052891D01*
X65387401Y-89938495D01*
X65554495Y-89771401D01*
X65690035Y-89577830D01*
X65789903Y-89363663D01*
X65851063Y-89135408D01*
X65871659Y-88900000D01*
X65870484Y-88886575D01*
X65863566Y-88807500D01*
X65851063Y-88664592D01*
X65789903Y-88436337D01*
X65690035Y-88222171D01*
X65684425Y-88214158D01*
X65554494Y-88028597D01*
X65387402Y-87861506D01*
X65387401Y-87861505D01*
X65265746Y-87776321D01*
X65201841Y-87731574D01*
X65158216Y-87676997D01*
X65151024Y-87607498D01*
X65182546Y-87545144D01*
X65201836Y-87528428D01*
X65387401Y-87398495D01*
X65554495Y-87231401D01*
X65690035Y-87037830D01*
X65789903Y-86823663D01*
X65851063Y-86595408D01*
X65871659Y-86360000D01*
X65870484Y-86346575D01*
X65863566Y-86267500D01*
X65851063Y-86124592D01*
X65789903Y-85896337D01*
X65690035Y-85682171D01*
X65684425Y-85674158D01*
X65554494Y-85488597D01*
X65387402Y-85321506D01*
X65387401Y-85321505D01*
X65265746Y-85236321D01*
X65201841Y-85191574D01*
X65158216Y-85136997D01*
X65151024Y-85067498D01*
X65182546Y-85005144D01*
X65201836Y-84988428D01*
X65387401Y-84858495D01*
X65554495Y-84691401D01*
X65690035Y-84497830D01*
X65789903Y-84283663D01*
X65851063Y-84055408D01*
X65871659Y-83820000D01*
X65868640Y-83785499D01*
X65863680Y-83728797D01*
X65851063Y-83584592D01*
X65789903Y-83356337D01*
X65690035Y-83142171D01*
X65686179Y-83136663D01*
X65554494Y-82948597D01*
X65387402Y-82781506D01*
X65387401Y-82781505D01*
X65201842Y-82651575D01*
X65201841Y-82651574D01*
X65158216Y-82596997D01*
X65151024Y-82527498D01*
X65182546Y-82465144D01*
X65201836Y-82448428D01*
X65387401Y-82318495D01*
X65554495Y-82151401D01*
X65690035Y-81957830D01*
X65789903Y-81743663D01*
X65851063Y-81515408D01*
X65871659Y-81280000D01*
X65851063Y-81044592D01*
X65789903Y-80816337D01*
X65690035Y-80602171D01*
X65688426Y-80599872D01*
X65554494Y-80408597D01*
X65387402Y-80241506D01*
X65387396Y-80241501D01*
X65201842Y-80111575D01*
X65158217Y-80056998D01*
X65151023Y-79987500D01*
X65182546Y-79925145D01*
X65201842Y-79908425D01*
X65269989Y-79860708D01*
X65387401Y-79778495D01*
X65554495Y-79611401D01*
X65690035Y-79417830D01*
X65789903Y-79203663D01*
X65851063Y-78975408D01*
X65871659Y-78740000D01*
X65870484Y-78726575D01*
X65862985Y-78640855D01*
X65851063Y-78504592D01*
X65789903Y-78276337D01*
X65690035Y-78062171D01*
X65686179Y-78056663D01*
X65554494Y-77868597D01*
X65387402Y-77701506D01*
X65387396Y-77701501D01*
X65201842Y-77571575D01*
X65158217Y-77516998D01*
X65151023Y-77447500D01*
X65182546Y-77385145D01*
X65201842Y-77368425D01*
X65224026Y-77352891D01*
X65387401Y-77238495D01*
X65554495Y-77071401D01*
X65690035Y-76877830D01*
X65789903Y-76663663D01*
X65851063Y-76435408D01*
X65871659Y-76200000D01*
X65870484Y-76186575D01*
X65863539Y-76107195D01*
X65851063Y-75964592D01*
X65789903Y-75736337D01*
X65690035Y-75522171D01*
X65684424Y-75514158D01*
X65554496Y-75328600D01*
X65504382Y-75278486D01*
X65432567Y-75206671D01*
X65399084Y-75145351D01*
X65404068Y-75075659D01*
X65445939Y-75019725D01*
X65476915Y-75002810D01*
X65608331Y-74953796D01*
X65723546Y-74867546D01*
X65809796Y-74752331D01*
X65860091Y-74617483D01*
X65866500Y-74557873D01*
X65866499Y-72762128D01*
X65860091Y-72702517D01*
X65858810Y-72699083D01*
X65809797Y-72567671D01*
X65809793Y-72567664D01*
X65723547Y-72452455D01*
X65723544Y-72452452D01*
X65608335Y-72366206D01*
X65608328Y-72366202D01*
X65473482Y-72315908D01*
X65473483Y-72315908D01*
X65413883Y-72309501D01*
X65413881Y-72309500D01*
X65413873Y-72309500D01*
X65413864Y-72309500D01*
X63618129Y-72309500D01*
X63618123Y-72309501D01*
X63558516Y-72315908D01*
X63423671Y-72366202D01*
X63423664Y-72366206D01*
X63308455Y-72452452D01*
X63308452Y-72452455D01*
X63222206Y-72567664D01*
X63222203Y-72567669D01*
X63173189Y-72699083D01*
X63131317Y-72755016D01*
X63065853Y-72779433D01*
X62997580Y-72764581D01*
X62969326Y-72743430D01*
X62847402Y-72621506D01*
X62847395Y-72621501D01*
X62653834Y-72485967D01*
X62653830Y-72485965D01*
X62646753Y-72482665D01*
X62439663Y-72386097D01*
X62439659Y-72386096D01*
X62439655Y-72386094D01*
X62211413Y-72324938D01*
X62211403Y-72324936D01*
X61976001Y-72304341D01*
X61975999Y-72304341D01*
X61740596Y-72324936D01*
X61740586Y-72324938D01*
X61512344Y-72386094D01*
X61512335Y-72386098D01*
X61298171Y-72485964D01*
X61298169Y-72485965D01*
X61104597Y-72621505D01*
X60937505Y-72788597D01*
X60801965Y-72982169D01*
X60801964Y-72982171D01*
X60702098Y-73196335D01*
X60702094Y-73196344D01*
X60640938Y-73424586D01*
X60640936Y-73424596D01*
X60620341Y-73659999D01*
X60620341Y-73660000D01*
X60640936Y-73895403D01*
X60640938Y-73895413D01*
X60702094Y-74123655D01*
X60702096Y-74123659D01*
X60702097Y-74123663D01*
X60708513Y-74137422D01*
X60801965Y-74337830D01*
X60801967Y-74337834D01*
X60937501Y-74531395D01*
X60937506Y-74531402D01*
X61104597Y-74698493D01*
X61104603Y-74698498D01*
X61290158Y-74828425D01*
X61333783Y-74883002D01*
X61340977Y-74952500D01*
X61309454Y-75014855D01*
X61290158Y-75031575D01*
X61104597Y-75161505D01*
X60937505Y-75328597D01*
X60801965Y-75522169D01*
X60801964Y-75522171D01*
X60702098Y-75736335D01*
X60702094Y-75736344D01*
X60640938Y-75964586D01*
X60640936Y-75964596D01*
X60620341Y-76199999D01*
X60620341Y-76200000D01*
X60640936Y-76435403D01*
X60640938Y-76435413D01*
X60702094Y-76663655D01*
X60702096Y-76663659D01*
X60702097Y-76663663D01*
X60706000Y-76672032D01*
X60801965Y-76877830D01*
X60801967Y-76877834D01*
X60910281Y-77032521D01*
X60937501Y-77071396D01*
X60937506Y-77071402D01*
X61104597Y-77238493D01*
X61104603Y-77238498D01*
X61290158Y-77368425D01*
X61333783Y-77423002D01*
X61340977Y-77492500D01*
X61309454Y-77554855D01*
X61290158Y-77571575D01*
X61104597Y-77701505D01*
X60937505Y-77868597D01*
X60801965Y-78062169D01*
X60801964Y-78062171D01*
X60702098Y-78276335D01*
X60702094Y-78276344D01*
X60640938Y-78504586D01*
X60640936Y-78504596D01*
X60620341Y-78739999D01*
X60620341Y-78740000D01*
X60640936Y-78975403D01*
X60640938Y-78975413D01*
X60702094Y-79203655D01*
X60702096Y-79203659D01*
X60702097Y-79203663D01*
X60771922Y-79353402D01*
X60801965Y-79417830D01*
X60801967Y-79417834D01*
X60906933Y-79567740D01*
X60937501Y-79611396D01*
X60937506Y-79611402D01*
X61104597Y-79778493D01*
X61104603Y-79778498D01*
X61290158Y-79908425D01*
X61333783Y-79963002D01*
X61340977Y-80032500D01*
X61309454Y-80094855D01*
X61290158Y-80111575D01*
X61104597Y-80241505D01*
X60937505Y-80408597D01*
X60801965Y-80602169D01*
X60801964Y-80602171D01*
X60702098Y-80816335D01*
X60702094Y-80816344D01*
X60640938Y-81044586D01*
X60640936Y-81044596D01*
X60620341Y-81279999D01*
X60620341Y-81280000D01*
X60640936Y-81515403D01*
X60640938Y-81515413D01*
X60702094Y-81743655D01*
X60702096Y-81743659D01*
X60702097Y-81743663D01*
X60706000Y-81752032D01*
X60801965Y-81957830D01*
X60801967Y-81957834D01*
X60910281Y-82112521D01*
X60937501Y-82151396D01*
X60937506Y-82151402D01*
X61104597Y-82318493D01*
X61104603Y-82318498D01*
X61290158Y-82448425D01*
X61333783Y-82503002D01*
X61340977Y-82572500D01*
X61309454Y-82634855D01*
X61290158Y-82651575D01*
X61104597Y-82781505D01*
X60937505Y-82948597D01*
X60801965Y-83142169D01*
X60801964Y-83142171D01*
X60702098Y-83356335D01*
X60702094Y-83356344D01*
X60640938Y-83584586D01*
X60640936Y-83584596D01*
X60620341Y-83819999D01*
X60620341Y-83820000D01*
X60640936Y-84055403D01*
X60640938Y-84055413D01*
X60702094Y-84283655D01*
X60702096Y-84283659D01*
X60702097Y-84283663D01*
X60706000Y-84292032D01*
X60801965Y-84497830D01*
X60801967Y-84497834D01*
X60910281Y-84652521D01*
X60937501Y-84691396D01*
X60937506Y-84691402D01*
X61104597Y-84858493D01*
X61104603Y-84858498D01*
X61290158Y-84988425D01*
X61333783Y-85043002D01*
X61340977Y-85112500D01*
X61309454Y-85174855D01*
X61290158Y-85191575D01*
X61104597Y-85321505D01*
X60937505Y-85488597D01*
X60801965Y-85682169D01*
X60801964Y-85682171D01*
X60702098Y-85896335D01*
X60702094Y-85896344D01*
X60640938Y-86124586D01*
X60640936Y-86124596D01*
X60620341Y-86359999D01*
X60620341Y-86360000D01*
X60640936Y-86595403D01*
X60640938Y-86595413D01*
X60702094Y-86823655D01*
X60702096Y-86823659D01*
X60702097Y-86823663D01*
X60706000Y-86832032D01*
X60801965Y-87037830D01*
X60801967Y-87037834D01*
X60910281Y-87192521D01*
X60937501Y-87231396D01*
X60937506Y-87231402D01*
X61104597Y-87398493D01*
X61104603Y-87398498D01*
X61290158Y-87528425D01*
X61333783Y-87583002D01*
X61340977Y-87652500D01*
X61309454Y-87714855D01*
X61290158Y-87731575D01*
X61104597Y-87861505D01*
X60937505Y-88028597D01*
X60801965Y-88222169D01*
X60801964Y-88222171D01*
X60702098Y-88436335D01*
X60702094Y-88436344D01*
X60640938Y-88664586D01*
X60640936Y-88664596D01*
X60620341Y-88899999D01*
X60620341Y-88900000D01*
X60640936Y-89135403D01*
X60640938Y-89135413D01*
X60702094Y-89363655D01*
X60702096Y-89363659D01*
X60702097Y-89363663D01*
X60706000Y-89372032D01*
X60801965Y-89577830D01*
X60801967Y-89577834D01*
X60910281Y-89732521D01*
X60937501Y-89771396D01*
X60937506Y-89771402D01*
X61104597Y-89938493D01*
X61104603Y-89938498D01*
X61290158Y-90068425D01*
X61333783Y-90123002D01*
X61340977Y-90192500D01*
X61309454Y-90254855D01*
X61290158Y-90271575D01*
X61104597Y-90401505D01*
X60937505Y-90568597D01*
X60801965Y-90762169D01*
X60801964Y-90762171D01*
X60702098Y-90976335D01*
X60702094Y-90976344D01*
X60640938Y-91204586D01*
X60640936Y-91204596D01*
X60620341Y-91439999D01*
X60620341Y-91440000D01*
X60640936Y-91675403D01*
X60640938Y-91675413D01*
X60702094Y-91903655D01*
X60702096Y-91903659D01*
X60702097Y-91903663D01*
X60706000Y-91912032D01*
X60801965Y-92117830D01*
X60801967Y-92117834D01*
X60910281Y-92272521D01*
X60937501Y-92311396D01*
X60937506Y-92311402D01*
X61104597Y-92478493D01*
X61104603Y-92478498D01*
X61290158Y-92608425D01*
X61333783Y-92663002D01*
X61340977Y-92732500D01*
X61309454Y-92794855D01*
X61290158Y-92811575D01*
X61104597Y-92941505D01*
X60937505Y-93108597D01*
X60801965Y-93302169D01*
X60801964Y-93302171D01*
X60702098Y-93516335D01*
X60702094Y-93516344D01*
X60640938Y-93744586D01*
X60640936Y-93744596D01*
X60620341Y-93979999D01*
X60620341Y-93980000D01*
X60640936Y-94215403D01*
X60640938Y-94215413D01*
X60702094Y-94443655D01*
X60702096Y-94443659D01*
X60702097Y-94443663D01*
X60706000Y-94452032D01*
X60801965Y-94657830D01*
X60801967Y-94657834D01*
X60866659Y-94750223D01*
X60937501Y-94851396D01*
X60937506Y-94851402D01*
X61104597Y-95018493D01*
X61104603Y-95018498D01*
X61290158Y-95148425D01*
X61333783Y-95203002D01*
X61340977Y-95272500D01*
X61309454Y-95334855D01*
X61290158Y-95351575D01*
X61104597Y-95481505D01*
X60937505Y-95648597D01*
X60801965Y-95842169D01*
X60801964Y-95842171D01*
X60702098Y-96056335D01*
X60702094Y-96056344D01*
X60640938Y-96284586D01*
X60640936Y-96284596D01*
X60620341Y-96519999D01*
X60620341Y-96520000D01*
X60640936Y-96755403D01*
X60640938Y-96755413D01*
X60702094Y-96983655D01*
X60702096Y-96983659D01*
X60702097Y-96983663D01*
X60706000Y-96992032D01*
X60801965Y-97197830D01*
X60801967Y-97197834D01*
X60910281Y-97352521D01*
X60937501Y-97391396D01*
X60937506Y-97391402D01*
X61104597Y-97558493D01*
X61104603Y-97558498D01*
X61290158Y-97688425D01*
X61333783Y-97743002D01*
X61340977Y-97812500D01*
X61309454Y-97874855D01*
X61290158Y-97891575D01*
X61104597Y-98021505D01*
X60937505Y-98188597D01*
X60801965Y-98382169D01*
X60801964Y-98382171D01*
X60702098Y-98596335D01*
X60702094Y-98596344D01*
X60640938Y-98824586D01*
X60640936Y-98824596D01*
X60620341Y-99059999D01*
X60620341Y-99060000D01*
X60640936Y-99295403D01*
X60640938Y-99295413D01*
X60702094Y-99523655D01*
X60702096Y-99523659D01*
X60702097Y-99523663D01*
X60755801Y-99638831D01*
X60801965Y-99737830D01*
X60801967Y-99737834D01*
X60900307Y-99878277D01*
X60937501Y-99931396D01*
X60937506Y-99931402D01*
X61104597Y-100098493D01*
X61104603Y-100098498D01*
X61290158Y-100228425D01*
X61333783Y-100283002D01*
X61340977Y-100352500D01*
X61309454Y-100414855D01*
X61290158Y-100431575D01*
X61104597Y-100561505D01*
X60937505Y-100728597D01*
X60801965Y-100922169D01*
X60801964Y-100922171D01*
X60702098Y-101136335D01*
X60702094Y-101136344D01*
X60640938Y-101364586D01*
X60640936Y-101364596D01*
X60620341Y-101599999D01*
X60620341Y-101600000D01*
X60640936Y-101835403D01*
X60640938Y-101835413D01*
X60702094Y-102063655D01*
X60702096Y-102063659D01*
X60702097Y-102063663D01*
X60782004Y-102235023D01*
X60801965Y-102277830D01*
X60801967Y-102277834D01*
X60887276Y-102399667D01*
X60937501Y-102471396D01*
X60937506Y-102471402D01*
X61104597Y-102638493D01*
X61104603Y-102638498D01*
X61290158Y-102768425D01*
X61333783Y-102823002D01*
X61340977Y-102892500D01*
X61309454Y-102954855D01*
X61290158Y-102971575D01*
X61104597Y-103101505D01*
X60937505Y-103268597D01*
X60801965Y-103462169D01*
X60801964Y-103462171D01*
X60702098Y-103676335D01*
X60702094Y-103676344D01*
X60640938Y-103904586D01*
X60640936Y-103904596D01*
X60620341Y-104139999D01*
X60620341Y-104140000D01*
X60640936Y-104375403D01*
X60640938Y-104375413D01*
X60702094Y-104603655D01*
X60702096Y-104603659D01*
X60702097Y-104603663D01*
X60782004Y-104775023D01*
X60801965Y-104817830D01*
X60801967Y-104817834D01*
X60877856Y-104926214D01*
X60937501Y-105011396D01*
X60937506Y-105011402D01*
X61104597Y-105178493D01*
X61104603Y-105178498D01*
X61290594Y-105308730D01*
X61334219Y-105363307D01*
X61341413Y-105432805D01*
X61309890Y-105495160D01*
X61290595Y-105511880D01*
X61104922Y-105641890D01*
X61104920Y-105641891D01*
X60937891Y-105808920D01*
X60937886Y-105808926D01*
X60802400Y-106002420D01*
X60802399Y-106002422D01*
X60702570Y-106216507D01*
X60702567Y-106216513D01*
X60645364Y-106429999D01*
X60645364Y-106430000D01*
X61362653Y-106430000D01*
X61429692Y-106449685D01*
X61475447Y-106502489D01*
X61485391Y-106571647D01*
X61481631Y-106588933D01*
X61476000Y-106608111D01*
X61476000Y-106751888D01*
X61481631Y-106771067D01*
X61481630Y-106840936D01*
X61443855Y-106899714D01*
X61380299Y-106928738D01*
X61362653Y-106930000D01*
X60645364Y-106930000D01*
X60702567Y-107143486D01*
X60702570Y-107143492D01*
X60802399Y-107357578D01*
X60937894Y-107551082D01*
X61104917Y-107718105D01*
X61290595Y-107848119D01*
X61334219Y-107902696D01*
X61341412Y-107972195D01*
X61309890Y-108034549D01*
X61290595Y-108051269D01*
X61104594Y-108181508D01*
X60937505Y-108348597D01*
X60801965Y-108542169D01*
X60801964Y-108542171D01*
X60702098Y-108756335D01*
X60702094Y-108756344D01*
X60640938Y-108984586D01*
X60640936Y-108984596D01*
X60620341Y-109219999D01*
X60620341Y-109220000D01*
X60000500Y-109220000D01*
X60000500Y-67000000D01*
X62694564Y-67000000D01*
X62708985Y-67220032D01*
X62714287Y-67300918D01*
X62714288Y-67300930D01*
X62773118Y-67596683D01*
X62773122Y-67596698D01*
X62870053Y-67882247D01*
X62870062Y-67882268D01*
X63003431Y-68152713D01*
X63003435Y-68152720D01*
X63170973Y-68403459D01*
X63369810Y-68630189D01*
X63596540Y-68829026D01*
X63847279Y-68996564D01*
X63847286Y-68996568D01*
X64117731Y-69129937D01*
X64117736Y-69129939D01*
X64117748Y-69129945D01*
X64403309Y-69226880D01*
X64603251Y-69266651D01*
X64699069Y-69285711D01*
X64699070Y-69285711D01*
X64699080Y-69285713D01*
X65000000Y-69305436D01*
X65300920Y-69285713D01*
X65596691Y-69226880D01*
X65882252Y-69129945D01*
X66152718Y-68996566D01*
X66403461Y-68829025D01*
X66630189Y-68630189D01*
X66829025Y-68403461D01*
X66996566Y-68152718D01*
X67129945Y-67882252D01*
X67226880Y-67596691D01*
X67285713Y-67300920D01*
X67305436Y-67000000D01*
X67285713Y-66699080D01*
X67282411Y-66682482D01*
X67265288Y-66596396D01*
X67226880Y-66403309D01*
X67129945Y-66117748D01*
X67126258Y-66110272D01*
X66996568Y-65847286D01*
X66996564Y-65847279D01*
X66914860Y-65725000D01*
X81039341Y-65725000D01*
X81059936Y-65960403D01*
X81059938Y-65960413D01*
X81121094Y-66188655D01*
X81121096Y-66188659D01*
X81121097Y-66188663D01*
X81125000Y-66197032D01*
X81220965Y-66402830D01*
X81220967Y-66402834D01*
X81329281Y-66557521D01*
X81356505Y-66596401D01*
X81523599Y-66763495D01*
X81614206Y-66826939D01*
X81717165Y-66899032D01*
X81717167Y-66899033D01*
X81717170Y-66899035D01*
X81931337Y-66998903D01*
X81931343Y-66998904D01*
X81931344Y-66998905D01*
X81935427Y-66999999D01*
X82159592Y-67060063D01*
X82336034Y-67075500D01*
X82394999Y-67080659D01*
X82395000Y-67080659D01*
X82395001Y-67080659D01*
X82453966Y-67075500D01*
X82630408Y-67060063D01*
X82858663Y-66998903D01*
X83072830Y-66899035D01*
X83266401Y-66763495D01*
X83433495Y-66596401D01*
X83563424Y-66410842D01*
X83618002Y-66367217D01*
X83687500Y-66360023D01*
X83749855Y-66391546D01*
X83766575Y-66410842D01*
X83896500Y-66596395D01*
X83896505Y-66596401D01*
X84063599Y-66763495D01*
X84154206Y-66826939D01*
X84257165Y-66899032D01*
X84257167Y-66899033D01*
X84257170Y-66899035D01*
X84471337Y-66998903D01*
X84471343Y-66998904D01*
X84471344Y-66998905D01*
X84475427Y-66999999D01*
X84699592Y-67060063D01*
X84876034Y-67075500D01*
X84934999Y-67080659D01*
X84935000Y-67080659D01*
X84935001Y-67080659D01*
X84993966Y-67075500D01*
X85170408Y-67060063D01*
X85398663Y-66998903D01*
X85612830Y-66899035D01*
X85806401Y-66763495D01*
X85928329Y-66641566D01*
X85989648Y-66608084D01*
X86059340Y-66613068D01*
X86115274Y-66654939D01*
X86132189Y-66685917D01*
X86181202Y-66817328D01*
X86181206Y-66817335D01*
X86267452Y-66932544D01*
X86267455Y-66932547D01*
X86382664Y-67018793D01*
X86382671Y-67018797D01*
X86517517Y-67069091D01*
X86517516Y-67069091D01*
X86524444Y-67069835D01*
X86577127Y-67075500D01*
X88372872Y-67075499D01*
X88432483Y-67069091D01*
X88567331Y-67018796D01*
X88682546Y-66932546D01*
X88768796Y-66817331D01*
X88819091Y-66682483D01*
X88825500Y-66622873D01*
X88825499Y-64827128D01*
X88819091Y-64767517D01*
X88817810Y-64764083D01*
X88768797Y-64632671D01*
X88768793Y-64632664D01*
X88682547Y-64517455D01*
X88682544Y-64517452D01*
X88567335Y-64431206D01*
X88567328Y-64431202D01*
X88432482Y-64380908D01*
X88432483Y-64380908D01*
X88372883Y-64374501D01*
X88372881Y-64374500D01*
X88372873Y-64374500D01*
X88372864Y-64374500D01*
X86577129Y-64374500D01*
X86577123Y-64374501D01*
X86517516Y-64380908D01*
X86382671Y-64431202D01*
X86382664Y-64431206D01*
X86267455Y-64517452D01*
X86267452Y-64517455D01*
X86181206Y-64632664D01*
X86181203Y-64632669D01*
X86132189Y-64764083D01*
X86090317Y-64820016D01*
X86024853Y-64844433D01*
X85956580Y-64829581D01*
X85928326Y-64808430D01*
X85806402Y-64686506D01*
X85806395Y-64686501D01*
X85612834Y-64550967D01*
X85612830Y-64550965D01*
X85561072Y-64526830D01*
X85398663Y-64451097D01*
X85398659Y-64451096D01*
X85398655Y-64451094D01*
X85170413Y-64389938D01*
X85170403Y-64389936D01*
X84935001Y-64369341D01*
X84934999Y-64369341D01*
X84699596Y-64389936D01*
X84699586Y-64389938D01*
X84471344Y-64451094D01*
X84471335Y-64451098D01*
X84257171Y-64550964D01*
X84257169Y-64550965D01*
X84063597Y-64686505D01*
X83896505Y-64853597D01*
X83766575Y-65039158D01*
X83711998Y-65082783D01*
X83642500Y-65089977D01*
X83580145Y-65058454D01*
X83563425Y-65039158D01*
X83433494Y-64853597D01*
X83266402Y-64686506D01*
X83266395Y-64686501D01*
X83072834Y-64550967D01*
X83072830Y-64550965D01*
X83021072Y-64526830D01*
X82858663Y-64451097D01*
X82858659Y-64451096D01*
X82858655Y-64451094D01*
X82630413Y-64389938D01*
X82630403Y-64389936D01*
X82395001Y-64369341D01*
X82394999Y-64369341D01*
X82159596Y-64389936D01*
X82159586Y-64389938D01*
X81931344Y-64451094D01*
X81931335Y-64451098D01*
X81717171Y-64550964D01*
X81717169Y-64550965D01*
X81523597Y-64686505D01*
X81356505Y-64853597D01*
X81220965Y-65047169D01*
X81220964Y-65047171D01*
X81121098Y-65261335D01*
X81121094Y-65261344D01*
X81059938Y-65489586D01*
X81059936Y-65489596D01*
X81039341Y-65724999D01*
X81039341Y-65725000D01*
X66914860Y-65725000D01*
X66829026Y-65596540D01*
X66630189Y-65369810D01*
X66403459Y-65170973D01*
X66152720Y-65003435D01*
X66152713Y-65003431D01*
X65882268Y-64870062D01*
X65882247Y-64870053D01*
X65596698Y-64773122D01*
X65596692Y-64773120D01*
X65596691Y-64773120D01*
X65596689Y-64773119D01*
X65596683Y-64773118D01*
X65300930Y-64714288D01*
X65300921Y-64714287D01*
X65300920Y-64714287D01*
X65000000Y-64694564D01*
X64999999Y-64694564D01*
X64849540Y-64704425D01*
X64699080Y-64714287D01*
X64699079Y-64714287D01*
X64699069Y-64714288D01*
X64403316Y-64773118D01*
X64403301Y-64773122D01*
X64117752Y-64870053D01*
X64117731Y-64870062D01*
X63847286Y-65003431D01*
X63847279Y-65003435D01*
X63596540Y-65170973D01*
X63369810Y-65369810D01*
X63170973Y-65596540D01*
X63003435Y-65847279D01*
X63003431Y-65847286D01*
X62870062Y-66117731D01*
X62870053Y-66117752D01*
X62773122Y-66403301D01*
X62773118Y-66403316D01*
X62714288Y-66699069D01*
X62714287Y-66699079D01*
X62714287Y-66699080D01*
X62694564Y-67000000D01*
X60000500Y-67000000D01*
X60009513Y-66782081D01*
X60018157Y-66584084D01*
X60018571Y-66579162D01*
X60045516Y-66362989D01*
X60050703Y-66323597D01*
X60071885Y-66162699D01*
X60072657Y-66158171D01*
X60117222Y-65945631D01*
X60126785Y-65902500D01*
X60161148Y-65747497D01*
X60162247Y-65743254D01*
X60224140Y-65535362D01*
X60285319Y-65341328D01*
X60286652Y-65337543D01*
X60365505Y-65135459D01*
X60443469Y-64947237D01*
X60445021Y-64943796D01*
X60540294Y-64748912D01*
X60634479Y-64567985D01*
X60636167Y-64564957D01*
X60747253Y-64378531D01*
X60856964Y-64206320D01*
X60858721Y-64203716D01*
X60984891Y-64027005D01*
X61109290Y-63864886D01*
X61111097Y-63862645D01*
X61251477Y-63696899D01*
X61390538Y-63545140D01*
X61545138Y-63390540D01*
X61696897Y-63251478D01*
X61862594Y-63111141D01*
X61864913Y-63109272D01*
X61891365Y-63088973D01*
X62027037Y-62984868D01*
X62203727Y-62858714D01*
X62206282Y-62856990D01*
X62378560Y-62747235D01*
X62564925Y-62636187D01*
X62567979Y-62634483D01*
X62748935Y-62540282D01*
X62943802Y-62445018D01*
X62947201Y-62443485D01*
X63101355Y-62379633D01*
X63135518Y-62365483D01*
X63167939Y-62352831D01*
X63337522Y-62286660D01*
X63341322Y-62285322D01*
X63535378Y-62224135D01*
X63743245Y-62162250D01*
X63747470Y-62161154D01*
X63945714Y-62117204D01*
X64158114Y-62072669D01*
X64162702Y-62071887D01*
X64363097Y-62045503D01*
X64579137Y-62018574D01*
X64584085Y-62018158D01*
X64782173Y-62009509D01*
X65000000Y-62000500D01*
X65000500Y-62000500D01*
X124999500Y-62000500D01*
X125000000Y-62000500D01*
X125218129Y-62009522D01*
G37*
G04 #@! TD.AperFunction*
M02*
