G04 #@! TF.GenerationSoftware,KiCad,Pcbnew,7.0.7*
G04 #@! TF.CreationDate,2023-10-08T00:04:21-07:00*
G04 #@! TF.ProjectId,LogicAnalyzer,4c6f6769-6341-46e6-916c-797a65722e6b,rev?*
G04 #@! TF.SameCoordinates,Original*
G04 #@! TF.FileFunction,Soldermask,Top*
G04 #@! TF.FilePolarity,Negative*
%FSLAX46Y46*%
G04 Gerber Fmt 4.6, Leading zero omitted, Abs format (unit mm)*
G04 Created by KiCad (PCBNEW 7.0.7) date 2023-10-08 00:04:21*
%MOMM*%
%LPD*%
G01*
G04 APERTURE LIST*
G04 Aperture macros list*
%AMRoundRect*
0 Rectangle with rounded corners*
0 $1 Rounding radius*
0 $2 $3 $4 $5 $6 $7 $8 $9 X,Y pos of 4 corners*
0 Add a 4 corners polygon primitive as box body*
4,1,4,$2,$3,$4,$5,$6,$7,$8,$9,$2,$3,0*
0 Add four circle primitives for the rounded corners*
1,1,$1+$1,$2,$3*
1,1,$1+$1,$4,$5*
1,1,$1+$1,$6,$7*
1,1,$1+$1,$8,$9*
0 Add four rect primitives between the rounded corners*
20,1,$1+$1,$2,$3,$4,$5,0*
20,1,$1+$1,$4,$5,$6,$7,0*
20,1,$1+$1,$6,$7,$8,$9,0*
20,1,$1+$1,$8,$9,$2,$3,0*%
G04 Aperture macros list end*
%ADD10RoundRect,0.250000X-1.000000X-0.650000X1.000000X-0.650000X1.000000X0.650000X-1.000000X0.650000X0*%
%ADD11RoundRect,0.250000X-0.262500X-0.450000X0.262500X-0.450000X0.262500X0.450000X-0.262500X0.450000X0*%
%ADD12C,5.600000*%
%ADD13C,3.600000*%
%ADD14RoundRect,0.100000X0.637500X0.100000X-0.637500X0.100000X-0.637500X-0.100000X0.637500X-0.100000X0*%
%ADD15RoundRect,0.250000X-0.475000X0.250000X-0.475000X-0.250000X0.475000X-0.250000X0.475000X0.250000X0*%
%ADD16R,1.700000X1.700000*%
%ADD17O,1.700000X1.700000*%
%ADD18R,1.000000X0.800000*%
%ADD19C,0.900000*%
%ADD20R,0.700000X1.500000*%
%ADD21RoundRect,0.250000X0.475000X-0.250000X0.475000X0.250000X-0.475000X0.250000X-0.475000X-0.250000X0*%
%ADD22O,1.800000X1.800000*%
%ADD23O,1.500000X1.500000*%
%ADD24R,3.500000X1.700000*%
%ADD25R,1.700000X3.500000*%
%ADD26RoundRect,0.250000X0.262500X0.450000X-0.262500X0.450000X-0.262500X-0.450000X0.262500X-0.450000X0*%
%ADD27RoundRect,0.250000X0.375000X0.625000X-0.375000X0.625000X-0.375000X-0.625000X0.375000X-0.625000X0*%
G04 APERTURE END LIST*
D10*
X87217000Y-113593000D03*
X83217000Y-113593000D03*
D11*
X84281000Y-110236000D03*
X86106000Y-110236000D03*
D12*
X65000000Y-117000000D03*
D13*
X65000000Y-117000000D03*
X125000000Y-117000000D03*
D12*
X125000000Y-117000000D03*
D13*
X125000000Y-67000000D03*
D12*
X125000000Y-67000000D03*
D13*
X65000000Y-67000000D03*
D12*
X65000000Y-67000000D03*
D14*
X83380500Y-80141000D03*
X83380500Y-79491000D03*
X83380500Y-78841000D03*
X83380500Y-78191000D03*
X83380500Y-77541000D03*
X83380500Y-76891000D03*
X83380500Y-76241000D03*
X83380500Y-75591000D03*
X83380500Y-74941000D03*
X83380500Y-74291000D03*
X77655500Y-74291000D03*
X77655500Y-74941000D03*
X77655500Y-75591000D03*
X77655500Y-76241000D03*
X77655500Y-76891000D03*
X77655500Y-77541000D03*
X77655500Y-78191000D03*
X77655500Y-78841000D03*
X77655500Y-79491000D03*
X77655500Y-80141000D03*
D15*
X83058000Y-88204000D03*
X83058000Y-90104000D03*
D16*
X87475000Y-65725000D03*
D17*
X84935000Y-65725000D03*
X82395000Y-65725000D03*
D18*
X71280000Y-118346000D03*
X71280000Y-120556000D03*
D19*
X73430000Y-119456000D03*
X76430000Y-119456000D03*
D18*
X78580000Y-118346000D03*
X78580000Y-120556000D03*
D20*
X72680000Y-117696000D03*
X75680000Y-117696000D03*
X77180000Y-117696000D03*
D21*
X85090000Y-90104000D03*
X85090000Y-88204000D03*
D22*
X105460000Y-64785000D03*
D23*
X105760000Y-67815000D03*
X110610000Y-67815000D03*
D22*
X110910000Y-64785000D03*
D17*
X99295000Y-64655000D03*
D24*
X98395000Y-64655000D03*
D17*
X99295000Y-67195000D03*
D24*
X98395000Y-67195000D03*
D16*
X99295000Y-69735000D03*
D24*
X98395000Y-69735000D03*
D17*
X99295000Y-72275000D03*
D24*
X98395000Y-72275000D03*
D17*
X99295000Y-74815000D03*
D24*
X98395000Y-74815000D03*
D17*
X99295000Y-77355000D03*
D24*
X98395000Y-77355000D03*
D17*
X99295000Y-79895000D03*
D24*
X98395000Y-79895000D03*
D16*
X99295000Y-82435000D03*
D24*
X98395000Y-82435000D03*
D17*
X99295000Y-84975000D03*
D24*
X98395000Y-84975000D03*
D17*
X99295000Y-87515000D03*
D24*
X98395000Y-87515000D03*
D17*
X99295000Y-90055000D03*
D24*
X98395000Y-90055000D03*
D17*
X99295000Y-92595000D03*
D24*
X98395000Y-92595000D03*
D16*
X99295000Y-95135000D03*
D24*
X98395000Y-95135000D03*
D17*
X99295000Y-97675000D03*
D24*
X98395000Y-97675000D03*
D17*
X99295000Y-100215000D03*
D24*
X98395000Y-100215000D03*
D17*
X99295000Y-102755000D03*
D24*
X98395000Y-102755000D03*
D17*
X99295000Y-105295000D03*
D24*
X98395000Y-105295000D03*
D16*
X99295000Y-107835000D03*
D24*
X98395000Y-107835000D03*
D17*
X99295000Y-110375000D03*
D24*
X98395000Y-110375000D03*
D17*
X99295000Y-112915000D03*
D24*
X98395000Y-112915000D03*
D17*
X117075000Y-112915000D03*
D24*
X117975000Y-112915000D03*
D17*
X117075000Y-110375000D03*
D24*
X117975000Y-110375000D03*
D16*
X117075000Y-107835000D03*
D24*
X117975000Y-107835000D03*
D17*
X117075000Y-105295000D03*
D24*
X117975000Y-105295000D03*
D17*
X117075000Y-102755000D03*
D24*
X117975000Y-102755000D03*
D17*
X117075000Y-100215000D03*
D24*
X117975000Y-100215000D03*
D17*
X117075000Y-97675000D03*
D24*
X117975000Y-97675000D03*
D16*
X117075000Y-95135000D03*
D24*
X117975000Y-95135000D03*
D17*
X117075000Y-92595000D03*
D24*
X117975000Y-92595000D03*
D17*
X117075000Y-90055000D03*
D24*
X117975000Y-90055000D03*
D17*
X117075000Y-87515000D03*
D24*
X117975000Y-87515000D03*
D17*
X117075000Y-84975000D03*
D24*
X117975000Y-84975000D03*
D16*
X117075000Y-82435000D03*
D24*
X117975000Y-82435000D03*
D17*
X117075000Y-79895000D03*
D24*
X117975000Y-79895000D03*
D17*
X117075000Y-77355000D03*
D24*
X117975000Y-77355000D03*
D17*
X117075000Y-74815000D03*
D24*
X117975000Y-74815000D03*
D17*
X117075000Y-72275000D03*
D24*
X117975000Y-72275000D03*
D16*
X117075000Y-69735000D03*
D24*
X117975000Y-69735000D03*
D17*
X117075000Y-67195000D03*
D24*
X117975000Y-67195000D03*
D17*
X117075000Y-64655000D03*
D24*
X117975000Y-64655000D03*
D17*
X105645000Y-112685000D03*
D25*
X105645000Y-113585000D03*
D16*
X108185000Y-112685000D03*
D25*
X108185000Y-113585000D03*
D17*
X110725000Y-112685000D03*
D25*
X110725000Y-113585000D03*
D26*
X127254000Y-81534000D03*
X125429000Y-81534000D03*
D17*
X82395000Y-117226000D03*
X84935000Y-117226000D03*
D16*
X87475000Y-117226000D03*
D27*
X127500000Y-77724000D03*
X124700000Y-77724000D03*
D14*
X83380500Y-101985000D03*
X83380500Y-101335000D03*
X83380500Y-100685000D03*
X83380500Y-100035000D03*
X83380500Y-99385000D03*
X83380500Y-98735000D03*
X83380500Y-98085000D03*
X83380500Y-97435000D03*
X83380500Y-96785000D03*
X83380500Y-96135000D03*
X77655500Y-96135000D03*
X77655500Y-96785000D03*
X77655500Y-97435000D03*
X77655500Y-98085000D03*
X77655500Y-98735000D03*
X77655500Y-99385000D03*
X77655500Y-100035000D03*
X77655500Y-100685000D03*
X77655500Y-101335000D03*
X77655500Y-101985000D03*
D16*
X64516000Y-73660000D03*
D17*
X61976000Y-73660000D03*
X64516000Y-76200000D03*
X61976000Y-76200000D03*
X64516000Y-78740000D03*
X61976000Y-78740000D03*
X64516000Y-81280000D03*
X61976000Y-81280000D03*
X64516000Y-83820000D03*
X61976000Y-83820000D03*
X64516000Y-86360000D03*
X61976000Y-86360000D03*
X64516000Y-88900000D03*
X61976000Y-88900000D03*
X64516000Y-91440000D03*
X61976000Y-91440000D03*
X64516000Y-93980000D03*
X61976000Y-93980000D03*
X64516000Y-96520000D03*
X61976000Y-96520000D03*
X64516000Y-99060000D03*
X61976000Y-99060000D03*
X64516000Y-101600000D03*
X61976000Y-101600000D03*
X64516000Y-104140000D03*
X61976000Y-104140000D03*
X64516000Y-106680000D03*
X61976000Y-106680000D03*
X64516000Y-109220000D03*
X61976000Y-109220000D03*
M02*
