G04 #@! TF.GenerationSoftware,KiCad,Pcbnew,7.0.7*
G04 #@! TF.CreationDate,2023-10-08T00:04:21-07:00*
G04 #@! TF.ProjectId,LogicAnalyzer,4c6f6769-6341-46e6-916c-797a65722e6b,rev?*
G04 #@! TF.SameCoordinates,Original*
G04 #@! TF.FileFunction,Copper,L2,Inr*
G04 #@! TF.FilePolarity,Positive*
%FSLAX46Y46*%
G04 Gerber Fmt 4.6, Leading zero omitted, Abs format (unit mm)*
G04 Created by KiCad (PCBNEW 7.0.7) date 2023-10-08 00:04:21*
%MOMM*%
%LPD*%
G01*
G04 APERTURE LIST*
G04 #@! TA.AperFunction,ComponentPad*
%ADD10C,3.600000*%
G04 #@! TD*
G04 #@! TA.AperFunction,ComponentPad*
%ADD11R,1.700000X1.700000*%
G04 #@! TD*
G04 #@! TA.AperFunction,ComponentPad*
%ADD12O,1.700000X1.700000*%
G04 #@! TD*
G04 #@! TA.AperFunction,ViaPad*
%ADD13C,0.800000*%
G04 #@! TD*
G04 APERTURE END LIST*
D10*
X65000000Y-117000000D03*
X125000000Y-117000000D03*
X125000000Y-67000000D03*
X65000000Y-67000000D03*
D11*
X87475000Y-65725000D03*
D12*
X84935000Y-65725000D03*
X82395000Y-65725000D03*
X99295000Y-64655000D03*
X99295000Y-67195000D03*
D11*
X99295000Y-69735000D03*
D12*
X99295000Y-72275000D03*
X99295000Y-74815000D03*
X99295000Y-77355000D03*
X99295000Y-79895000D03*
D11*
X99295000Y-82435000D03*
D12*
X99295000Y-84975000D03*
X99295000Y-87515000D03*
X99295000Y-90055000D03*
X99295000Y-92595000D03*
D11*
X99295000Y-95135000D03*
D12*
X99295000Y-97675000D03*
X99295000Y-100215000D03*
X99295000Y-102755000D03*
X99295000Y-105295000D03*
D11*
X99295000Y-107835000D03*
D12*
X99295000Y-110375000D03*
X99295000Y-112915000D03*
X117075000Y-112915000D03*
X117075000Y-110375000D03*
D11*
X117075000Y-107835000D03*
D12*
X117075000Y-105295000D03*
X117075000Y-102755000D03*
X117075000Y-100215000D03*
X117075000Y-97675000D03*
D11*
X117075000Y-95135000D03*
D12*
X117075000Y-92595000D03*
X117075000Y-90055000D03*
X117075000Y-87515000D03*
X117075000Y-84975000D03*
D11*
X117075000Y-82435000D03*
D12*
X117075000Y-79895000D03*
X117075000Y-77355000D03*
X117075000Y-74815000D03*
X117075000Y-72275000D03*
D11*
X117075000Y-69735000D03*
D12*
X117075000Y-67195000D03*
X117075000Y-64655000D03*
X105645000Y-112685000D03*
D11*
X108185000Y-112685000D03*
D12*
X110725000Y-112685000D03*
X82395000Y-117226000D03*
X84935000Y-117226000D03*
D11*
X87475000Y-117226000D03*
X64516000Y-73660000D03*
D12*
X61976000Y-73660000D03*
X64516000Y-76200000D03*
X61976000Y-76200000D03*
X64516000Y-78740000D03*
X61976000Y-78740000D03*
X64516000Y-81280000D03*
X61976000Y-81280000D03*
X64516000Y-83820000D03*
X61976000Y-83820000D03*
X64516000Y-86360000D03*
X61976000Y-86360000D03*
X64516000Y-88900000D03*
X61976000Y-88900000D03*
X64516000Y-91440000D03*
X61976000Y-91440000D03*
X64516000Y-93980000D03*
X61976000Y-93980000D03*
X64516000Y-96520000D03*
X61976000Y-96520000D03*
X64516000Y-99060000D03*
X61976000Y-99060000D03*
X64516000Y-101600000D03*
X61976000Y-101600000D03*
X64516000Y-104140000D03*
X61976000Y-104140000D03*
X64516000Y-106680000D03*
X61976000Y-106680000D03*
X64516000Y-109220000D03*
X61976000Y-109220000D03*
D13*
X66802000Y-105664000D03*
X88392000Y-93980000D03*
X83820000Y-95250000D03*
X82042000Y-73152000D03*
X75692000Y-116078000D03*
X125730000Y-79756000D03*
X125729994Y-73660000D03*
X78250000Y-115750000D03*
X123698000Y-80772000D03*
X81788000Y-79502000D03*
X85344000Y-87122000D03*
X82041986Y-101335000D03*
X79248000Y-79502000D03*
X78993996Y-101335000D03*
X82804000Y-87122000D03*
X101853998Y-104394000D03*
X75173778Y-99510000D03*
X74163347Y-100325347D03*
X73147347Y-101595347D03*
X72644000Y-102870000D03*
G04 #@! TA.AperFunction,Conductor*
G36*
X63969692Y-103909685D02*
G01*
X64015447Y-103962489D01*
X64025391Y-104031647D01*
X64021631Y-104048933D01*
X64016000Y-104068111D01*
X64016000Y-104211888D01*
X64021631Y-104231067D01*
X64021630Y-104300936D01*
X63983855Y-104359714D01*
X63920299Y-104388738D01*
X63902653Y-104390000D01*
X62589347Y-104390000D01*
X62522308Y-104370315D01*
X62476553Y-104317511D01*
X62466609Y-104248353D01*
X62470369Y-104231067D01*
X62476000Y-104211888D01*
X62476000Y-104068111D01*
X62470369Y-104048933D01*
X62470370Y-103979064D01*
X62508145Y-103920286D01*
X62571701Y-103891262D01*
X62589347Y-103890000D01*
X63902653Y-103890000D01*
X63969692Y-103909685D01*
G37*
G04 #@! TD.AperFunction*
G04 #@! TA.AperFunction,Conductor*
G36*
X125218129Y-62009522D02*
G01*
X125415911Y-62018157D01*
X125420841Y-62018571D01*
X125637074Y-62045524D01*
X125837291Y-62071884D01*
X125841837Y-62072659D01*
X126054348Y-62117218D01*
X126252497Y-62161147D01*
X126256758Y-62162251D01*
X126464640Y-62224141D01*
X126658652Y-62285313D01*
X126662484Y-62286663D01*
X126864515Y-62365495D01*
X127052737Y-62443459D01*
X127056227Y-62445032D01*
X127251080Y-62540291D01*
X127431966Y-62634454D01*
X127435072Y-62636185D01*
X127621450Y-62747242D01*
X127793637Y-62856938D01*
X127796318Y-62858747D01*
X127972970Y-62984874D01*
X128135063Y-63109252D01*
X128137391Y-63111129D01*
X128177502Y-63145101D01*
X128303103Y-63251479D01*
X128454870Y-63390549D01*
X128609446Y-63545125D01*
X128707463Y-63652092D01*
X128748534Y-63696913D01*
X128888850Y-63862586D01*
X128890726Y-63864913D01*
X129015136Y-64027044D01*
X129141237Y-64203659D01*
X129143043Y-64206335D01*
X129219334Y-64326087D01*
X129252774Y-64378578D01*
X129363803Y-64564911D01*
X129365537Y-64568020D01*
X129459728Y-64748959D01*
X129554955Y-64943749D01*
X129556536Y-64947254D01*
X129634516Y-65135518D01*
X129713317Y-65337464D01*
X129714689Y-65341359D01*
X129775879Y-65535429D01*
X129837739Y-65743214D01*
X129838847Y-65747486D01*
X129882809Y-65945781D01*
X129927326Y-66158101D01*
X129928115Y-66162733D01*
X129954514Y-66363243D01*
X129981423Y-66579127D01*
X129981840Y-66584093D01*
X129990504Y-66782511D01*
X129999500Y-67000000D01*
X129999500Y-117000000D01*
X129990495Y-117217706D01*
X129981842Y-117415892D01*
X129981425Y-117420859D01*
X129954488Y-117636964D01*
X129928123Y-117837236D01*
X129927333Y-117841869D01*
X129882781Y-118054348D01*
X129838851Y-118252498D01*
X129837743Y-118256770D01*
X129775862Y-118464627D01*
X129714694Y-118658626D01*
X129713322Y-118662521D01*
X129634501Y-118864523D01*
X129556542Y-119052730D01*
X129554962Y-119056234D01*
X129459713Y-119251072D01*
X129365544Y-119431966D01*
X129363811Y-119435074D01*
X129252759Y-119621446D01*
X129143069Y-119793624D01*
X129141237Y-119796339D01*
X129015125Y-119972970D01*
X128890746Y-120135064D01*
X128888869Y-120137391D01*
X128748525Y-120303097D01*
X128609450Y-120454870D01*
X128454873Y-120609448D01*
X128303086Y-120748534D01*
X128137412Y-120888850D01*
X128135085Y-120890726D01*
X127972951Y-121015139D01*
X127796353Y-121141228D01*
X127793638Y-121143060D01*
X127621421Y-121252774D01*
X127435087Y-121363803D01*
X127431978Y-121365537D01*
X127251040Y-121459728D01*
X127056249Y-121554955D01*
X127052745Y-121556535D01*
X126864481Y-121634516D01*
X126662534Y-121713317D01*
X126658639Y-121714689D01*
X126464570Y-121775879D01*
X126256784Y-121837739D01*
X126252512Y-121838847D01*
X126054218Y-121882809D01*
X125841896Y-121927326D01*
X125837265Y-121928115D01*
X125636756Y-121954514D01*
X125420871Y-121981423D01*
X125415905Y-121981840D01*
X125217488Y-121990504D01*
X125000000Y-121999500D01*
X78059838Y-121999500D01*
X77992799Y-121979815D01*
X77963010Y-121952962D01*
X77011529Y-120763609D01*
X77007452Y-120756691D01*
X77000249Y-120749482D01*
X76990094Y-120748366D01*
X76982178Y-120749500D01*
X73017822Y-120749500D01*
X73009960Y-120748374D01*
X72999752Y-120749482D01*
X72992841Y-120756365D01*
X72988742Y-120763268D01*
X72036990Y-121952962D01*
X71979740Y-121993014D01*
X71940162Y-121999500D01*
X65000000Y-121999500D01*
X64782293Y-121990495D01*
X64584106Y-121981842D01*
X64579139Y-121981425D01*
X64363035Y-121954488D01*
X64239608Y-121938239D01*
X64162750Y-121928121D01*
X64158129Y-121927333D01*
X63945651Y-121882781D01*
X63747500Y-121838851D01*
X63743228Y-121837743D01*
X63535372Y-121775862D01*
X63341372Y-121714694D01*
X63337477Y-121713322D01*
X63337464Y-121713317D01*
X63135477Y-121634501D01*
X62947268Y-121556542D01*
X62943764Y-121554962D01*
X62817778Y-121493372D01*
X62748923Y-121459711D01*
X62691765Y-121429956D01*
X62568032Y-121365544D01*
X62564924Y-121363811D01*
X62378553Y-121252759D01*
X62206374Y-121143069D01*
X62203659Y-121141237D01*
X62203646Y-121141228D01*
X62108270Y-121073130D01*
X62027029Y-121015125D01*
X61864935Y-120890746D01*
X61862607Y-120888869D01*
X61698338Y-120749741D01*
X61696897Y-120748521D01*
X61696737Y-120748374D01*
X61545127Y-120609448D01*
X61474589Y-120538910D01*
X61390549Y-120454870D01*
X61251464Y-120303085D01*
X61111148Y-120137412D01*
X61109272Y-120135085D01*
X60984860Y-119972951D01*
X60858738Y-119796306D01*
X60856967Y-119793681D01*
X60747222Y-119621416D01*
X60699338Y-119541055D01*
X72729500Y-119541055D01*
X72770210Y-119706226D01*
X72849263Y-119856849D01*
X72849266Y-119856852D01*
X72962071Y-119984183D01*
X73052318Y-120046476D01*
X73102068Y-120080817D01*
X73102069Y-120080817D01*
X73102070Y-120080818D01*
X73203358Y-120119230D01*
X73251242Y-120137391D01*
X73261128Y-120141140D01*
X73337028Y-120150356D01*
X73387626Y-120156500D01*
X73387628Y-120156500D01*
X73472374Y-120156500D01*
X73514538Y-120151380D01*
X73598872Y-120141140D01*
X73757930Y-120080818D01*
X73897929Y-119984183D01*
X74010734Y-119856852D01*
X74089790Y-119706225D01*
X74130500Y-119541056D01*
X74130500Y-119541055D01*
X75729500Y-119541055D01*
X75770210Y-119706226D01*
X75849263Y-119856849D01*
X75849266Y-119856852D01*
X75962071Y-119984183D01*
X76052318Y-120046476D01*
X76102068Y-120080817D01*
X76102069Y-120080817D01*
X76102070Y-120080818D01*
X76203358Y-120119230D01*
X76251242Y-120137391D01*
X76261128Y-120141140D01*
X76337028Y-120150356D01*
X76387626Y-120156500D01*
X76387628Y-120156500D01*
X76472374Y-120156500D01*
X76514538Y-120151380D01*
X76598872Y-120141140D01*
X76757930Y-120080818D01*
X76897929Y-119984183D01*
X77010734Y-119856852D01*
X77089790Y-119706225D01*
X77130500Y-119541056D01*
X77130500Y-119370944D01*
X77089790Y-119205775D01*
X77085751Y-119198080D01*
X77010736Y-119055150D01*
X76969209Y-119008276D01*
X76897929Y-118927817D01*
X76848177Y-118893475D01*
X76757931Y-118831182D01*
X76598874Y-118770860D01*
X76598868Y-118770859D01*
X76472374Y-118755500D01*
X76472372Y-118755500D01*
X76387628Y-118755500D01*
X76387626Y-118755500D01*
X76261131Y-118770859D01*
X76261125Y-118770860D01*
X76102068Y-118831182D01*
X75962072Y-118927816D01*
X75849263Y-119055150D01*
X75770210Y-119205773D01*
X75729500Y-119370944D01*
X75729500Y-119541055D01*
X74130500Y-119541055D01*
X74130500Y-119370944D01*
X74089790Y-119205775D01*
X74085751Y-119198080D01*
X74010736Y-119055150D01*
X73969209Y-119008276D01*
X73897929Y-118927817D01*
X73848177Y-118893475D01*
X73757931Y-118831182D01*
X73598874Y-118770860D01*
X73598868Y-118770859D01*
X73472374Y-118755500D01*
X73472372Y-118755500D01*
X73387628Y-118755500D01*
X73387626Y-118755500D01*
X73261131Y-118770859D01*
X73261125Y-118770860D01*
X73102068Y-118831182D01*
X72962072Y-118927816D01*
X72849263Y-119055150D01*
X72770210Y-119205773D01*
X72729500Y-119370944D01*
X72729500Y-119541055D01*
X60699338Y-119541055D01*
X60636195Y-119435087D01*
X60634461Y-119431978D01*
X60568326Y-119304934D01*
X60540280Y-119251058D01*
X60445030Y-119056221D01*
X60443475Y-119052773D01*
X60399404Y-118946376D01*
X60365483Y-118864481D01*
X60328951Y-118770859D01*
X60286667Y-118662495D01*
X60285316Y-118658658D01*
X60224136Y-118464623D01*
X60162254Y-118256768D01*
X60161151Y-118252512D01*
X60151863Y-118210615D01*
X60117200Y-118054266D01*
X60072671Y-117841894D01*
X60071885Y-117837288D01*
X60045489Y-117636793D01*
X60018574Y-117420859D01*
X60018158Y-117415904D01*
X60009504Y-117217706D01*
X60000500Y-117000000D01*
X62695065Y-117000000D01*
X62714784Y-117300852D01*
X62714786Y-117300864D01*
X62773602Y-117596553D01*
X62773607Y-117596573D01*
X62870514Y-117882052D01*
X62870518Y-117882062D01*
X63003868Y-118152469D01*
X63171371Y-118403155D01*
X63171374Y-118403159D01*
X63204973Y-118441470D01*
X63204974Y-118441470D01*
X63607413Y-118039032D01*
X63668736Y-118005547D01*
X63738428Y-118010531D01*
X63789381Y-118046179D01*
X63865130Y-118134870D01*
X63924064Y-118185204D01*
X63953816Y-118210615D01*
X63992009Y-118269122D01*
X63992507Y-118338990D01*
X63960965Y-118392586D01*
X63558528Y-118795024D01*
X63558528Y-118795025D01*
X63596840Y-118828625D01*
X63596844Y-118828628D01*
X63847530Y-118996131D01*
X64117937Y-119129481D01*
X64117947Y-119129485D01*
X64403426Y-119226392D01*
X64403446Y-119226397D01*
X64699135Y-119285213D01*
X64699147Y-119285215D01*
X64999999Y-119304934D01*
X65300852Y-119285215D01*
X65300864Y-119285213D01*
X65596553Y-119226397D01*
X65596573Y-119226392D01*
X65882052Y-119129485D01*
X65882062Y-119129481D01*
X66152469Y-118996131D01*
X66403157Y-118828627D01*
X66441470Y-118795025D01*
X66441470Y-118795023D01*
X66039033Y-118392586D01*
X66005548Y-118331263D01*
X66010532Y-118261571D01*
X66046180Y-118210617D01*
X66134870Y-118134870D01*
X66210617Y-118046180D01*
X66269121Y-118007990D01*
X66338989Y-118007490D01*
X66392586Y-118039033D01*
X66795023Y-118441470D01*
X66795025Y-118441470D01*
X66828627Y-118403157D01*
X66996131Y-118152469D01*
X67129481Y-117882062D01*
X67129485Y-117882052D01*
X67226392Y-117596573D01*
X67226397Y-117596553D01*
X67250376Y-117476000D01*
X81064364Y-117476000D01*
X81121567Y-117689486D01*
X81121570Y-117689492D01*
X81221399Y-117903578D01*
X81356894Y-118097082D01*
X81523917Y-118264105D01*
X81717421Y-118399600D01*
X81931507Y-118499429D01*
X81931516Y-118499433D01*
X82145000Y-118556634D01*
X82145000Y-117838301D01*
X82164685Y-117771262D01*
X82217489Y-117725507D01*
X82286647Y-117715563D01*
X82359237Y-117726000D01*
X82359238Y-117726000D01*
X82430762Y-117726000D01*
X82430763Y-117726000D01*
X82503353Y-117715563D01*
X82572512Y-117725507D01*
X82625315Y-117771262D01*
X82645000Y-117838301D01*
X82645000Y-118556633D01*
X82858483Y-118499433D01*
X82858492Y-118499429D01*
X83072578Y-118399600D01*
X83266082Y-118264105D01*
X83433105Y-118097082D01*
X83559868Y-117916048D01*
X83614445Y-117872423D01*
X83683944Y-117865231D01*
X83746298Y-117896753D01*
X83765251Y-117919350D01*
X83859276Y-118063265D01*
X83859284Y-118063276D01*
X84011756Y-118228902D01*
X84011761Y-118228907D01*
X84056983Y-118264105D01*
X84189424Y-118367189D01*
X84189425Y-118367189D01*
X84189427Y-118367191D01*
X84305524Y-118430019D01*
X84387426Y-118474342D01*
X84600365Y-118547444D01*
X84822431Y-118584500D01*
X85047569Y-118584500D01*
X85269635Y-118547444D01*
X85482574Y-118474342D01*
X85680576Y-118367189D01*
X85858240Y-118228906D01*
X85921452Y-118160239D01*
X85981337Y-118124250D01*
X86051175Y-118126349D01*
X86108791Y-118165873D01*
X86128861Y-118200888D01*
X86174110Y-118322203D01*
X86174111Y-118322204D01*
X86261739Y-118439261D01*
X86378796Y-118526889D01*
X86515799Y-118577989D01*
X86543050Y-118580918D01*
X86576345Y-118584499D01*
X86576362Y-118584500D01*
X88373638Y-118584500D01*
X88373654Y-118584499D01*
X88400692Y-118581591D01*
X88434201Y-118577989D01*
X88571204Y-118526889D01*
X88688261Y-118439261D01*
X88775889Y-118322204D01*
X88826989Y-118185201D01*
X88832400Y-118134870D01*
X88833499Y-118124654D01*
X88833500Y-118124637D01*
X88833500Y-116999999D01*
X122695065Y-116999999D01*
X122714784Y-117300852D01*
X122714786Y-117300864D01*
X122773602Y-117596553D01*
X122773607Y-117596573D01*
X122870514Y-117882052D01*
X122870518Y-117882062D01*
X123003868Y-118152469D01*
X123171371Y-118403155D01*
X123171374Y-118403159D01*
X123204973Y-118441470D01*
X123204974Y-118441470D01*
X123607413Y-118039032D01*
X123668736Y-118005547D01*
X123738428Y-118010531D01*
X123789381Y-118046179D01*
X123865130Y-118134870D01*
X123924064Y-118185204D01*
X123953816Y-118210615D01*
X123992009Y-118269122D01*
X123992507Y-118338990D01*
X123960965Y-118392586D01*
X123558528Y-118795024D01*
X123558528Y-118795025D01*
X123596840Y-118828625D01*
X123596844Y-118828628D01*
X123847530Y-118996131D01*
X124117937Y-119129481D01*
X124117947Y-119129485D01*
X124403426Y-119226392D01*
X124403446Y-119226397D01*
X124699135Y-119285213D01*
X124699147Y-119285215D01*
X124999999Y-119304934D01*
X125300852Y-119285215D01*
X125300864Y-119285213D01*
X125596553Y-119226397D01*
X125596573Y-119226392D01*
X125882052Y-119129485D01*
X125882062Y-119129481D01*
X126152469Y-118996131D01*
X126403157Y-118828627D01*
X126441470Y-118795025D01*
X126441470Y-118795023D01*
X126039033Y-118392586D01*
X126005548Y-118331263D01*
X126010532Y-118261571D01*
X126046180Y-118210617D01*
X126134870Y-118134870D01*
X126210617Y-118046180D01*
X126269121Y-118007990D01*
X126338989Y-118007490D01*
X126392586Y-118039033D01*
X126795023Y-118441470D01*
X126795025Y-118441470D01*
X126828627Y-118403157D01*
X126996131Y-118152469D01*
X127129481Y-117882062D01*
X127129485Y-117882052D01*
X127226392Y-117596573D01*
X127226397Y-117596553D01*
X127285213Y-117300864D01*
X127285215Y-117300852D01*
X127304934Y-116999999D01*
X127285215Y-116699147D01*
X127285213Y-116699135D01*
X127226397Y-116403446D01*
X127226393Y-116403431D01*
X127129483Y-116117944D01*
X127129474Y-116117923D01*
X126996129Y-115847528D01*
X126828633Y-115596851D01*
X126828625Y-115596840D01*
X126795025Y-115558528D01*
X126795024Y-115558528D01*
X126392586Y-115960965D01*
X126331263Y-115994450D01*
X126261571Y-115989466D01*
X126210615Y-115953816D01*
X126154464Y-115888072D01*
X126134870Y-115865130D01*
X126046179Y-115789381D01*
X126007989Y-115730878D01*
X126007489Y-115661010D01*
X126039032Y-115607413D01*
X126441470Y-115204974D01*
X126441470Y-115204973D01*
X126403159Y-115171374D01*
X126403155Y-115171371D01*
X126152469Y-115003868D01*
X125882062Y-114870518D01*
X125882052Y-114870514D01*
X125596573Y-114773607D01*
X125596553Y-114773602D01*
X125300864Y-114714786D01*
X125300852Y-114714784D01*
X124999999Y-114695065D01*
X124699147Y-114714784D01*
X124699135Y-114714786D01*
X124403446Y-114773602D01*
X124403431Y-114773606D01*
X124117944Y-114870516D01*
X124117923Y-114870525D01*
X123847528Y-115003870D01*
X123596844Y-115171370D01*
X123596837Y-115171376D01*
X123558528Y-115204972D01*
X123558527Y-115204974D01*
X123960966Y-115607413D01*
X123994451Y-115668736D01*
X123989467Y-115738428D01*
X123953817Y-115789384D01*
X123865130Y-115865130D01*
X123789384Y-115953817D01*
X123730877Y-115992010D01*
X123661009Y-115992508D01*
X123607413Y-115960966D01*
X123204974Y-115558527D01*
X123204972Y-115558528D01*
X123171376Y-115596837D01*
X123171370Y-115596844D01*
X123003870Y-115847528D01*
X122870525Y-116117923D01*
X122870516Y-116117944D01*
X122773606Y-116403431D01*
X122773602Y-116403446D01*
X122714786Y-116699135D01*
X122714784Y-116699147D01*
X122695065Y-116999999D01*
X88833500Y-116999999D01*
X88833500Y-116327362D01*
X88833499Y-116327345D01*
X88829672Y-116291759D01*
X88826989Y-116266799D01*
X88775889Y-116129796D01*
X88688261Y-116012739D01*
X88571204Y-115925111D01*
X88571204Y-115925110D01*
X88434203Y-115874011D01*
X88373654Y-115867500D01*
X88373638Y-115867500D01*
X86576362Y-115867500D01*
X86576345Y-115867500D01*
X86515797Y-115874011D01*
X86515795Y-115874011D01*
X86378795Y-115925111D01*
X86261739Y-116012739D01*
X86174111Y-116129795D01*
X86128861Y-116251111D01*
X86086989Y-116307044D01*
X86021524Y-116331460D01*
X85953252Y-116316607D01*
X85921454Y-116291762D01*
X85858240Y-116223094D01*
X85680576Y-116084811D01*
X85680575Y-116084810D01*
X85680572Y-116084808D01*
X85482580Y-115977661D01*
X85482577Y-115977659D01*
X85482574Y-115977658D01*
X85482571Y-115977657D01*
X85482569Y-115977656D01*
X85269637Y-115904556D01*
X85047569Y-115867500D01*
X84822431Y-115867500D01*
X84600362Y-115904556D01*
X84387430Y-115977656D01*
X84387419Y-115977661D01*
X84189427Y-116084808D01*
X84189422Y-116084812D01*
X84011761Y-116223092D01*
X84011756Y-116223097D01*
X83859284Y-116388723D01*
X83859276Y-116388734D01*
X83765251Y-116532650D01*
X83712105Y-116578007D01*
X83642873Y-116587430D01*
X83579538Y-116557928D01*
X83559868Y-116535951D01*
X83433113Y-116354926D01*
X83433108Y-116354920D01*
X83266082Y-116187894D01*
X83072578Y-116052399D01*
X82858492Y-115952570D01*
X82858486Y-115952567D01*
X82645000Y-115895364D01*
X82645000Y-116613698D01*
X82625315Y-116680737D01*
X82572511Y-116726492D01*
X82503355Y-116736436D01*
X82430766Y-116726000D01*
X82430763Y-116726000D01*
X82359237Y-116726000D01*
X82359233Y-116726000D01*
X82286645Y-116736436D01*
X82217487Y-116726492D01*
X82164684Y-116680736D01*
X82145000Y-116613698D01*
X82145000Y-115895364D01*
X82144999Y-115895364D01*
X81931513Y-115952567D01*
X81931507Y-115952570D01*
X81717422Y-116052399D01*
X81717420Y-116052400D01*
X81523926Y-116187886D01*
X81523920Y-116187891D01*
X81356891Y-116354920D01*
X81356886Y-116354926D01*
X81221400Y-116548420D01*
X81221399Y-116548422D01*
X81121570Y-116762507D01*
X81121567Y-116762513D01*
X81064364Y-116975999D01*
X81064364Y-116976000D01*
X81781653Y-116976000D01*
X81848692Y-116995685D01*
X81894447Y-117048489D01*
X81904391Y-117117647D01*
X81900631Y-117134933D01*
X81895000Y-117154111D01*
X81895000Y-117297888D01*
X81900631Y-117317067D01*
X81900630Y-117386936D01*
X81862855Y-117445714D01*
X81799299Y-117474738D01*
X81781653Y-117476000D01*
X81064364Y-117476000D01*
X67250376Y-117476000D01*
X67285213Y-117300864D01*
X67285215Y-117300852D01*
X67304934Y-117000000D01*
X67285215Y-116699147D01*
X67285213Y-116699135D01*
X67226397Y-116403446D01*
X67226393Y-116403431D01*
X67129483Y-116117944D01*
X67129474Y-116117923D01*
X67109786Y-116078000D01*
X74778496Y-116078000D01*
X74798458Y-116267928D01*
X74798459Y-116267931D01*
X74857470Y-116449549D01*
X74857473Y-116449556D01*
X74952960Y-116614944D01*
X75080747Y-116756866D01*
X75235248Y-116869118D01*
X75409712Y-116946794D01*
X75596513Y-116986500D01*
X75787487Y-116986500D01*
X75974288Y-116946794D01*
X76148752Y-116869118D01*
X76303253Y-116756866D01*
X76431040Y-116614944D01*
X76526527Y-116449556D01*
X76585542Y-116267928D01*
X76605504Y-116078000D01*
X76585542Y-115888072D01*
X76540679Y-115750000D01*
X77336496Y-115750000D01*
X77356458Y-115939928D01*
X77356459Y-115939931D01*
X77415470Y-116121549D01*
X77415473Y-116121556D01*
X77510960Y-116286944D01*
X77638747Y-116428866D01*
X77793248Y-116541118D01*
X77967712Y-116618794D01*
X78154513Y-116658500D01*
X78345487Y-116658500D01*
X78532288Y-116618794D01*
X78706752Y-116541118D01*
X78861253Y-116428866D01*
X78989040Y-116286944D01*
X79084527Y-116121556D01*
X79143542Y-115939928D01*
X79163504Y-115750000D01*
X79143542Y-115560072D01*
X79084527Y-115378444D01*
X78989040Y-115213056D01*
X78861253Y-115071134D01*
X78706752Y-114958882D01*
X78532288Y-114881206D01*
X78532286Y-114881205D01*
X78345487Y-114841500D01*
X78154513Y-114841500D01*
X77967714Y-114881205D01*
X77793246Y-114958883D01*
X77638745Y-115071135D01*
X77510959Y-115213057D01*
X77415473Y-115378443D01*
X77415470Y-115378450D01*
X77356459Y-115560068D01*
X77356458Y-115560072D01*
X77336496Y-115750000D01*
X76540679Y-115750000D01*
X76526527Y-115706444D01*
X76431040Y-115541056D01*
X76303253Y-115399134D01*
X76148752Y-115286882D01*
X75974288Y-115209206D01*
X75974286Y-115209205D01*
X75787487Y-115169500D01*
X75596513Y-115169500D01*
X75409714Y-115209205D01*
X75235246Y-115286883D01*
X75080745Y-115399135D01*
X74952959Y-115541057D01*
X74857473Y-115706443D01*
X74857470Y-115706450D01*
X74798459Y-115888068D01*
X74798458Y-115888072D01*
X74778496Y-116078000D01*
X67109786Y-116078000D01*
X66996129Y-115847528D01*
X66828633Y-115596851D01*
X66828625Y-115596840D01*
X66795025Y-115558528D01*
X66795024Y-115558528D01*
X66392586Y-115960965D01*
X66331263Y-115994450D01*
X66261571Y-115989466D01*
X66210615Y-115953816D01*
X66154464Y-115888072D01*
X66134870Y-115865130D01*
X66046179Y-115789381D01*
X66007989Y-115730878D01*
X66007489Y-115661010D01*
X66039032Y-115607413D01*
X66441470Y-115204974D01*
X66441470Y-115204973D01*
X66403159Y-115171374D01*
X66403155Y-115171371D01*
X66152469Y-115003868D01*
X65882062Y-114870518D01*
X65882052Y-114870514D01*
X65596573Y-114773607D01*
X65596553Y-114773602D01*
X65300864Y-114714786D01*
X65300852Y-114714784D01*
X64999999Y-114695065D01*
X64699147Y-114714784D01*
X64699135Y-114714786D01*
X64403446Y-114773602D01*
X64403431Y-114773606D01*
X64117944Y-114870516D01*
X64117923Y-114870525D01*
X63847528Y-115003870D01*
X63596844Y-115171370D01*
X63596837Y-115171376D01*
X63558528Y-115204972D01*
X63558527Y-115204974D01*
X63960966Y-115607413D01*
X63994451Y-115668736D01*
X63989467Y-115738428D01*
X63953817Y-115789384D01*
X63865130Y-115865130D01*
X63789384Y-115953817D01*
X63730877Y-115992010D01*
X63661009Y-115992508D01*
X63607413Y-115960966D01*
X63204974Y-115558527D01*
X63204972Y-115558528D01*
X63171376Y-115596837D01*
X63171370Y-115596844D01*
X63003870Y-115847528D01*
X62870525Y-116117923D01*
X62870516Y-116117944D01*
X62773606Y-116403431D01*
X62773602Y-116403446D01*
X62714786Y-116699135D01*
X62714784Y-116699147D01*
X62695065Y-117000000D01*
X60000500Y-117000000D01*
X60000500Y-116999500D01*
X60000500Y-112915005D01*
X97931844Y-112915005D01*
X97950434Y-113139359D01*
X97950436Y-113139371D01*
X98005703Y-113357614D01*
X98096140Y-113563792D01*
X98219276Y-113752265D01*
X98219284Y-113752276D01*
X98353674Y-113898260D01*
X98371760Y-113917906D01*
X98549424Y-114056189D01*
X98549425Y-114056189D01*
X98549427Y-114056191D01*
X98676135Y-114124761D01*
X98747426Y-114163342D01*
X98960365Y-114236444D01*
X99182431Y-114273500D01*
X99407569Y-114273500D01*
X99629635Y-114236444D01*
X99842574Y-114163342D01*
X100040576Y-114056189D01*
X100218240Y-113917906D01*
X100317614Y-113809957D01*
X100370715Y-113752276D01*
X100370716Y-113752274D01*
X100370722Y-113752268D01*
X100493860Y-113563791D01*
X100584296Y-113357616D01*
X100639564Y-113139368D01*
X100658156Y-112915000D01*
X100657689Y-112909368D01*
X100639565Y-112690640D01*
X100639563Y-112690628D01*
X100638139Y-112685005D01*
X104281844Y-112685005D01*
X104300434Y-112909359D01*
X104300436Y-112909371D01*
X104355703Y-113127614D01*
X104446140Y-113333792D01*
X104569276Y-113522265D01*
X104569284Y-113522276D01*
X104663733Y-113624873D01*
X104721760Y-113687906D01*
X104899424Y-113826189D01*
X104899425Y-113826189D01*
X104899427Y-113826191D01*
X105026135Y-113894761D01*
X105097426Y-113933342D01*
X105310365Y-114006444D01*
X105532431Y-114043500D01*
X105757569Y-114043500D01*
X105979635Y-114006444D01*
X106192574Y-113933342D01*
X106390576Y-113826189D01*
X106568240Y-113687906D01*
X106631452Y-113619239D01*
X106691337Y-113583250D01*
X106761175Y-113585349D01*
X106818791Y-113624873D01*
X106838861Y-113659888D01*
X106873317Y-113752265D01*
X106884111Y-113781204D01*
X106971739Y-113898261D01*
X107088796Y-113985889D01*
X107225799Y-114036989D01*
X107253050Y-114039918D01*
X107286345Y-114043499D01*
X107286362Y-114043500D01*
X109083638Y-114043500D01*
X109083654Y-114043499D01*
X109110692Y-114040591D01*
X109144201Y-114036989D01*
X109281204Y-113985889D01*
X109398261Y-113898261D01*
X109485889Y-113781204D01*
X109531138Y-113659887D01*
X109573009Y-113603956D01*
X109638474Y-113579539D01*
X109706746Y-113594391D01*
X109738545Y-113619236D01*
X109801760Y-113687906D01*
X109979424Y-113826189D01*
X109979425Y-113826189D01*
X109979427Y-113826191D01*
X110106135Y-113894761D01*
X110177426Y-113933342D01*
X110390365Y-114006444D01*
X110612431Y-114043500D01*
X110837569Y-114043500D01*
X111059635Y-114006444D01*
X111272574Y-113933342D01*
X111470576Y-113826189D01*
X111648240Y-113687906D01*
X111800722Y-113522268D01*
X111923860Y-113333791D01*
X112014296Y-113127616D01*
X112068137Y-112915005D01*
X115711844Y-112915005D01*
X115730434Y-113139359D01*
X115730436Y-113139371D01*
X115785703Y-113357614D01*
X115876140Y-113563792D01*
X115999276Y-113752265D01*
X115999284Y-113752276D01*
X116133674Y-113898260D01*
X116151760Y-113917906D01*
X116329424Y-114056189D01*
X116329425Y-114056189D01*
X116329427Y-114056191D01*
X116456135Y-114124761D01*
X116527426Y-114163342D01*
X116740365Y-114236444D01*
X116962431Y-114273500D01*
X117187569Y-114273500D01*
X117409635Y-114236444D01*
X117622574Y-114163342D01*
X117820576Y-114056189D01*
X117998240Y-113917906D01*
X118097614Y-113809957D01*
X118150715Y-113752276D01*
X118150716Y-113752274D01*
X118150722Y-113752268D01*
X118273860Y-113563791D01*
X118364296Y-113357616D01*
X118419564Y-113139368D01*
X118438156Y-112915000D01*
X118437689Y-112909368D01*
X118419565Y-112690640D01*
X118419563Y-112690628D01*
X118364296Y-112472385D01*
X118359144Y-112460640D01*
X118273860Y-112266209D01*
X118258294Y-112242384D01*
X118150723Y-112077734D01*
X118150715Y-112077723D01*
X117998243Y-111912097D01*
X117998238Y-111912092D01*
X117836701Y-111786362D01*
X117820576Y-111773811D01*
X117784070Y-111754055D01*
X117734479Y-111704836D01*
X117719371Y-111636619D01*
X117743541Y-111571064D01*
X117784070Y-111535945D01*
X117784084Y-111535936D01*
X117820576Y-111516189D01*
X117998240Y-111377906D01*
X118150722Y-111212268D01*
X118273860Y-111023791D01*
X118364296Y-110817616D01*
X118419564Y-110599368D01*
X118424364Y-110541443D01*
X118438156Y-110375005D01*
X118438156Y-110374994D01*
X118419565Y-110150640D01*
X118419563Y-110150628D01*
X118364296Y-109932385D01*
X118347246Y-109893515D01*
X118273860Y-109726209D01*
X118150722Y-109537732D01*
X117999291Y-109373236D01*
X117968370Y-109310584D01*
X117976230Y-109241158D01*
X118020376Y-109187002D01*
X118047189Y-109173073D01*
X118167086Y-109128354D01*
X118167093Y-109128350D01*
X118282187Y-109042190D01*
X118282190Y-109042187D01*
X118368350Y-108927093D01*
X118368354Y-108927086D01*
X118418596Y-108792379D01*
X118418598Y-108792372D01*
X118424999Y-108732844D01*
X118425000Y-108732827D01*
X118425000Y-108085000D01*
X117698769Y-108085000D01*
X117631730Y-108065315D01*
X117585975Y-108012511D01*
X117576031Y-107943353D01*
X117579792Y-107926064D01*
X117585000Y-107908327D01*
X117585000Y-107761672D01*
X117579792Y-107743936D01*
X117579792Y-107674066D01*
X117617566Y-107615288D01*
X117681121Y-107586262D01*
X117698769Y-107585000D01*
X118425000Y-107585000D01*
X118425000Y-106937172D01*
X118424999Y-106937155D01*
X118418598Y-106877627D01*
X118418596Y-106877620D01*
X118368354Y-106742913D01*
X118368350Y-106742906D01*
X118282190Y-106627812D01*
X118282187Y-106627809D01*
X118167093Y-106541649D01*
X118167088Y-106541646D01*
X118047188Y-106496926D01*
X117991255Y-106455054D01*
X117966838Y-106389590D01*
X117981690Y-106321317D01*
X117999286Y-106296769D01*
X118150722Y-106132268D01*
X118273860Y-105943791D01*
X118364296Y-105737616D01*
X118419564Y-105519368D01*
X118419565Y-105519359D01*
X118438156Y-105295005D01*
X118438156Y-105294994D01*
X118419565Y-105070640D01*
X118419563Y-105070628D01*
X118384190Y-104930944D01*
X118364296Y-104852384D01*
X118273860Y-104646209D01*
X118269803Y-104640000D01*
X118150723Y-104457734D01*
X118150715Y-104457723D01*
X117998243Y-104292097D01*
X117998238Y-104292092D01*
X117820577Y-104153812D01*
X117820578Y-104153812D01*
X117820576Y-104153811D01*
X117784070Y-104134055D01*
X117734479Y-104084836D01*
X117719371Y-104016619D01*
X117743541Y-103951064D01*
X117784070Y-103915945D01*
X117784084Y-103915936D01*
X117820576Y-103896189D01*
X117998240Y-103757906D01*
X118150722Y-103592268D01*
X118273860Y-103403791D01*
X118364296Y-103197616D01*
X118419564Y-102979368D01*
X118419565Y-102979359D01*
X118438156Y-102755005D01*
X118438156Y-102754994D01*
X118419565Y-102530640D01*
X118419563Y-102530628D01*
X118364296Y-102312385D01*
X118347552Y-102274213D01*
X118273860Y-102106209D01*
X118256006Y-102078882D01*
X118150723Y-101917734D01*
X118150715Y-101917723D01*
X117998243Y-101752097D01*
X117998238Y-101752092D01*
X117820577Y-101613812D01*
X117820578Y-101613812D01*
X117820576Y-101613811D01*
X117784070Y-101594055D01*
X117734479Y-101544836D01*
X117719371Y-101476619D01*
X117743541Y-101411064D01*
X117784070Y-101375945D01*
X117784656Y-101375628D01*
X117820576Y-101356189D01*
X117998240Y-101217906D01*
X118097614Y-101109957D01*
X118150715Y-101052276D01*
X118150716Y-101052274D01*
X118150722Y-101052268D01*
X118273860Y-100863791D01*
X118364296Y-100657616D01*
X118419564Y-100439368D01*
X118419590Y-100439052D01*
X118438156Y-100215005D01*
X118438156Y-100214994D01*
X118419565Y-99990640D01*
X118419563Y-99990628D01*
X118368353Y-99788404D01*
X118364296Y-99772384D01*
X118273860Y-99566209D01*
X118252966Y-99534229D01*
X118150723Y-99377734D01*
X118150715Y-99377723D01*
X117998243Y-99212097D01*
X117998238Y-99212092D01*
X117820577Y-99073812D01*
X117820578Y-99073812D01*
X117820576Y-99073811D01*
X117784070Y-99054055D01*
X117734479Y-99004836D01*
X117719371Y-98936619D01*
X117743541Y-98871064D01*
X117784070Y-98835945D01*
X117792958Y-98831135D01*
X117820576Y-98816189D01*
X117998240Y-98677906D01*
X118150722Y-98512268D01*
X118273860Y-98323791D01*
X118364296Y-98117616D01*
X118419564Y-97899368D01*
X118422500Y-97863937D01*
X118438156Y-97675005D01*
X118438156Y-97674994D01*
X118419565Y-97450640D01*
X118419563Y-97450628D01*
X118364296Y-97232385D01*
X118347246Y-97193515D01*
X118273860Y-97026209D01*
X118150722Y-96837732D01*
X117999291Y-96673236D01*
X117968370Y-96610584D01*
X117976230Y-96541158D01*
X118020376Y-96487002D01*
X118047189Y-96473073D01*
X118167086Y-96428354D01*
X118167093Y-96428350D01*
X118282187Y-96342190D01*
X118282190Y-96342187D01*
X118368350Y-96227093D01*
X118368354Y-96227086D01*
X118418596Y-96092379D01*
X118418598Y-96092372D01*
X118424999Y-96032844D01*
X118425000Y-96032827D01*
X118425000Y-95385000D01*
X117698769Y-95385000D01*
X117631730Y-95365315D01*
X117585975Y-95312511D01*
X117576031Y-95243353D01*
X117579792Y-95226064D01*
X117585000Y-95208327D01*
X117585000Y-95061672D01*
X117579792Y-95043936D01*
X117579792Y-94974066D01*
X117617566Y-94915288D01*
X117681121Y-94886262D01*
X117698769Y-94885000D01*
X118425000Y-94885000D01*
X118425000Y-94237172D01*
X118424999Y-94237155D01*
X118418598Y-94177627D01*
X118418596Y-94177620D01*
X118368354Y-94042913D01*
X118368350Y-94042906D01*
X118282190Y-93927812D01*
X118282187Y-93927809D01*
X118167093Y-93841649D01*
X118167088Y-93841646D01*
X118047188Y-93796926D01*
X117991255Y-93755054D01*
X117966838Y-93689590D01*
X117981690Y-93621317D01*
X117999286Y-93596769D01*
X118150722Y-93432268D01*
X118273860Y-93243791D01*
X118364296Y-93037616D01*
X118419564Y-92819368D01*
X118422500Y-92783937D01*
X118438156Y-92595005D01*
X118438156Y-92594994D01*
X118419565Y-92370640D01*
X118419563Y-92370628D01*
X118364296Y-92152385D01*
X118347246Y-92113515D01*
X118273860Y-91946209D01*
X118150722Y-91757732D01*
X118150719Y-91757729D01*
X118150715Y-91757723D01*
X117998243Y-91592097D01*
X117998238Y-91592092D01*
X117820577Y-91453812D01*
X117820578Y-91453812D01*
X117820576Y-91453811D01*
X117784070Y-91434055D01*
X117734479Y-91384836D01*
X117719371Y-91316619D01*
X117743541Y-91251064D01*
X117784070Y-91215945D01*
X117784656Y-91215628D01*
X117820576Y-91196189D01*
X117998240Y-91057906D01*
X118150722Y-90892268D01*
X118273860Y-90703791D01*
X118364296Y-90497616D01*
X118419564Y-90279368D01*
X118422500Y-90243937D01*
X118438156Y-90055005D01*
X118438156Y-90054994D01*
X118419565Y-89830640D01*
X118419563Y-89830628D01*
X118364296Y-89612385D01*
X118347246Y-89573515D01*
X118273860Y-89406209D01*
X118150722Y-89217732D01*
X118150719Y-89217729D01*
X118150715Y-89217723D01*
X117998243Y-89052097D01*
X117998238Y-89052092D01*
X117820577Y-88913812D01*
X117820572Y-88913808D01*
X117784068Y-88894053D01*
X117734478Y-88844833D01*
X117719371Y-88776616D01*
X117743542Y-88711061D01*
X117784069Y-88675945D01*
X117820576Y-88656189D01*
X117998240Y-88517906D01*
X118150722Y-88352268D01*
X118273860Y-88163791D01*
X118364296Y-87957616D01*
X118419564Y-87739368D01*
X118422500Y-87703934D01*
X118438156Y-87515005D01*
X118438156Y-87514994D01*
X118419565Y-87290640D01*
X118419563Y-87290628D01*
X118395920Y-87197265D01*
X118364296Y-87072384D01*
X118273860Y-86866209D01*
X118150722Y-86677732D01*
X118150719Y-86677729D01*
X118150715Y-86677723D01*
X117998243Y-86512097D01*
X117998238Y-86512092D01*
X117820577Y-86373812D01*
X117820578Y-86373812D01*
X117820576Y-86373811D01*
X117784070Y-86354055D01*
X117734479Y-86304836D01*
X117719371Y-86236619D01*
X117743541Y-86171064D01*
X117784070Y-86135945D01*
X117784656Y-86135628D01*
X117820576Y-86116189D01*
X117998240Y-85977906D01*
X118150722Y-85812268D01*
X118273860Y-85623791D01*
X118364296Y-85417616D01*
X118419564Y-85199368D01*
X118422500Y-85163937D01*
X118438156Y-84975005D01*
X118438156Y-84974994D01*
X118419565Y-84750640D01*
X118419563Y-84750628D01*
X118364296Y-84532385D01*
X118347246Y-84493515D01*
X118273860Y-84326209D01*
X118150722Y-84137732D01*
X118150719Y-84137729D01*
X118150715Y-84137723D01*
X118005510Y-83979991D01*
X117974587Y-83917337D01*
X117982447Y-83847911D01*
X118026594Y-83793755D01*
X118053405Y-83779827D01*
X118133584Y-83749920D01*
X118171204Y-83735889D01*
X118288261Y-83648261D01*
X118375889Y-83531204D01*
X118426989Y-83394201D01*
X118430591Y-83360692D01*
X118433499Y-83333654D01*
X118433500Y-83333637D01*
X118433500Y-81536362D01*
X118433499Y-81536345D01*
X118430059Y-81504359D01*
X118426989Y-81475799D01*
X118417689Y-81450866D01*
X118404522Y-81415564D01*
X118375889Y-81338796D01*
X118288261Y-81221739D01*
X118171204Y-81134111D01*
X118053404Y-81090172D01*
X117997471Y-81048300D01*
X117973055Y-80982835D01*
X117987908Y-80914562D01*
X118005504Y-80890014D01*
X118114145Y-80772000D01*
X122784496Y-80772000D01*
X122804458Y-80961928D01*
X122804459Y-80961931D01*
X122863470Y-81143549D01*
X122863473Y-81143556D01*
X122958960Y-81308944D01*
X123086747Y-81450866D01*
X123241248Y-81563118D01*
X123415712Y-81640794D01*
X123602513Y-81680500D01*
X123793487Y-81680500D01*
X123980288Y-81640794D01*
X124154752Y-81563118D01*
X124309253Y-81450866D01*
X124437040Y-81308944D01*
X124532527Y-81143556D01*
X124591542Y-80961928D01*
X124611504Y-80772000D01*
X124591542Y-80582072D01*
X124532527Y-80400444D01*
X124437040Y-80235056D01*
X124309253Y-80093134D01*
X124154752Y-79980882D01*
X123980288Y-79903206D01*
X123980286Y-79903205D01*
X123793487Y-79863500D01*
X123602513Y-79863500D01*
X123415714Y-79903205D01*
X123241246Y-79980883D01*
X123086745Y-80093135D01*
X122958959Y-80235057D01*
X122863473Y-80400443D01*
X122863470Y-80400450D01*
X122816896Y-80543791D01*
X122804458Y-80582072D01*
X122784496Y-80772000D01*
X118114145Y-80772000D01*
X118150722Y-80732268D01*
X118273860Y-80543791D01*
X118364296Y-80337616D01*
X118419564Y-80119368D01*
X118422500Y-80083937D01*
X118438156Y-79895005D01*
X118438156Y-79894994D01*
X118426638Y-79756000D01*
X124816496Y-79756000D01*
X124836458Y-79945928D01*
X124836459Y-79945931D01*
X124895470Y-80127549D01*
X124895473Y-80127556D01*
X124990960Y-80292944D01*
X125118747Y-80434866D01*
X125273248Y-80547118D01*
X125447712Y-80624794D01*
X125634513Y-80664500D01*
X125825487Y-80664500D01*
X126012288Y-80624794D01*
X126186752Y-80547118D01*
X126341253Y-80434866D01*
X126469040Y-80292944D01*
X126564527Y-80127556D01*
X126623542Y-79945928D01*
X126643504Y-79756000D01*
X126623542Y-79566072D01*
X126564527Y-79384444D01*
X126469040Y-79219056D01*
X126341253Y-79077134D01*
X126186752Y-78964882D01*
X126012288Y-78887206D01*
X126012286Y-78887205D01*
X125825487Y-78847500D01*
X125634513Y-78847500D01*
X125447714Y-78887205D01*
X125360480Y-78926044D01*
X125274403Y-78964368D01*
X125273246Y-78964883D01*
X125118745Y-79077135D01*
X124990959Y-79219057D01*
X124895473Y-79384443D01*
X124895470Y-79384450D01*
X124873397Y-79452385D01*
X124836458Y-79566072D01*
X124816496Y-79756000D01*
X118426638Y-79756000D01*
X118419565Y-79670640D01*
X118419563Y-79670628D01*
X118393085Y-79566068D01*
X118364296Y-79452384D01*
X118273860Y-79246209D01*
X118150722Y-79057732D01*
X118150719Y-79057729D01*
X118150715Y-79057723D01*
X117998243Y-78892097D01*
X117998238Y-78892092D01*
X117820577Y-78753812D01*
X117820572Y-78753808D01*
X117784068Y-78734053D01*
X117734478Y-78684833D01*
X117719371Y-78616616D01*
X117743542Y-78551061D01*
X117784069Y-78515945D01*
X117820576Y-78496189D01*
X117998240Y-78357906D01*
X118150722Y-78192268D01*
X118273860Y-78003791D01*
X118364296Y-77797616D01*
X118419564Y-77579368D01*
X118422500Y-77543937D01*
X118438156Y-77355005D01*
X118438156Y-77354994D01*
X118419565Y-77130640D01*
X118419563Y-77130628D01*
X118364296Y-76912385D01*
X118347246Y-76873515D01*
X118273860Y-76706209D01*
X118150722Y-76517732D01*
X118150719Y-76517729D01*
X118150715Y-76517723D01*
X117998243Y-76352097D01*
X117998238Y-76352092D01*
X117820577Y-76213812D01*
X117820578Y-76213812D01*
X117820576Y-76213811D01*
X117784070Y-76194055D01*
X117734479Y-76144836D01*
X117719371Y-76076619D01*
X117743541Y-76011064D01*
X117784070Y-75975945D01*
X117784656Y-75975628D01*
X117820576Y-75956189D01*
X117998240Y-75817906D01*
X118150722Y-75652268D01*
X118273860Y-75463791D01*
X118364296Y-75257616D01*
X118419564Y-75039368D01*
X118422500Y-75003937D01*
X118438156Y-74815005D01*
X118438156Y-74814994D01*
X118419565Y-74590640D01*
X118419563Y-74590628D01*
X118364296Y-74372385D01*
X118349593Y-74338866D01*
X118273860Y-74166209D01*
X118150722Y-73977732D01*
X118150719Y-73977729D01*
X118150715Y-73977723D01*
X117998243Y-73812097D01*
X117998238Y-73812092D01*
X117879797Y-73719905D01*
X117820576Y-73673811D01*
X117795055Y-73660000D01*
X124816490Y-73660000D01*
X124836452Y-73849928D01*
X124836453Y-73849931D01*
X124895464Y-74031549D01*
X124895467Y-74031556D01*
X124990954Y-74196944D01*
X125118741Y-74338866D01*
X125273242Y-74451118D01*
X125447706Y-74528794D01*
X125634507Y-74568500D01*
X125825481Y-74568500D01*
X126012282Y-74528794D01*
X126186746Y-74451118D01*
X126341247Y-74338866D01*
X126469034Y-74196944D01*
X126564521Y-74031556D01*
X126623536Y-73849928D01*
X126643498Y-73660000D01*
X126623536Y-73470072D01*
X126564521Y-73288444D01*
X126469034Y-73123056D01*
X126341247Y-72981134D01*
X126186746Y-72868882D01*
X126012282Y-72791206D01*
X126012280Y-72791205D01*
X125825481Y-72751500D01*
X125634507Y-72751500D01*
X125447708Y-72791205D01*
X125273240Y-72868883D01*
X125118739Y-72981135D01*
X124990953Y-73123057D01*
X124895467Y-73288443D01*
X124895464Y-73288450D01*
X124847540Y-73435946D01*
X124836452Y-73470072D01*
X124816490Y-73660000D01*
X117795055Y-73660000D01*
X117784070Y-73654055D01*
X117734479Y-73604836D01*
X117719371Y-73536619D01*
X117743541Y-73471064D01*
X117784070Y-73435945D01*
X117784656Y-73435628D01*
X117820576Y-73416189D01*
X117998240Y-73277906D01*
X118150722Y-73112268D01*
X118273860Y-72923791D01*
X118364296Y-72717616D01*
X118419564Y-72499368D01*
X118426832Y-72411656D01*
X118438156Y-72275005D01*
X118438156Y-72274994D01*
X118419565Y-72050640D01*
X118419563Y-72050628D01*
X118364296Y-71832385D01*
X118273859Y-71626207D01*
X118150723Y-71437734D01*
X118150722Y-71437732D01*
X117999291Y-71273236D01*
X117968370Y-71210584D01*
X117976230Y-71141158D01*
X118020376Y-71087002D01*
X118047189Y-71073073D01*
X118167086Y-71028354D01*
X118167093Y-71028350D01*
X118282187Y-70942190D01*
X118282190Y-70942187D01*
X118368350Y-70827093D01*
X118368354Y-70827086D01*
X118418596Y-70692379D01*
X118418598Y-70692372D01*
X118424999Y-70632844D01*
X118425000Y-70632827D01*
X118425000Y-69985000D01*
X117698769Y-69985000D01*
X117631730Y-69965315D01*
X117585975Y-69912511D01*
X117576031Y-69843353D01*
X117579792Y-69826064D01*
X117585000Y-69808327D01*
X117585000Y-69661672D01*
X117579792Y-69643936D01*
X117579792Y-69574066D01*
X117617566Y-69515288D01*
X117681121Y-69486262D01*
X117698769Y-69485000D01*
X118425000Y-69485000D01*
X118425000Y-68837172D01*
X118424999Y-68837155D01*
X118418598Y-68777627D01*
X118418596Y-68777620D01*
X118368354Y-68642913D01*
X118368350Y-68642906D01*
X118282190Y-68527812D01*
X118282187Y-68527809D01*
X118167093Y-68441649D01*
X118167088Y-68441646D01*
X118047188Y-68396926D01*
X117991255Y-68355054D01*
X117966838Y-68289590D01*
X117981690Y-68221317D01*
X117999286Y-68196769D01*
X118150722Y-68032268D01*
X118273860Y-67843791D01*
X118364296Y-67637616D01*
X118419564Y-67419368D01*
X118422584Y-67382923D01*
X118438156Y-67195005D01*
X118438156Y-67194994D01*
X118421998Y-67000000D01*
X122695065Y-67000000D01*
X122714784Y-67300852D01*
X122714786Y-67300864D01*
X122773602Y-67596553D01*
X122773607Y-67596573D01*
X122870514Y-67882052D01*
X122870518Y-67882062D01*
X123003868Y-68152469D01*
X123171371Y-68403155D01*
X123171374Y-68403159D01*
X123204973Y-68441470D01*
X123204974Y-68441470D01*
X123607413Y-68039032D01*
X123668736Y-68005547D01*
X123738428Y-68010531D01*
X123789381Y-68046179D01*
X123865130Y-68134870D01*
X123928855Y-68189296D01*
X123953816Y-68210615D01*
X123992009Y-68269122D01*
X123992507Y-68338990D01*
X123960965Y-68392586D01*
X123558528Y-68795024D01*
X123558528Y-68795025D01*
X123596840Y-68828625D01*
X123596844Y-68828628D01*
X123847530Y-68996131D01*
X124117937Y-69129481D01*
X124117947Y-69129485D01*
X124403426Y-69226392D01*
X124403446Y-69226397D01*
X124699135Y-69285213D01*
X124699147Y-69285215D01*
X125000000Y-69304934D01*
X125300852Y-69285215D01*
X125300864Y-69285213D01*
X125596553Y-69226397D01*
X125596573Y-69226392D01*
X125882052Y-69129485D01*
X125882062Y-69129481D01*
X126152469Y-68996131D01*
X126403157Y-68828627D01*
X126441470Y-68795025D01*
X126441470Y-68795023D01*
X126039033Y-68392586D01*
X126005548Y-68331263D01*
X126010532Y-68261571D01*
X126046180Y-68210617D01*
X126134870Y-68134870D01*
X126210617Y-68046180D01*
X126269121Y-68007990D01*
X126338989Y-68007490D01*
X126392586Y-68039033D01*
X126795023Y-68441470D01*
X126795025Y-68441470D01*
X126828627Y-68403157D01*
X126996131Y-68152469D01*
X127129481Y-67882062D01*
X127129485Y-67882052D01*
X127226392Y-67596573D01*
X127226397Y-67596553D01*
X127285213Y-67300864D01*
X127285215Y-67300852D01*
X127304934Y-67000000D01*
X127285215Y-66699147D01*
X127285213Y-66699135D01*
X127226397Y-66403446D01*
X127226393Y-66403431D01*
X127129483Y-66117944D01*
X127129474Y-66117923D01*
X126996129Y-65847528D01*
X126828633Y-65596851D01*
X126828625Y-65596840D01*
X126795025Y-65558528D01*
X126795024Y-65558528D01*
X126392586Y-65960965D01*
X126331263Y-65994450D01*
X126261571Y-65989466D01*
X126210615Y-65953816D01*
X126185445Y-65924346D01*
X126134870Y-65865130D01*
X126046179Y-65789381D01*
X126007989Y-65730878D01*
X126007489Y-65661010D01*
X126039032Y-65607413D01*
X126441470Y-65204974D01*
X126441470Y-65204973D01*
X126403159Y-65171374D01*
X126403155Y-65171371D01*
X126152469Y-65003868D01*
X125882062Y-64870518D01*
X125882052Y-64870514D01*
X125596573Y-64773607D01*
X125596553Y-64773602D01*
X125300864Y-64714786D01*
X125300852Y-64714784D01*
X125000000Y-64695065D01*
X124699147Y-64714784D01*
X124699135Y-64714786D01*
X124403446Y-64773602D01*
X124403431Y-64773606D01*
X124117944Y-64870516D01*
X124117923Y-64870525D01*
X123847528Y-65003870D01*
X123596844Y-65171370D01*
X123596837Y-65171376D01*
X123558528Y-65204972D01*
X123558527Y-65204974D01*
X123960966Y-65607413D01*
X123994451Y-65668736D01*
X123989467Y-65738428D01*
X123953817Y-65789384D01*
X123865130Y-65865130D01*
X123789384Y-65953817D01*
X123730877Y-65992010D01*
X123661009Y-65992508D01*
X123607413Y-65960966D01*
X123204974Y-65558527D01*
X123204972Y-65558528D01*
X123171376Y-65596837D01*
X123171370Y-65596844D01*
X123003870Y-65847528D01*
X122870525Y-66117923D01*
X122870516Y-66117944D01*
X122773606Y-66403431D01*
X122773602Y-66403446D01*
X122714786Y-66699135D01*
X122714784Y-66699147D01*
X122695065Y-67000000D01*
X118421998Y-67000000D01*
X118419565Y-66970640D01*
X118419563Y-66970628D01*
X118388320Y-66847254D01*
X118364296Y-66752384D01*
X118273860Y-66546209D01*
X118150722Y-66357732D01*
X118150719Y-66357729D01*
X118150715Y-66357723D01*
X117998243Y-66192097D01*
X117998238Y-66192092D01*
X117849431Y-66076270D01*
X117820576Y-66053811D01*
X117820575Y-66053810D01*
X117820572Y-66053808D01*
X117784068Y-66034053D01*
X117734478Y-65984833D01*
X117719371Y-65916616D01*
X117743542Y-65851061D01*
X117784069Y-65815945D01*
X117820576Y-65796189D01*
X117998240Y-65657906D01*
X118129652Y-65515156D01*
X118150715Y-65492276D01*
X118150716Y-65492274D01*
X118150722Y-65492268D01*
X118273860Y-65303791D01*
X118364296Y-65097616D01*
X118419564Y-64879368D01*
X118420297Y-64870525D01*
X118438156Y-64655005D01*
X118438156Y-64654994D01*
X118419565Y-64430640D01*
X118419563Y-64430628D01*
X118404480Y-64371067D01*
X118364296Y-64212384D01*
X118273860Y-64006209D01*
X118256973Y-63980362D01*
X118180040Y-63862607D01*
X118150722Y-63817732D01*
X118150719Y-63817729D01*
X118150715Y-63817723D01*
X117998243Y-63652097D01*
X117998238Y-63652092D01*
X117820577Y-63513812D01*
X117820572Y-63513808D01*
X117622580Y-63406661D01*
X117622577Y-63406659D01*
X117622574Y-63406658D01*
X117622571Y-63406657D01*
X117622569Y-63406656D01*
X117409637Y-63333556D01*
X117187569Y-63296500D01*
X116962431Y-63296500D01*
X116740362Y-63333556D01*
X116527430Y-63406656D01*
X116527419Y-63406661D01*
X116329427Y-63513808D01*
X116329422Y-63513812D01*
X116151761Y-63652092D01*
X116151756Y-63652097D01*
X115999284Y-63817723D01*
X115999276Y-63817734D01*
X115876140Y-64006207D01*
X115785703Y-64212385D01*
X115730436Y-64430628D01*
X115730434Y-64430640D01*
X115711844Y-64654994D01*
X115711844Y-64655005D01*
X115730434Y-64879359D01*
X115730436Y-64879371D01*
X115785703Y-65097614D01*
X115876140Y-65303792D01*
X115999276Y-65492265D01*
X115999284Y-65492276D01*
X116151756Y-65657902D01*
X116151761Y-65657907D01*
X116187864Y-65686007D01*
X116329424Y-65796189D01*
X116365930Y-65815945D01*
X116415519Y-65865162D01*
X116430629Y-65933378D01*
X116406459Y-65998934D01*
X116365932Y-66034052D01*
X116329432Y-66053805D01*
X116329422Y-66053812D01*
X116151761Y-66192092D01*
X116151756Y-66192097D01*
X115999284Y-66357723D01*
X115999276Y-66357734D01*
X115876140Y-66546207D01*
X115785703Y-66752385D01*
X115730436Y-66970628D01*
X115730434Y-66970640D01*
X115711844Y-67194994D01*
X115711844Y-67195005D01*
X115730434Y-67419359D01*
X115730436Y-67419371D01*
X115785703Y-67637614D01*
X115876140Y-67843792D01*
X115985240Y-68010781D01*
X115999278Y-68032268D01*
X116150707Y-68196762D01*
X116181629Y-68259415D01*
X116173769Y-68328841D01*
X116129622Y-68382997D01*
X116102811Y-68396926D01*
X115982912Y-68441646D01*
X115982906Y-68441649D01*
X115867812Y-68527809D01*
X115867809Y-68527812D01*
X115781649Y-68642906D01*
X115781645Y-68642913D01*
X115731403Y-68777620D01*
X115731401Y-68777627D01*
X115725000Y-68837155D01*
X115725000Y-69485000D01*
X116451231Y-69485000D01*
X116518270Y-69504685D01*
X116564025Y-69557489D01*
X116573969Y-69626647D01*
X116570208Y-69643936D01*
X116565000Y-69661672D01*
X116565000Y-69808327D01*
X116570208Y-69826064D01*
X116570208Y-69895934D01*
X116532434Y-69954712D01*
X116468879Y-69983738D01*
X116451231Y-69985000D01*
X115725000Y-69985000D01*
X115725000Y-70632844D01*
X115731401Y-70692372D01*
X115731403Y-70692379D01*
X115781645Y-70827086D01*
X115781649Y-70827093D01*
X115867809Y-70942187D01*
X115867812Y-70942190D01*
X115982906Y-71028350D01*
X115982913Y-71028354D01*
X116102810Y-71073073D01*
X116158744Y-71114944D01*
X116183161Y-71180409D01*
X116168309Y-71248682D01*
X116150706Y-71273238D01*
X115999284Y-71437723D01*
X115999276Y-71437734D01*
X115876140Y-71626207D01*
X115785703Y-71832385D01*
X115730436Y-72050628D01*
X115730434Y-72050640D01*
X115711844Y-72274994D01*
X115711844Y-72275005D01*
X115730434Y-72499359D01*
X115730436Y-72499371D01*
X115785703Y-72717614D01*
X115876140Y-72923792D01*
X115999276Y-73112265D01*
X115999284Y-73112276D01*
X116151756Y-73277902D01*
X116151760Y-73277906D01*
X116329424Y-73416189D01*
X116329429Y-73416191D01*
X116329431Y-73416193D01*
X116365930Y-73435946D01*
X116415520Y-73485165D01*
X116430628Y-73553382D01*
X116406457Y-73618937D01*
X116365930Y-73654054D01*
X116329431Y-73673806D01*
X116329422Y-73673812D01*
X116151761Y-73812092D01*
X116151756Y-73812097D01*
X115999284Y-73977723D01*
X115999276Y-73977734D01*
X115876140Y-74166207D01*
X115785703Y-74372385D01*
X115730436Y-74590628D01*
X115730434Y-74590640D01*
X115711844Y-74814994D01*
X115711844Y-74815005D01*
X115730434Y-75039359D01*
X115730436Y-75039371D01*
X115785703Y-75257614D01*
X115876140Y-75463792D01*
X115999276Y-75652265D01*
X115999284Y-75652276D01*
X116151756Y-75817902D01*
X116151760Y-75817906D01*
X116329424Y-75956189D01*
X116329429Y-75956191D01*
X116329431Y-75956193D01*
X116365930Y-75975946D01*
X116415520Y-76025165D01*
X116430628Y-76093382D01*
X116406457Y-76158937D01*
X116365930Y-76194054D01*
X116329431Y-76213806D01*
X116329422Y-76213812D01*
X116151761Y-76352092D01*
X116151756Y-76352097D01*
X115999284Y-76517723D01*
X115999276Y-76517734D01*
X115876140Y-76706207D01*
X115785703Y-76912385D01*
X115730436Y-77130628D01*
X115730434Y-77130640D01*
X115711844Y-77354994D01*
X115711844Y-77355005D01*
X115730434Y-77579359D01*
X115730436Y-77579371D01*
X115785703Y-77797614D01*
X115876140Y-78003792D01*
X115999276Y-78192265D01*
X115999284Y-78192276D01*
X116151756Y-78357902D01*
X116151760Y-78357906D01*
X116329424Y-78496189D01*
X116365930Y-78515945D01*
X116415519Y-78565162D01*
X116430629Y-78633378D01*
X116406459Y-78698934D01*
X116365932Y-78734052D01*
X116329432Y-78753805D01*
X116329422Y-78753812D01*
X116151761Y-78892092D01*
X116151756Y-78892097D01*
X115999284Y-79057723D01*
X115999276Y-79057734D01*
X115876140Y-79246207D01*
X115785703Y-79452385D01*
X115730436Y-79670628D01*
X115730434Y-79670640D01*
X115711844Y-79894994D01*
X115711844Y-79895005D01*
X115730434Y-80119359D01*
X115730436Y-80119371D01*
X115785703Y-80337614D01*
X115876140Y-80543792D01*
X115999276Y-80732265D01*
X115999284Y-80732276D01*
X116144489Y-80890008D01*
X116175412Y-80952662D01*
X116167552Y-81022088D01*
X116123405Y-81076244D01*
X116096596Y-81090172D01*
X115978794Y-81134111D01*
X115861739Y-81221739D01*
X115774111Y-81338795D01*
X115723011Y-81475795D01*
X115723011Y-81475797D01*
X115716500Y-81536345D01*
X115716499Y-81536362D01*
X115716499Y-83333637D01*
X115716500Y-83333654D01*
X115723011Y-83394202D01*
X115723011Y-83394204D01*
X115772575Y-83527086D01*
X115774111Y-83531204D01*
X115861739Y-83648261D01*
X115978796Y-83735889D01*
X116030737Y-83755262D01*
X116096595Y-83779827D01*
X116152528Y-83821699D01*
X116176944Y-83887163D01*
X116162092Y-83955436D01*
X116144490Y-83979991D01*
X115999279Y-84137730D01*
X115999276Y-84137734D01*
X115876140Y-84326207D01*
X115785703Y-84532385D01*
X115730436Y-84750628D01*
X115730434Y-84750640D01*
X115711844Y-84974994D01*
X115711844Y-84975005D01*
X115730434Y-85199359D01*
X115730436Y-85199371D01*
X115785703Y-85417614D01*
X115876140Y-85623792D01*
X115999276Y-85812265D01*
X115999284Y-85812276D01*
X116151756Y-85977902D01*
X116151760Y-85977906D01*
X116329424Y-86116189D01*
X116329429Y-86116191D01*
X116329431Y-86116193D01*
X116365930Y-86135946D01*
X116415520Y-86185165D01*
X116430628Y-86253382D01*
X116406457Y-86318937D01*
X116365930Y-86354054D01*
X116329431Y-86373806D01*
X116329422Y-86373812D01*
X116151761Y-86512092D01*
X116151756Y-86512097D01*
X115999284Y-86677723D01*
X115999276Y-86677734D01*
X115876140Y-86866207D01*
X115785703Y-87072385D01*
X115730436Y-87290628D01*
X115730434Y-87290640D01*
X115711844Y-87514994D01*
X115711844Y-87515005D01*
X115730434Y-87739359D01*
X115730436Y-87739371D01*
X115785703Y-87957614D01*
X115876140Y-88163792D01*
X115999276Y-88352265D01*
X115999284Y-88352276D01*
X116151756Y-88517902D01*
X116151760Y-88517906D01*
X116329424Y-88656189D01*
X116329429Y-88656191D01*
X116329431Y-88656193D01*
X116365930Y-88675946D01*
X116415520Y-88725165D01*
X116430628Y-88793382D01*
X116406457Y-88858937D01*
X116365930Y-88894054D01*
X116329431Y-88913806D01*
X116329422Y-88913812D01*
X116151761Y-89052092D01*
X116151756Y-89052097D01*
X115999284Y-89217723D01*
X115999276Y-89217734D01*
X115876140Y-89406207D01*
X115785703Y-89612385D01*
X115730436Y-89830628D01*
X115730434Y-89830640D01*
X115711844Y-90054994D01*
X115711844Y-90055005D01*
X115730434Y-90279359D01*
X115730436Y-90279371D01*
X115785703Y-90497614D01*
X115876140Y-90703792D01*
X115999276Y-90892265D01*
X115999284Y-90892276D01*
X116151756Y-91057902D01*
X116151760Y-91057906D01*
X116329424Y-91196189D01*
X116329429Y-91196191D01*
X116329431Y-91196193D01*
X116365930Y-91215946D01*
X116415520Y-91265165D01*
X116430628Y-91333382D01*
X116406457Y-91398937D01*
X116365930Y-91434054D01*
X116329431Y-91453806D01*
X116329422Y-91453812D01*
X116151761Y-91592092D01*
X116151756Y-91592097D01*
X115999284Y-91757723D01*
X115999276Y-91757734D01*
X115876140Y-91946207D01*
X115785703Y-92152385D01*
X115730436Y-92370628D01*
X115730434Y-92370640D01*
X115711844Y-92594994D01*
X115711844Y-92595005D01*
X115730434Y-92819359D01*
X115730436Y-92819371D01*
X115785703Y-93037614D01*
X115876140Y-93243792D01*
X115933253Y-93331209D01*
X115999278Y-93432268D01*
X116150707Y-93596762D01*
X116181629Y-93659415D01*
X116173769Y-93728841D01*
X116129622Y-93782997D01*
X116102811Y-93796926D01*
X115982912Y-93841646D01*
X115982906Y-93841649D01*
X115867812Y-93927809D01*
X115867809Y-93927812D01*
X115781649Y-94042906D01*
X115781645Y-94042913D01*
X115731403Y-94177620D01*
X115731401Y-94177627D01*
X115725000Y-94237155D01*
X115725000Y-94885000D01*
X116451231Y-94885000D01*
X116518270Y-94904685D01*
X116564025Y-94957489D01*
X116573969Y-95026647D01*
X116570208Y-95043936D01*
X116565000Y-95061672D01*
X116565000Y-95208327D01*
X116570208Y-95226064D01*
X116570208Y-95295934D01*
X116532434Y-95354712D01*
X116468879Y-95383738D01*
X116451231Y-95385000D01*
X115725000Y-95385000D01*
X115725000Y-96032844D01*
X115731401Y-96092372D01*
X115731403Y-96092379D01*
X115781645Y-96227086D01*
X115781649Y-96227093D01*
X115867809Y-96342187D01*
X115867812Y-96342190D01*
X115982906Y-96428350D01*
X115982913Y-96428354D01*
X116102810Y-96473073D01*
X116158744Y-96514944D01*
X116183161Y-96580409D01*
X116168309Y-96648682D01*
X116150706Y-96673238D01*
X115999284Y-96837723D01*
X115999276Y-96837734D01*
X115876140Y-97026207D01*
X115785703Y-97232385D01*
X115730436Y-97450628D01*
X115730434Y-97450640D01*
X115711844Y-97674994D01*
X115711844Y-97675005D01*
X115730434Y-97899359D01*
X115730436Y-97899371D01*
X115785703Y-98117614D01*
X115876140Y-98323792D01*
X115999276Y-98512265D01*
X115999284Y-98512276D01*
X116151756Y-98677902D01*
X116151760Y-98677906D01*
X116329424Y-98816189D01*
X116329429Y-98816191D01*
X116329431Y-98816193D01*
X116365930Y-98835946D01*
X116415520Y-98885165D01*
X116430628Y-98953382D01*
X116406457Y-99018937D01*
X116365930Y-99054054D01*
X116329431Y-99073806D01*
X116329422Y-99073812D01*
X116151761Y-99212092D01*
X116151756Y-99212097D01*
X115999284Y-99377723D01*
X115999276Y-99377734D01*
X115876140Y-99566207D01*
X115785703Y-99772385D01*
X115730436Y-99990628D01*
X115730434Y-99990640D01*
X115711844Y-100214994D01*
X115711844Y-100215005D01*
X115730434Y-100439359D01*
X115730436Y-100439371D01*
X115785703Y-100657614D01*
X115876140Y-100863792D01*
X115999276Y-101052265D01*
X115999284Y-101052276D01*
X116151756Y-101217902D01*
X116151761Y-101217907D01*
X116172241Y-101233847D01*
X116329424Y-101356189D01*
X116329429Y-101356191D01*
X116329431Y-101356193D01*
X116365930Y-101375946D01*
X116415520Y-101425165D01*
X116430628Y-101493382D01*
X116406457Y-101558937D01*
X116365930Y-101594054D01*
X116329431Y-101613806D01*
X116329422Y-101613812D01*
X116151761Y-101752092D01*
X116151756Y-101752097D01*
X115999284Y-101917723D01*
X115999276Y-101917734D01*
X115876140Y-102106207D01*
X115785703Y-102312385D01*
X115730436Y-102530628D01*
X115730434Y-102530640D01*
X115711844Y-102754994D01*
X115711844Y-102755005D01*
X115730434Y-102979359D01*
X115730436Y-102979371D01*
X115785703Y-103197614D01*
X115876140Y-103403792D01*
X115999276Y-103592265D01*
X115999284Y-103592276D01*
X116112385Y-103715134D01*
X116151760Y-103757906D01*
X116329424Y-103896189D01*
X116329429Y-103896191D01*
X116329431Y-103896193D01*
X116365930Y-103915946D01*
X116415520Y-103965165D01*
X116430628Y-104033382D01*
X116406457Y-104098937D01*
X116365930Y-104134054D01*
X116329431Y-104153806D01*
X116329422Y-104153812D01*
X116151761Y-104292092D01*
X116151756Y-104292097D01*
X115999284Y-104457723D01*
X115999276Y-104457734D01*
X115876140Y-104646207D01*
X115785703Y-104852385D01*
X115730436Y-105070628D01*
X115730434Y-105070640D01*
X115711844Y-105294994D01*
X115711844Y-105295005D01*
X115730434Y-105519359D01*
X115730436Y-105519371D01*
X115785703Y-105737614D01*
X115876140Y-105943792D01*
X115933253Y-106031209D01*
X115999278Y-106132268D01*
X116150707Y-106296762D01*
X116181629Y-106359415D01*
X116173769Y-106428841D01*
X116129622Y-106482997D01*
X116102811Y-106496926D01*
X115982912Y-106541646D01*
X115982906Y-106541649D01*
X115867812Y-106627809D01*
X115867809Y-106627812D01*
X115781649Y-106742906D01*
X115781645Y-106742913D01*
X115731403Y-106877620D01*
X115731401Y-106877627D01*
X115725000Y-106937155D01*
X115725000Y-107585000D01*
X116451231Y-107585000D01*
X116518270Y-107604685D01*
X116564025Y-107657489D01*
X116573969Y-107726647D01*
X116570208Y-107743936D01*
X116565000Y-107761672D01*
X116565000Y-107908327D01*
X116570208Y-107926064D01*
X116570208Y-107995934D01*
X116532434Y-108054712D01*
X116468879Y-108083738D01*
X116451231Y-108085000D01*
X115725000Y-108085000D01*
X115725000Y-108732844D01*
X115731401Y-108792372D01*
X115731403Y-108792379D01*
X115781645Y-108927086D01*
X115781649Y-108927093D01*
X115867809Y-109042187D01*
X115867812Y-109042190D01*
X115982906Y-109128350D01*
X115982913Y-109128354D01*
X116102810Y-109173073D01*
X116158744Y-109214944D01*
X116183161Y-109280409D01*
X116168309Y-109348682D01*
X116150706Y-109373238D01*
X115999284Y-109537723D01*
X115999276Y-109537734D01*
X115876140Y-109726207D01*
X115785703Y-109932385D01*
X115730436Y-110150628D01*
X115730434Y-110150640D01*
X115711844Y-110374994D01*
X115711844Y-110375005D01*
X115730434Y-110599359D01*
X115730436Y-110599371D01*
X115785703Y-110817614D01*
X115876140Y-111023792D01*
X115999276Y-111212265D01*
X115999284Y-111212276D01*
X116151756Y-111377902D01*
X116151760Y-111377906D01*
X116329424Y-111516189D01*
X116329429Y-111516191D01*
X116329431Y-111516193D01*
X116365930Y-111535946D01*
X116415520Y-111585165D01*
X116430628Y-111653382D01*
X116406457Y-111718937D01*
X116365930Y-111754054D01*
X116329431Y-111773806D01*
X116329422Y-111773812D01*
X116151761Y-111912092D01*
X116151756Y-111912097D01*
X115999284Y-112077723D01*
X115999276Y-112077734D01*
X115876140Y-112266207D01*
X115785703Y-112472385D01*
X115730436Y-112690628D01*
X115730434Y-112690640D01*
X115711844Y-112914994D01*
X115711844Y-112915005D01*
X112068137Y-112915005D01*
X112069564Y-112909368D01*
X112087689Y-112690640D01*
X112088156Y-112685005D01*
X112088156Y-112684994D01*
X112069565Y-112460640D01*
X112069563Y-112460628D01*
X112014296Y-112242385D01*
X111942073Y-112077732D01*
X111923860Y-112036209D01*
X111800722Y-111847732D01*
X111800719Y-111847729D01*
X111800715Y-111847723D01*
X111648243Y-111682097D01*
X111648238Y-111682092D01*
X111470577Y-111543812D01*
X111470572Y-111543808D01*
X111272580Y-111436661D01*
X111272577Y-111436659D01*
X111272574Y-111436658D01*
X111272571Y-111436657D01*
X111272569Y-111436656D01*
X111059637Y-111363556D01*
X110837569Y-111326500D01*
X110612431Y-111326500D01*
X110390362Y-111363556D01*
X110177430Y-111436656D01*
X110177419Y-111436661D01*
X109979427Y-111543808D01*
X109979422Y-111543812D01*
X109801761Y-111682092D01*
X109738548Y-111750760D01*
X109678661Y-111786750D01*
X109608823Y-111784649D01*
X109551207Y-111745124D01*
X109531138Y-111710110D01*
X109485889Y-111588796D01*
X109452214Y-111543812D01*
X109398261Y-111471739D01*
X109281204Y-111384111D01*
X109264557Y-111377902D01*
X109144203Y-111333011D01*
X109083654Y-111326500D01*
X109083638Y-111326500D01*
X107286362Y-111326500D01*
X107286345Y-111326500D01*
X107225797Y-111333011D01*
X107225795Y-111333011D01*
X107088795Y-111384111D01*
X106971739Y-111471739D01*
X106884111Y-111588795D01*
X106838861Y-111710111D01*
X106796989Y-111766044D01*
X106731524Y-111790460D01*
X106663252Y-111775607D01*
X106631454Y-111750762D01*
X106568240Y-111682094D01*
X106390576Y-111543811D01*
X106390575Y-111543810D01*
X106390572Y-111543808D01*
X106192580Y-111436661D01*
X106192577Y-111436659D01*
X106192574Y-111436658D01*
X106192571Y-111436657D01*
X106192569Y-111436656D01*
X105979637Y-111363556D01*
X105757569Y-111326500D01*
X105532431Y-111326500D01*
X105310362Y-111363556D01*
X105097430Y-111436656D01*
X105097419Y-111436661D01*
X104899427Y-111543808D01*
X104899422Y-111543812D01*
X104721761Y-111682092D01*
X104721756Y-111682097D01*
X104569284Y-111847723D01*
X104569276Y-111847734D01*
X104446140Y-112036207D01*
X104355703Y-112242385D01*
X104300436Y-112460628D01*
X104300434Y-112460640D01*
X104281844Y-112684994D01*
X104281844Y-112685005D01*
X100638139Y-112685005D01*
X100584296Y-112472385D01*
X100579144Y-112460640D01*
X100493860Y-112266209D01*
X100478294Y-112242384D01*
X100370723Y-112077734D01*
X100370715Y-112077723D01*
X100218243Y-111912097D01*
X100218238Y-111912092D01*
X100056701Y-111786362D01*
X100040576Y-111773811D01*
X100004070Y-111754055D01*
X99954479Y-111704836D01*
X99939371Y-111636619D01*
X99963541Y-111571064D01*
X100004070Y-111535945D01*
X100004084Y-111535936D01*
X100040576Y-111516189D01*
X100218240Y-111377906D01*
X100370722Y-111212268D01*
X100493860Y-111023791D01*
X100584296Y-110817616D01*
X100639564Y-110599368D01*
X100644364Y-110541443D01*
X100658156Y-110375005D01*
X100658156Y-110374994D01*
X100639565Y-110150640D01*
X100639563Y-110150628D01*
X100584296Y-109932385D01*
X100567246Y-109893515D01*
X100493860Y-109726209D01*
X100370722Y-109537732D01*
X100219291Y-109373236D01*
X100188370Y-109310584D01*
X100196230Y-109241158D01*
X100240376Y-109187002D01*
X100267189Y-109173073D01*
X100387086Y-109128354D01*
X100387093Y-109128350D01*
X100502187Y-109042190D01*
X100502190Y-109042187D01*
X100588350Y-108927093D01*
X100588354Y-108927086D01*
X100638596Y-108792379D01*
X100638598Y-108792372D01*
X100644999Y-108732844D01*
X100645000Y-108732827D01*
X100645000Y-108085000D01*
X99918769Y-108085000D01*
X99851730Y-108065315D01*
X99805975Y-108012511D01*
X99796031Y-107943353D01*
X99799792Y-107926064D01*
X99805000Y-107908327D01*
X99805000Y-107761672D01*
X99799792Y-107743936D01*
X99799792Y-107674066D01*
X99837566Y-107615288D01*
X99901121Y-107586262D01*
X99918769Y-107585000D01*
X100645000Y-107585000D01*
X100645000Y-106937172D01*
X100644999Y-106937155D01*
X100638598Y-106877627D01*
X100638596Y-106877620D01*
X100588354Y-106742913D01*
X100588350Y-106742906D01*
X100502190Y-106627812D01*
X100502187Y-106627809D01*
X100387093Y-106541649D01*
X100387088Y-106541646D01*
X100267188Y-106496926D01*
X100211255Y-106455054D01*
X100186838Y-106389590D01*
X100201690Y-106321317D01*
X100219286Y-106296769D01*
X100370722Y-106132268D01*
X100493860Y-105943791D01*
X100584296Y-105737616D01*
X100639564Y-105519368D01*
X100639565Y-105519359D01*
X100658156Y-105295005D01*
X100658156Y-105294994D01*
X100639565Y-105070640D01*
X100639563Y-105070628D01*
X100604190Y-104930944D01*
X100584296Y-104852384D01*
X100493860Y-104646209D01*
X100489803Y-104640000D01*
X100370723Y-104457734D01*
X100370715Y-104457723D01*
X100312053Y-104394000D01*
X100940494Y-104394000D01*
X100960456Y-104583928D01*
X100960457Y-104583931D01*
X101019468Y-104765549D01*
X101019471Y-104765556D01*
X101114958Y-104930944D01*
X101242745Y-105072866D01*
X101397246Y-105185118D01*
X101571710Y-105262794D01*
X101758511Y-105302500D01*
X101949485Y-105302500D01*
X102136286Y-105262794D01*
X102310750Y-105185118D01*
X102465251Y-105072866D01*
X102593038Y-104930944D01*
X102688525Y-104765556D01*
X102747540Y-104583928D01*
X102767502Y-104394000D01*
X102747540Y-104204072D01*
X102688525Y-104022444D01*
X102593038Y-103857056D01*
X102465251Y-103715134D01*
X102310750Y-103602882D01*
X102136286Y-103525206D01*
X102136284Y-103525205D01*
X101949485Y-103485500D01*
X101758511Y-103485500D01*
X101571712Y-103525205D01*
X101397244Y-103602883D01*
X101242743Y-103715135D01*
X101114957Y-103857057D01*
X101019471Y-104022443D01*
X101019468Y-104022450D01*
X100960457Y-104204068D01*
X100960456Y-104204072D01*
X100940494Y-104394000D01*
X100312053Y-104394000D01*
X100218243Y-104292097D01*
X100218238Y-104292092D01*
X100040577Y-104153812D01*
X100040578Y-104153812D01*
X100040576Y-104153811D01*
X100004070Y-104134055D01*
X99954479Y-104084836D01*
X99939371Y-104016619D01*
X99963541Y-103951064D01*
X100004070Y-103915945D01*
X100004084Y-103915936D01*
X100040576Y-103896189D01*
X100218240Y-103757906D01*
X100370722Y-103592268D01*
X100493860Y-103403791D01*
X100584296Y-103197616D01*
X100639564Y-102979368D01*
X100639565Y-102979359D01*
X100658156Y-102755005D01*
X100658156Y-102754994D01*
X100639565Y-102530640D01*
X100639563Y-102530628D01*
X100584296Y-102312385D01*
X100567552Y-102274213D01*
X100493860Y-102106209D01*
X100476006Y-102078882D01*
X100370723Y-101917734D01*
X100370715Y-101917723D01*
X100218243Y-101752097D01*
X100218238Y-101752092D01*
X100040577Y-101613812D01*
X100040578Y-101613812D01*
X100040576Y-101613811D01*
X100004070Y-101594055D01*
X99954479Y-101544836D01*
X99939371Y-101476619D01*
X99963541Y-101411064D01*
X100004070Y-101375945D01*
X100004656Y-101375628D01*
X100040576Y-101356189D01*
X100218240Y-101217906D01*
X100317614Y-101109957D01*
X100370715Y-101052276D01*
X100370716Y-101052274D01*
X100370722Y-101052268D01*
X100493860Y-100863791D01*
X100584296Y-100657616D01*
X100639564Y-100439368D01*
X100639590Y-100439052D01*
X100658156Y-100215005D01*
X100658156Y-100214994D01*
X100639565Y-99990640D01*
X100639563Y-99990628D01*
X100588353Y-99788404D01*
X100584296Y-99772384D01*
X100493860Y-99566209D01*
X100472966Y-99534229D01*
X100370723Y-99377734D01*
X100370715Y-99377723D01*
X100218243Y-99212097D01*
X100218238Y-99212092D01*
X100040577Y-99073812D01*
X100040578Y-99073812D01*
X100040576Y-99073811D01*
X100004070Y-99054055D01*
X99954479Y-99004836D01*
X99939371Y-98936619D01*
X99963541Y-98871064D01*
X100004070Y-98835945D01*
X100012958Y-98831135D01*
X100040576Y-98816189D01*
X100218240Y-98677906D01*
X100370722Y-98512268D01*
X100493860Y-98323791D01*
X100584296Y-98117616D01*
X100639564Y-97899368D01*
X100642500Y-97863937D01*
X100658156Y-97675005D01*
X100658156Y-97674994D01*
X100639565Y-97450640D01*
X100639563Y-97450628D01*
X100584296Y-97232385D01*
X100567246Y-97193515D01*
X100493860Y-97026209D01*
X100370722Y-96837732D01*
X100219291Y-96673236D01*
X100188370Y-96610584D01*
X100196230Y-96541158D01*
X100240376Y-96487002D01*
X100267189Y-96473073D01*
X100387086Y-96428354D01*
X100387093Y-96428350D01*
X100502187Y-96342190D01*
X100502190Y-96342187D01*
X100588350Y-96227093D01*
X100588354Y-96227086D01*
X100638596Y-96092379D01*
X100638598Y-96092372D01*
X100644999Y-96032844D01*
X100645000Y-96032827D01*
X100645000Y-95385000D01*
X99918769Y-95385000D01*
X99851730Y-95365315D01*
X99805975Y-95312511D01*
X99796031Y-95243353D01*
X99799792Y-95226064D01*
X99805000Y-95208327D01*
X99805000Y-95061672D01*
X99799792Y-95043936D01*
X99799792Y-94974066D01*
X99837566Y-94915288D01*
X99901121Y-94886262D01*
X99918769Y-94885000D01*
X100645000Y-94885000D01*
X100645000Y-94237172D01*
X100644999Y-94237155D01*
X100638598Y-94177627D01*
X100638596Y-94177620D01*
X100588354Y-94042913D01*
X100588350Y-94042906D01*
X100502190Y-93927812D01*
X100502187Y-93927809D01*
X100387093Y-93841649D01*
X100387088Y-93841646D01*
X100267188Y-93796926D01*
X100211255Y-93755054D01*
X100186838Y-93689590D01*
X100201690Y-93621317D01*
X100219286Y-93596769D01*
X100370722Y-93432268D01*
X100493860Y-93243791D01*
X100584296Y-93037616D01*
X100639564Y-92819368D01*
X100642500Y-92783937D01*
X100658156Y-92595005D01*
X100658156Y-92594994D01*
X100639565Y-92370640D01*
X100639563Y-92370628D01*
X100584296Y-92152385D01*
X100567246Y-92113515D01*
X100493860Y-91946209D01*
X100370722Y-91757732D01*
X100370719Y-91757729D01*
X100370715Y-91757723D01*
X100218243Y-91592097D01*
X100218238Y-91592092D01*
X100040577Y-91453812D01*
X100040578Y-91453812D01*
X100040576Y-91453811D01*
X100004070Y-91434055D01*
X99954479Y-91384836D01*
X99939371Y-91316619D01*
X99963541Y-91251064D01*
X100004070Y-91215945D01*
X100004656Y-91215628D01*
X100040576Y-91196189D01*
X100218240Y-91057906D01*
X100370722Y-90892268D01*
X100493860Y-90703791D01*
X100584296Y-90497616D01*
X100639564Y-90279368D01*
X100642500Y-90243937D01*
X100658156Y-90055005D01*
X100658156Y-90054994D01*
X100639565Y-89830640D01*
X100639563Y-89830628D01*
X100584296Y-89612385D01*
X100567246Y-89573515D01*
X100493860Y-89406209D01*
X100370722Y-89217732D01*
X100370719Y-89217729D01*
X100370715Y-89217723D01*
X100218243Y-89052097D01*
X100218238Y-89052092D01*
X100040577Y-88913812D01*
X100040578Y-88913812D01*
X100040576Y-88913811D01*
X100004070Y-88894055D01*
X99954479Y-88844836D01*
X99939371Y-88776619D01*
X99963541Y-88711064D01*
X100004070Y-88675945D01*
X100004656Y-88675628D01*
X100040576Y-88656189D01*
X100218240Y-88517906D01*
X100370722Y-88352268D01*
X100493860Y-88163791D01*
X100584296Y-87957616D01*
X100639564Y-87739368D01*
X100642500Y-87703934D01*
X100658156Y-87515005D01*
X100658156Y-87514994D01*
X100639565Y-87290640D01*
X100639563Y-87290628D01*
X100615920Y-87197265D01*
X100584296Y-87072384D01*
X100493860Y-86866209D01*
X100370722Y-86677732D01*
X100370719Y-86677729D01*
X100370715Y-86677723D01*
X100218243Y-86512097D01*
X100218238Y-86512092D01*
X100040577Y-86373812D01*
X100040578Y-86373812D01*
X100040576Y-86373811D01*
X100004070Y-86354055D01*
X99954479Y-86304836D01*
X99939371Y-86236619D01*
X99963541Y-86171064D01*
X100004070Y-86135945D01*
X100004656Y-86135628D01*
X100040576Y-86116189D01*
X100218240Y-85977906D01*
X100370722Y-85812268D01*
X100493860Y-85623791D01*
X100584296Y-85417616D01*
X100639564Y-85199368D01*
X100642500Y-85163937D01*
X100658156Y-84975005D01*
X100658156Y-84974994D01*
X100639565Y-84750640D01*
X100639563Y-84750628D01*
X100584296Y-84532385D01*
X100567246Y-84493515D01*
X100493860Y-84326209D01*
X100370722Y-84137732D01*
X100219291Y-83973236D01*
X100188370Y-83910584D01*
X100196230Y-83841158D01*
X100240376Y-83787002D01*
X100267189Y-83773073D01*
X100387086Y-83728354D01*
X100387093Y-83728350D01*
X100502187Y-83642190D01*
X100502190Y-83642187D01*
X100588350Y-83527093D01*
X100588354Y-83527086D01*
X100638596Y-83392379D01*
X100638598Y-83392372D01*
X100644999Y-83332844D01*
X100645000Y-83332827D01*
X100645000Y-82685000D01*
X99918769Y-82685000D01*
X99851730Y-82665315D01*
X99805975Y-82612511D01*
X99796031Y-82543353D01*
X99799792Y-82526064D01*
X99805000Y-82508327D01*
X99805000Y-82361672D01*
X99799792Y-82343936D01*
X99799792Y-82274066D01*
X99837566Y-82215288D01*
X99901121Y-82186262D01*
X99918769Y-82185000D01*
X100645000Y-82185000D01*
X100645000Y-81537172D01*
X100644999Y-81537155D01*
X100638598Y-81477627D01*
X100638596Y-81477620D01*
X100588354Y-81342913D01*
X100588350Y-81342906D01*
X100502190Y-81227812D01*
X100502187Y-81227809D01*
X100387093Y-81141649D01*
X100387088Y-81141646D01*
X100267188Y-81096926D01*
X100211255Y-81055054D01*
X100186838Y-80989590D01*
X100201690Y-80921317D01*
X100219286Y-80896769D01*
X100370722Y-80732268D01*
X100493860Y-80543791D01*
X100584296Y-80337616D01*
X100639564Y-80119368D01*
X100642500Y-80083937D01*
X100658156Y-79895005D01*
X100658156Y-79894994D01*
X100639565Y-79670640D01*
X100639563Y-79670628D01*
X100613085Y-79566068D01*
X100584296Y-79452384D01*
X100493860Y-79246209D01*
X100370722Y-79057732D01*
X100370719Y-79057729D01*
X100370715Y-79057723D01*
X100218243Y-78892097D01*
X100218238Y-78892092D01*
X100040577Y-78753812D01*
X100040572Y-78753808D01*
X100004068Y-78734053D01*
X99954478Y-78684833D01*
X99939371Y-78616616D01*
X99963542Y-78551061D01*
X100004069Y-78515945D01*
X100040576Y-78496189D01*
X100218240Y-78357906D01*
X100370722Y-78192268D01*
X100493860Y-78003791D01*
X100584296Y-77797616D01*
X100639564Y-77579368D01*
X100642500Y-77543937D01*
X100658156Y-77355005D01*
X100658156Y-77354994D01*
X100639565Y-77130640D01*
X100639563Y-77130628D01*
X100584296Y-76912385D01*
X100567246Y-76873515D01*
X100493860Y-76706209D01*
X100370722Y-76517732D01*
X100370719Y-76517729D01*
X100370715Y-76517723D01*
X100218243Y-76352097D01*
X100218238Y-76352092D01*
X100040577Y-76213812D01*
X100040578Y-76213812D01*
X100040576Y-76213811D01*
X100004070Y-76194055D01*
X99954479Y-76144836D01*
X99939371Y-76076619D01*
X99963541Y-76011064D01*
X100004070Y-75975945D01*
X100004656Y-75975628D01*
X100040576Y-75956189D01*
X100218240Y-75817906D01*
X100370722Y-75652268D01*
X100493860Y-75463791D01*
X100584296Y-75257616D01*
X100639564Y-75039368D01*
X100642500Y-75003937D01*
X100658156Y-74815005D01*
X100658156Y-74814994D01*
X100639565Y-74590640D01*
X100639563Y-74590628D01*
X100584296Y-74372385D01*
X100569593Y-74338866D01*
X100493860Y-74166209D01*
X100370722Y-73977732D01*
X100370719Y-73977729D01*
X100370715Y-73977723D01*
X100218243Y-73812097D01*
X100218238Y-73812092D01*
X100099797Y-73719905D01*
X100040576Y-73673811D01*
X100004070Y-73654055D01*
X99954479Y-73604836D01*
X99939371Y-73536619D01*
X99963541Y-73471064D01*
X100004070Y-73435945D01*
X100004656Y-73435628D01*
X100040576Y-73416189D01*
X100218240Y-73277906D01*
X100370722Y-73112268D01*
X100493860Y-72923791D01*
X100584296Y-72717616D01*
X100639564Y-72499368D01*
X100646832Y-72411656D01*
X100658156Y-72275005D01*
X100658156Y-72274994D01*
X100639565Y-72050640D01*
X100639563Y-72050628D01*
X100584296Y-71832385D01*
X100493859Y-71626207D01*
X100370723Y-71437734D01*
X100370722Y-71437732D01*
X100219291Y-71273236D01*
X100188370Y-71210584D01*
X100196230Y-71141158D01*
X100240376Y-71087002D01*
X100267189Y-71073073D01*
X100387086Y-71028354D01*
X100387093Y-71028350D01*
X100502187Y-70942190D01*
X100502190Y-70942187D01*
X100588350Y-70827093D01*
X100588354Y-70827086D01*
X100638596Y-70692379D01*
X100638598Y-70692372D01*
X100644999Y-70632844D01*
X100645000Y-70632827D01*
X100645000Y-69985000D01*
X99918769Y-69985000D01*
X99851730Y-69965315D01*
X99805975Y-69912511D01*
X99796031Y-69843353D01*
X99799792Y-69826064D01*
X99805000Y-69808327D01*
X99805000Y-69661672D01*
X99799792Y-69643936D01*
X99799792Y-69574066D01*
X99837566Y-69515288D01*
X99901121Y-69486262D01*
X99918769Y-69485000D01*
X100645000Y-69485000D01*
X100645000Y-68837172D01*
X100644999Y-68837155D01*
X100638598Y-68777627D01*
X100638596Y-68777620D01*
X100588354Y-68642913D01*
X100588350Y-68642906D01*
X100502190Y-68527812D01*
X100502187Y-68527809D01*
X100387093Y-68441649D01*
X100387088Y-68441646D01*
X100267188Y-68396926D01*
X100211255Y-68355054D01*
X100186838Y-68289590D01*
X100201690Y-68221317D01*
X100219286Y-68196769D01*
X100370722Y-68032268D01*
X100493860Y-67843791D01*
X100506490Y-67814998D01*
X104496693Y-67814998D01*
X104498672Y-67837639D01*
X104498846Y-67845829D01*
X104497684Y-67871688D01*
X104497685Y-67871690D01*
X104508691Y-67952946D01*
X104509016Y-67955864D01*
X104511532Y-67984615D01*
X104515885Y-68034371D01*
X104522624Y-68059523D01*
X104524174Y-68067243D01*
X104528093Y-68096173D01*
X104528096Y-68096183D01*
X104552413Y-68171023D01*
X104553334Y-68174134D01*
X104572877Y-68247066D01*
X104572881Y-68247078D01*
X104585275Y-68273659D01*
X104588051Y-68280705D01*
X104598095Y-68311616D01*
X104598097Y-68311621D01*
X104607105Y-68328360D01*
X104633822Y-68378010D01*
X104635416Y-68381187D01*
X104665942Y-68446651D01*
X104665943Y-68446653D01*
X104665944Y-68446654D01*
X104684668Y-68473396D01*
X104688475Y-68479574D01*
X104705443Y-68511105D01*
X104705445Y-68511108D01*
X104750397Y-68567475D01*
X104752709Y-68570567D01*
X104792251Y-68627038D01*
X104792254Y-68627041D01*
X104817659Y-68652446D01*
X104822295Y-68657633D01*
X104846686Y-68688218D01*
X104898514Y-68733499D01*
X104901557Y-68736344D01*
X104947955Y-68782743D01*
X104947956Y-68782744D01*
X104947959Y-68782746D01*
X104947962Y-68782749D01*
X104979487Y-68804822D01*
X104980109Y-68805258D01*
X104985341Y-68809357D01*
X105017282Y-68837263D01*
X105073535Y-68870872D01*
X105077258Y-68873283D01*
X105113750Y-68898835D01*
X105128338Y-68909051D01*
X105128341Y-68909052D01*
X105128346Y-68909056D01*
X105166910Y-68927038D01*
X105172493Y-68929997D01*
X105211750Y-68953453D01*
X105270010Y-68975317D01*
X105274422Y-68977171D01*
X105327924Y-69002120D01*
X105372204Y-69013984D01*
X105377939Y-69015824D01*
X105407356Y-69026864D01*
X105423839Y-69033051D01*
X105481813Y-69043571D01*
X105486778Y-69044685D01*
X105540629Y-69059115D01*
X105589602Y-69063399D01*
X105595250Y-69064157D01*
X105634352Y-69071253D01*
X105646732Y-69073500D01*
X105646733Y-69073500D01*
X105702348Y-69073500D01*
X105707749Y-69073735D01*
X105736370Y-69076239D01*
X105759998Y-69078307D01*
X105759999Y-69078307D01*
X105759999Y-69078306D01*
X105760000Y-69078307D01*
X105813310Y-69073643D01*
X105816504Y-69073500D01*
X105816522Y-69073500D01*
X105864625Y-69069169D01*
X105871391Y-69068561D01*
X105979353Y-69059117D01*
X105979357Y-69059116D01*
X105979371Y-69059115D01*
X105979383Y-69059111D01*
X105979902Y-69059020D01*
X105985136Y-69058324D01*
X105985622Y-69058281D01*
X106090335Y-69029381D01*
X106192076Y-69002120D01*
X106192089Y-69002113D01*
X106199029Y-68999588D01*
X106203720Y-68998089D01*
X106203993Y-68998014D01*
X106299019Y-68952251D01*
X106391654Y-68909056D01*
X106391663Y-68909049D01*
X106396350Y-68906345D01*
X106396421Y-68906468D01*
X106407206Y-68900152D01*
X106408093Y-68899725D01*
X106490868Y-68839585D01*
X106572038Y-68782749D01*
X106572951Y-68781835D01*
X106587752Y-68769193D01*
X106591363Y-68766571D01*
X106622990Y-68733492D01*
X106659902Y-68694884D01*
X106727746Y-68627041D01*
X106727746Y-68627040D01*
X106727749Y-68627038D01*
X106730476Y-68623142D01*
X106742428Y-68608568D01*
X106747912Y-68602834D01*
X106800809Y-68522697D01*
X106854056Y-68446654D01*
X106857538Y-68439185D01*
X106866436Y-68423276D01*
X106872709Y-68413774D01*
X106909216Y-68328360D01*
X106947120Y-68247076D01*
X106950145Y-68235782D01*
X106955896Y-68219147D01*
X106961743Y-68205470D01*
X106981711Y-68117978D01*
X107004115Y-68034371D01*
X107005806Y-68015024D01*
X107007126Y-68006626D01*
X107012151Y-67984615D01*
X107016036Y-67898105D01*
X107023307Y-67815000D01*
X107023307Y-67814998D01*
X109346693Y-67814998D01*
X109348672Y-67837639D01*
X109348846Y-67845829D01*
X109347684Y-67871688D01*
X109347685Y-67871690D01*
X109358691Y-67952946D01*
X109359016Y-67955864D01*
X109361532Y-67984615D01*
X109365885Y-68034371D01*
X109372624Y-68059523D01*
X109374174Y-68067243D01*
X109378093Y-68096173D01*
X109378096Y-68096183D01*
X109402413Y-68171023D01*
X109403334Y-68174134D01*
X109422877Y-68247066D01*
X109422881Y-68247078D01*
X109435275Y-68273659D01*
X109438051Y-68280705D01*
X109448095Y-68311616D01*
X109448097Y-68311621D01*
X109457105Y-68328360D01*
X109483822Y-68378010D01*
X109485416Y-68381187D01*
X109515942Y-68446651D01*
X109515943Y-68446653D01*
X109515944Y-68446654D01*
X109534668Y-68473396D01*
X109538475Y-68479574D01*
X109555443Y-68511105D01*
X109555445Y-68511108D01*
X109600397Y-68567475D01*
X109602709Y-68570567D01*
X109642251Y-68627038D01*
X109642254Y-68627041D01*
X109667659Y-68652446D01*
X109672295Y-68657633D01*
X109696686Y-68688218D01*
X109748514Y-68733499D01*
X109751557Y-68736344D01*
X109797955Y-68782743D01*
X109797956Y-68782744D01*
X109797959Y-68782746D01*
X109797962Y-68782749D01*
X109829487Y-68804822D01*
X109830109Y-68805258D01*
X109835341Y-68809357D01*
X109867282Y-68837263D01*
X109923535Y-68870872D01*
X109927258Y-68873283D01*
X109963750Y-68898835D01*
X109978338Y-68909051D01*
X109978341Y-68909052D01*
X109978346Y-68909056D01*
X110016910Y-68927038D01*
X110022493Y-68929997D01*
X110061750Y-68953453D01*
X110120010Y-68975317D01*
X110124422Y-68977171D01*
X110177924Y-69002120D01*
X110222204Y-69013984D01*
X110227939Y-69015824D01*
X110257356Y-69026864D01*
X110273839Y-69033051D01*
X110331813Y-69043571D01*
X110336778Y-69044685D01*
X110390629Y-69059115D01*
X110439602Y-69063399D01*
X110445250Y-69064157D01*
X110484352Y-69071253D01*
X110496732Y-69073500D01*
X110496733Y-69073500D01*
X110552348Y-69073500D01*
X110557749Y-69073735D01*
X110586370Y-69076239D01*
X110609998Y-69078307D01*
X110609999Y-69078307D01*
X110609999Y-69078306D01*
X110610000Y-69078307D01*
X110663310Y-69073643D01*
X110666504Y-69073500D01*
X110666522Y-69073500D01*
X110714625Y-69069169D01*
X110721391Y-69068561D01*
X110829353Y-69059117D01*
X110829357Y-69059116D01*
X110829371Y-69059115D01*
X110829383Y-69059111D01*
X110829902Y-69059020D01*
X110835136Y-69058324D01*
X110835622Y-69058281D01*
X110940335Y-69029381D01*
X111042076Y-69002120D01*
X111042089Y-69002113D01*
X111049029Y-68999588D01*
X111053720Y-68998089D01*
X111053993Y-68998014D01*
X111149019Y-68952251D01*
X111241654Y-68909056D01*
X111241663Y-68909049D01*
X111246350Y-68906345D01*
X111246421Y-68906468D01*
X111257206Y-68900152D01*
X111258093Y-68899725D01*
X111340868Y-68839585D01*
X111422038Y-68782749D01*
X111422951Y-68781835D01*
X111437752Y-68769193D01*
X111441363Y-68766571D01*
X111472990Y-68733492D01*
X111509902Y-68694884D01*
X111577746Y-68627041D01*
X111577746Y-68627040D01*
X111577749Y-68627038D01*
X111580476Y-68623142D01*
X111592428Y-68608568D01*
X111597912Y-68602834D01*
X111650809Y-68522697D01*
X111704056Y-68446654D01*
X111707538Y-68439185D01*
X111716436Y-68423276D01*
X111722709Y-68413774D01*
X111759216Y-68328360D01*
X111797120Y-68247076D01*
X111800145Y-68235782D01*
X111805896Y-68219147D01*
X111811743Y-68205470D01*
X111831711Y-68117978D01*
X111854115Y-68034371D01*
X111855806Y-68015024D01*
X111857126Y-68006626D01*
X111862151Y-67984615D01*
X111866036Y-67898105D01*
X111873307Y-67815000D01*
X111871327Y-67792368D01*
X111871153Y-67784173D01*
X111872315Y-67758309D01*
X111861305Y-67677042D01*
X111860981Y-67674125D01*
X111857787Y-67637616D01*
X111854115Y-67595629D01*
X111847377Y-67570483D01*
X111845825Y-67562753D01*
X111844122Y-67550190D01*
X111841906Y-67533825D01*
X111817587Y-67458982D01*
X111816671Y-67455889D01*
X111802430Y-67402741D01*
X111797123Y-67382933D01*
X111797119Y-67382923D01*
X111784722Y-67356336D01*
X111781948Y-67349296D01*
X111771903Y-67318379D01*
X111771902Y-67318377D01*
X111771899Y-67318370D01*
X111736167Y-67251970D01*
X111734582Y-67248811D01*
X111704056Y-67183347D01*
X111704052Y-67183341D01*
X111685337Y-67156613D01*
X111681523Y-67150424D01*
X111664555Y-67118892D01*
X111619594Y-67062513D01*
X111617279Y-67059417D01*
X111577750Y-67002963D01*
X111552340Y-66977553D01*
X111547702Y-66972364D01*
X111523312Y-66941780D01*
X111471491Y-66896505D01*
X111468442Y-66893655D01*
X111422039Y-66847251D01*
X111389891Y-66824741D01*
X111384656Y-66820641D01*
X111352718Y-66792737D01*
X111296486Y-66759139D01*
X111292725Y-66756704D01*
X111254980Y-66730275D01*
X111241654Y-66720944D01*
X111227940Y-66714549D01*
X111203100Y-66702965D01*
X111197501Y-66699997D01*
X111166701Y-66681596D01*
X111158250Y-66676547D01*
X111099988Y-66654681D01*
X111095588Y-66652833D01*
X111063893Y-66638053D01*
X111042077Y-66627880D01*
X111042065Y-66627876D01*
X110997793Y-66616013D01*
X110992053Y-66614172D01*
X110946160Y-66596948D01*
X110892140Y-66587145D01*
X110888191Y-66586428D01*
X110883217Y-66585312D01*
X110829372Y-66570885D01*
X110817370Y-66569834D01*
X110780403Y-66566600D01*
X110774741Y-66565840D01*
X110739998Y-66559536D01*
X110723267Y-66556500D01*
X110723266Y-66556500D01*
X110667652Y-66556500D01*
X110662250Y-66556264D01*
X110633629Y-66553760D01*
X110610002Y-66551693D01*
X110609997Y-66551693D01*
X110556728Y-66556353D01*
X110553489Y-66556499D01*
X110498608Y-66561438D01*
X110390618Y-66570885D01*
X110390041Y-66570987D01*
X110384889Y-66571672D01*
X110384386Y-66571717D01*
X110384369Y-66571720D01*
X110279664Y-66600618D01*
X110177918Y-66627881D01*
X110170944Y-66630418D01*
X110166268Y-66631912D01*
X110166022Y-66631979D01*
X110166011Y-66631984D01*
X110070964Y-66677755D01*
X109978352Y-66720941D01*
X109973658Y-66723651D01*
X109973587Y-66723529D01*
X109962824Y-66729833D01*
X109961908Y-66730274D01*
X109961902Y-66730277D01*
X109879119Y-66790423D01*
X109797958Y-66847254D01*
X109797027Y-66848185D01*
X109782264Y-66860793D01*
X109778641Y-66863425D01*
X109778631Y-66863434D01*
X109710097Y-66935115D01*
X109642247Y-67002966D01*
X109642246Y-67002967D01*
X109639506Y-67006880D01*
X109627581Y-67021419D01*
X109622089Y-67027163D01*
X109622085Y-67027169D01*
X109569183Y-67107313D01*
X109515943Y-67183347D01*
X109515941Y-67183352D01*
X109512462Y-67190812D01*
X109503576Y-67206702D01*
X109497292Y-67216222D01*
X109497291Y-67216224D01*
X109460780Y-67301644D01*
X109422882Y-67382917D01*
X109422880Y-67382923D01*
X109419852Y-67394222D01*
X109414102Y-67410854D01*
X109408259Y-67424525D01*
X109408256Y-67424533D01*
X109388288Y-67512021D01*
X109365885Y-67595626D01*
X109365884Y-67595632D01*
X109364192Y-67614970D01*
X109362873Y-67623366D01*
X109357849Y-67645385D01*
X109353963Y-67731894D01*
X109346693Y-67814996D01*
X109346693Y-67814998D01*
X107023307Y-67814998D01*
X107021327Y-67792368D01*
X107021153Y-67784173D01*
X107022315Y-67758309D01*
X107011305Y-67677042D01*
X107010981Y-67674125D01*
X107007787Y-67637616D01*
X107004115Y-67595629D01*
X106997377Y-67570483D01*
X106995825Y-67562753D01*
X106994122Y-67550190D01*
X106991906Y-67533825D01*
X106967587Y-67458982D01*
X106966671Y-67455889D01*
X106952430Y-67402741D01*
X106947123Y-67382933D01*
X106947119Y-67382923D01*
X106934722Y-67356336D01*
X106931948Y-67349296D01*
X106921903Y-67318379D01*
X106921902Y-67318377D01*
X106921899Y-67318370D01*
X106886167Y-67251970D01*
X106884582Y-67248811D01*
X106854056Y-67183347D01*
X106854052Y-67183341D01*
X106835337Y-67156613D01*
X106831523Y-67150424D01*
X106814555Y-67118892D01*
X106769594Y-67062513D01*
X106767279Y-67059417D01*
X106727750Y-67002963D01*
X106702340Y-66977553D01*
X106697702Y-66972364D01*
X106673312Y-66941780D01*
X106621491Y-66896505D01*
X106618442Y-66893655D01*
X106572039Y-66847251D01*
X106539891Y-66824741D01*
X106534656Y-66820641D01*
X106502718Y-66792737D01*
X106446486Y-66759139D01*
X106442725Y-66756704D01*
X106404980Y-66730275D01*
X106391654Y-66720944D01*
X106377940Y-66714549D01*
X106353100Y-66702965D01*
X106347501Y-66699997D01*
X106316701Y-66681596D01*
X106308250Y-66676547D01*
X106249988Y-66654681D01*
X106245588Y-66652833D01*
X106213893Y-66638053D01*
X106192077Y-66627880D01*
X106192065Y-66627876D01*
X106147793Y-66616013D01*
X106142053Y-66614172D01*
X106096160Y-66596948D01*
X106042140Y-66587145D01*
X106038191Y-66586428D01*
X106033217Y-66585312D01*
X105979372Y-66570885D01*
X105967370Y-66569834D01*
X105930403Y-66566600D01*
X105924741Y-66565840D01*
X105889998Y-66559536D01*
X105873267Y-66556500D01*
X105873266Y-66556500D01*
X105817652Y-66556500D01*
X105812250Y-66556264D01*
X105783629Y-66553760D01*
X105760002Y-66551693D01*
X105759997Y-66551693D01*
X105706728Y-66556353D01*
X105703489Y-66556499D01*
X105648608Y-66561438D01*
X105540618Y-66570885D01*
X105540041Y-66570987D01*
X105534889Y-66571672D01*
X105534386Y-66571717D01*
X105534369Y-66571720D01*
X105429664Y-66600618D01*
X105327918Y-66627881D01*
X105320944Y-66630418D01*
X105316268Y-66631912D01*
X105316022Y-66631979D01*
X105316011Y-66631984D01*
X105220964Y-66677755D01*
X105128352Y-66720941D01*
X105123658Y-66723651D01*
X105123587Y-66723529D01*
X105112824Y-66729833D01*
X105111908Y-66730274D01*
X105111902Y-66730277D01*
X105029119Y-66790423D01*
X104947958Y-66847254D01*
X104947027Y-66848185D01*
X104932264Y-66860793D01*
X104928641Y-66863425D01*
X104928631Y-66863434D01*
X104860097Y-66935115D01*
X104792247Y-67002966D01*
X104792246Y-67002967D01*
X104789506Y-67006880D01*
X104777581Y-67021419D01*
X104772089Y-67027163D01*
X104772085Y-67027169D01*
X104719183Y-67107313D01*
X104665943Y-67183347D01*
X104665941Y-67183352D01*
X104662462Y-67190812D01*
X104653576Y-67206702D01*
X104647292Y-67216222D01*
X104647291Y-67216224D01*
X104610780Y-67301644D01*
X104572882Y-67382917D01*
X104572880Y-67382923D01*
X104569852Y-67394222D01*
X104564102Y-67410854D01*
X104558259Y-67424525D01*
X104558256Y-67424533D01*
X104538288Y-67512021D01*
X104515885Y-67595626D01*
X104515884Y-67595632D01*
X104514192Y-67614970D01*
X104512873Y-67623366D01*
X104507849Y-67645385D01*
X104503963Y-67731894D01*
X104496693Y-67814996D01*
X104496693Y-67814998D01*
X100506490Y-67814998D01*
X100584296Y-67637616D01*
X100639564Y-67419368D01*
X100642584Y-67382923D01*
X100658156Y-67195005D01*
X100658156Y-67194994D01*
X100639565Y-66970640D01*
X100639563Y-66970628D01*
X100608320Y-66847254D01*
X100584296Y-66752384D01*
X100493860Y-66546209D01*
X100370722Y-66357732D01*
X100370719Y-66357729D01*
X100370715Y-66357723D01*
X100218243Y-66192097D01*
X100218238Y-66192092D01*
X100069431Y-66076270D01*
X100040576Y-66053811D01*
X100004070Y-66034055D01*
X99954479Y-65984836D01*
X99939371Y-65916619D01*
X99963541Y-65851064D01*
X100004070Y-65815945D01*
X100004896Y-65815498D01*
X100040576Y-65796189D01*
X100218240Y-65657906D01*
X100349652Y-65515156D01*
X100370715Y-65492276D01*
X100370716Y-65492274D01*
X100370722Y-65492268D01*
X100493860Y-65303791D01*
X100584296Y-65097616D01*
X100639564Y-64879368D01*
X100640297Y-64870525D01*
X100647384Y-64785000D01*
X104046673Y-64785000D01*
X104050099Y-64826345D01*
X104053971Y-64873083D01*
X104057856Y-64964543D01*
X104057857Y-64964552D01*
X104063010Y-64988461D01*
X104064190Y-64996410D01*
X104065947Y-65017617D01*
X104065949Y-65017629D01*
X104088417Y-65106353D01*
X104108370Y-65198935D01*
X104116257Y-65218561D01*
X104118834Y-65226466D01*
X104123249Y-65243900D01*
X104123251Y-65243907D01*
X104161285Y-65330616D01*
X104197767Y-65421404D01*
X104207129Y-65436608D01*
X104211117Y-65444220D01*
X104217015Y-65457668D01*
X104270524Y-65539570D01*
X104323473Y-65625565D01*
X104323480Y-65625574D01*
X104330158Y-65633161D01*
X104340886Y-65647267D01*
X104344686Y-65653083D01*
X104413079Y-65727377D01*
X104474257Y-65796889D01*
X104481882Y-65805552D01*
X104481883Y-65805553D01*
X104487070Y-65809741D01*
X104500407Y-65822240D01*
X104502783Y-65824822D01*
X104554116Y-65864775D01*
X104584948Y-65888772D01*
X104632031Y-65926789D01*
X104668421Y-65956173D01*
X104668422Y-65956173D01*
X104668424Y-65956175D01*
X104671165Y-65957706D01*
X104671240Y-65957748D01*
X104686934Y-65968152D01*
X104686979Y-65968187D01*
X104686991Y-65968195D01*
X104781032Y-66019086D01*
X104781346Y-66019256D01*
X104877740Y-66073105D01*
X104877745Y-66073106D01*
X104877749Y-66073109D01*
X104880140Y-66074190D01*
X104887477Y-66077448D01*
X104887575Y-66077226D01*
X104892262Y-66079281D01*
X104892273Y-66079287D01*
X104996740Y-66115151D01*
X105103806Y-66152980D01*
X105104367Y-66153076D01*
X105109109Y-66154081D01*
X105113043Y-66155078D01*
X105113049Y-66155080D01*
X105225095Y-66173776D01*
X105225095Y-66173777D01*
X105340110Y-66193499D01*
X105340119Y-66193500D01*
X105576707Y-66193500D01*
X105576712Y-66193500D01*
X105609648Y-66188003D01*
X105633475Y-66184028D01*
X105638413Y-66183406D01*
X105691941Y-66178851D01*
X105698887Y-66178260D01*
X105698888Y-66178259D01*
X105698898Y-66178259D01*
X105751297Y-66164614D01*
X105756668Y-66163469D01*
X105806951Y-66155080D01*
X105864502Y-66135322D01*
X105868975Y-66133973D01*
X105930924Y-66117844D01*
X105977259Y-66096898D01*
X105982633Y-66094767D01*
X106027727Y-66079287D01*
X106084132Y-66048761D01*
X106088054Y-66046816D01*
X106149402Y-66019086D01*
X106188795Y-65992459D01*
X106193979Y-65989314D01*
X106233008Y-65968195D01*
X106233012Y-65968193D01*
X106233013Y-65968192D01*
X106233017Y-65968190D01*
X106286228Y-65926772D01*
X106289561Y-65924353D01*
X106348047Y-65884825D01*
X106380001Y-65854198D01*
X106384789Y-65850058D01*
X106417220Y-65824818D01*
X106465119Y-65772784D01*
X106467794Y-65770056D01*
X106521144Y-65718925D01*
X106545497Y-65685996D01*
X106549727Y-65680877D01*
X106568017Y-65661010D01*
X106575314Y-65653083D01*
X106615785Y-65591135D01*
X106617835Y-65588189D01*
X106631302Y-65569981D01*
X106663715Y-65526157D01*
X106680676Y-65492514D01*
X106684114Y-65486549D01*
X106702984Y-65457669D01*
X106734042Y-65386861D01*
X106735413Y-65383950D01*
X106771657Y-65312067D01*
X106781721Y-65279200D01*
X106784221Y-65272466D01*
X106796749Y-65243907D01*
X106816535Y-65165770D01*
X106817334Y-65162909D01*
X106841864Y-65082815D01*
X106845810Y-65051994D01*
X106847198Y-65044684D01*
X106854051Y-65017626D01*
X106861090Y-64932672D01*
X106872318Y-64844995D01*
X106871139Y-64817249D01*
X106871294Y-64809525D01*
X106873327Y-64785000D01*
X109496673Y-64785000D01*
X109500099Y-64826345D01*
X109503971Y-64873083D01*
X109507856Y-64964543D01*
X109507857Y-64964552D01*
X109513010Y-64988461D01*
X109514190Y-64996410D01*
X109515947Y-65017617D01*
X109515949Y-65017629D01*
X109538417Y-65106353D01*
X109558370Y-65198935D01*
X109566257Y-65218561D01*
X109568834Y-65226466D01*
X109573249Y-65243900D01*
X109573251Y-65243907D01*
X109611285Y-65330616D01*
X109647767Y-65421404D01*
X109657129Y-65436608D01*
X109661117Y-65444220D01*
X109667015Y-65457668D01*
X109720524Y-65539570D01*
X109773473Y-65625565D01*
X109773480Y-65625574D01*
X109780158Y-65633161D01*
X109790886Y-65647267D01*
X109794686Y-65653083D01*
X109863079Y-65727377D01*
X109924257Y-65796889D01*
X109931882Y-65805552D01*
X109931883Y-65805553D01*
X109937070Y-65809741D01*
X109950407Y-65822240D01*
X109952783Y-65824822D01*
X110004116Y-65864775D01*
X110034948Y-65888772D01*
X110082031Y-65926789D01*
X110118421Y-65956173D01*
X110118422Y-65956173D01*
X110118424Y-65956175D01*
X110121165Y-65957706D01*
X110121240Y-65957748D01*
X110136934Y-65968152D01*
X110136979Y-65968187D01*
X110136991Y-65968195D01*
X110231032Y-66019086D01*
X110231346Y-66019256D01*
X110327740Y-66073105D01*
X110327745Y-66073106D01*
X110327749Y-66073109D01*
X110330140Y-66074190D01*
X110337477Y-66077448D01*
X110337575Y-66077226D01*
X110342262Y-66079281D01*
X110342273Y-66079287D01*
X110446740Y-66115151D01*
X110553806Y-66152980D01*
X110554367Y-66153076D01*
X110559109Y-66154081D01*
X110563043Y-66155078D01*
X110563049Y-66155080D01*
X110675094Y-66173776D01*
X110675095Y-66173777D01*
X110790110Y-66193499D01*
X110790119Y-66193500D01*
X111026707Y-66193500D01*
X111026712Y-66193500D01*
X111059648Y-66188003D01*
X111083475Y-66184028D01*
X111088413Y-66183406D01*
X111141941Y-66178851D01*
X111148887Y-66178260D01*
X111148888Y-66178259D01*
X111148898Y-66178259D01*
X111201297Y-66164614D01*
X111206668Y-66163469D01*
X111256951Y-66155080D01*
X111314502Y-66135322D01*
X111318975Y-66133973D01*
X111380924Y-66117844D01*
X111427259Y-66096898D01*
X111432633Y-66094767D01*
X111477727Y-66079287D01*
X111534132Y-66048761D01*
X111538054Y-66046816D01*
X111599402Y-66019086D01*
X111638795Y-65992459D01*
X111643979Y-65989314D01*
X111683008Y-65968195D01*
X111683012Y-65968193D01*
X111683013Y-65968192D01*
X111683017Y-65968190D01*
X111736228Y-65926772D01*
X111739561Y-65924353D01*
X111798047Y-65884825D01*
X111830001Y-65854198D01*
X111834789Y-65850058D01*
X111867220Y-65824818D01*
X111915119Y-65772784D01*
X111917794Y-65770056D01*
X111971144Y-65718925D01*
X111995497Y-65685996D01*
X111999727Y-65680877D01*
X112018017Y-65661010D01*
X112025314Y-65653083D01*
X112065785Y-65591135D01*
X112067835Y-65588189D01*
X112081302Y-65569981D01*
X112113715Y-65526157D01*
X112130676Y-65492514D01*
X112134114Y-65486549D01*
X112152984Y-65457669D01*
X112184042Y-65386861D01*
X112185413Y-65383950D01*
X112221657Y-65312067D01*
X112231721Y-65279200D01*
X112234221Y-65272466D01*
X112246749Y-65243907D01*
X112266535Y-65165770D01*
X112267334Y-65162909D01*
X112291864Y-65082815D01*
X112295810Y-65051994D01*
X112297198Y-65044684D01*
X112304051Y-65017626D01*
X112311090Y-64932672D01*
X112322318Y-64844995D01*
X112321139Y-64817249D01*
X112321294Y-64809525D01*
X112323327Y-64785000D01*
X112320341Y-64748969D01*
X112316028Y-64696916D01*
X112312144Y-64605460D01*
X112312143Y-64605457D01*
X112312143Y-64605449D01*
X112306987Y-64581530D01*
X112305808Y-64573586D01*
X112305344Y-64567985D01*
X112304051Y-64552374D01*
X112281582Y-64463646D01*
X112261630Y-64371068D01*
X112253735Y-64351424D01*
X112251167Y-64343544D01*
X112246749Y-64326093D01*
X112208714Y-64239383D01*
X112172233Y-64148596D01*
X112162867Y-64133386D01*
X112158882Y-64125778D01*
X112158102Y-64124000D01*
X112152984Y-64112331D01*
X112099475Y-64030429D01*
X112046524Y-63944431D01*
X112046518Y-63944424D01*
X112046515Y-63944420D01*
X112039839Y-63936834D01*
X112029118Y-63922739D01*
X112025315Y-63916919D01*
X112025314Y-63916917D01*
X111956920Y-63842622D01*
X111888119Y-63764449D01*
X111888118Y-63764448D01*
X111888114Y-63764444D01*
X111882929Y-63760258D01*
X111869597Y-63747765D01*
X111867220Y-63745182D01*
X111785051Y-63681227D01*
X111701576Y-63613825D01*
X111701574Y-63613823D01*
X111701568Y-63613819D01*
X111698750Y-63612245D01*
X111683070Y-63601851D01*
X111683020Y-63601812D01*
X111683018Y-63601811D01*
X111683017Y-63601810D01*
X111588653Y-63550743D01*
X111535822Y-63521230D01*
X111492259Y-63496894D01*
X111489999Y-63495873D01*
X111482519Y-63492551D01*
X111482422Y-63492773D01*
X111477725Y-63490712D01*
X111373259Y-63454848D01*
X111266197Y-63417021D01*
X111266196Y-63417020D01*
X111266194Y-63417020D01*
X111266192Y-63417019D01*
X111266183Y-63417017D01*
X111265633Y-63416923D01*
X111260913Y-63415922D01*
X111256966Y-63414923D01*
X111256953Y-63414920D01*
X111256951Y-63414920D01*
X111144904Y-63396222D01*
X111029890Y-63376500D01*
X111029881Y-63376500D01*
X111026712Y-63376500D01*
X110793288Y-63376500D01*
X110793287Y-63376500D01*
X110736529Y-63385970D01*
X110731587Y-63386592D01*
X110697830Y-63389465D01*
X110671100Y-63391741D01*
X110671097Y-63391741D01*
X110618733Y-63405376D01*
X110613313Y-63406532D01*
X110563049Y-63414919D01*
X110505512Y-63434671D01*
X110501005Y-63436029D01*
X110455895Y-63447776D01*
X110439076Y-63452156D01*
X110439073Y-63452157D01*
X110439070Y-63452158D01*
X110392758Y-63473092D01*
X110387359Y-63475233D01*
X110372763Y-63480244D01*
X110342273Y-63490712D01*
X110285879Y-63521230D01*
X110281910Y-63523198D01*
X110220597Y-63550914D01*
X110220595Y-63550915D01*
X110181209Y-63577535D01*
X110176002Y-63580693D01*
X110164438Y-63586951D01*
X110136978Y-63601812D01*
X110083780Y-63643218D01*
X110080425Y-63645653D01*
X110050349Y-63665981D01*
X110021951Y-63685176D01*
X110021948Y-63685179D01*
X109990012Y-63715786D01*
X109985193Y-63719952D01*
X109952781Y-63745181D01*
X109952780Y-63745182D01*
X109904898Y-63797193D01*
X109902184Y-63799962D01*
X109848857Y-63851073D01*
X109824503Y-63883999D01*
X109820270Y-63889123D01*
X109794684Y-63916918D01*
X109794681Y-63916922D01*
X109754222Y-63978850D01*
X109752166Y-63981806D01*
X109706287Y-64043839D01*
X109706286Y-64043840D01*
X109689333Y-64077463D01*
X109685875Y-64083463D01*
X109667015Y-64112332D01*
X109635978Y-64183089D01*
X109634562Y-64186096D01*
X109598342Y-64257933D01*
X109598341Y-64257934D01*
X109588280Y-64290786D01*
X109585775Y-64297537D01*
X109573249Y-64326094D01*
X109573249Y-64326095D01*
X109553469Y-64404203D01*
X109552649Y-64407137D01*
X109528137Y-64487178D01*
X109528135Y-64487190D01*
X109524191Y-64517986D01*
X109522795Y-64525335D01*
X109515950Y-64552367D01*
X109515948Y-64552379D01*
X109508909Y-64637327D01*
X109497682Y-64725003D01*
X109497681Y-64725004D01*
X109498859Y-64752731D01*
X109498703Y-64760485D01*
X109496673Y-64784995D01*
X109496673Y-64785000D01*
X106873327Y-64785000D01*
X106870341Y-64748969D01*
X106866028Y-64696916D01*
X106862144Y-64605460D01*
X106862143Y-64605457D01*
X106862143Y-64605449D01*
X106856987Y-64581530D01*
X106855808Y-64573586D01*
X106855344Y-64567985D01*
X106854051Y-64552374D01*
X106831582Y-64463646D01*
X106811630Y-64371068D01*
X106803735Y-64351424D01*
X106801167Y-64343544D01*
X106796749Y-64326093D01*
X106758714Y-64239383D01*
X106722233Y-64148596D01*
X106712867Y-64133386D01*
X106708882Y-64125778D01*
X106708102Y-64124000D01*
X106702984Y-64112331D01*
X106649475Y-64030429D01*
X106596524Y-63944431D01*
X106596518Y-63944424D01*
X106596515Y-63944420D01*
X106589839Y-63936834D01*
X106579118Y-63922739D01*
X106575315Y-63916919D01*
X106575314Y-63916917D01*
X106506920Y-63842622D01*
X106438119Y-63764449D01*
X106438118Y-63764448D01*
X106438114Y-63764444D01*
X106432929Y-63760258D01*
X106419597Y-63747765D01*
X106417220Y-63745182D01*
X106335051Y-63681227D01*
X106251576Y-63613825D01*
X106251574Y-63613823D01*
X106251568Y-63613819D01*
X106248750Y-63612245D01*
X106233070Y-63601851D01*
X106233020Y-63601812D01*
X106233018Y-63601811D01*
X106233017Y-63601810D01*
X106138653Y-63550743D01*
X106085822Y-63521230D01*
X106042259Y-63496894D01*
X106039999Y-63495873D01*
X106032519Y-63492551D01*
X106032422Y-63492773D01*
X106027725Y-63490712D01*
X105923259Y-63454848D01*
X105816197Y-63417021D01*
X105816196Y-63417020D01*
X105816194Y-63417020D01*
X105816192Y-63417019D01*
X105816183Y-63417017D01*
X105815633Y-63416923D01*
X105810913Y-63415922D01*
X105806966Y-63414923D01*
X105806953Y-63414920D01*
X105806951Y-63414920D01*
X105694904Y-63396222D01*
X105694903Y-63396222D01*
X105579890Y-63376500D01*
X105579881Y-63376500D01*
X105576712Y-63376500D01*
X105343288Y-63376500D01*
X105343287Y-63376500D01*
X105286529Y-63385970D01*
X105281587Y-63386592D01*
X105247830Y-63389465D01*
X105221100Y-63391741D01*
X105221097Y-63391741D01*
X105168733Y-63405376D01*
X105163313Y-63406532D01*
X105113049Y-63414919D01*
X105055512Y-63434671D01*
X105051005Y-63436029D01*
X105005895Y-63447776D01*
X104989076Y-63452156D01*
X104989073Y-63452157D01*
X104989070Y-63452158D01*
X104942758Y-63473092D01*
X104937359Y-63475233D01*
X104922763Y-63480244D01*
X104892273Y-63490712D01*
X104835879Y-63521230D01*
X104831910Y-63523198D01*
X104770597Y-63550914D01*
X104770595Y-63550915D01*
X104731209Y-63577535D01*
X104726002Y-63580693D01*
X104714438Y-63586951D01*
X104686978Y-63601812D01*
X104633780Y-63643218D01*
X104630425Y-63645653D01*
X104600349Y-63665981D01*
X104571951Y-63685176D01*
X104571948Y-63685179D01*
X104540012Y-63715786D01*
X104535193Y-63719952D01*
X104502781Y-63745181D01*
X104502780Y-63745182D01*
X104454898Y-63797193D01*
X104452184Y-63799962D01*
X104398857Y-63851073D01*
X104374503Y-63883999D01*
X104370270Y-63889123D01*
X104344684Y-63916918D01*
X104344681Y-63916922D01*
X104304222Y-63978850D01*
X104302166Y-63981806D01*
X104256287Y-64043839D01*
X104256286Y-64043840D01*
X104239333Y-64077463D01*
X104235875Y-64083463D01*
X104217015Y-64112332D01*
X104185978Y-64183089D01*
X104184562Y-64186096D01*
X104148342Y-64257933D01*
X104148341Y-64257934D01*
X104138280Y-64290786D01*
X104135775Y-64297537D01*
X104123249Y-64326094D01*
X104123249Y-64326095D01*
X104103469Y-64404203D01*
X104102649Y-64407137D01*
X104078137Y-64487178D01*
X104078135Y-64487190D01*
X104074191Y-64517986D01*
X104072795Y-64525335D01*
X104065950Y-64552367D01*
X104065948Y-64552379D01*
X104058909Y-64637327D01*
X104047682Y-64725003D01*
X104047681Y-64725004D01*
X104048859Y-64752731D01*
X104048703Y-64760485D01*
X104046673Y-64784995D01*
X104046673Y-64785000D01*
X100647384Y-64785000D01*
X100658156Y-64655005D01*
X100658156Y-64654994D01*
X100639565Y-64430640D01*
X100639563Y-64430628D01*
X100624480Y-64371067D01*
X100584296Y-64212384D01*
X100493860Y-64006209D01*
X100476973Y-63980362D01*
X100400040Y-63862607D01*
X100370722Y-63817732D01*
X100370719Y-63817729D01*
X100370715Y-63817723D01*
X100218243Y-63652097D01*
X100218238Y-63652092D01*
X100040577Y-63513812D01*
X100040572Y-63513808D01*
X99842580Y-63406661D01*
X99842577Y-63406659D01*
X99842574Y-63406658D01*
X99842571Y-63406657D01*
X99842569Y-63406656D01*
X99629637Y-63333556D01*
X99407569Y-63296500D01*
X99182431Y-63296500D01*
X98960362Y-63333556D01*
X98747430Y-63406656D01*
X98747419Y-63406661D01*
X98549427Y-63513808D01*
X98549422Y-63513812D01*
X98371761Y-63652092D01*
X98371756Y-63652097D01*
X98219284Y-63817723D01*
X98219276Y-63817734D01*
X98096140Y-64006207D01*
X98005703Y-64212385D01*
X97950436Y-64430628D01*
X97950434Y-64430640D01*
X97931844Y-64654994D01*
X97931844Y-64655005D01*
X97950434Y-64879359D01*
X97950436Y-64879371D01*
X98005703Y-65097614D01*
X98096140Y-65303792D01*
X98219276Y-65492265D01*
X98219284Y-65492276D01*
X98371756Y-65657902D01*
X98371761Y-65657907D01*
X98407864Y-65686007D01*
X98549424Y-65796189D01*
X98585930Y-65815945D01*
X98635519Y-65865162D01*
X98650629Y-65933378D01*
X98626459Y-65998934D01*
X98585932Y-66034052D01*
X98549432Y-66053805D01*
X98549422Y-66053812D01*
X98371761Y-66192092D01*
X98371756Y-66192097D01*
X98219284Y-66357723D01*
X98219276Y-66357734D01*
X98096140Y-66546207D01*
X98005703Y-66752385D01*
X97950436Y-66970628D01*
X97950434Y-66970640D01*
X97931844Y-67194994D01*
X97931844Y-67195005D01*
X97950434Y-67419359D01*
X97950436Y-67419371D01*
X98005703Y-67637614D01*
X98096140Y-67843792D01*
X98205240Y-68010781D01*
X98219278Y-68032268D01*
X98370707Y-68196762D01*
X98401629Y-68259415D01*
X98393769Y-68328841D01*
X98349622Y-68382997D01*
X98322811Y-68396926D01*
X98202912Y-68441646D01*
X98202906Y-68441649D01*
X98087812Y-68527809D01*
X98087809Y-68527812D01*
X98001649Y-68642906D01*
X98001645Y-68642913D01*
X97951403Y-68777620D01*
X97951401Y-68777627D01*
X97945000Y-68837155D01*
X97945000Y-69485000D01*
X98671231Y-69485000D01*
X98738270Y-69504685D01*
X98784025Y-69557489D01*
X98793969Y-69626647D01*
X98790208Y-69643936D01*
X98785000Y-69661672D01*
X98785000Y-69808327D01*
X98790208Y-69826064D01*
X98790208Y-69895934D01*
X98752434Y-69954712D01*
X98688879Y-69983738D01*
X98671231Y-69985000D01*
X97945000Y-69985000D01*
X97945000Y-70632844D01*
X97951401Y-70692372D01*
X97951403Y-70692379D01*
X98001645Y-70827086D01*
X98001649Y-70827093D01*
X98087809Y-70942187D01*
X98087812Y-70942190D01*
X98202906Y-71028350D01*
X98202913Y-71028354D01*
X98322810Y-71073073D01*
X98378744Y-71114944D01*
X98403161Y-71180409D01*
X98388309Y-71248682D01*
X98370706Y-71273238D01*
X98219284Y-71437723D01*
X98219276Y-71437734D01*
X98096140Y-71626207D01*
X98005703Y-71832385D01*
X97950436Y-72050628D01*
X97950434Y-72050640D01*
X97931844Y-72274994D01*
X97931844Y-72275005D01*
X97950434Y-72499359D01*
X97950436Y-72499371D01*
X98005703Y-72717614D01*
X98096140Y-72923792D01*
X98219276Y-73112265D01*
X98219284Y-73112276D01*
X98371756Y-73277902D01*
X98371760Y-73277906D01*
X98549424Y-73416189D01*
X98549429Y-73416191D01*
X98549431Y-73416193D01*
X98585930Y-73435946D01*
X98635520Y-73485165D01*
X98650628Y-73553382D01*
X98626457Y-73618937D01*
X98585930Y-73654054D01*
X98549431Y-73673806D01*
X98549422Y-73673812D01*
X98371761Y-73812092D01*
X98371756Y-73812097D01*
X98219284Y-73977723D01*
X98219276Y-73977734D01*
X98096140Y-74166207D01*
X98005703Y-74372385D01*
X97950436Y-74590628D01*
X97950434Y-74590640D01*
X97931844Y-74814994D01*
X97931844Y-74815005D01*
X97950434Y-75039359D01*
X97950436Y-75039371D01*
X98005703Y-75257614D01*
X98096140Y-75463792D01*
X98219276Y-75652265D01*
X98219284Y-75652276D01*
X98371756Y-75817902D01*
X98371760Y-75817906D01*
X98549424Y-75956189D01*
X98549429Y-75956191D01*
X98549431Y-75956193D01*
X98585930Y-75975946D01*
X98635520Y-76025165D01*
X98650628Y-76093382D01*
X98626457Y-76158937D01*
X98585930Y-76194054D01*
X98549431Y-76213806D01*
X98549422Y-76213812D01*
X98371761Y-76352092D01*
X98371756Y-76352097D01*
X98219284Y-76517723D01*
X98219276Y-76517734D01*
X98096140Y-76706207D01*
X98005703Y-76912385D01*
X97950436Y-77130628D01*
X97950434Y-77130640D01*
X97931844Y-77354994D01*
X97931844Y-77355005D01*
X97950434Y-77579359D01*
X97950436Y-77579371D01*
X98005703Y-77797614D01*
X98096140Y-78003792D01*
X98219276Y-78192265D01*
X98219284Y-78192276D01*
X98371756Y-78357902D01*
X98371760Y-78357906D01*
X98549424Y-78496189D01*
X98585930Y-78515945D01*
X98635519Y-78565162D01*
X98650629Y-78633378D01*
X98626459Y-78698934D01*
X98585932Y-78734052D01*
X98549432Y-78753805D01*
X98549422Y-78753812D01*
X98371761Y-78892092D01*
X98371756Y-78892097D01*
X98219284Y-79057723D01*
X98219276Y-79057734D01*
X98096140Y-79246207D01*
X98005703Y-79452385D01*
X97950436Y-79670628D01*
X97950434Y-79670640D01*
X97931844Y-79894994D01*
X97931844Y-79895005D01*
X97950434Y-80119359D01*
X97950436Y-80119371D01*
X98005703Y-80337614D01*
X98096140Y-80543792D01*
X98153253Y-80631209D01*
X98219278Y-80732268D01*
X98370707Y-80896762D01*
X98401629Y-80959415D01*
X98393769Y-81028841D01*
X98349622Y-81082997D01*
X98322811Y-81096926D01*
X98202912Y-81141646D01*
X98202906Y-81141649D01*
X98087812Y-81227809D01*
X98087809Y-81227812D01*
X98001649Y-81342906D01*
X98001645Y-81342913D01*
X97951403Y-81477620D01*
X97951401Y-81477627D01*
X97945000Y-81537155D01*
X97945000Y-82185000D01*
X98671231Y-82185000D01*
X98738270Y-82204685D01*
X98784025Y-82257489D01*
X98793969Y-82326647D01*
X98790208Y-82343936D01*
X98785000Y-82361672D01*
X98785000Y-82508327D01*
X98790208Y-82526064D01*
X98790208Y-82595934D01*
X98752434Y-82654712D01*
X98688879Y-82683738D01*
X98671231Y-82685000D01*
X97945000Y-82685000D01*
X97945000Y-83332844D01*
X97951401Y-83392372D01*
X97951403Y-83392379D01*
X98001645Y-83527086D01*
X98001649Y-83527093D01*
X98087809Y-83642187D01*
X98087812Y-83642190D01*
X98202906Y-83728350D01*
X98202913Y-83728354D01*
X98322810Y-83773073D01*
X98378744Y-83814944D01*
X98403161Y-83880409D01*
X98388309Y-83948682D01*
X98370706Y-83973238D01*
X98219284Y-84137723D01*
X98219276Y-84137734D01*
X98096140Y-84326207D01*
X98005703Y-84532385D01*
X97950436Y-84750628D01*
X97950434Y-84750640D01*
X97931844Y-84974994D01*
X97931844Y-84975005D01*
X97950434Y-85199359D01*
X97950436Y-85199371D01*
X98005703Y-85417614D01*
X98096140Y-85623792D01*
X98219276Y-85812265D01*
X98219284Y-85812276D01*
X98371756Y-85977902D01*
X98371760Y-85977906D01*
X98549424Y-86116189D01*
X98549429Y-86116191D01*
X98549431Y-86116193D01*
X98585930Y-86135946D01*
X98635520Y-86185165D01*
X98650628Y-86253382D01*
X98626457Y-86318937D01*
X98585930Y-86354054D01*
X98549431Y-86373806D01*
X98549422Y-86373812D01*
X98371761Y-86512092D01*
X98371756Y-86512097D01*
X98219284Y-86677723D01*
X98219276Y-86677734D01*
X98096140Y-86866207D01*
X98005703Y-87072385D01*
X97950436Y-87290628D01*
X97950434Y-87290640D01*
X97931844Y-87514994D01*
X97931844Y-87515005D01*
X97950434Y-87739359D01*
X97950436Y-87739371D01*
X98005703Y-87957614D01*
X98096140Y-88163792D01*
X98219276Y-88352265D01*
X98219284Y-88352276D01*
X98371756Y-88517902D01*
X98371760Y-88517906D01*
X98549424Y-88656189D01*
X98549429Y-88656191D01*
X98549431Y-88656193D01*
X98585930Y-88675946D01*
X98635520Y-88725165D01*
X98650628Y-88793382D01*
X98626457Y-88858937D01*
X98585930Y-88894054D01*
X98549431Y-88913806D01*
X98549422Y-88913812D01*
X98371761Y-89052092D01*
X98371756Y-89052097D01*
X98219284Y-89217723D01*
X98219276Y-89217734D01*
X98096140Y-89406207D01*
X98005703Y-89612385D01*
X97950436Y-89830628D01*
X97950434Y-89830640D01*
X97931844Y-90054994D01*
X97931844Y-90055005D01*
X97950434Y-90279359D01*
X97950436Y-90279371D01*
X98005703Y-90497614D01*
X98096140Y-90703792D01*
X98219276Y-90892265D01*
X98219284Y-90892276D01*
X98371756Y-91057902D01*
X98371760Y-91057906D01*
X98549424Y-91196189D01*
X98549429Y-91196191D01*
X98549431Y-91196193D01*
X98585930Y-91215946D01*
X98635520Y-91265165D01*
X98650628Y-91333382D01*
X98626457Y-91398937D01*
X98585930Y-91434054D01*
X98549431Y-91453806D01*
X98549422Y-91453812D01*
X98371761Y-91592092D01*
X98371756Y-91592097D01*
X98219284Y-91757723D01*
X98219276Y-91757734D01*
X98096140Y-91946207D01*
X98005703Y-92152385D01*
X97950436Y-92370628D01*
X97950434Y-92370640D01*
X97931844Y-92594994D01*
X97931844Y-92595005D01*
X97950434Y-92819359D01*
X97950436Y-92819371D01*
X98005703Y-93037614D01*
X98096140Y-93243792D01*
X98153253Y-93331209D01*
X98219278Y-93432268D01*
X98370707Y-93596762D01*
X98401629Y-93659415D01*
X98393769Y-93728841D01*
X98349622Y-93782997D01*
X98322811Y-93796926D01*
X98202912Y-93841646D01*
X98202906Y-93841649D01*
X98087812Y-93927809D01*
X98087809Y-93927812D01*
X98001649Y-94042906D01*
X98001645Y-94042913D01*
X97951403Y-94177620D01*
X97951401Y-94177627D01*
X97945000Y-94237155D01*
X97945000Y-94885000D01*
X98671231Y-94885000D01*
X98738270Y-94904685D01*
X98784025Y-94957489D01*
X98793969Y-95026647D01*
X98790208Y-95043936D01*
X98785000Y-95061672D01*
X98785000Y-95208327D01*
X98790208Y-95226064D01*
X98790208Y-95295934D01*
X98752434Y-95354712D01*
X98688879Y-95383738D01*
X98671231Y-95385000D01*
X97945000Y-95385000D01*
X97945000Y-96032844D01*
X97951401Y-96092372D01*
X97951403Y-96092379D01*
X98001645Y-96227086D01*
X98001649Y-96227093D01*
X98087809Y-96342187D01*
X98087812Y-96342190D01*
X98202906Y-96428350D01*
X98202913Y-96428354D01*
X98322810Y-96473073D01*
X98378744Y-96514944D01*
X98403161Y-96580409D01*
X98388309Y-96648682D01*
X98370706Y-96673238D01*
X98219284Y-96837723D01*
X98219276Y-96837734D01*
X98096140Y-97026207D01*
X98005703Y-97232385D01*
X97950436Y-97450628D01*
X97950434Y-97450640D01*
X97931844Y-97674994D01*
X97931844Y-97675005D01*
X97950434Y-97899359D01*
X97950436Y-97899371D01*
X98005703Y-98117614D01*
X98096140Y-98323792D01*
X98219276Y-98512265D01*
X98219284Y-98512276D01*
X98371756Y-98677902D01*
X98371760Y-98677906D01*
X98549424Y-98816189D01*
X98549429Y-98816191D01*
X98549431Y-98816193D01*
X98585930Y-98835946D01*
X98635520Y-98885165D01*
X98650628Y-98953382D01*
X98626457Y-99018937D01*
X98585930Y-99054054D01*
X98549431Y-99073806D01*
X98549422Y-99073812D01*
X98371761Y-99212092D01*
X98371756Y-99212097D01*
X98219284Y-99377723D01*
X98219276Y-99377734D01*
X98096140Y-99566207D01*
X98005703Y-99772385D01*
X97950436Y-99990628D01*
X97950434Y-99990640D01*
X97931844Y-100214994D01*
X97931844Y-100215005D01*
X97950434Y-100439359D01*
X97950436Y-100439371D01*
X98005703Y-100657614D01*
X98096140Y-100863792D01*
X98219276Y-101052265D01*
X98219284Y-101052276D01*
X98371756Y-101217902D01*
X98371761Y-101217907D01*
X98392241Y-101233847D01*
X98549424Y-101356189D01*
X98549429Y-101356191D01*
X98549431Y-101356193D01*
X98585930Y-101375946D01*
X98635520Y-101425165D01*
X98650628Y-101493382D01*
X98626457Y-101558937D01*
X98585930Y-101594054D01*
X98549431Y-101613806D01*
X98549422Y-101613812D01*
X98371761Y-101752092D01*
X98371756Y-101752097D01*
X98219284Y-101917723D01*
X98219276Y-101917734D01*
X98096140Y-102106207D01*
X98005703Y-102312385D01*
X97950436Y-102530628D01*
X97950434Y-102530640D01*
X97931844Y-102754994D01*
X97931844Y-102755005D01*
X97950434Y-102979359D01*
X97950436Y-102979371D01*
X98005703Y-103197614D01*
X98096140Y-103403792D01*
X98219276Y-103592265D01*
X98219284Y-103592276D01*
X98332385Y-103715134D01*
X98371760Y-103757906D01*
X98549424Y-103896189D01*
X98549429Y-103896191D01*
X98549431Y-103896193D01*
X98585930Y-103915946D01*
X98635520Y-103965165D01*
X98650628Y-104033382D01*
X98626457Y-104098937D01*
X98585930Y-104134054D01*
X98549431Y-104153806D01*
X98549422Y-104153812D01*
X98371761Y-104292092D01*
X98371756Y-104292097D01*
X98219284Y-104457723D01*
X98219276Y-104457734D01*
X98096140Y-104646207D01*
X98005703Y-104852385D01*
X97950436Y-105070628D01*
X97950434Y-105070640D01*
X97931844Y-105294994D01*
X97931844Y-105295005D01*
X97950434Y-105519359D01*
X97950436Y-105519371D01*
X98005703Y-105737614D01*
X98096140Y-105943792D01*
X98153253Y-106031209D01*
X98219278Y-106132268D01*
X98370707Y-106296762D01*
X98401629Y-106359415D01*
X98393769Y-106428841D01*
X98349622Y-106482997D01*
X98322811Y-106496926D01*
X98202912Y-106541646D01*
X98202906Y-106541649D01*
X98087812Y-106627809D01*
X98087809Y-106627812D01*
X98001649Y-106742906D01*
X98001645Y-106742913D01*
X97951403Y-106877620D01*
X97951401Y-106877627D01*
X97945000Y-106937155D01*
X97945000Y-107585000D01*
X98671231Y-107585000D01*
X98738270Y-107604685D01*
X98784025Y-107657489D01*
X98793969Y-107726647D01*
X98790208Y-107743936D01*
X98785000Y-107761672D01*
X98785000Y-107908327D01*
X98790208Y-107926064D01*
X98790208Y-107995934D01*
X98752434Y-108054712D01*
X98688879Y-108083738D01*
X98671231Y-108085000D01*
X97945000Y-108085000D01*
X97945000Y-108732844D01*
X97951401Y-108792372D01*
X97951403Y-108792379D01*
X98001645Y-108927086D01*
X98001649Y-108927093D01*
X98087809Y-109042187D01*
X98087812Y-109042190D01*
X98202906Y-109128350D01*
X98202913Y-109128354D01*
X98322810Y-109173073D01*
X98378744Y-109214944D01*
X98403161Y-109280409D01*
X98388309Y-109348682D01*
X98370706Y-109373238D01*
X98219284Y-109537723D01*
X98219276Y-109537734D01*
X98096140Y-109726207D01*
X98005703Y-109932385D01*
X97950436Y-110150628D01*
X97950434Y-110150640D01*
X97931844Y-110374994D01*
X97931844Y-110375005D01*
X97950434Y-110599359D01*
X97950436Y-110599371D01*
X98005703Y-110817614D01*
X98096140Y-111023792D01*
X98219276Y-111212265D01*
X98219284Y-111212276D01*
X98371756Y-111377902D01*
X98371760Y-111377906D01*
X98549424Y-111516189D01*
X98549429Y-111516191D01*
X98549431Y-111516193D01*
X98585930Y-111535946D01*
X98635520Y-111585165D01*
X98650628Y-111653382D01*
X98626457Y-111718937D01*
X98585930Y-111754054D01*
X98549431Y-111773806D01*
X98549422Y-111773812D01*
X98371761Y-111912092D01*
X98371756Y-111912097D01*
X98219284Y-112077723D01*
X98219276Y-112077734D01*
X98096140Y-112266207D01*
X98005703Y-112472385D01*
X97950436Y-112690628D01*
X97950434Y-112690640D01*
X97931844Y-112914994D01*
X97931844Y-112915005D01*
X60000500Y-112915005D01*
X60000500Y-109220005D01*
X60612844Y-109220005D01*
X60631434Y-109444359D01*
X60631436Y-109444371D01*
X60686703Y-109662614D01*
X60777140Y-109868792D01*
X60900276Y-110057265D01*
X60900284Y-110057276D01*
X61052756Y-110222902D01*
X61052760Y-110222906D01*
X61230424Y-110361189D01*
X61230425Y-110361189D01*
X61230427Y-110361191D01*
X61357135Y-110429761D01*
X61428426Y-110468342D01*
X61641365Y-110541444D01*
X61863431Y-110578500D01*
X62088569Y-110578500D01*
X62310635Y-110541444D01*
X62523574Y-110468342D01*
X62721576Y-110361189D01*
X62899240Y-110222906D01*
X63051722Y-110057268D01*
X63142193Y-109918790D01*
X63195338Y-109873437D01*
X63264569Y-109864013D01*
X63327905Y-109893515D01*
X63349804Y-109918787D01*
X63440278Y-110057268D01*
X63440283Y-110057273D01*
X63440284Y-110057276D01*
X63592756Y-110222902D01*
X63592760Y-110222906D01*
X63770424Y-110361189D01*
X63770425Y-110361189D01*
X63770427Y-110361191D01*
X63897135Y-110429761D01*
X63968426Y-110468342D01*
X64181365Y-110541444D01*
X64403431Y-110578500D01*
X64628569Y-110578500D01*
X64850635Y-110541444D01*
X65063574Y-110468342D01*
X65261576Y-110361189D01*
X65439240Y-110222906D01*
X65591722Y-110057268D01*
X65714860Y-109868791D01*
X65805296Y-109662616D01*
X65860564Y-109444368D01*
X65871650Y-109310584D01*
X65879156Y-109220005D01*
X65879156Y-109219994D01*
X65860565Y-108995640D01*
X65860563Y-108995628D01*
X65857876Y-108985018D01*
X65805296Y-108777384D01*
X65714860Y-108571209D01*
X65698706Y-108546484D01*
X65591723Y-108382734D01*
X65591715Y-108382723D01*
X65439243Y-108217097D01*
X65439238Y-108217092D01*
X65320797Y-108124905D01*
X65261576Y-108078811D01*
X65225070Y-108059055D01*
X65175479Y-108009836D01*
X65160371Y-107941619D01*
X65184541Y-107876064D01*
X65225070Y-107840945D01*
X65225084Y-107840936D01*
X65261576Y-107821189D01*
X65439240Y-107682906D01*
X65591722Y-107517268D01*
X65714860Y-107328791D01*
X65805296Y-107122616D01*
X65860564Y-106904368D01*
X65862780Y-106877627D01*
X65879156Y-106680005D01*
X65879156Y-106679994D01*
X65860565Y-106455640D01*
X65860564Y-106455637D01*
X65860564Y-106455632D01*
X65807062Y-106244358D01*
X65809687Y-106174539D01*
X65849643Y-106117222D01*
X65914244Y-106090605D01*
X65982981Y-106103139D01*
X66034028Y-106150846D01*
X66034655Y-106151919D01*
X66062959Y-106200942D01*
X66062958Y-106200942D01*
X66095772Y-106237385D01*
X66190747Y-106342866D01*
X66345248Y-106455118D01*
X66519712Y-106532794D01*
X66706513Y-106572500D01*
X66897487Y-106572500D01*
X67084288Y-106532794D01*
X67258752Y-106455118D01*
X67413253Y-106342866D01*
X67541040Y-106200944D01*
X67636527Y-106035556D01*
X67695542Y-105853928D01*
X67715504Y-105664000D01*
X67695542Y-105474072D01*
X67636527Y-105292444D01*
X67541040Y-105127056D01*
X67413253Y-104985134D01*
X67258752Y-104872882D01*
X67084288Y-104795206D01*
X67084286Y-104795205D01*
X66897487Y-104755500D01*
X66706513Y-104755500D01*
X66519714Y-104795205D01*
X66469463Y-104817578D01*
X66391288Y-104852384D01*
X66345246Y-104872883D01*
X66190745Y-104985135D01*
X66062959Y-105127057D01*
X65967473Y-105292443D01*
X65967470Y-105292450D01*
X65908459Y-105474068D01*
X65908458Y-105474072D01*
X65888496Y-105664000D01*
X65908458Y-105853928D01*
X65908459Y-105853931D01*
X65926600Y-105909764D01*
X65928595Y-105979605D01*
X65892514Y-106039438D01*
X65829813Y-106070266D01*
X65760399Y-106062301D01*
X65706310Y-106018073D01*
X65704893Y-106015953D01*
X65591722Y-105842732D01*
X65591715Y-105842725D01*
X65591715Y-105842723D01*
X65439243Y-105677097D01*
X65439238Y-105677092D01*
X65261577Y-105538812D01*
X65261577Y-105538811D01*
X65218303Y-105515393D01*
X65168713Y-105466173D01*
X65153605Y-105397957D01*
X65177775Y-105332401D01*
X65206198Y-105304763D01*
X65387079Y-105178108D01*
X65554105Y-105011082D01*
X65689600Y-104817578D01*
X65789429Y-104603492D01*
X65789432Y-104603486D01*
X65846636Y-104390000D01*
X65129347Y-104390000D01*
X65062308Y-104370315D01*
X65016553Y-104317511D01*
X65006609Y-104248353D01*
X65010369Y-104231067D01*
X65016000Y-104211888D01*
X65016000Y-104068111D01*
X65010369Y-104048933D01*
X65010370Y-103979064D01*
X65048145Y-103920286D01*
X65111701Y-103891262D01*
X65129347Y-103890000D01*
X65846636Y-103890000D01*
X65846635Y-103889999D01*
X65789432Y-103676513D01*
X65789429Y-103676507D01*
X65689600Y-103462422D01*
X65689599Y-103462420D01*
X65554113Y-103268926D01*
X65554108Y-103268920D01*
X65387082Y-103101894D01*
X65206197Y-102975236D01*
X65162572Y-102920659D01*
X65157330Y-102870000D01*
X71730496Y-102870000D01*
X71750458Y-103059928D01*
X71750459Y-103059931D01*
X71809470Y-103241549D01*
X71809473Y-103241556D01*
X71904960Y-103406944D01*
X72032747Y-103548866D01*
X72187248Y-103661118D01*
X72361712Y-103738794D01*
X72548513Y-103778500D01*
X72739487Y-103778500D01*
X72926288Y-103738794D01*
X73100752Y-103661118D01*
X73255253Y-103548866D01*
X73383040Y-103406944D01*
X73478527Y-103241556D01*
X73537542Y-103059928D01*
X73557504Y-102870000D01*
X73537542Y-102680072D01*
X73497113Y-102555644D01*
X73495118Y-102485803D01*
X73531198Y-102425970D01*
X73564609Y-102404046D01*
X73604099Y-102386465D01*
X73758600Y-102274213D01*
X73886387Y-102132291D01*
X73981874Y-101966903D01*
X74040889Y-101785275D01*
X74060851Y-101595347D01*
X74040889Y-101405419D01*
X74037881Y-101396164D01*
X74036134Y-101335000D01*
X78080492Y-101335000D01*
X78100454Y-101524928D01*
X78100455Y-101524931D01*
X78159466Y-101706549D01*
X78159469Y-101706556D01*
X78254956Y-101871944D01*
X78382743Y-102013866D01*
X78537244Y-102126118D01*
X78711708Y-102203794D01*
X78898509Y-102243500D01*
X79089483Y-102243500D01*
X79276284Y-102203794D01*
X79450748Y-102126118D01*
X79605249Y-102013866D01*
X79733036Y-101871944D01*
X79828523Y-101706556D01*
X79887538Y-101524928D01*
X79907500Y-101335000D01*
X81128482Y-101335000D01*
X81148444Y-101524928D01*
X81148445Y-101524931D01*
X81207456Y-101706549D01*
X81207459Y-101706556D01*
X81302946Y-101871944D01*
X81430733Y-102013866D01*
X81585234Y-102126118D01*
X81759698Y-102203794D01*
X81946499Y-102243500D01*
X82137473Y-102243500D01*
X82324274Y-102203794D01*
X82498738Y-102126118D01*
X82653239Y-102013866D01*
X82781026Y-101871944D01*
X82876513Y-101706556D01*
X82935528Y-101524928D01*
X82955490Y-101335000D01*
X82935528Y-101145072D01*
X82876513Y-100963444D01*
X82781026Y-100798056D01*
X82653239Y-100656134D01*
X82498738Y-100543882D01*
X82324274Y-100466206D01*
X82324272Y-100466205D01*
X82137473Y-100426500D01*
X81946499Y-100426500D01*
X81759700Y-100466205D01*
X81759697Y-100466206D01*
X81759698Y-100466206D01*
X81649485Y-100515276D01*
X81585232Y-100543883D01*
X81430731Y-100656135D01*
X81302945Y-100798057D01*
X81207459Y-100963443D01*
X81207456Y-100963450D01*
X81157739Y-101116465D01*
X81148444Y-101145072D01*
X81128482Y-101335000D01*
X79907500Y-101335000D01*
X79887538Y-101145072D01*
X79828523Y-100963444D01*
X79733036Y-100798056D01*
X79605249Y-100656134D01*
X79450748Y-100543882D01*
X79276284Y-100466206D01*
X79276282Y-100466205D01*
X79089483Y-100426500D01*
X78898509Y-100426500D01*
X78711710Y-100466205D01*
X78711707Y-100466206D01*
X78711708Y-100466206D01*
X78601495Y-100515276D01*
X78537242Y-100543883D01*
X78382741Y-100656135D01*
X78254955Y-100798057D01*
X78159469Y-100963443D01*
X78159466Y-100963450D01*
X78109749Y-101116465D01*
X78100454Y-101145072D01*
X78080492Y-101335000D01*
X74036134Y-101335000D01*
X74035886Y-101326325D01*
X74071966Y-101266492D01*
X74134667Y-101235663D01*
X74155813Y-101233847D01*
X74258834Y-101233847D01*
X74445635Y-101194141D01*
X74620099Y-101116465D01*
X74774600Y-101004213D01*
X74902387Y-100862291D01*
X74997874Y-100696903D01*
X75056889Y-100515275D01*
X75056889Y-100515274D01*
X75058897Y-100509095D01*
X75060425Y-100509591D01*
X75089787Y-100455225D01*
X75150955Y-100421457D01*
X75177873Y-100418500D01*
X75269265Y-100418500D01*
X75456066Y-100378794D01*
X75630530Y-100301118D01*
X75785031Y-100188866D01*
X75912818Y-100046944D01*
X76008305Y-99881556D01*
X76067320Y-99699928D01*
X76087282Y-99510000D01*
X76067320Y-99320072D01*
X76008305Y-99138444D01*
X75912818Y-98973056D01*
X75785031Y-98831134D01*
X75630530Y-98718882D01*
X75456066Y-98641206D01*
X75456064Y-98641205D01*
X75269265Y-98601500D01*
X75078291Y-98601500D01*
X74891492Y-98641205D01*
X74717024Y-98718883D01*
X74562523Y-98831135D01*
X74434737Y-98973057D01*
X74339251Y-99138443D01*
X74339248Y-99138450D01*
X74278228Y-99326252D01*
X74276694Y-99325753D01*
X74247356Y-99380105D01*
X74186194Y-99413885D01*
X74159253Y-99416847D01*
X74067860Y-99416847D01*
X73881061Y-99456552D01*
X73881058Y-99456553D01*
X73881059Y-99456553D01*
X73761015Y-99510000D01*
X73706593Y-99534230D01*
X73552092Y-99646482D01*
X73424306Y-99788404D01*
X73328820Y-99953790D01*
X73328817Y-99953797D01*
X73269806Y-100135415D01*
X73269805Y-100135419D01*
X73249843Y-100325347D01*
X73269805Y-100515275D01*
X73272812Y-100524528D01*
X73274808Y-100594369D01*
X73238728Y-100654202D01*
X73176027Y-100685031D01*
X73154881Y-100686847D01*
X73051860Y-100686847D01*
X72865061Y-100726552D01*
X72690593Y-100804230D01*
X72536092Y-100916482D01*
X72408306Y-101058404D01*
X72312820Y-101223790D01*
X72312817Y-101223797D01*
X72253806Y-101405415D01*
X72253805Y-101405419D01*
X72233843Y-101595347D01*
X72253805Y-101785275D01*
X72253806Y-101785278D01*
X72294234Y-101909702D01*
X72296229Y-101979543D01*
X72260149Y-102039376D01*
X72226740Y-102061299D01*
X72187246Y-102078882D01*
X72032745Y-102191135D01*
X71904959Y-102333057D01*
X71809473Y-102498443D01*
X71809470Y-102498450D01*
X71750459Y-102680068D01*
X71750458Y-102680072D01*
X71730496Y-102870000D01*
X65157330Y-102870000D01*
X65155380Y-102851160D01*
X65186902Y-102788806D01*
X65218300Y-102764608D01*
X65261576Y-102741189D01*
X65439240Y-102602906D01*
X65591722Y-102437268D01*
X65714860Y-102248791D01*
X65805296Y-102042616D01*
X65860564Y-101824368D01*
X65863803Y-101785278D01*
X65879156Y-101600005D01*
X65879156Y-101599994D01*
X65860565Y-101375640D01*
X65860563Y-101375628D01*
X65822114Y-101223797D01*
X65805296Y-101157384D01*
X65714860Y-100951209D01*
X65682191Y-100901206D01*
X65591723Y-100762734D01*
X65591715Y-100762723D01*
X65439243Y-100597097D01*
X65439238Y-100597092D01*
X65271077Y-100466206D01*
X65261576Y-100458811D01*
X65261575Y-100458810D01*
X65261572Y-100458808D01*
X65225068Y-100439053D01*
X65175478Y-100389833D01*
X65160371Y-100321616D01*
X65184542Y-100256061D01*
X65225069Y-100220945D01*
X65261576Y-100201189D01*
X65439240Y-100062906D01*
X65591722Y-99897268D01*
X65714860Y-99708791D01*
X65805296Y-99502616D01*
X65860564Y-99284368D01*
X65866553Y-99212092D01*
X65879156Y-99060005D01*
X65879156Y-99059994D01*
X65860565Y-98835640D01*
X65860563Y-98835628D01*
X65830999Y-98718882D01*
X65805296Y-98617384D01*
X65714860Y-98411209D01*
X65698706Y-98386484D01*
X65591723Y-98222734D01*
X65591715Y-98222723D01*
X65439243Y-98057097D01*
X65439238Y-98057092D01*
X65261577Y-97918812D01*
X65261578Y-97918812D01*
X65261576Y-97918811D01*
X65225070Y-97899055D01*
X65175479Y-97849836D01*
X65160371Y-97781619D01*
X65184541Y-97716064D01*
X65225070Y-97680945D01*
X65236055Y-97675000D01*
X65261576Y-97661189D01*
X65439240Y-97522906D01*
X65591722Y-97357268D01*
X65714860Y-97168791D01*
X65805296Y-96962616D01*
X65860564Y-96744368D01*
X65871650Y-96610584D01*
X65879156Y-96520005D01*
X65879156Y-96519994D01*
X65860565Y-96295640D01*
X65860563Y-96295628D01*
X65857876Y-96285018D01*
X65805296Y-96077384D01*
X65714860Y-95871209D01*
X65682191Y-95821206D01*
X65591723Y-95682734D01*
X65591715Y-95682723D01*
X65439243Y-95517097D01*
X65439238Y-95517092D01*
X65320797Y-95424905D01*
X65261576Y-95378811D01*
X65225070Y-95359055D01*
X65175479Y-95309836D01*
X65162227Y-95250000D01*
X82906496Y-95250000D01*
X82926458Y-95439928D01*
X82926459Y-95439931D01*
X82985470Y-95621549D01*
X82985473Y-95621556D01*
X83080960Y-95786944D01*
X83208747Y-95928866D01*
X83363248Y-96041118D01*
X83537712Y-96118794D01*
X83724513Y-96158500D01*
X83915487Y-96158500D01*
X84102288Y-96118794D01*
X84276752Y-96041118D01*
X84431253Y-95928866D01*
X84559040Y-95786944D01*
X84654527Y-95621556D01*
X84713542Y-95439928D01*
X84733504Y-95250000D01*
X84713542Y-95060072D01*
X84654527Y-94878444D01*
X84559040Y-94713056D01*
X84431253Y-94571134D01*
X84276752Y-94458882D01*
X84102288Y-94381206D01*
X84102286Y-94381205D01*
X83915487Y-94341500D01*
X83724513Y-94341500D01*
X83537714Y-94381205D01*
X83363246Y-94458883D01*
X83208745Y-94571135D01*
X83080959Y-94713057D01*
X82985473Y-94878443D01*
X82985470Y-94878450D01*
X82931701Y-95043936D01*
X82926458Y-95060072D01*
X82906496Y-95250000D01*
X65162227Y-95250000D01*
X65160371Y-95241619D01*
X65184541Y-95176064D01*
X65225070Y-95140945D01*
X65225084Y-95140936D01*
X65261576Y-95121189D01*
X65439240Y-94982906D01*
X65591722Y-94817268D01*
X65714860Y-94628791D01*
X65805296Y-94422616D01*
X65860564Y-94204368D01*
X65862780Y-94177627D01*
X65879156Y-93980005D01*
X65879156Y-93980000D01*
X87478496Y-93980000D01*
X87498458Y-94169928D01*
X87498459Y-94169931D01*
X87557470Y-94351549D01*
X87557473Y-94351556D01*
X87652960Y-94516944D01*
X87701753Y-94571134D01*
X87764324Y-94640627D01*
X87780747Y-94658866D01*
X87935248Y-94771118D01*
X88109712Y-94848794D01*
X88296513Y-94888500D01*
X88487487Y-94888500D01*
X88674288Y-94848794D01*
X88848752Y-94771118D01*
X89003253Y-94658866D01*
X89131040Y-94516944D01*
X89226527Y-94351556D01*
X89285542Y-94169928D01*
X89305504Y-93980000D01*
X89285542Y-93790072D01*
X89226527Y-93608444D01*
X89131040Y-93443056D01*
X89003253Y-93301134D01*
X88848752Y-93188882D01*
X88674288Y-93111206D01*
X88674286Y-93111205D01*
X88487487Y-93071500D01*
X88296513Y-93071500D01*
X88109714Y-93111205D01*
X87935246Y-93188883D01*
X87780745Y-93301135D01*
X87652959Y-93443057D01*
X87557473Y-93608443D01*
X87557470Y-93608450D01*
X87498459Y-93790068D01*
X87498458Y-93790072D01*
X87478496Y-93980000D01*
X65879156Y-93980000D01*
X65879156Y-93979994D01*
X65860565Y-93755640D01*
X65860563Y-93755628D01*
X65843840Y-93689590D01*
X65805296Y-93537384D01*
X65714860Y-93331209D01*
X65698706Y-93306484D01*
X65591723Y-93142734D01*
X65591715Y-93142723D01*
X65439243Y-92977097D01*
X65439238Y-92977092D01*
X65261577Y-92838812D01*
X65261578Y-92838812D01*
X65261576Y-92838811D01*
X65225070Y-92819055D01*
X65175479Y-92769836D01*
X65160371Y-92701619D01*
X65184541Y-92636064D01*
X65225070Y-92600945D01*
X65236055Y-92595000D01*
X65261576Y-92581189D01*
X65439240Y-92442906D01*
X65591722Y-92277268D01*
X65714860Y-92088791D01*
X65805296Y-91882616D01*
X65860564Y-91664368D01*
X65866553Y-91592092D01*
X65879156Y-91440005D01*
X65879156Y-91439994D01*
X65860565Y-91215640D01*
X65860563Y-91215628D01*
X65855640Y-91196187D01*
X65805296Y-90997384D01*
X65714860Y-90791209D01*
X65698706Y-90766484D01*
X65591723Y-90602734D01*
X65591715Y-90602723D01*
X65439243Y-90437097D01*
X65439238Y-90437092D01*
X65261577Y-90298812D01*
X65261578Y-90298812D01*
X65261576Y-90298811D01*
X65225070Y-90279055D01*
X65175479Y-90229836D01*
X65160371Y-90161619D01*
X65184541Y-90096064D01*
X65225070Y-90060945D01*
X65236055Y-90055000D01*
X65261576Y-90041189D01*
X65439240Y-89902906D01*
X65591722Y-89737268D01*
X65714860Y-89548791D01*
X65805296Y-89342616D01*
X65860564Y-89124368D01*
X65866553Y-89052092D01*
X65879156Y-88900005D01*
X65879156Y-88899994D01*
X65860565Y-88675640D01*
X65860563Y-88675628D01*
X65855640Y-88656187D01*
X65805296Y-88457384D01*
X65714860Y-88251209D01*
X65682191Y-88201206D01*
X65591723Y-88062734D01*
X65591715Y-88062723D01*
X65439243Y-87897097D01*
X65439238Y-87897092D01*
X65261577Y-87758812D01*
X65261578Y-87758812D01*
X65261576Y-87758811D01*
X65225070Y-87739055D01*
X65175479Y-87689836D01*
X65160371Y-87621619D01*
X65184541Y-87556064D01*
X65225070Y-87520945D01*
X65236055Y-87515000D01*
X65261576Y-87501189D01*
X65439240Y-87362906D01*
X65591722Y-87197268D01*
X65640897Y-87122000D01*
X81890496Y-87122000D01*
X81910458Y-87311928D01*
X81910459Y-87311931D01*
X81969470Y-87493549D01*
X81969473Y-87493556D01*
X82064960Y-87658944D01*
X82192747Y-87800866D01*
X82347248Y-87913118D01*
X82521712Y-87990794D01*
X82708513Y-88030500D01*
X82899487Y-88030500D01*
X83086288Y-87990794D01*
X83260752Y-87913118D01*
X83415253Y-87800866D01*
X83543040Y-87658944D01*
X83638527Y-87493556D01*
X83697542Y-87311928D01*
X83717504Y-87122000D01*
X84430496Y-87122000D01*
X84450458Y-87311928D01*
X84450459Y-87311931D01*
X84509470Y-87493549D01*
X84509473Y-87493556D01*
X84604960Y-87658944D01*
X84732747Y-87800866D01*
X84887248Y-87913118D01*
X85061712Y-87990794D01*
X85248513Y-88030500D01*
X85439487Y-88030500D01*
X85626288Y-87990794D01*
X85800752Y-87913118D01*
X85955253Y-87800866D01*
X86083040Y-87658944D01*
X86178527Y-87493556D01*
X86237542Y-87311928D01*
X86257504Y-87122000D01*
X86237542Y-86932072D01*
X86178527Y-86750444D01*
X86083040Y-86585056D01*
X85955253Y-86443134D01*
X85800752Y-86330882D01*
X85626288Y-86253206D01*
X85626286Y-86253205D01*
X85439487Y-86213500D01*
X85248513Y-86213500D01*
X85061714Y-86253205D01*
X84887246Y-86330883D01*
X84732745Y-86443135D01*
X84604959Y-86585057D01*
X84509473Y-86750443D01*
X84509470Y-86750450D01*
X84471858Y-86866209D01*
X84450458Y-86932072D01*
X84430496Y-87122000D01*
X83717504Y-87122000D01*
X83697542Y-86932072D01*
X83638527Y-86750444D01*
X83543040Y-86585056D01*
X83415253Y-86443134D01*
X83260752Y-86330882D01*
X83086288Y-86253206D01*
X83086286Y-86253205D01*
X82899487Y-86213500D01*
X82708513Y-86213500D01*
X82521714Y-86253205D01*
X82347246Y-86330883D01*
X82192745Y-86443135D01*
X82064959Y-86585057D01*
X81969473Y-86750443D01*
X81969470Y-86750450D01*
X81931858Y-86866209D01*
X81910458Y-86932072D01*
X81890496Y-87122000D01*
X65640897Y-87122000D01*
X65714860Y-87008791D01*
X65805296Y-86802616D01*
X65860564Y-86584368D01*
X65872267Y-86443135D01*
X65879156Y-86360005D01*
X65879156Y-86359994D01*
X65860565Y-86135640D01*
X65860563Y-86135628D01*
X65855640Y-86116187D01*
X65805296Y-85917384D01*
X65714860Y-85711209D01*
X65698706Y-85686484D01*
X65591723Y-85522734D01*
X65591715Y-85522723D01*
X65439243Y-85357097D01*
X65439238Y-85357092D01*
X65261577Y-85218812D01*
X65261578Y-85218812D01*
X65261576Y-85218811D01*
X65225070Y-85199055D01*
X65175479Y-85149836D01*
X65160371Y-85081619D01*
X65184541Y-85016064D01*
X65225070Y-84980945D01*
X65236055Y-84975000D01*
X65261576Y-84961189D01*
X65439240Y-84822906D01*
X65591722Y-84657268D01*
X65714860Y-84468791D01*
X65805296Y-84262616D01*
X65860564Y-84044368D01*
X65866553Y-83972094D01*
X65879156Y-83820005D01*
X65879156Y-83819994D01*
X65860565Y-83595640D01*
X65860563Y-83595628D01*
X65844249Y-83531204D01*
X65805296Y-83377384D01*
X65714860Y-83171209D01*
X65682191Y-83121206D01*
X65591723Y-82982734D01*
X65591715Y-82982723D01*
X65439243Y-82817097D01*
X65439238Y-82817092D01*
X65320797Y-82724905D01*
X65261576Y-82678811D01*
X65225070Y-82659055D01*
X65175479Y-82609836D01*
X65160371Y-82541619D01*
X65184541Y-82476064D01*
X65225070Y-82440945D01*
X65225084Y-82440936D01*
X65261576Y-82421189D01*
X65439240Y-82282906D01*
X65591722Y-82117268D01*
X65714860Y-81928791D01*
X65805296Y-81722616D01*
X65860564Y-81504368D01*
X65862780Y-81477627D01*
X65879156Y-81280005D01*
X65879156Y-81279994D01*
X65860565Y-81055640D01*
X65860563Y-81055628D01*
X65836835Y-80961928D01*
X65805296Y-80837384D01*
X65714860Y-80631209D01*
X65698706Y-80606484D01*
X65591723Y-80442734D01*
X65591715Y-80442723D01*
X65439243Y-80277097D01*
X65439238Y-80277092D01*
X65261577Y-80138812D01*
X65261578Y-80138812D01*
X65261576Y-80138811D01*
X65225070Y-80119055D01*
X65175479Y-80069836D01*
X65160371Y-80001619D01*
X65184541Y-79936064D01*
X65225070Y-79900945D01*
X65236055Y-79895000D01*
X65261576Y-79881189D01*
X65439240Y-79742906D01*
X65591722Y-79577268D01*
X65640897Y-79502000D01*
X78334496Y-79502000D01*
X78354458Y-79691928D01*
X78354459Y-79691931D01*
X78413470Y-79873549D01*
X78413473Y-79873556D01*
X78508960Y-80038944D01*
X78636747Y-80180866D01*
X78791248Y-80293118D01*
X78965712Y-80370794D01*
X79152513Y-80410500D01*
X79343487Y-80410500D01*
X79530288Y-80370794D01*
X79704752Y-80293118D01*
X79859253Y-80180866D01*
X79987040Y-80038944D01*
X80082527Y-79873556D01*
X80141542Y-79691928D01*
X80161504Y-79502000D01*
X80874496Y-79502000D01*
X80894458Y-79691928D01*
X80894459Y-79691931D01*
X80953470Y-79873549D01*
X80953473Y-79873556D01*
X81048960Y-80038944D01*
X81176747Y-80180866D01*
X81331248Y-80293118D01*
X81505712Y-80370794D01*
X81692513Y-80410500D01*
X81883487Y-80410500D01*
X82070288Y-80370794D01*
X82244752Y-80293118D01*
X82399253Y-80180866D01*
X82527040Y-80038944D01*
X82622527Y-79873556D01*
X82681542Y-79691928D01*
X82701504Y-79502000D01*
X82681542Y-79312072D01*
X82622527Y-79130444D01*
X82527040Y-78965056D01*
X82399253Y-78823134D01*
X82244752Y-78710882D01*
X82070288Y-78633206D01*
X82070286Y-78633205D01*
X81883487Y-78593500D01*
X81692513Y-78593500D01*
X81505714Y-78633205D01*
X81331246Y-78710883D01*
X81176745Y-78823135D01*
X81048959Y-78965057D01*
X80953473Y-79130443D01*
X80953470Y-79130450D01*
X80915858Y-79246209D01*
X80894458Y-79312072D01*
X80874496Y-79502000D01*
X80161504Y-79502000D01*
X80141542Y-79312072D01*
X80082527Y-79130444D01*
X79987040Y-78965056D01*
X79859253Y-78823134D01*
X79704752Y-78710882D01*
X79530288Y-78633206D01*
X79530286Y-78633205D01*
X79343487Y-78593500D01*
X79152513Y-78593500D01*
X78965714Y-78633205D01*
X78791246Y-78710883D01*
X78636745Y-78823135D01*
X78508959Y-78965057D01*
X78413473Y-79130443D01*
X78413470Y-79130450D01*
X78375858Y-79246209D01*
X78354458Y-79312072D01*
X78334496Y-79502000D01*
X65640897Y-79502000D01*
X65714860Y-79388791D01*
X65805296Y-79182616D01*
X65860564Y-78964368D01*
X65872267Y-78823135D01*
X65879156Y-78740005D01*
X65879156Y-78739994D01*
X65860565Y-78515640D01*
X65860563Y-78515628D01*
X65855640Y-78496187D01*
X65805296Y-78297384D01*
X65714860Y-78091209D01*
X65682191Y-78041206D01*
X65591723Y-77902734D01*
X65591715Y-77902723D01*
X65439243Y-77737097D01*
X65439238Y-77737092D01*
X65261577Y-77598812D01*
X65261578Y-77598812D01*
X65261576Y-77598811D01*
X65225070Y-77579055D01*
X65175479Y-77529836D01*
X65160371Y-77461619D01*
X65184541Y-77396064D01*
X65225070Y-77360945D01*
X65236055Y-77355000D01*
X65261576Y-77341189D01*
X65439240Y-77202906D01*
X65591722Y-77037268D01*
X65714860Y-76848791D01*
X65805296Y-76642616D01*
X65860564Y-76424368D01*
X65866553Y-76352092D01*
X65879156Y-76200005D01*
X65879156Y-76199994D01*
X65860565Y-75975640D01*
X65860563Y-75975628D01*
X65855640Y-75956187D01*
X65805296Y-75757384D01*
X65714860Y-75551209D01*
X65698706Y-75526484D01*
X65591723Y-75362734D01*
X65591715Y-75362723D01*
X65446510Y-75204991D01*
X65415587Y-75142337D01*
X65423447Y-75072911D01*
X65467594Y-75018755D01*
X65494405Y-75004827D01*
X65574584Y-74974920D01*
X65612204Y-74960889D01*
X65729261Y-74873261D01*
X65816889Y-74756204D01*
X65867989Y-74619201D01*
X65873440Y-74568500D01*
X65874499Y-74558654D01*
X65874500Y-74558637D01*
X65874500Y-73152000D01*
X81128496Y-73152000D01*
X81148458Y-73341928D01*
X81148459Y-73341931D01*
X81207470Y-73523549D01*
X81207473Y-73523556D01*
X81302960Y-73688944D01*
X81430747Y-73830866D01*
X81585248Y-73943118D01*
X81759712Y-74020794D01*
X81946513Y-74060500D01*
X82137487Y-74060500D01*
X82324288Y-74020794D01*
X82498752Y-73943118D01*
X82653253Y-73830866D01*
X82781040Y-73688944D01*
X82876527Y-73523556D01*
X82935542Y-73341928D01*
X82955504Y-73152000D01*
X82935542Y-72962072D01*
X82876527Y-72780444D01*
X82781040Y-72615056D01*
X82653253Y-72473134D01*
X82498752Y-72360882D01*
X82324288Y-72283206D01*
X82324286Y-72283205D01*
X82137487Y-72243500D01*
X81946513Y-72243500D01*
X81759714Y-72283205D01*
X81585246Y-72360883D01*
X81430745Y-72473135D01*
X81302959Y-72615057D01*
X81207473Y-72780443D01*
X81207470Y-72780450D01*
X81178737Y-72868883D01*
X81148458Y-72962072D01*
X81128496Y-73152000D01*
X65874500Y-73152000D01*
X65874500Y-72761362D01*
X65874499Y-72761345D01*
X65869797Y-72717616D01*
X65867989Y-72700799D01*
X65816889Y-72563796D01*
X65729261Y-72446739D01*
X65612204Y-72359111D01*
X65612203Y-72359110D01*
X65475203Y-72308011D01*
X65414654Y-72301500D01*
X65414638Y-72301500D01*
X63617362Y-72301500D01*
X63617345Y-72301500D01*
X63556797Y-72308011D01*
X63556795Y-72308011D01*
X63419795Y-72359111D01*
X63302739Y-72446739D01*
X63215111Y-72563795D01*
X63169861Y-72685111D01*
X63127989Y-72741044D01*
X63062524Y-72765460D01*
X62994252Y-72750607D01*
X62962454Y-72725762D01*
X62899240Y-72657094D01*
X62721576Y-72518811D01*
X62721575Y-72518810D01*
X62721572Y-72518808D01*
X62523580Y-72411661D01*
X62523577Y-72411659D01*
X62523574Y-72411658D01*
X62523571Y-72411657D01*
X62523569Y-72411656D01*
X62310637Y-72338556D01*
X62088569Y-72301500D01*
X61863431Y-72301500D01*
X61641362Y-72338556D01*
X61428430Y-72411656D01*
X61428419Y-72411661D01*
X61230427Y-72518808D01*
X61230422Y-72518812D01*
X61052761Y-72657092D01*
X61052756Y-72657097D01*
X60900284Y-72822723D01*
X60900276Y-72822734D01*
X60777140Y-73011207D01*
X60686703Y-73217385D01*
X60631436Y-73435628D01*
X60631434Y-73435640D01*
X60612844Y-73659994D01*
X60612844Y-73660005D01*
X60631434Y-73884359D01*
X60631436Y-73884371D01*
X60686703Y-74102614D01*
X60777140Y-74308792D01*
X60900276Y-74497265D01*
X60900284Y-74497276D01*
X61026967Y-74634888D01*
X61052760Y-74662906D01*
X61230424Y-74801189D01*
X61230429Y-74801191D01*
X61230431Y-74801193D01*
X61266930Y-74820946D01*
X61316520Y-74870165D01*
X61331628Y-74938382D01*
X61307457Y-75003937D01*
X61266930Y-75039054D01*
X61230431Y-75058806D01*
X61230422Y-75058812D01*
X61052761Y-75197092D01*
X61052756Y-75197097D01*
X60900284Y-75362723D01*
X60900276Y-75362734D01*
X60777140Y-75551207D01*
X60686703Y-75757385D01*
X60631436Y-75975628D01*
X60631434Y-75975640D01*
X60612844Y-76199994D01*
X60612844Y-76200005D01*
X60631434Y-76424359D01*
X60631436Y-76424371D01*
X60686703Y-76642614D01*
X60777140Y-76848792D01*
X60900276Y-77037265D01*
X60900284Y-77037276D01*
X61052756Y-77202902D01*
X61052760Y-77202906D01*
X61230424Y-77341189D01*
X61230429Y-77341191D01*
X61230431Y-77341193D01*
X61266930Y-77360946D01*
X61316520Y-77410165D01*
X61331628Y-77478382D01*
X61307457Y-77543937D01*
X61266930Y-77579054D01*
X61230431Y-77598806D01*
X61230422Y-77598812D01*
X61052761Y-77737092D01*
X61052756Y-77737097D01*
X60900284Y-77902723D01*
X60900276Y-77902734D01*
X60777140Y-78091207D01*
X60686703Y-78297385D01*
X60631436Y-78515628D01*
X60631434Y-78515640D01*
X60612844Y-78739994D01*
X60612844Y-78740005D01*
X60631434Y-78964359D01*
X60631436Y-78964371D01*
X60686703Y-79182614D01*
X60777140Y-79388792D01*
X60900276Y-79577265D01*
X60900284Y-79577276D01*
X61052756Y-79742902D01*
X61052761Y-79742907D01*
X61069583Y-79756000D01*
X61230424Y-79881189D01*
X61230429Y-79881191D01*
X61230431Y-79881193D01*
X61266930Y-79900946D01*
X61316520Y-79950165D01*
X61331628Y-80018382D01*
X61307457Y-80083937D01*
X61266930Y-80119054D01*
X61230431Y-80138806D01*
X61230422Y-80138812D01*
X61052761Y-80277092D01*
X61052756Y-80277097D01*
X60900284Y-80442723D01*
X60900276Y-80442734D01*
X60777140Y-80631207D01*
X60686703Y-80837385D01*
X60631436Y-81055628D01*
X60631434Y-81055640D01*
X60612844Y-81279994D01*
X60612844Y-81280005D01*
X60631434Y-81504359D01*
X60631436Y-81504371D01*
X60686703Y-81722614D01*
X60777140Y-81928792D01*
X60900276Y-82117265D01*
X60900284Y-82117276D01*
X61044622Y-82274066D01*
X61052760Y-82282906D01*
X61230424Y-82421189D01*
X61230429Y-82421191D01*
X61230431Y-82421193D01*
X61266930Y-82440946D01*
X61316520Y-82490165D01*
X61331628Y-82558382D01*
X61307457Y-82623937D01*
X61266930Y-82659054D01*
X61230431Y-82678806D01*
X61230422Y-82678812D01*
X61052761Y-82817092D01*
X61052756Y-82817097D01*
X60900284Y-82982723D01*
X60900276Y-82982734D01*
X60777140Y-83171207D01*
X60686703Y-83377385D01*
X60631436Y-83595628D01*
X60631434Y-83595640D01*
X60612844Y-83819994D01*
X60612844Y-83820005D01*
X60631434Y-84044359D01*
X60631436Y-84044371D01*
X60686703Y-84262614D01*
X60777140Y-84468792D01*
X60900276Y-84657265D01*
X60900284Y-84657276D01*
X61052756Y-84822902D01*
X61052760Y-84822906D01*
X61230424Y-84961189D01*
X61230429Y-84961191D01*
X61230431Y-84961193D01*
X61266930Y-84980946D01*
X61316520Y-85030165D01*
X61331628Y-85098382D01*
X61307457Y-85163937D01*
X61266930Y-85199054D01*
X61230431Y-85218806D01*
X61230422Y-85218812D01*
X61052761Y-85357092D01*
X61052756Y-85357097D01*
X60900284Y-85522723D01*
X60900276Y-85522734D01*
X60777140Y-85711207D01*
X60686703Y-85917385D01*
X60631436Y-86135628D01*
X60631434Y-86135640D01*
X60612844Y-86359994D01*
X60612844Y-86360005D01*
X60631434Y-86584359D01*
X60631436Y-86584371D01*
X60686703Y-86802614D01*
X60777140Y-87008792D01*
X60900276Y-87197265D01*
X60900284Y-87197276D01*
X61052756Y-87362902D01*
X61052760Y-87362906D01*
X61230424Y-87501189D01*
X61266930Y-87520945D01*
X61316519Y-87570162D01*
X61331629Y-87638378D01*
X61307459Y-87703934D01*
X61266932Y-87739052D01*
X61230432Y-87758805D01*
X61230422Y-87758812D01*
X61052761Y-87897092D01*
X61052756Y-87897097D01*
X60900284Y-88062723D01*
X60900276Y-88062734D01*
X60777140Y-88251207D01*
X60686703Y-88457385D01*
X60631436Y-88675628D01*
X60631434Y-88675640D01*
X60612844Y-88899994D01*
X60612844Y-88900005D01*
X60631434Y-89124359D01*
X60631436Y-89124371D01*
X60686703Y-89342614D01*
X60777140Y-89548792D01*
X60900276Y-89737265D01*
X60900284Y-89737276D01*
X61052756Y-89902902D01*
X61052760Y-89902906D01*
X61230424Y-90041189D01*
X61230429Y-90041191D01*
X61230431Y-90041193D01*
X61266930Y-90060946D01*
X61316520Y-90110165D01*
X61331628Y-90178382D01*
X61307457Y-90243937D01*
X61266930Y-90279054D01*
X61230431Y-90298806D01*
X61230422Y-90298812D01*
X61052761Y-90437092D01*
X61052756Y-90437097D01*
X60900284Y-90602723D01*
X60900276Y-90602734D01*
X60777140Y-90791207D01*
X60686703Y-90997385D01*
X60631436Y-91215628D01*
X60631434Y-91215640D01*
X60612844Y-91439994D01*
X60612844Y-91440005D01*
X60631434Y-91664359D01*
X60631436Y-91664371D01*
X60686703Y-91882614D01*
X60777140Y-92088792D01*
X60900276Y-92277265D01*
X60900284Y-92277276D01*
X61052756Y-92442902D01*
X61052760Y-92442906D01*
X61230424Y-92581189D01*
X61230429Y-92581191D01*
X61230431Y-92581193D01*
X61266930Y-92600946D01*
X61316520Y-92650165D01*
X61331628Y-92718382D01*
X61307457Y-92783937D01*
X61266930Y-92819054D01*
X61230431Y-92838806D01*
X61230422Y-92838812D01*
X61052761Y-92977092D01*
X61052756Y-92977097D01*
X60900284Y-93142723D01*
X60900276Y-93142734D01*
X60777140Y-93331207D01*
X60686703Y-93537385D01*
X60631436Y-93755628D01*
X60631434Y-93755640D01*
X60612844Y-93979994D01*
X60612844Y-93980005D01*
X60631434Y-94204359D01*
X60631436Y-94204371D01*
X60686703Y-94422614D01*
X60777140Y-94628792D01*
X60900276Y-94817265D01*
X60900284Y-94817276D01*
X61044622Y-94974066D01*
X61052760Y-94982906D01*
X61230424Y-95121189D01*
X61230429Y-95121191D01*
X61230431Y-95121193D01*
X61266930Y-95140946D01*
X61316520Y-95190165D01*
X61331628Y-95258382D01*
X61307457Y-95323937D01*
X61266930Y-95359054D01*
X61230431Y-95378806D01*
X61230422Y-95378812D01*
X61052761Y-95517092D01*
X61052756Y-95517097D01*
X60900284Y-95682723D01*
X60900276Y-95682734D01*
X60777140Y-95871207D01*
X60686703Y-96077385D01*
X60631436Y-96295628D01*
X60631434Y-96295640D01*
X60612844Y-96519994D01*
X60612844Y-96520005D01*
X60631434Y-96744359D01*
X60631436Y-96744371D01*
X60686703Y-96962614D01*
X60777140Y-97168792D01*
X60900276Y-97357265D01*
X60900284Y-97357276D01*
X61052756Y-97522902D01*
X61052760Y-97522906D01*
X61230424Y-97661189D01*
X61230429Y-97661191D01*
X61230431Y-97661193D01*
X61266930Y-97680946D01*
X61316520Y-97730165D01*
X61331628Y-97798382D01*
X61307457Y-97863937D01*
X61266930Y-97899054D01*
X61230431Y-97918806D01*
X61230422Y-97918812D01*
X61052761Y-98057092D01*
X61052756Y-98057097D01*
X60900284Y-98222723D01*
X60900276Y-98222734D01*
X60777140Y-98411207D01*
X60686703Y-98617385D01*
X60631436Y-98835628D01*
X60631434Y-98835640D01*
X60612844Y-99059994D01*
X60612844Y-99060005D01*
X60631434Y-99284359D01*
X60631436Y-99284371D01*
X60686703Y-99502614D01*
X60777140Y-99708792D01*
X60900276Y-99897265D01*
X60900284Y-99897276D01*
X61052756Y-100062902D01*
X61052760Y-100062906D01*
X61230424Y-100201189D01*
X61266930Y-100220945D01*
X61316519Y-100270162D01*
X61331629Y-100338378D01*
X61307459Y-100403934D01*
X61266932Y-100439052D01*
X61230432Y-100458805D01*
X61230422Y-100458812D01*
X61052761Y-100597092D01*
X61052756Y-100597097D01*
X60900284Y-100762723D01*
X60900276Y-100762734D01*
X60777140Y-100951207D01*
X60686703Y-101157385D01*
X60631436Y-101375628D01*
X60631434Y-101375640D01*
X60612844Y-101599994D01*
X60612844Y-101600005D01*
X60631434Y-101824359D01*
X60631436Y-101824371D01*
X60686703Y-102042614D01*
X60777140Y-102248792D01*
X60900276Y-102437265D01*
X60900284Y-102437276D01*
X61052756Y-102602902D01*
X61052760Y-102602906D01*
X61230424Y-102741189D01*
X61255945Y-102755000D01*
X61273695Y-102764606D01*
X61323286Y-102813825D01*
X61338394Y-102882042D01*
X61314224Y-102947597D01*
X61285802Y-102975236D01*
X61104922Y-103101890D01*
X61104920Y-103101891D01*
X60937891Y-103268920D01*
X60937886Y-103268926D01*
X60802400Y-103462420D01*
X60802399Y-103462422D01*
X60702570Y-103676507D01*
X60702567Y-103676513D01*
X60645364Y-103889999D01*
X60645364Y-103890000D01*
X61362653Y-103890000D01*
X61429692Y-103909685D01*
X61475447Y-103962489D01*
X61485391Y-104031647D01*
X61481631Y-104048933D01*
X61476000Y-104068111D01*
X61476000Y-104211888D01*
X61481631Y-104231067D01*
X61481630Y-104300936D01*
X61443855Y-104359714D01*
X61380299Y-104388738D01*
X61362653Y-104390000D01*
X60645364Y-104390000D01*
X60702567Y-104603486D01*
X60702570Y-104603492D01*
X60802399Y-104817578D01*
X60937894Y-105011082D01*
X61104917Y-105178105D01*
X61285802Y-105304763D01*
X61329427Y-105359340D01*
X61336619Y-105428839D01*
X61305097Y-105491193D01*
X61273697Y-105515392D01*
X61230427Y-105538809D01*
X61230422Y-105538812D01*
X61052761Y-105677092D01*
X61052756Y-105677097D01*
X60900284Y-105842723D01*
X60900276Y-105842734D01*
X60777140Y-106031207D01*
X60686703Y-106237385D01*
X60631436Y-106455628D01*
X60631434Y-106455640D01*
X60612844Y-106679994D01*
X60612844Y-106680005D01*
X60631434Y-106904359D01*
X60631436Y-106904371D01*
X60686703Y-107122614D01*
X60777140Y-107328792D01*
X60900276Y-107517265D01*
X60900284Y-107517276D01*
X61044622Y-107674066D01*
X61052760Y-107682906D01*
X61230424Y-107821189D01*
X61230429Y-107821191D01*
X61230431Y-107821193D01*
X61266930Y-107840946D01*
X61316520Y-107890165D01*
X61331628Y-107958382D01*
X61307457Y-108023937D01*
X61266930Y-108059054D01*
X61230431Y-108078806D01*
X61230422Y-108078812D01*
X61052761Y-108217092D01*
X61052756Y-108217097D01*
X60900284Y-108382723D01*
X60900276Y-108382734D01*
X60777140Y-108571207D01*
X60686703Y-108777385D01*
X60631436Y-108995628D01*
X60631434Y-108995640D01*
X60612844Y-109219994D01*
X60612844Y-109220005D01*
X60000500Y-109220005D01*
X60000500Y-67000000D01*
X62695065Y-67000000D01*
X62714784Y-67300852D01*
X62714786Y-67300864D01*
X62773602Y-67596553D01*
X62773607Y-67596573D01*
X62870514Y-67882052D01*
X62870518Y-67882062D01*
X63003868Y-68152469D01*
X63171371Y-68403155D01*
X63171374Y-68403159D01*
X63204973Y-68441470D01*
X63204974Y-68441470D01*
X63607413Y-68039032D01*
X63668736Y-68005547D01*
X63738428Y-68010531D01*
X63789381Y-68046179D01*
X63865130Y-68134870D01*
X63928855Y-68189296D01*
X63953816Y-68210615D01*
X63992009Y-68269122D01*
X63992507Y-68338990D01*
X63960965Y-68392586D01*
X63558528Y-68795024D01*
X63558528Y-68795025D01*
X63596840Y-68828625D01*
X63596844Y-68828628D01*
X63847530Y-68996131D01*
X64117937Y-69129481D01*
X64117947Y-69129485D01*
X64403426Y-69226392D01*
X64403446Y-69226397D01*
X64699135Y-69285213D01*
X64699147Y-69285215D01*
X65000000Y-69304934D01*
X65300852Y-69285215D01*
X65300864Y-69285213D01*
X65596553Y-69226397D01*
X65596573Y-69226392D01*
X65882052Y-69129485D01*
X65882062Y-69129481D01*
X66152469Y-68996131D01*
X66403157Y-68828627D01*
X66441470Y-68795025D01*
X66441470Y-68795023D01*
X66039033Y-68392586D01*
X66005548Y-68331263D01*
X66010532Y-68261571D01*
X66046180Y-68210617D01*
X66134870Y-68134870D01*
X66210617Y-68046180D01*
X66269121Y-68007990D01*
X66338989Y-68007490D01*
X66392586Y-68039033D01*
X66795023Y-68441470D01*
X66795025Y-68441470D01*
X66828627Y-68403157D01*
X66996131Y-68152469D01*
X67129481Y-67882062D01*
X67129485Y-67882052D01*
X67226392Y-67596573D01*
X67226397Y-67596553D01*
X67285213Y-67300864D01*
X67285215Y-67300852D01*
X67304934Y-67000000D01*
X67285215Y-66699147D01*
X67285213Y-66699135D01*
X67226397Y-66403446D01*
X67226393Y-66403431D01*
X67129483Y-66117944D01*
X67129474Y-66117923D01*
X67058992Y-65975000D01*
X81064364Y-65975000D01*
X81121567Y-66188486D01*
X81121570Y-66188492D01*
X81221399Y-66402578D01*
X81356894Y-66596082D01*
X81523917Y-66763105D01*
X81717421Y-66898600D01*
X81931507Y-66998429D01*
X81931516Y-66998433D01*
X82145000Y-67055634D01*
X82145000Y-66337301D01*
X82164685Y-66270262D01*
X82217489Y-66224507D01*
X82286647Y-66214563D01*
X82359237Y-66225000D01*
X82359238Y-66225000D01*
X82430762Y-66225000D01*
X82430763Y-66225000D01*
X82503353Y-66214563D01*
X82572512Y-66224507D01*
X82625315Y-66270262D01*
X82645000Y-66337301D01*
X82645000Y-67055633D01*
X82858483Y-66998433D01*
X82858492Y-66998429D01*
X83072578Y-66898600D01*
X83266082Y-66763105D01*
X83433105Y-66596082D01*
X83559868Y-66415048D01*
X83614445Y-66371423D01*
X83683944Y-66364231D01*
X83746298Y-66395753D01*
X83765251Y-66418350D01*
X83859276Y-66562265D01*
X83859284Y-66562276D01*
X84011756Y-66727902D01*
X84011761Y-66727907D01*
X84043209Y-66752384D01*
X84189424Y-66866189D01*
X84189425Y-66866189D01*
X84189427Y-66866191D01*
X84245443Y-66896505D01*
X84387426Y-66973342D01*
X84600365Y-67046444D01*
X84822431Y-67083500D01*
X85047569Y-67083500D01*
X85269635Y-67046444D01*
X85482574Y-66973342D01*
X85680576Y-66866189D01*
X85858240Y-66727906D01*
X85921452Y-66659239D01*
X85981337Y-66623250D01*
X86051175Y-66625349D01*
X86108791Y-66664873D01*
X86128861Y-66699888D01*
X86163493Y-66792736D01*
X86174111Y-66821204D01*
X86261739Y-66938261D01*
X86378796Y-67025889D01*
X86515799Y-67076989D01*
X86543050Y-67079918D01*
X86576345Y-67083499D01*
X86576362Y-67083500D01*
X88373638Y-67083500D01*
X88373654Y-67083499D01*
X88400692Y-67080591D01*
X88434201Y-67076989D01*
X88571204Y-67025889D01*
X88688261Y-66938261D01*
X88775889Y-66821204D01*
X88826989Y-66684201D01*
X88832603Y-66631984D01*
X88833499Y-66623654D01*
X88833500Y-66623637D01*
X88833500Y-64826362D01*
X88833499Y-64826345D01*
X88829053Y-64784996D01*
X88826989Y-64765799D01*
X88811773Y-64725005D01*
X88797559Y-64686894D01*
X88775889Y-64628796D01*
X88688261Y-64511739D01*
X88571204Y-64424111D01*
X88571203Y-64424110D01*
X88434203Y-64373011D01*
X88373654Y-64366500D01*
X88373638Y-64366500D01*
X86576362Y-64366500D01*
X86576345Y-64366500D01*
X86515797Y-64373011D01*
X86515795Y-64373011D01*
X86378795Y-64424111D01*
X86261739Y-64511739D01*
X86174111Y-64628795D01*
X86128861Y-64750111D01*
X86086989Y-64806044D01*
X86021524Y-64830460D01*
X85953252Y-64815607D01*
X85921454Y-64790762D01*
X85858240Y-64722094D01*
X85680576Y-64583811D01*
X85680575Y-64583810D01*
X85680572Y-64583808D01*
X85482580Y-64476661D01*
X85482577Y-64476659D01*
X85482574Y-64476658D01*
X85482571Y-64476657D01*
X85482569Y-64476656D01*
X85269637Y-64403556D01*
X85047569Y-64366500D01*
X84822431Y-64366500D01*
X84600362Y-64403556D01*
X84387430Y-64476656D01*
X84387419Y-64476661D01*
X84189427Y-64583808D01*
X84189422Y-64583812D01*
X84011761Y-64722092D01*
X84011756Y-64722097D01*
X83859284Y-64887723D01*
X83859276Y-64887734D01*
X83765251Y-65031650D01*
X83712105Y-65077007D01*
X83642873Y-65086430D01*
X83579538Y-65056928D01*
X83559868Y-65034951D01*
X83433113Y-64853926D01*
X83433108Y-64853920D01*
X83266082Y-64686894D01*
X83072578Y-64551399D01*
X82858492Y-64451570D01*
X82858486Y-64451567D01*
X82645000Y-64394364D01*
X82645000Y-65112698D01*
X82625315Y-65179737D01*
X82572511Y-65225492D01*
X82503355Y-65235436D01*
X82430766Y-65225000D01*
X82430763Y-65225000D01*
X82359237Y-65225000D01*
X82359233Y-65225000D01*
X82286645Y-65235436D01*
X82217487Y-65225492D01*
X82164684Y-65179736D01*
X82145000Y-65112698D01*
X82145000Y-64394364D01*
X82144999Y-64394364D01*
X81931513Y-64451567D01*
X81931507Y-64451570D01*
X81717422Y-64551399D01*
X81717420Y-64551400D01*
X81523926Y-64686886D01*
X81523920Y-64686891D01*
X81356891Y-64853920D01*
X81356886Y-64853926D01*
X81221400Y-65047420D01*
X81221399Y-65047422D01*
X81121570Y-65261507D01*
X81121567Y-65261513D01*
X81064364Y-65474999D01*
X81064364Y-65475000D01*
X81781653Y-65475000D01*
X81848692Y-65494685D01*
X81894447Y-65547489D01*
X81904391Y-65616647D01*
X81900631Y-65633933D01*
X81895000Y-65653111D01*
X81895000Y-65796888D01*
X81900631Y-65816067D01*
X81900630Y-65885936D01*
X81862855Y-65944714D01*
X81799299Y-65973738D01*
X81781653Y-65975000D01*
X81064364Y-65975000D01*
X67058992Y-65975000D01*
X66996129Y-65847528D01*
X66828633Y-65596851D01*
X66828625Y-65596840D01*
X66795025Y-65558528D01*
X66795024Y-65558528D01*
X66392586Y-65960965D01*
X66331263Y-65994450D01*
X66261571Y-65989466D01*
X66210615Y-65953816D01*
X66185445Y-65924346D01*
X66134870Y-65865130D01*
X66046179Y-65789381D01*
X66007989Y-65730878D01*
X66007489Y-65661010D01*
X66039032Y-65607413D01*
X66441470Y-65204974D01*
X66441470Y-65204973D01*
X66403159Y-65171374D01*
X66403155Y-65171371D01*
X66152469Y-65003868D01*
X65882062Y-64870518D01*
X65882052Y-64870514D01*
X65596573Y-64773607D01*
X65596553Y-64773602D01*
X65300864Y-64714786D01*
X65300852Y-64714784D01*
X65000000Y-64695065D01*
X64699147Y-64714784D01*
X64699135Y-64714786D01*
X64403446Y-64773602D01*
X64403431Y-64773606D01*
X64117944Y-64870516D01*
X64117923Y-64870525D01*
X63847528Y-65003870D01*
X63596844Y-65171370D01*
X63596837Y-65171376D01*
X63558528Y-65204972D01*
X63558527Y-65204974D01*
X63960966Y-65607413D01*
X63994451Y-65668736D01*
X63989467Y-65738428D01*
X63953817Y-65789384D01*
X63865130Y-65865130D01*
X63789384Y-65953817D01*
X63730877Y-65992010D01*
X63661009Y-65992508D01*
X63607413Y-65960966D01*
X63204974Y-65558527D01*
X63204972Y-65558528D01*
X63171376Y-65596837D01*
X63171370Y-65596844D01*
X63003870Y-65847528D01*
X62870525Y-66117923D01*
X62870516Y-66117944D01*
X62773606Y-66403431D01*
X62773602Y-66403446D01*
X62714786Y-66699135D01*
X62714784Y-66699147D01*
X62695065Y-67000000D01*
X60000500Y-67000000D01*
X60009513Y-66782082D01*
X60010515Y-66759141D01*
X60018157Y-66584084D01*
X60018571Y-66579162D01*
X60045516Y-66362989D01*
X60046209Y-66357734D01*
X60071885Y-66162699D01*
X60072657Y-66158171D01*
X60117222Y-65945631D01*
X60123655Y-65916619D01*
X60161148Y-65747497D01*
X60162247Y-65743254D01*
X60224140Y-65535362D01*
X60285319Y-65341328D01*
X60286652Y-65337543D01*
X60365505Y-65135459D01*
X60443469Y-64947237D01*
X60445021Y-64943796D01*
X60540294Y-64748912D01*
X60634479Y-64567985D01*
X60636167Y-64564957D01*
X60747253Y-64378531D01*
X60856964Y-64206320D01*
X60858721Y-64203716D01*
X60984891Y-64027005D01*
X61109290Y-63864886D01*
X61111097Y-63862645D01*
X61251477Y-63696899D01*
X61390538Y-63545140D01*
X61545138Y-63390540D01*
X61696897Y-63251478D01*
X61862594Y-63111141D01*
X61864913Y-63109272D01*
X61891365Y-63088973D01*
X62027037Y-62984868D01*
X62203727Y-62858714D01*
X62206282Y-62856990D01*
X62378560Y-62747235D01*
X62564925Y-62636187D01*
X62567979Y-62634483D01*
X62748935Y-62540282D01*
X62943802Y-62445018D01*
X62947201Y-62443485D01*
X63101355Y-62379633D01*
X63135518Y-62365483D01*
X63167939Y-62352831D01*
X63337522Y-62286660D01*
X63341322Y-62285322D01*
X63535378Y-62224135D01*
X63743245Y-62162250D01*
X63747470Y-62161154D01*
X63945714Y-62117204D01*
X64158114Y-62072669D01*
X64162702Y-62071887D01*
X64363097Y-62045503D01*
X64579137Y-62018574D01*
X64584085Y-62018158D01*
X64782173Y-62009509D01*
X65000000Y-62000500D01*
X65000500Y-62000500D01*
X124999500Y-62000500D01*
X125000000Y-62000500D01*
X125218129Y-62009522D01*
G37*
G04 #@! TD.AperFunction*
M02*
