M48
; DRILL file {KiCad 7.0.7} date Sun Oct  8 00:04:53 2023
; FORMAT={-:-/ absolute / metric / decimal}
; #@! TF.CreationDate,2023-10-08T00:04:53-07:00
; #@! TF.GenerationSoftware,Kicad,Pcbnew,7.0.7
; #@! TF.FileFunction,Plated,1,4,PTH
FMAT,2
METRIC
; #@! TA.AperFunction,Plated,PTH,ViaDrill
T1C0.400
; #@! TA.AperFunction,Plated,PTH,ComponentDrill
T2C1.000
; #@! TA.AperFunction,Plated,PTH,ComponentDrill
T3C1.020
; #@! TA.AperFunction,Plated,PTH,ComponentDrill
T4C3.200
%
G90
G05
T1
X66.802Y-105.664
X72.644Y-102.87
X73.147Y-101.595
X74.163Y-100.325
X75.174Y-99.51
X75.692Y-116.078
X78.25Y-115.75
X78.994Y-101.335
X79.248Y-79.502
X81.788Y-79.502
X82.042Y-101.335
X82.042Y-73.152
X82.804Y-87.122
X83.82Y-95.25
X85.344Y-87.122
X88.392Y-93.98
X101.854Y-104.394
X123.698Y-80.772
X125.73Y-73.66
X125.73Y-79.756
T2
X61.976Y-73.66
X61.976Y-76.2
X61.976Y-78.74
X61.976Y-81.28
X61.976Y-83.82
X61.976Y-86.36
X61.976Y-88.9
X61.976Y-91.44
X61.976Y-93.98
X61.976Y-96.52
X61.976Y-99.06
X61.976Y-101.6
X61.976Y-104.14
X61.976Y-106.68
X61.976Y-109.22
X64.516Y-73.66
X64.516Y-76.2
X64.516Y-78.74
X64.516Y-81.28
X64.516Y-83.82
X64.516Y-86.36
X64.516Y-88.9
X64.516Y-91.44
X64.516Y-93.98
X64.516Y-96.52
X64.516Y-99.06
X64.516Y-101.6
X64.516Y-104.14
X64.516Y-106.68
X64.516Y-109.22
X82.395Y-65.725
X82.395Y-117.226
X84.935Y-65.725
X84.935Y-117.226
X87.475Y-65.725
X87.475Y-117.226
T3
X99.295Y-64.655
X99.295Y-67.195
X99.295Y-69.735
X99.295Y-72.275
X99.295Y-74.815
X99.295Y-77.355
X99.295Y-79.895
X99.295Y-82.435
X99.295Y-84.975
X99.295Y-87.515
X99.295Y-90.055
X99.295Y-92.595
X99.295Y-95.135
X99.295Y-97.675
X99.295Y-100.215
X99.295Y-102.755
X99.295Y-105.295
X99.295Y-107.835
X99.295Y-110.375
X99.295Y-112.915
X105.645Y-112.685
X108.185Y-112.685
X110.725Y-112.685
X117.075Y-64.655
X117.075Y-67.195
X117.075Y-69.735
X117.075Y-72.275
X117.075Y-74.815
X117.075Y-77.355
X117.075Y-79.895
X117.075Y-82.435
X117.075Y-84.975
X117.075Y-87.515
X117.075Y-90.055
X117.075Y-92.595
X117.075Y-95.135
X117.075Y-97.675
X117.075Y-100.215
X117.075Y-102.755
X117.075Y-105.295
X117.075Y-107.835
X117.075Y-110.375
X117.075Y-112.915
T4
X65.0Y-67.0
X65.0Y-117.0
X125.0Y-67.0
X125.0Y-117.0
T0
M30
