%TF.GenerationSoftware,KiCad,Pcbnew,7.0.7*%
%TF.CreationDate,2023-10-08T00:04:54-07:00*%
%TF.ProjectId,LogicAnalyzer,4c6f6769-6341-46e6-916c-797a65722e6b,rev?*%
%TF.SameCoordinates,Original*%
%TF.FileFunction,Drillmap*%
%TF.FilePolarity,Positive*%
%FSLAX45Y45*%
G04 Gerber Fmt 4.5, Leading zero omitted, Abs format (unit mm)*
G04 Created by KiCad (PCBNEW 7.0.7) date 2023-10-08 00:04:54*
%MOMM*%
%LPD*%
G01*
G04 APERTURE LIST*
%ADD10C,0.100000*%
%ADD11C,0.200000*%
%ADD12C,0.090000*%
%ADD13C,0.150000*%
%ADD14C,0.180000*%
G04 APERTURE END LIST*
D10*
X7700000Y-12075000D02*
X7800000Y-12200000D01*
X7650000Y-12075000D02*
X7700000Y-12075000D01*
X7300000Y-12075000D02*
X7650000Y-12075000D01*
X7200000Y-12200000D02*
X7300000Y-12075000D01*
X6500000Y-12200000D02*
X7200000Y-12200000D01*
X6000000Y-11700000D02*
X6000000Y-6700000D01*
X12500000Y-12200000D02*
X7800000Y-12200000D01*
X13000000Y-6700000D02*
X13000000Y-11700000D01*
X6500000Y-6200000D02*
X12500000Y-6200000D01*
X6000000Y-11700000D02*
G75*
G03*
X6500000Y-12200000I500000J0D01*
G01*
X12500000Y-12200000D02*
G75*
G03*
X13000000Y-11700000I0J500000D01*
G01*
X13000000Y-6700000D02*
G75*
G03*
X12500000Y-6200000I-500000J0D01*
G01*
X6500000Y-6200000D02*
G75*
G03*
X6000000Y-6700000I0J-500000D01*
G01*
D11*
D12*
X7298000Y-11900600D02*
X7388000Y-11990600D01*
X7388000Y-11900600D02*
X7298000Y-11990600D01*
X7598000Y-11900600D02*
X7688000Y-11990600D01*
X7688000Y-11900600D02*
X7598000Y-11990600D01*
D13*
X10651000Y-6781500D02*
G75*
G03*
X10651000Y-6781500I-75000J0D01*
G01*
X11136000Y-6781500D02*
G75*
G03*
X11136000Y-6781500I-75000J0D01*
G01*
D14*
X10546000Y-6388500D02*
X10546000Y-6568500D01*
X10456000Y-6478500D02*
X10636000Y-6478500D01*
X11091000Y-6388500D02*
X11091000Y-6568500D01*
X11001000Y-6478500D02*
X11181000Y-6478500D01*
D11*
X6255777Y-12516484D02*
X6255777Y-12316484D01*
X6255777Y-12316484D02*
X6303396Y-12316484D01*
X6303396Y-12316484D02*
X6331967Y-12326008D01*
X6331967Y-12326008D02*
X6351015Y-12345055D01*
X6351015Y-12345055D02*
X6360539Y-12364103D01*
X6360539Y-12364103D02*
X6370062Y-12402198D01*
X6370062Y-12402198D02*
X6370062Y-12430769D01*
X6370062Y-12430769D02*
X6360539Y-12468865D01*
X6360539Y-12468865D02*
X6351015Y-12487912D01*
X6351015Y-12487912D02*
X6331967Y-12506960D01*
X6331967Y-12506960D02*
X6303396Y-12516484D01*
X6303396Y-12516484D02*
X6255777Y-12516484D01*
X6455777Y-12516484D02*
X6455777Y-12383150D01*
X6455777Y-12421246D02*
X6465301Y-12402198D01*
X6465301Y-12402198D02*
X6474824Y-12392674D01*
X6474824Y-12392674D02*
X6493872Y-12383150D01*
X6493872Y-12383150D02*
X6512920Y-12383150D01*
X6579586Y-12516484D02*
X6579586Y-12383150D01*
X6579586Y-12316484D02*
X6570062Y-12326008D01*
X6570062Y-12326008D02*
X6579586Y-12335531D01*
X6579586Y-12335531D02*
X6589110Y-12326008D01*
X6589110Y-12326008D02*
X6579586Y-12316484D01*
X6579586Y-12316484D02*
X6579586Y-12335531D01*
X6703396Y-12516484D02*
X6684348Y-12506960D01*
X6684348Y-12506960D02*
X6674824Y-12487912D01*
X6674824Y-12487912D02*
X6674824Y-12316484D01*
X6808158Y-12516484D02*
X6789110Y-12506960D01*
X6789110Y-12506960D02*
X6779586Y-12487912D01*
X6779586Y-12487912D02*
X6779586Y-12316484D01*
X7036729Y-12516484D02*
X7036729Y-12316484D01*
X7036729Y-12316484D02*
X7103396Y-12459341D01*
X7103396Y-12459341D02*
X7170062Y-12316484D01*
X7170062Y-12316484D02*
X7170062Y-12516484D01*
X7351015Y-12516484D02*
X7351015Y-12411722D01*
X7351015Y-12411722D02*
X7341491Y-12392674D01*
X7341491Y-12392674D02*
X7322443Y-12383150D01*
X7322443Y-12383150D02*
X7284348Y-12383150D01*
X7284348Y-12383150D02*
X7265301Y-12392674D01*
X7351015Y-12506960D02*
X7331967Y-12516484D01*
X7331967Y-12516484D02*
X7284348Y-12516484D01*
X7284348Y-12516484D02*
X7265301Y-12506960D01*
X7265301Y-12506960D02*
X7255777Y-12487912D01*
X7255777Y-12487912D02*
X7255777Y-12468865D01*
X7255777Y-12468865D02*
X7265301Y-12449817D01*
X7265301Y-12449817D02*
X7284348Y-12440293D01*
X7284348Y-12440293D02*
X7331967Y-12440293D01*
X7331967Y-12440293D02*
X7351015Y-12430769D01*
X7446253Y-12383150D02*
X7446253Y-12583150D01*
X7446253Y-12392674D02*
X7465301Y-12383150D01*
X7465301Y-12383150D02*
X7503396Y-12383150D01*
X7503396Y-12383150D02*
X7522443Y-12392674D01*
X7522443Y-12392674D02*
X7531967Y-12402198D01*
X7531967Y-12402198D02*
X7541491Y-12421246D01*
X7541491Y-12421246D02*
X7541491Y-12478388D01*
X7541491Y-12478388D02*
X7531967Y-12497436D01*
X7531967Y-12497436D02*
X7522443Y-12506960D01*
X7522443Y-12506960D02*
X7503396Y-12516484D01*
X7503396Y-12516484D02*
X7465301Y-12516484D01*
X7465301Y-12516484D02*
X7446253Y-12506960D01*
X7627205Y-12497436D02*
X7636729Y-12506960D01*
X7636729Y-12506960D02*
X7627205Y-12516484D01*
X7627205Y-12516484D02*
X7617682Y-12506960D01*
X7617682Y-12506960D02*
X7627205Y-12497436D01*
X7627205Y-12497436D02*
X7627205Y-12516484D01*
X7627205Y-12392674D02*
X7636729Y-12402198D01*
X7636729Y-12402198D02*
X7627205Y-12411722D01*
X7627205Y-12411722D02*
X7617682Y-12402198D01*
X7617682Y-12402198D02*
X7627205Y-12392674D01*
X7627205Y-12392674D02*
X7627205Y-12411722D01*
D12*
X5905000Y-12800000D02*
X5995000Y-12890000D01*
X5995000Y-12800000D02*
X5905000Y-12890000D01*
D11*
X6293872Y-12736484D02*
X6312920Y-12736484D01*
X6312920Y-12736484D02*
X6331967Y-12746008D01*
X6331967Y-12746008D02*
X6341491Y-12755531D01*
X6341491Y-12755531D02*
X6351015Y-12774579D01*
X6351015Y-12774579D02*
X6360539Y-12812674D01*
X6360539Y-12812674D02*
X6360539Y-12860293D01*
X6360539Y-12860293D02*
X6351015Y-12898388D01*
X6351015Y-12898388D02*
X6341491Y-12917436D01*
X6341491Y-12917436D02*
X6331967Y-12926960D01*
X6331967Y-12926960D02*
X6312920Y-12936484D01*
X6312920Y-12936484D02*
X6293872Y-12936484D01*
X6293872Y-12936484D02*
X6274824Y-12926960D01*
X6274824Y-12926960D02*
X6265301Y-12917436D01*
X6265301Y-12917436D02*
X6255777Y-12898388D01*
X6255777Y-12898388D02*
X6246253Y-12860293D01*
X6246253Y-12860293D02*
X6246253Y-12812674D01*
X6246253Y-12812674D02*
X6255777Y-12774579D01*
X6255777Y-12774579D02*
X6265301Y-12755531D01*
X6265301Y-12755531D02*
X6274824Y-12746008D01*
X6274824Y-12746008D02*
X6293872Y-12736484D01*
X6446253Y-12917436D02*
X6455777Y-12926960D01*
X6455777Y-12926960D02*
X6446253Y-12936484D01*
X6446253Y-12936484D02*
X6436729Y-12926960D01*
X6436729Y-12926960D02*
X6446253Y-12917436D01*
X6446253Y-12917436D02*
X6446253Y-12936484D01*
X6551015Y-12936484D02*
X6589110Y-12936484D01*
X6589110Y-12936484D02*
X6608158Y-12926960D01*
X6608158Y-12926960D02*
X6617682Y-12917436D01*
X6617682Y-12917436D02*
X6636729Y-12888865D01*
X6636729Y-12888865D02*
X6646253Y-12850769D01*
X6646253Y-12850769D02*
X6646253Y-12774579D01*
X6646253Y-12774579D02*
X6636729Y-12755531D01*
X6636729Y-12755531D02*
X6627205Y-12746008D01*
X6627205Y-12746008D02*
X6608158Y-12736484D01*
X6608158Y-12736484D02*
X6570062Y-12736484D01*
X6570062Y-12736484D02*
X6551015Y-12746008D01*
X6551015Y-12746008D02*
X6541491Y-12755531D01*
X6541491Y-12755531D02*
X6531967Y-12774579D01*
X6531967Y-12774579D02*
X6531967Y-12822198D01*
X6531967Y-12822198D02*
X6541491Y-12841246D01*
X6541491Y-12841246D02*
X6551015Y-12850769D01*
X6551015Y-12850769D02*
X6570062Y-12860293D01*
X6570062Y-12860293D02*
X6608158Y-12860293D01*
X6608158Y-12860293D02*
X6627205Y-12850769D01*
X6627205Y-12850769D02*
X6636729Y-12841246D01*
X6636729Y-12841246D02*
X6646253Y-12822198D01*
X6770062Y-12736484D02*
X6789110Y-12736484D01*
X6789110Y-12736484D02*
X6808158Y-12746008D01*
X6808158Y-12746008D02*
X6817682Y-12755531D01*
X6817682Y-12755531D02*
X6827205Y-12774579D01*
X6827205Y-12774579D02*
X6836729Y-12812674D01*
X6836729Y-12812674D02*
X6836729Y-12860293D01*
X6836729Y-12860293D02*
X6827205Y-12898388D01*
X6827205Y-12898388D02*
X6817682Y-12917436D01*
X6817682Y-12917436D02*
X6808158Y-12926960D01*
X6808158Y-12926960D02*
X6789110Y-12936484D01*
X6789110Y-12936484D02*
X6770062Y-12936484D01*
X6770062Y-12936484D02*
X6751015Y-12926960D01*
X6751015Y-12926960D02*
X6741491Y-12917436D01*
X6741491Y-12917436D02*
X6731967Y-12898388D01*
X6731967Y-12898388D02*
X6722443Y-12860293D01*
X6722443Y-12860293D02*
X6722443Y-12812674D01*
X6722443Y-12812674D02*
X6731967Y-12774579D01*
X6731967Y-12774579D02*
X6741491Y-12755531D01*
X6741491Y-12755531D02*
X6751015Y-12746008D01*
X6751015Y-12746008D02*
X6770062Y-12736484D01*
X6960539Y-12736484D02*
X6979586Y-12736484D01*
X6979586Y-12736484D02*
X6998634Y-12746008D01*
X6998634Y-12746008D02*
X7008158Y-12755531D01*
X7008158Y-12755531D02*
X7017682Y-12774579D01*
X7017682Y-12774579D02*
X7027205Y-12812674D01*
X7027205Y-12812674D02*
X7027205Y-12860293D01*
X7027205Y-12860293D02*
X7017682Y-12898388D01*
X7017682Y-12898388D02*
X7008158Y-12917436D01*
X7008158Y-12917436D02*
X6998634Y-12926960D01*
X6998634Y-12926960D02*
X6979586Y-12936484D01*
X6979586Y-12936484D02*
X6960539Y-12936484D01*
X6960539Y-12936484D02*
X6941491Y-12926960D01*
X6941491Y-12926960D02*
X6931967Y-12917436D01*
X6931967Y-12917436D02*
X6922443Y-12898388D01*
X6922443Y-12898388D02*
X6912920Y-12860293D01*
X6912920Y-12860293D02*
X6912920Y-12812674D01*
X6912920Y-12812674D02*
X6922443Y-12774579D01*
X6922443Y-12774579D02*
X6931967Y-12755531D01*
X6931967Y-12755531D02*
X6941491Y-12746008D01*
X6941491Y-12746008D02*
X6960539Y-12736484D01*
X7112920Y-12936484D02*
X7112920Y-12803150D01*
X7112920Y-12822198D02*
X7122443Y-12812674D01*
X7122443Y-12812674D02*
X7141491Y-12803150D01*
X7141491Y-12803150D02*
X7170063Y-12803150D01*
X7170063Y-12803150D02*
X7189110Y-12812674D01*
X7189110Y-12812674D02*
X7198634Y-12831722D01*
X7198634Y-12831722D02*
X7198634Y-12936484D01*
X7198634Y-12831722D02*
X7208158Y-12812674D01*
X7208158Y-12812674D02*
X7227205Y-12803150D01*
X7227205Y-12803150D02*
X7255777Y-12803150D01*
X7255777Y-12803150D02*
X7274824Y-12812674D01*
X7274824Y-12812674D02*
X7284348Y-12831722D01*
X7284348Y-12831722D02*
X7284348Y-12936484D01*
X7379586Y-12936484D02*
X7379586Y-12803150D01*
X7379586Y-12822198D02*
X7389110Y-12812674D01*
X7389110Y-12812674D02*
X7408158Y-12803150D01*
X7408158Y-12803150D02*
X7436729Y-12803150D01*
X7436729Y-12803150D02*
X7455777Y-12812674D01*
X7455777Y-12812674D02*
X7465301Y-12831722D01*
X7465301Y-12831722D02*
X7465301Y-12936484D01*
X7465301Y-12831722D02*
X7474824Y-12812674D01*
X7474824Y-12812674D02*
X7493872Y-12803150D01*
X7493872Y-12803150D02*
X7522443Y-12803150D01*
X7522443Y-12803150D02*
X7541491Y-12812674D01*
X7541491Y-12812674D02*
X7551015Y-12831722D01*
X7551015Y-12831722D02*
X7551015Y-12936484D01*
X7941491Y-12726960D02*
X7770063Y-12984103D01*
X8198634Y-12736484D02*
X8217682Y-12736484D01*
X8217682Y-12736484D02*
X8236729Y-12746008D01*
X8236729Y-12746008D02*
X8246253Y-12755531D01*
X8246253Y-12755531D02*
X8255777Y-12774579D01*
X8255777Y-12774579D02*
X8265301Y-12812674D01*
X8265301Y-12812674D02*
X8265301Y-12860293D01*
X8265301Y-12860293D02*
X8255777Y-12898388D01*
X8255777Y-12898388D02*
X8246253Y-12917436D01*
X8246253Y-12917436D02*
X8236729Y-12926960D01*
X8236729Y-12926960D02*
X8217682Y-12936484D01*
X8217682Y-12936484D02*
X8198634Y-12936484D01*
X8198634Y-12936484D02*
X8179586Y-12926960D01*
X8179586Y-12926960D02*
X8170063Y-12917436D01*
X8170063Y-12917436D02*
X8160539Y-12898388D01*
X8160539Y-12898388D02*
X8151015Y-12860293D01*
X8151015Y-12860293D02*
X8151015Y-12812674D01*
X8151015Y-12812674D02*
X8160539Y-12774579D01*
X8160539Y-12774579D02*
X8170063Y-12755531D01*
X8170063Y-12755531D02*
X8179586Y-12746008D01*
X8179586Y-12746008D02*
X8198634Y-12736484D01*
X8351015Y-12917436D02*
X8360539Y-12926960D01*
X8360539Y-12926960D02*
X8351015Y-12936484D01*
X8351015Y-12936484D02*
X8341491Y-12926960D01*
X8341491Y-12926960D02*
X8351015Y-12917436D01*
X8351015Y-12917436D02*
X8351015Y-12936484D01*
X8484348Y-12736484D02*
X8503396Y-12736484D01*
X8503396Y-12736484D02*
X8522444Y-12746008D01*
X8522444Y-12746008D02*
X8531968Y-12755531D01*
X8531968Y-12755531D02*
X8541491Y-12774579D01*
X8541491Y-12774579D02*
X8551015Y-12812674D01*
X8551015Y-12812674D02*
X8551015Y-12860293D01*
X8551015Y-12860293D02*
X8541491Y-12898388D01*
X8541491Y-12898388D02*
X8531968Y-12917436D01*
X8531968Y-12917436D02*
X8522444Y-12926960D01*
X8522444Y-12926960D02*
X8503396Y-12936484D01*
X8503396Y-12936484D02*
X8484348Y-12936484D01*
X8484348Y-12936484D02*
X8465301Y-12926960D01*
X8465301Y-12926960D02*
X8455777Y-12917436D01*
X8455777Y-12917436D02*
X8446253Y-12898388D01*
X8446253Y-12898388D02*
X8436729Y-12860293D01*
X8436729Y-12860293D02*
X8436729Y-12812674D01*
X8436729Y-12812674D02*
X8446253Y-12774579D01*
X8446253Y-12774579D02*
X8455777Y-12755531D01*
X8455777Y-12755531D02*
X8465301Y-12746008D01*
X8465301Y-12746008D02*
X8484348Y-12736484D01*
X8617682Y-12736484D02*
X8741491Y-12736484D01*
X8741491Y-12736484D02*
X8674825Y-12812674D01*
X8674825Y-12812674D02*
X8703396Y-12812674D01*
X8703396Y-12812674D02*
X8722444Y-12822198D01*
X8722444Y-12822198D02*
X8731968Y-12831722D01*
X8731968Y-12831722D02*
X8741491Y-12850769D01*
X8741491Y-12850769D02*
X8741491Y-12898388D01*
X8741491Y-12898388D02*
X8731968Y-12917436D01*
X8731968Y-12917436D02*
X8722444Y-12926960D01*
X8722444Y-12926960D02*
X8703396Y-12936484D01*
X8703396Y-12936484D02*
X8646253Y-12936484D01*
X8646253Y-12936484D02*
X8627206Y-12926960D01*
X8627206Y-12926960D02*
X8617682Y-12917436D01*
X8922444Y-12736484D02*
X8827206Y-12736484D01*
X8827206Y-12736484D02*
X8817682Y-12831722D01*
X8817682Y-12831722D02*
X8827206Y-12822198D01*
X8827206Y-12822198D02*
X8846253Y-12812674D01*
X8846253Y-12812674D02*
X8893872Y-12812674D01*
X8893872Y-12812674D02*
X8912920Y-12822198D01*
X8912920Y-12822198D02*
X8922444Y-12831722D01*
X8922444Y-12831722D02*
X8931968Y-12850769D01*
X8931968Y-12850769D02*
X8931968Y-12898388D01*
X8931968Y-12898388D02*
X8922444Y-12917436D01*
X8922444Y-12917436D02*
X8912920Y-12926960D01*
X8912920Y-12926960D02*
X8893872Y-12936484D01*
X8893872Y-12936484D02*
X8846253Y-12936484D01*
X8846253Y-12936484D02*
X8827206Y-12926960D01*
X8827206Y-12926960D02*
X8817682Y-12917436D01*
X9103396Y-12803150D02*
X9103396Y-12936484D01*
X9055777Y-12726960D02*
X9008158Y-12869817D01*
X9008158Y-12869817D02*
X9131968Y-12869817D01*
X9198634Y-12736484D02*
X9198634Y-12774579D01*
X9274825Y-12736484D02*
X9274825Y-12774579D01*
X9570063Y-13012674D02*
X9560539Y-13003150D01*
X9560539Y-13003150D02*
X9541491Y-12974579D01*
X9541491Y-12974579D02*
X9531968Y-12955531D01*
X9531968Y-12955531D02*
X9522444Y-12926960D01*
X9522444Y-12926960D02*
X9512920Y-12879341D01*
X9512920Y-12879341D02*
X9512920Y-12841246D01*
X9512920Y-12841246D02*
X9522444Y-12793627D01*
X9522444Y-12793627D02*
X9531968Y-12765055D01*
X9531968Y-12765055D02*
X9541491Y-12746008D01*
X9541491Y-12746008D02*
X9560539Y-12717436D01*
X9560539Y-12717436D02*
X9570063Y-12707912D01*
X9636730Y-12755531D02*
X9646253Y-12746008D01*
X9646253Y-12746008D02*
X9665301Y-12736484D01*
X9665301Y-12736484D02*
X9712920Y-12736484D01*
X9712920Y-12736484D02*
X9731968Y-12746008D01*
X9731968Y-12746008D02*
X9741491Y-12755531D01*
X9741491Y-12755531D02*
X9751015Y-12774579D01*
X9751015Y-12774579D02*
X9751015Y-12793627D01*
X9751015Y-12793627D02*
X9741491Y-12822198D01*
X9741491Y-12822198D02*
X9627206Y-12936484D01*
X9627206Y-12936484D02*
X9751015Y-12936484D01*
X9989111Y-12936484D02*
X9989111Y-12736484D01*
X10074825Y-12936484D02*
X10074825Y-12831722D01*
X10074825Y-12831722D02*
X10065301Y-12812674D01*
X10065301Y-12812674D02*
X10046253Y-12803150D01*
X10046253Y-12803150D02*
X10017682Y-12803150D01*
X10017682Y-12803150D02*
X9998634Y-12812674D01*
X9998634Y-12812674D02*
X9989111Y-12822198D01*
X10198634Y-12936484D02*
X10179587Y-12926960D01*
X10179587Y-12926960D02*
X10170063Y-12917436D01*
X10170063Y-12917436D02*
X10160539Y-12898388D01*
X10160539Y-12898388D02*
X10160539Y-12841246D01*
X10160539Y-12841246D02*
X10170063Y-12822198D01*
X10170063Y-12822198D02*
X10179587Y-12812674D01*
X10179587Y-12812674D02*
X10198634Y-12803150D01*
X10198634Y-12803150D02*
X10227206Y-12803150D01*
X10227206Y-12803150D02*
X10246253Y-12812674D01*
X10246253Y-12812674D02*
X10255777Y-12822198D01*
X10255777Y-12822198D02*
X10265301Y-12841246D01*
X10265301Y-12841246D02*
X10265301Y-12898388D01*
X10265301Y-12898388D02*
X10255777Y-12917436D01*
X10255777Y-12917436D02*
X10246253Y-12926960D01*
X10246253Y-12926960D02*
X10227206Y-12936484D01*
X10227206Y-12936484D02*
X10198634Y-12936484D01*
X10379587Y-12936484D02*
X10360539Y-12926960D01*
X10360539Y-12926960D02*
X10351015Y-12907912D01*
X10351015Y-12907912D02*
X10351015Y-12736484D01*
X10531968Y-12926960D02*
X10512920Y-12936484D01*
X10512920Y-12936484D02*
X10474825Y-12936484D01*
X10474825Y-12936484D02*
X10455777Y-12926960D01*
X10455777Y-12926960D02*
X10446253Y-12907912D01*
X10446253Y-12907912D02*
X10446253Y-12831722D01*
X10446253Y-12831722D02*
X10455777Y-12812674D01*
X10455777Y-12812674D02*
X10474825Y-12803150D01*
X10474825Y-12803150D02*
X10512920Y-12803150D01*
X10512920Y-12803150D02*
X10531968Y-12812674D01*
X10531968Y-12812674D02*
X10541492Y-12831722D01*
X10541492Y-12831722D02*
X10541492Y-12850769D01*
X10541492Y-12850769D02*
X10446253Y-12869817D01*
X10617682Y-12926960D02*
X10636730Y-12936484D01*
X10636730Y-12936484D02*
X10674825Y-12936484D01*
X10674825Y-12936484D02*
X10693873Y-12926960D01*
X10693873Y-12926960D02*
X10703396Y-12907912D01*
X10703396Y-12907912D02*
X10703396Y-12898388D01*
X10703396Y-12898388D02*
X10693873Y-12879341D01*
X10693873Y-12879341D02*
X10674825Y-12869817D01*
X10674825Y-12869817D02*
X10646253Y-12869817D01*
X10646253Y-12869817D02*
X10627206Y-12860293D01*
X10627206Y-12860293D02*
X10617682Y-12841246D01*
X10617682Y-12841246D02*
X10617682Y-12831722D01*
X10617682Y-12831722D02*
X10627206Y-12812674D01*
X10627206Y-12812674D02*
X10646253Y-12803150D01*
X10646253Y-12803150D02*
X10674825Y-12803150D01*
X10674825Y-12803150D02*
X10693873Y-12812674D01*
X10770063Y-13012674D02*
X10779587Y-13003150D01*
X10779587Y-13003150D02*
X10798634Y-12974579D01*
X10798634Y-12974579D02*
X10808158Y-12955531D01*
X10808158Y-12955531D02*
X10817682Y-12926960D01*
X10817682Y-12926960D02*
X10827206Y-12879341D01*
X10827206Y-12879341D02*
X10827206Y-12841246D01*
X10827206Y-12841246D02*
X10817682Y-12793627D01*
X10817682Y-12793627D02*
X10808158Y-12765055D01*
X10808158Y-12765055D02*
X10798634Y-12746008D01*
X10798634Y-12746008D02*
X10779587Y-12717436D01*
X10779587Y-12717436D02*
X10770063Y-12707912D01*
X11131968Y-13012674D02*
X11122444Y-13003150D01*
X11122444Y-13003150D02*
X11103396Y-12974579D01*
X11103396Y-12974579D02*
X11093873Y-12955531D01*
X11093873Y-12955531D02*
X11084349Y-12926960D01*
X11084349Y-12926960D02*
X11074825Y-12879341D01*
X11074825Y-12879341D02*
X11074825Y-12841246D01*
X11074825Y-12841246D02*
X11084349Y-12793627D01*
X11084349Y-12793627D02*
X11093873Y-12765055D01*
X11093873Y-12765055D02*
X11103396Y-12746008D01*
X11103396Y-12746008D02*
X11122444Y-12717436D01*
X11122444Y-12717436D02*
X11131968Y-12707912D01*
X11208158Y-12803150D02*
X11208158Y-12936484D01*
X11208158Y-12822198D02*
X11217682Y-12812674D01*
X11217682Y-12812674D02*
X11236730Y-12803150D01*
X11236730Y-12803150D02*
X11265301Y-12803150D01*
X11265301Y-12803150D02*
X11284349Y-12812674D01*
X11284349Y-12812674D02*
X11293872Y-12831722D01*
X11293872Y-12831722D02*
X11293872Y-12936484D01*
X11417682Y-12936484D02*
X11398634Y-12926960D01*
X11398634Y-12926960D02*
X11389111Y-12917436D01*
X11389111Y-12917436D02*
X11379587Y-12898388D01*
X11379587Y-12898388D02*
X11379587Y-12841246D01*
X11379587Y-12841246D02*
X11389111Y-12822198D01*
X11389111Y-12822198D02*
X11398634Y-12812674D01*
X11398634Y-12812674D02*
X11417682Y-12803150D01*
X11417682Y-12803150D02*
X11446253Y-12803150D01*
X11446253Y-12803150D02*
X11465301Y-12812674D01*
X11465301Y-12812674D02*
X11474825Y-12822198D01*
X11474825Y-12822198D02*
X11484349Y-12841246D01*
X11484349Y-12841246D02*
X11484349Y-12898388D01*
X11484349Y-12898388D02*
X11474825Y-12917436D01*
X11474825Y-12917436D02*
X11465301Y-12926960D01*
X11465301Y-12926960D02*
X11446253Y-12936484D01*
X11446253Y-12936484D02*
X11417682Y-12936484D01*
X11541492Y-12803150D02*
X11617682Y-12803150D01*
X11570063Y-12736484D02*
X11570063Y-12907912D01*
X11570063Y-12907912D02*
X11579587Y-12926960D01*
X11579587Y-12926960D02*
X11598634Y-12936484D01*
X11598634Y-12936484D02*
X11617682Y-12936484D01*
X11836730Y-12803150D02*
X11836730Y-13003150D01*
X11836730Y-12812674D02*
X11855777Y-12803150D01*
X11855777Y-12803150D02*
X11893873Y-12803150D01*
X11893873Y-12803150D02*
X11912920Y-12812674D01*
X11912920Y-12812674D02*
X11922444Y-12822198D01*
X11922444Y-12822198D02*
X11931968Y-12841246D01*
X11931968Y-12841246D02*
X11931968Y-12898388D01*
X11931968Y-12898388D02*
X11922444Y-12917436D01*
X11922444Y-12917436D02*
X11912920Y-12926960D01*
X11912920Y-12926960D02*
X11893873Y-12936484D01*
X11893873Y-12936484D02*
X11855777Y-12936484D01*
X11855777Y-12936484D02*
X11836730Y-12926960D01*
X12046253Y-12936484D02*
X12027206Y-12926960D01*
X12027206Y-12926960D02*
X12017682Y-12907912D01*
X12017682Y-12907912D02*
X12017682Y-12736484D01*
X12208158Y-12936484D02*
X12208158Y-12831722D01*
X12208158Y-12831722D02*
X12198634Y-12812674D01*
X12198634Y-12812674D02*
X12179587Y-12803150D01*
X12179587Y-12803150D02*
X12141492Y-12803150D01*
X12141492Y-12803150D02*
X12122444Y-12812674D01*
X12208158Y-12926960D02*
X12189111Y-12936484D01*
X12189111Y-12936484D02*
X12141492Y-12936484D01*
X12141492Y-12936484D02*
X12122444Y-12926960D01*
X12122444Y-12926960D02*
X12112920Y-12907912D01*
X12112920Y-12907912D02*
X12112920Y-12888865D01*
X12112920Y-12888865D02*
X12122444Y-12869817D01*
X12122444Y-12869817D02*
X12141492Y-12860293D01*
X12141492Y-12860293D02*
X12189111Y-12860293D01*
X12189111Y-12860293D02*
X12208158Y-12850769D01*
X12274825Y-12803150D02*
X12351015Y-12803150D01*
X12303396Y-12736484D02*
X12303396Y-12907912D01*
X12303396Y-12907912D02*
X12312920Y-12926960D01*
X12312920Y-12926960D02*
X12331968Y-12936484D01*
X12331968Y-12936484D02*
X12351015Y-12936484D01*
X12493873Y-12926960D02*
X12474825Y-12936484D01*
X12474825Y-12936484D02*
X12436730Y-12936484D01*
X12436730Y-12936484D02*
X12417682Y-12926960D01*
X12417682Y-12926960D02*
X12408158Y-12907912D01*
X12408158Y-12907912D02*
X12408158Y-12831722D01*
X12408158Y-12831722D02*
X12417682Y-12812674D01*
X12417682Y-12812674D02*
X12436730Y-12803150D01*
X12436730Y-12803150D02*
X12474825Y-12803150D01*
X12474825Y-12803150D02*
X12493873Y-12812674D01*
X12493873Y-12812674D02*
X12503396Y-12831722D01*
X12503396Y-12831722D02*
X12503396Y-12850769D01*
X12503396Y-12850769D02*
X12408158Y-12869817D01*
X12674825Y-12936484D02*
X12674825Y-12736484D01*
X12674825Y-12926960D02*
X12655777Y-12936484D01*
X12655777Y-12936484D02*
X12617682Y-12936484D01*
X12617682Y-12936484D02*
X12598634Y-12926960D01*
X12598634Y-12926960D02*
X12589111Y-12917436D01*
X12589111Y-12917436D02*
X12579587Y-12898388D01*
X12579587Y-12898388D02*
X12579587Y-12841246D01*
X12579587Y-12841246D02*
X12589111Y-12822198D01*
X12589111Y-12822198D02*
X12598634Y-12812674D01*
X12598634Y-12812674D02*
X12617682Y-12803150D01*
X12617682Y-12803150D02*
X12655777Y-12803150D01*
X12655777Y-12803150D02*
X12674825Y-12812674D01*
X12751015Y-13012674D02*
X12760539Y-13003150D01*
X12760539Y-13003150D02*
X12779587Y-12974579D01*
X12779587Y-12974579D02*
X12789111Y-12955531D01*
X12789111Y-12955531D02*
X12798634Y-12926960D01*
X12798634Y-12926960D02*
X12808158Y-12879341D01*
X12808158Y-12879341D02*
X12808158Y-12841246D01*
X12808158Y-12841246D02*
X12798634Y-12793627D01*
X12798634Y-12793627D02*
X12789111Y-12765055D01*
X12789111Y-12765055D02*
X12779587Y-12746008D01*
X12779587Y-12746008D02*
X12760539Y-12717436D01*
X12760539Y-12717436D02*
X12751015Y-12707912D01*
D13*
X5995000Y-13109000D02*
G75*
G03*
X5995000Y-13109000I-75000J0D01*
G01*
D11*
X6360539Y-13200484D02*
X6246253Y-13200484D01*
X6303396Y-13200484D02*
X6303396Y-13000484D01*
X6303396Y-13000484D02*
X6284348Y-13029055D01*
X6284348Y-13029055D02*
X6265301Y-13048103D01*
X6265301Y-13048103D02*
X6246253Y-13057627D01*
X6446253Y-13181436D02*
X6455777Y-13190960D01*
X6455777Y-13190960D02*
X6446253Y-13200484D01*
X6446253Y-13200484D02*
X6436729Y-13190960D01*
X6436729Y-13190960D02*
X6446253Y-13181436D01*
X6446253Y-13181436D02*
X6446253Y-13200484D01*
X6636729Y-13000484D02*
X6541491Y-13000484D01*
X6541491Y-13000484D02*
X6531967Y-13095722D01*
X6531967Y-13095722D02*
X6541491Y-13086198D01*
X6541491Y-13086198D02*
X6560539Y-13076674D01*
X6560539Y-13076674D02*
X6608158Y-13076674D01*
X6608158Y-13076674D02*
X6627205Y-13086198D01*
X6627205Y-13086198D02*
X6636729Y-13095722D01*
X6636729Y-13095722D02*
X6646253Y-13114769D01*
X6646253Y-13114769D02*
X6646253Y-13162388D01*
X6646253Y-13162388D02*
X6636729Y-13181436D01*
X6636729Y-13181436D02*
X6627205Y-13190960D01*
X6627205Y-13190960D02*
X6608158Y-13200484D01*
X6608158Y-13200484D02*
X6560539Y-13200484D01*
X6560539Y-13200484D02*
X6541491Y-13190960D01*
X6541491Y-13190960D02*
X6531967Y-13181436D01*
X6770062Y-13000484D02*
X6789110Y-13000484D01*
X6789110Y-13000484D02*
X6808158Y-13010008D01*
X6808158Y-13010008D02*
X6817682Y-13019531D01*
X6817682Y-13019531D02*
X6827205Y-13038579D01*
X6827205Y-13038579D02*
X6836729Y-13076674D01*
X6836729Y-13076674D02*
X6836729Y-13124293D01*
X6836729Y-13124293D02*
X6827205Y-13162388D01*
X6827205Y-13162388D02*
X6817682Y-13181436D01*
X6817682Y-13181436D02*
X6808158Y-13190960D01*
X6808158Y-13190960D02*
X6789110Y-13200484D01*
X6789110Y-13200484D02*
X6770062Y-13200484D01*
X6770062Y-13200484D02*
X6751015Y-13190960D01*
X6751015Y-13190960D02*
X6741491Y-13181436D01*
X6741491Y-13181436D02*
X6731967Y-13162388D01*
X6731967Y-13162388D02*
X6722443Y-13124293D01*
X6722443Y-13124293D02*
X6722443Y-13076674D01*
X6722443Y-13076674D02*
X6731967Y-13038579D01*
X6731967Y-13038579D02*
X6741491Y-13019531D01*
X6741491Y-13019531D02*
X6751015Y-13010008D01*
X6751015Y-13010008D02*
X6770062Y-13000484D01*
X6960539Y-13000484D02*
X6979586Y-13000484D01*
X6979586Y-13000484D02*
X6998634Y-13010008D01*
X6998634Y-13010008D02*
X7008158Y-13019531D01*
X7008158Y-13019531D02*
X7017682Y-13038579D01*
X7017682Y-13038579D02*
X7027205Y-13076674D01*
X7027205Y-13076674D02*
X7027205Y-13124293D01*
X7027205Y-13124293D02*
X7017682Y-13162388D01*
X7017682Y-13162388D02*
X7008158Y-13181436D01*
X7008158Y-13181436D02*
X6998634Y-13190960D01*
X6998634Y-13190960D02*
X6979586Y-13200484D01*
X6979586Y-13200484D02*
X6960539Y-13200484D01*
X6960539Y-13200484D02*
X6941491Y-13190960D01*
X6941491Y-13190960D02*
X6931967Y-13181436D01*
X6931967Y-13181436D02*
X6922443Y-13162388D01*
X6922443Y-13162388D02*
X6912920Y-13124293D01*
X6912920Y-13124293D02*
X6912920Y-13076674D01*
X6912920Y-13076674D02*
X6922443Y-13038579D01*
X6922443Y-13038579D02*
X6931967Y-13019531D01*
X6931967Y-13019531D02*
X6941491Y-13010008D01*
X6941491Y-13010008D02*
X6960539Y-13000484D01*
X7112920Y-13200484D02*
X7112920Y-13067150D01*
X7112920Y-13086198D02*
X7122443Y-13076674D01*
X7122443Y-13076674D02*
X7141491Y-13067150D01*
X7141491Y-13067150D02*
X7170063Y-13067150D01*
X7170063Y-13067150D02*
X7189110Y-13076674D01*
X7189110Y-13076674D02*
X7198634Y-13095722D01*
X7198634Y-13095722D02*
X7198634Y-13200484D01*
X7198634Y-13095722D02*
X7208158Y-13076674D01*
X7208158Y-13076674D02*
X7227205Y-13067150D01*
X7227205Y-13067150D02*
X7255777Y-13067150D01*
X7255777Y-13067150D02*
X7274824Y-13076674D01*
X7274824Y-13076674D02*
X7284348Y-13095722D01*
X7284348Y-13095722D02*
X7284348Y-13200484D01*
X7379586Y-13200484D02*
X7379586Y-13067150D01*
X7379586Y-13086198D02*
X7389110Y-13076674D01*
X7389110Y-13076674D02*
X7408158Y-13067150D01*
X7408158Y-13067150D02*
X7436729Y-13067150D01*
X7436729Y-13067150D02*
X7455777Y-13076674D01*
X7455777Y-13076674D02*
X7465301Y-13095722D01*
X7465301Y-13095722D02*
X7465301Y-13200484D01*
X7465301Y-13095722D02*
X7474824Y-13076674D01*
X7474824Y-13076674D02*
X7493872Y-13067150D01*
X7493872Y-13067150D02*
X7522443Y-13067150D01*
X7522443Y-13067150D02*
X7541491Y-13076674D01*
X7541491Y-13076674D02*
X7551015Y-13095722D01*
X7551015Y-13095722D02*
X7551015Y-13200484D01*
X7941491Y-12990960D02*
X7770063Y-13248103D01*
X8198634Y-13000484D02*
X8217682Y-13000484D01*
X8217682Y-13000484D02*
X8236729Y-13010008D01*
X8236729Y-13010008D02*
X8246253Y-13019531D01*
X8246253Y-13019531D02*
X8255777Y-13038579D01*
X8255777Y-13038579D02*
X8265301Y-13076674D01*
X8265301Y-13076674D02*
X8265301Y-13124293D01*
X8265301Y-13124293D02*
X8255777Y-13162388D01*
X8255777Y-13162388D02*
X8246253Y-13181436D01*
X8246253Y-13181436D02*
X8236729Y-13190960D01*
X8236729Y-13190960D02*
X8217682Y-13200484D01*
X8217682Y-13200484D02*
X8198634Y-13200484D01*
X8198634Y-13200484D02*
X8179586Y-13190960D01*
X8179586Y-13190960D02*
X8170063Y-13181436D01*
X8170063Y-13181436D02*
X8160539Y-13162388D01*
X8160539Y-13162388D02*
X8151015Y-13124293D01*
X8151015Y-13124293D02*
X8151015Y-13076674D01*
X8151015Y-13076674D02*
X8160539Y-13038579D01*
X8160539Y-13038579D02*
X8170063Y-13019531D01*
X8170063Y-13019531D02*
X8179586Y-13010008D01*
X8179586Y-13010008D02*
X8198634Y-13000484D01*
X8351015Y-13181436D02*
X8360539Y-13190960D01*
X8360539Y-13190960D02*
X8351015Y-13200484D01*
X8351015Y-13200484D02*
X8341491Y-13190960D01*
X8341491Y-13190960D02*
X8351015Y-13181436D01*
X8351015Y-13181436D02*
X8351015Y-13200484D01*
X8484348Y-13000484D02*
X8503396Y-13000484D01*
X8503396Y-13000484D02*
X8522444Y-13010008D01*
X8522444Y-13010008D02*
X8531968Y-13019531D01*
X8531968Y-13019531D02*
X8541491Y-13038579D01*
X8541491Y-13038579D02*
X8551015Y-13076674D01*
X8551015Y-13076674D02*
X8551015Y-13124293D01*
X8551015Y-13124293D02*
X8541491Y-13162388D01*
X8541491Y-13162388D02*
X8531968Y-13181436D01*
X8531968Y-13181436D02*
X8522444Y-13190960D01*
X8522444Y-13190960D02*
X8503396Y-13200484D01*
X8503396Y-13200484D02*
X8484348Y-13200484D01*
X8484348Y-13200484D02*
X8465301Y-13190960D01*
X8465301Y-13190960D02*
X8455777Y-13181436D01*
X8455777Y-13181436D02*
X8446253Y-13162388D01*
X8446253Y-13162388D02*
X8436729Y-13124293D01*
X8436729Y-13124293D02*
X8436729Y-13076674D01*
X8436729Y-13076674D02*
X8446253Y-13038579D01*
X8446253Y-13038579D02*
X8455777Y-13019531D01*
X8455777Y-13019531D02*
X8465301Y-13010008D01*
X8465301Y-13010008D02*
X8484348Y-13000484D01*
X8731968Y-13000484D02*
X8636729Y-13000484D01*
X8636729Y-13000484D02*
X8627206Y-13095722D01*
X8627206Y-13095722D02*
X8636729Y-13086198D01*
X8636729Y-13086198D02*
X8655777Y-13076674D01*
X8655777Y-13076674D02*
X8703396Y-13076674D01*
X8703396Y-13076674D02*
X8722444Y-13086198D01*
X8722444Y-13086198D02*
X8731968Y-13095722D01*
X8731968Y-13095722D02*
X8741491Y-13114769D01*
X8741491Y-13114769D02*
X8741491Y-13162388D01*
X8741491Y-13162388D02*
X8731968Y-13181436D01*
X8731968Y-13181436D02*
X8722444Y-13190960D01*
X8722444Y-13190960D02*
X8703396Y-13200484D01*
X8703396Y-13200484D02*
X8655777Y-13200484D01*
X8655777Y-13200484D02*
X8636729Y-13190960D01*
X8636729Y-13190960D02*
X8627206Y-13181436D01*
X8836729Y-13200484D02*
X8874825Y-13200484D01*
X8874825Y-13200484D02*
X8893872Y-13190960D01*
X8893872Y-13190960D02*
X8903396Y-13181436D01*
X8903396Y-13181436D02*
X8922444Y-13152865D01*
X8922444Y-13152865D02*
X8931968Y-13114769D01*
X8931968Y-13114769D02*
X8931968Y-13038579D01*
X8931968Y-13038579D02*
X8922444Y-13019531D01*
X8922444Y-13019531D02*
X8912920Y-13010008D01*
X8912920Y-13010008D02*
X8893872Y-13000484D01*
X8893872Y-13000484D02*
X8855777Y-13000484D01*
X8855777Y-13000484D02*
X8836729Y-13010008D01*
X8836729Y-13010008D02*
X8827206Y-13019531D01*
X8827206Y-13019531D02*
X8817682Y-13038579D01*
X8817682Y-13038579D02*
X8817682Y-13086198D01*
X8817682Y-13086198D02*
X8827206Y-13105246D01*
X8827206Y-13105246D02*
X8836729Y-13114769D01*
X8836729Y-13114769D02*
X8855777Y-13124293D01*
X8855777Y-13124293D02*
X8893872Y-13124293D01*
X8893872Y-13124293D02*
X8912920Y-13114769D01*
X8912920Y-13114769D02*
X8922444Y-13105246D01*
X8922444Y-13105246D02*
X8931968Y-13086198D01*
X9122444Y-13200484D02*
X9008158Y-13200484D01*
X9065301Y-13200484D02*
X9065301Y-13000484D01*
X9065301Y-13000484D02*
X9046253Y-13029055D01*
X9046253Y-13029055D02*
X9027206Y-13048103D01*
X9027206Y-13048103D02*
X9008158Y-13057627D01*
X9198634Y-13000484D02*
X9198634Y-13038579D01*
X9274825Y-13000484D02*
X9274825Y-13038579D01*
X9570063Y-13276674D02*
X9560539Y-13267150D01*
X9560539Y-13267150D02*
X9541491Y-13238579D01*
X9541491Y-13238579D02*
X9531968Y-13219531D01*
X9531968Y-13219531D02*
X9522444Y-13190960D01*
X9522444Y-13190960D02*
X9512920Y-13143341D01*
X9512920Y-13143341D02*
X9512920Y-13105246D01*
X9512920Y-13105246D02*
X9522444Y-13057627D01*
X9522444Y-13057627D02*
X9531968Y-13029055D01*
X9531968Y-13029055D02*
X9541491Y-13010008D01*
X9541491Y-13010008D02*
X9560539Y-12981436D01*
X9560539Y-12981436D02*
X9570063Y-12971912D01*
X9636730Y-13019531D02*
X9646253Y-13010008D01*
X9646253Y-13010008D02*
X9665301Y-13000484D01*
X9665301Y-13000484D02*
X9712920Y-13000484D01*
X9712920Y-13000484D02*
X9731968Y-13010008D01*
X9731968Y-13010008D02*
X9741491Y-13019531D01*
X9741491Y-13019531D02*
X9751015Y-13038579D01*
X9751015Y-13038579D02*
X9751015Y-13057627D01*
X9751015Y-13057627D02*
X9741491Y-13086198D01*
X9741491Y-13086198D02*
X9627206Y-13200484D01*
X9627206Y-13200484D02*
X9751015Y-13200484D01*
X9989111Y-13200484D02*
X9989111Y-13000484D01*
X10074825Y-13200484D02*
X10074825Y-13095722D01*
X10074825Y-13095722D02*
X10065301Y-13076674D01*
X10065301Y-13076674D02*
X10046253Y-13067150D01*
X10046253Y-13067150D02*
X10017682Y-13067150D01*
X10017682Y-13067150D02*
X9998634Y-13076674D01*
X9998634Y-13076674D02*
X9989111Y-13086198D01*
X10198634Y-13200484D02*
X10179587Y-13190960D01*
X10179587Y-13190960D02*
X10170063Y-13181436D01*
X10170063Y-13181436D02*
X10160539Y-13162388D01*
X10160539Y-13162388D02*
X10160539Y-13105246D01*
X10160539Y-13105246D02*
X10170063Y-13086198D01*
X10170063Y-13086198D02*
X10179587Y-13076674D01*
X10179587Y-13076674D02*
X10198634Y-13067150D01*
X10198634Y-13067150D02*
X10227206Y-13067150D01*
X10227206Y-13067150D02*
X10246253Y-13076674D01*
X10246253Y-13076674D02*
X10255777Y-13086198D01*
X10255777Y-13086198D02*
X10265301Y-13105246D01*
X10265301Y-13105246D02*
X10265301Y-13162388D01*
X10265301Y-13162388D02*
X10255777Y-13181436D01*
X10255777Y-13181436D02*
X10246253Y-13190960D01*
X10246253Y-13190960D02*
X10227206Y-13200484D01*
X10227206Y-13200484D02*
X10198634Y-13200484D01*
X10379587Y-13200484D02*
X10360539Y-13190960D01*
X10360539Y-13190960D02*
X10351015Y-13171912D01*
X10351015Y-13171912D02*
X10351015Y-13000484D01*
X10531968Y-13190960D02*
X10512920Y-13200484D01*
X10512920Y-13200484D02*
X10474825Y-13200484D01*
X10474825Y-13200484D02*
X10455777Y-13190960D01*
X10455777Y-13190960D02*
X10446253Y-13171912D01*
X10446253Y-13171912D02*
X10446253Y-13095722D01*
X10446253Y-13095722D02*
X10455777Y-13076674D01*
X10455777Y-13076674D02*
X10474825Y-13067150D01*
X10474825Y-13067150D02*
X10512920Y-13067150D01*
X10512920Y-13067150D02*
X10531968Y-13076674D01*
X10531968Y-13076674D02*
X10541492Y-13095722D01*
X10541492Y-13095722D02*
X10541492Y-13114769D01*
X10541492Y-13114769D02*
X10446253Y-13133817D01*
X10617682Y-13190960D02*
X10636730Y-13200484D01*
X10636730Y-13200484D02*
X10674825Y-13200484D01*
X10674825Y-13200484D02*
X10693873Y-13190960D01*
X10693873Y-13190960D02*
X10703396Y-13171912D01*
X10703396Y-13171912D02*
X10703396Y-13162388D01*
X10703396Y-13162388D02*
X10693873Y-13143341D01*
X10693873Y-13143341D02*
X10674825Y-13133817D01*
X10674825Y-13133817D02*
X10646253Y-13133817D01*
X10646253Y-13133817D02*
X10627206Y-13124293D01*
X10627206Y-13124293D02*
X10617682Y-13105246D01*
X10617682Y-13105246D02*
X10617682Y-13095722D01*
X10617682Y-13095722D02*
X10627206Y-13076674D01*
X10627206Y-13076674D02*
X10646253Y-13067150D01*
X10646253Y-13067150D02*
X10674825Y-13067150D01*
X10674825Y-13067150D02*
X10693873Y-13076674D01*
X10770063Y-13276674D02*
X10779587Y-13267150D01*
X10779587Y-13267150D02*
X10798634Y-13238579D01*
X10798634Y-13238579D02*
X10808158Y-13219531D01*
X10808158Y-13219531D02*
X10817682Y-13190960D01*
X10817682Y-13190960D02*
X10827206Y-13143341D01*
X10827206Y-13143341D02*
X10827206Y-13105246D01*
X10827206Y-13105246D02*
X10817682Y-13057627D01*
X10817682Y-13057627D02*
X10808158Y-13029055D01*
X10808158Y-13029055D02*
X10798634Y-13010008D01*
X10798634Y-13010008D02*
X10779587Y-12981436D01*
X10779587Y-12981436D02*
X10770063Y-12971912D01*
X11131968Y-13276674D02*
X11122444Y-13267150D01*
X11122444Y-13267150D02*
X11103396Y-13238579D01*
X11103396Y-13238579D02*
X11093873Y-13219531D01*
X11093873Y-13219531D02*
X11084349Y-13190960D01*
X11084349Y-13190960D02*
X11074825Y-13143341D01*
X11074825Y-13143341D02*
X11074825Y-13105246D01*
X11074825Y-13105246D02*
X11084349Y-13057627D01*
X11084349Y-13057627D02*
X11093873Y-13029055D01*
X11093873Y-13029055D02*
X11103396Y-13010008D01*
X11103396Y-13010008D02*
X11122444Y-12981436D01*
X11122444Y-12981436D02*
X11131968Y-12971912D01*
X11208158Y-13067150D02*
X11208158Y-13200484D01*
X11208158Y-13086198D02*
X11217682Y-13076674D01*
X11217682Y-13076674D02*
X11236730Y-13067150D01*
X11236730Y-13067150D02*
X11265301Y-13067150D01*
X11265301Y-13067150D02*
X11284349Y-13076674D01*
X11284349Y-13076674D02*
X11293872Y-13095722D01*
X11293872Y-13095722D02*
X11293872Y-13200484D01*
X11417682Y-13200484D02*
X11398634Y-13190960D01*
X11398634Y-13190960D02*
X11389111Y-13181436D01*
X11389111Y-13181436D02*
X11379587Y-13162388D01*
X11379587Y-13162388D02*
X11379587Y-13105246D01*
X11379587Y-13105246D02*
X11389111Y-13086198D01*
X11389111Y-13086198D02*
X11398634Y-13076674D01*
X11398634Y-13076674D02*
X11417682Y-13067150D01*
X11417682Y-13067150D02*
X11446253Y-13067150D01*
X11446253Y-13067150D02*
X11465301Y-13076674D01*
X11465301Y-13076674D02*
X11474825Y-13086198D01*
X11474825Y-13086198D02*
X11484349Y-13105246D01*
X11484349Y-13105246D02*
X11484349Y-13162388D01*
X11484349Y-13162388D02*
X11474825Y-13181436D01*
X11474825Y-13181436D02*
X11465301Y-13190960D01*
X11465301Y-13190960D02*
X11446253Y-13200484D01*
X11446253Y-13200484D02*
X11417682Y-13200484D01*
X11541492Y-13067150D02*
X11617682Y-13067150D01*
X11570063Y-13000484D02*
X11570063Y-13171912D01*
X11570063Y-13171912D02*
X11579587Y-13190960D01*
X11579587Y-13190960D02*
X11598634Y-13200484D01*
X11598634Y-13200484D02*
X11617682Y-13200484D01*
X11836730Y-13067150D02*
X11836730Y-13267150D01*
X11836730Y-13076674D02*
X11855777Y-13067150D01*
X11855777Y-13067150D02*
X11893873Y-13067150D01*
X11893873Y-13067150D02*
X11912920Y-13076674D01*
X11912920Y-13076674D02*
X11922444Y-13086198D01*
X11922444Y-13086198D02*
X11931968Y-13105246D01*
X11931968Y-13105246D02*
X11931968Y-13162388D01*
X11931968Y-13162388D02*
X11922444Y-13181436D01*
X11922444Y-13181436D02*
X11912920Y-13190960D01*
X11912920Y-13190960D02*
X11893873Y-13200484D01*
X11893873Y-13200484D02*
X11855777Y-13200484D01*
X11855777Y-13200484D02*
X11836730Y-13190960D01*
X12046253Y-13200484D02*
X12027206Y-13190960D01*
X12027206Y-13190960D02*
X12017682Y-13171912D01*
X12017682Y-13171912D02*
X12017682Y-13000484D01*
X12208158Y-13200484D02*
X12208158Y-13095722D01*
X12208158Y-13095722D02*
X12198634Y-13076674D01*
X12198634Y-13076674D02*
X12179587Y-13067150D01*
X12179587Y-13067150D02*
X12141492Y-13067150D01*
X12141492Y-13067150D02*
X12122444Y-13076674D01*
X12208158Y-13190960D02*
X12189111Y-13200484D01*
X12189111Y-13200484D02*
X12141492Y-13200484D01*
X12141492Y-13200484D02*
X12122444Y-13190960D01*
X12122444Y-13190960D02*
X12112920Y-13171912D01*
X12112920Y-13171912D02*
X12112920Y-13152865D01*
X12112920Y-13152865D02*
X12122444Y-13133817D01*
X12122444Y-13133817D02*
X12141492Y-13124293D01*
X12141492Y-13124293D02*
X12189111Y-13124293D01*
X12189111Y-13124293D02*
X12208158Y-13114769D01*
X12274825Y-13067150D02*
X12351015Y-13067150D01*
X12303396Y-13000484D02*
X12303396Y-13171912D01*
X12303396Y-13171912D02*
X12312920Y-13190960D01*
X12312920Y-13190960D02*
X12331968Y-13200484D01*
X12331968Y-13200484D02*
X12351015Y-13200484D01*
X12493873Y-13190960D02*
X12474825Y-13200484D01*
X12474825Y-13200484D02*
X12436730Y-13200484D01*
X12436730Y-13200484D02*
X12417682Y-13190960D01*
X12417682Y-13190960D02*
X12408158Y-13171912D01*
X12408158Y-13171912D02*
X12408158Y-13095722D01*
X12408158Y-13095722D02*
X12417682Y-13076674D01*
X12417682Y-13076674D02*
X12436730Y-13067150D01*
X12436730Y-13067150D02*
X12474825Y-13067150D01*
X12474825Y-13067150D02*
X12493873Y-13076674D01*
X12493873Y-13076674D02*
X12503396Y-13095722D01*
X12503396Y-13095722D02*
X12503396Y-13114769D01*
X12503396Y-13114769D02*
X12408158Y-13133817D01*
X12674825Y-13200484D02*
X12674825Y-13000484D01*
X12674825Y-13190960D02*
X12655777Y-13200484D01*
X12655777Y-13200484D02*
X12617682Y-13200484D01*
X12617682Y-13200484D02*
X12598634Y-13190960D01*
X12598634Y-13190960D02*
X12589111Y-13181436D01*
X12589111Y-13181436D02*
X12579587Y-13162388D01*
X12579587Y-13162388D02*
X12579587Y-13105246D01*
X12579587Y-13105246D02*
X12589111Y-13086198D01*
X12589111Y-13086198D02*
X12598634Y-13076674D01*
X12598634Y-13076674D02*
X12617682Y-13067150D01*
X12617682Y-13067150D02*
X12655777Y-13067150D01*
X12655777Y-13067150D02*
X12674825Y-13076674D01*
X12751015Y-13276674D02*
X12760539Y-13267150D01*
X12760539Y-13267150D02*
X12779587Y-13238579D01*
X12779587Y-13238579D02*
X12789111Y-13219531D01*
X12789111Y-13219531D02*
X12798634Y-13190960D01*
X12798634Y-13190960D02*
X12808158Y-13143341D01*
X12808158Y-13143341D02*
X12808158Y-13105246D01*
X12808158Y-13105246D02*
X12798634Y-13057627D01*
X12798634Y-13057627D02*
X12789111Y-13029055D01*
X12789111Y-13029055D02*
X12779587Y-13010008D01*
X12779587Y-13010008D02*
X12760539Y-12981436D01*
X12760539Y-12981436D02*
X12751015Y-12971912D01*
D14*
X5905000Y-13289000D02*
X5905000Y-13469000D01*
X5815000Y-13379000D02*
X5995000Y-13379000D01*
D11*
X6360539Y-13470484D02*
X6246253Y-13470484D01*
X6303396Y-13470484D02*
X6303396Y-13270484D01*
X6303396Y-13270484D02*
X6284348Y-13299055D01*
X6284348Y-13299055D02*
X6265301Y-13318103D01*
X6265301Y-13318103D02*
X6246253Y-13327627D01*
X6446253Y-13451436D02*
X6455777Y-13460960D01*
X6455777Y-13460960D02*
X6446253Y-13470484D01*
X6446253Y-13470484D02*
X6436729Y-13460960D01*
X6436729Y-13460960D02*
X6446253Y-13451436D01*
X6446253Y-13451436D02*
X6446253Y-13470484D01*
X6570062Y-13356198D02*
X6551015Y-13346674D01*
X6551015Y-13346674D02*
X6541491Y-13337150D01*
X6541491Y-13337150D02*
X6531967Y-13318103D01*
X6531967Y-13318103D02*
X6531967Y-13308579D01*
X6531967Y-13308579D02*
X6541491Y-13289531D01*
X6541491Y-13289531D02*
X6551015Y-13280008D01*
X6551015Y-13280008D02*
X6570062Y-13270484D01*
X6570062Y-13270484D02*
X6608158Y-13270484D01*
X6608158Y-13270484D02*
X6627205Y-13280008D01*
X6627205Y-13280008D02*
X6636729Y-13289531D01*
X6636729Y-13289531D02*
X6646253Y-13308579D01*
X6646253Y-13308579D02*
X6646253Y-13318103D01*
X6646253Y-13318103D02*
X6636729Y-13337150D01*
X6636729Y-13337150D02*
X6627205Y-13346674D01*
X6627205Y-13346674D02*
X6608158Y-13356198D01*
X6608158Y-13356198D02*
X6570062Y-13356198D01*
X6570062Y-13356198D02*
X6551015Y-13365722D01*
X6551015Y-13365722D02*
X6541491Y-13375246D01*
X6541491Y-13375246D02*
X6531967Y-13394293D01*
X6531967Y-13394293D02*
X6531967Y-13432388D01*
X6531967Y-13432388D02*
X6541491Y-13451436D01*
X6541491Y-13451436D02*
X6551015Y-13460960D01*
X6551015Y-13460960D02*
X6570062Y-13470484D01*
X6570062Y-13470484D02*
X6608158Y-13470484D01*
X6608158Y-13470484D02*
X6627205Y-13460960D01*
X6627205Y-13460960D02*
X6636729Y-13451436D01*
X6636729Y-13451436D02*
X6646253Y-13432388D01*
X6646253Y-13432388D02*
X6646253Y-13394293D01*
X6646253Y-13394293D02*
X6636729Y-13375246D01*
X6636729Y-13375246D02*
X6627205Y-13365722D01*
X6627205Y-13365722D02*
X6608158Y-13356198D01*
X6770062Y-13270484D02*
X6789110Y-13270484D01*
X6789110Y-13270484D02*
X6808158Y-13280008D01*
X6808158Y-13280008D02*
X6817682Y-13289531D01*
X6817682Y-13289531D02*
X6827205Y-13308579D01*
X6827205Y-13308579D02*
X6836729Y-13346674D01*
X6836729Y-13346674D02*
X6836729Y-13394293D01*
X6836729Y-13394293D02*
X6827205Y-13432388D01*
X6827205Y-13432388D02*
X6817682Y-13451436D01*
X6817682Y-13451436D02*
X6808158Y-13460960D01*
X6808158Y-13460960D02*
X6789110Y-13470484D01*
X6789110Y-13470484D02*
X6770062Y-13470484D01*
X6770062Y-13470484D02*
X6751015Y-13460960D01*
X6751015Y-13460960D02*
X6741491Y-13451436D01*
X6741491Y-13451436D02*
X6731967Y-13432388D01*
X6731967Y-13432388D02*
X6722443Y-13394293D01*
X6722443Y-13394293D02*
X6722443Y-13346674D01*
X6722443Y-13346674D02*
X6731967Y-13308579D01*
X6731967Y-13308579D02*
X6741491Y-13289531D01*
X6741491Y-13289531D02*
X6751015Y-13280008D01*
X6751015Y-13280008D02*
X6770062Y-13270484D01*
X6960539Y-13270484D02*
X6979586Y-13270484D01*
X6979586Y-13270484D02*
X6998634Y-13280008D01*
X6998634Y-13280008D02*
X7008158Y-13289531D01*
X7008158Y-13289531D02*
X7017682Y-13308579D01*
X7017682Y-13308579D02*
X7027205Y-13346674D01*
X7027205Y-13346674D02*
X7027205Y-13394293D01*
X7027205Y-13394293D02*
X7017682Y-13432388D01*
X7017682Y-13432388D02*
X7008158Y-13451436D01*
X7008158Y-13451436D02*
X6998634Y-13460960D01*
X6998634Y-13460960D02*
X6979586Y-13470484D01*
X6979586Y-13470484D02*
X6960539Y-13470484D01*
X6960539Y-13470484D02*
X6941491Y-13460960D01*
X6941491Y-13460960D02*
X6931967Y-13451436D01*
X6931967Y-13451436D02*
X6922443Y-13432388D01*
X6922443Y-13432388D02*
X6912920Y-13394293D01*
X6912920Y-13394293D02*
X6912920Y-13346674D01*
X6912920Y-13346674D02*
X6922443Y-13308579D01*
X6922443Y-13308579D02*
X6931967Y-13289531D01*
X6931967Y-13289531D02*
X6941491Y-13280008D01*
X6941491Y-13280008D02*
X6960539Y-13270484D01*
X7112920Y-13470484D02*
X7112920Y-13337150D01*
X7112920Y-13356198D02*
X7122443Y-13346674D01*
X7122443Y-13346674D02*
X7141491Y-13337150D01*
X7141491Y-13337150D02*
X7170063Y-13337150D01*
X7170063Y-13337150D02*
X7189110Y-13346674D01*
X7189110Y-13346674D02*
X7198634Y-13365722D01*
X7198634Y-13365722D02*
X7198634Y-13470484D01*
X7198634Y-13365722D02*
X7208158Y-13346674D01*
X7208158Y-13346674D02*
X7227205Y-13337150D01*
X7227205Y-13337150D02*
X7255777Y-13337150D01*
X7255777Y-13337150D02*
X7274824Y-13346674D01*
X7274824Y-13346674D02*
X7284348Y-13365722D01*
X7284348Y-13365722D02*
X7284348Y-13470484D01*
X7379586Y-13470484D02*
X7379586Y-13337150D01*
X7379586Y-13356198D02*
X7389110Y-13346674D01*
X7389110Y-13346674D02*
X7408158Y-13337150D01*
X7408158Y-13337150D02*
X7436729Y-13337150D01*
X7436729Y-13337150D02*
X7455777Y-13346674D01*
X7455777Y-13346674D02*
X7465301Y-13365722D01*
X7465301Y-13365722D02*
X7465301Y-13470484D01*
X7465301Y-13365722D02*
X7474824Y-13346674D01*
X7474824Y-13346674D02*
X7493872Y-13337150D01*
X7493872Y-13337150D02*
X7522443Y-13337150D01*
X7522443Y-13337150D02*
X7541491Y-13346674D01*
X7541491Y-13346674D02*
X7551015Y-13365722D01*
X7551015Y-13365722D02*
X7551015Y-13470484D01*
X7941491Y-13260960D02*
X7770063Y-13518103D01*
X8198634Y-13270484D02*
X8217682Y-13270484D01*
X8217682Y-13270484D02*
X8236729Y-13280008D01*
X8236729Y-13280008D02*
X8246253Y-13289531D01*
X8246253Y-13289531D02*
X8255777Y-13308579D01*
X8255777Y-13308579D02*
X8265301Y-13346674D01*
X8265301Y-13346674D02*
X8265301Y-13394293D01*
X8265301Y-13394293D02*
X8255777Y-13432388D01*
X8255777Y-13432388D02*
X8246253Y-13451436D01*
X8246253Y-13451436D02*
X8236729Y-13460960D01*
X8236729Y-13460960D02*
X8217682Y-13470484D01*
X8217682Y-13470484D02*
X8198634Y-13470484D01*
X8198634Y-13470484D02*
X8179586Y-13460960D01*
X8179586Y-13460960D02*
X8170063Y-13451436D01*
X8170063Y-13451436D02*
X8160539Y-13432388D01*
X8160539Y-13432388D02*
X8151015Y-13394293D01*
X8151015Y-13394293D02*
X8151015Y-13346674D01*
X8151015Y-13346674D02*
X8160539Y-13308579D01*
X8160539Y-13308579D02*
X8170063Y-13289531D01*
X8170063Y-13289531D02*
X8179586Y-13280008D01*
X8179586Y-13280008D02*
X8198634Y-13270484D01*
X8351015Y-13451436D02*
X8360539Y-13460960D01*
X8360539Y-13460960D02*
X8351015Y-13470484D01*
X8351015Y-13470484D02*
X8341491Y-13460960D01*
X8341491Y-13460960D02*
X8351015Y-13451436D01*
X8351015Y-13451436D02*
X8351015Y-13470484D01*
X8484348Y-13270484D02*
X8503396Y-13270484D01*
X8503396Y-13270484D02*
X8522444Y-13280008D01*
X8522444Y-13280008D02*
X8531968Y-13289531D01*
X8531968Y-13289531D02*
X8541491Y-13308579D01*
X8541491Y-13308579D02*
X8551015Y-13346674D01*
X8551015Y-13346674D02*
X8551015Y-13394293D01*
X8551015Y-13394293D02*
X8541491Y-13432388D01*
X8541491Y-13432388D02*
X8531968Y-13451436D01*
X8531968Y-13451436D02*
X8522444Y-13460960D01*
X8522444Y-13460960D02*
X8503396Y-13470484D01*
X8503396Y-13470484D02*
X8484348Y-13470484D01*
X8484348Y-13470484D02*
X8465301Y-13460960D01*
X8465301Y-13460960D02*
X8455777Y-13451436D01*
X8455777Y-13451436D02*
X8446253Y-13432388D01*
X8446253Y-13432388D02*
X8436729Y-13394293D01*
X8436729Y-13394293D02*
X8436729Y-13346674D01*
X8436729Y-13346674D02*
X8446253Y-13308579D01*
X8446253Y-13308579D02*
X8455777Y-13289531D01*
X8455777Y-13289531D02*
X8465301Y-13280008D01*
X8465301Y-13280008D02*
X8484348Y-13270484D01*
X8617682Y-13270484D02*
X8751015Y-13270484D01*
X8751015Y-13270484D02*
X8665301Y-13470484D01*
X8865301Y-13270484D02*
X8884349Y-13270484D01*
X8884349Y-13270484D02*
X8903396Y-13280008D01*
X8903396Y-13280008D02*
X8912920Y-13289531D01*
X8912920Y-13289531D02*
X8922444Y-13308579D01*
X8922444Y-13308579D02*
X8931968Y-13346674D01*
X8931968Y-13346674D02*
X8931968Y-13394293D01*
X8931968Y-13394293D02*
X8922444Y-13432388D01*
X8922444Y-13432388D02*
X8912920Y-13451436D01*
X8912920Y-13451436D02*
X8903396Y-13460960D01*
X8903396Y-13460960D02*
X8884349Y-13470484D01*
X8884349Y-13470484D02*
X8865301Y-13470484D01*
X8865301Y-13470484D02*
X8846253Y-13460960D01*
X8846253Y-13460960D02*
X8836729Y-13451436D01*
X8836729Y-13451436D02*
X8827206Y-13432388D01*
X8827206Y-13432388D02*
X8817682Y-13394293D01*
X8817682Y-13394293D02*
X8817682Y-13346674D01*
X8817682Y-13346674D02*
X8827206Y-13308579D01*
X8827206Y-13308579D02*
X8836729Y-13289531D01*
X8836729Y-13289531D02*
X8846253Y-13280008D01*
X8846253Y-13280008D02*
X8865301Y-13270484D01*
X9027206Y-13470484D02*
X9065301Y-13470484D01*
X9065301Y-13470484D02*
X9084349Y-13460960D01*
X9084349Y-13460960D02*
X9093872Y-13451436D01*
X9093872Y-13451436D02*
X9112920Y-13422865D01*
X9112920Y-13422865D02*
X9122444Y-13384769D01*
X9122444Y-13384769D02*
X9122444Y-13308579D01*
X9122444Y-13308579D02*
X9112920Y-13289531D01*
X9112920Y-13289531D02*
X9103396Y-13280008D01*
X9103396Y-13280008D02*
X9084349Y-13270484D01*
X9084349Y-13270484D02*
X9046253Y-13270484D01*
X9046253Y-13270484D02*
X9027206Y-13280008D01*
X9027206Y-13280008D02*
X9017682Y-13289531D01*
X9017682Y-13289531D02*
X9008158Y-13308579D01*
X9008158Y-13308579D02*
X9008158Y-13356198D01*
X9008158Y-13356198D02*
X9017682Y-13375246D01*
X9017682Y-13375246D02*
X9027206Y-13384769D01*
X9027206Y-13384769D02*
X9046253Y-13394293D01*
X9046253Y-13394293D02*
X9084349Y-13394293D01*
X9084349Y-13394293D02*
X9103396Y-13384769D01*
X9103396Y-13384769D02*
X9112920Y-13375246D01*
X9112920Y-13375246D02*
X9122444Y-13356198D01*
X9198634Y-13270484D02*
X9198634Y-13308579D01*
X9274825Y-13270484D02*
X9274825Y-13308579D01*
X9570063Y-13546674D02*
X9560539Y-13537150D01*
X9560539Y-13537150D02*
X9541491Y-13508579D01*
X9541491Y-13508579D02*
X9531968Y-13489531D01*
X9531968Y-13489531D02*
X9522444Y-13460960D01*
X9522444Y-13460960D02*
X9512920Y-13413341D01*
X9512920Y-13413341D02*
X9512920Y-13375246D01*
X9512920Y-13375246D02*
X9522444Y-13327627D01*
X9522444Y-13327627D02*
X9531968Y-13299055D01*
X9531968Y-13299055D02*
X9541491Y-13280008D01*
X9541491Y-13280008D02*
X9560539Y-13251436D01*
X9560539Y-13251436D02*
X9570063Y-13241912D01*
X9636730Y-13289531D02*
X9646253Y-13280008D01*
X9646253Y-13280008D02*
X9665301Y-13270484D01*
X9665301Y-13270484D02*
X9712920Y-13270484D01*
X9712920Y-13270484D02*
X9731968Y-13280008D01*
X9731968Y-13280008D02*
X9741491Y-13289531D01*
X9741491Y-13289531D02*
X9751015Y-13308579D01*
X9751015Y-13308579D02*
X9751015Y-13327627D01*
X9751015Y-13327627D02*
X9741491Y-13356198D01*
X9741491Y-13356198D02*
X9627206Y-13470484D01*
X9627206Y-13470484D02*
X9751015Y-13470484D01*
X9989111Y-13470484D02*
X9989111Y-13270484D01*
X10074825Y-13470484D02*
X10074825Y-13365722D01*
X10074825Y-13365722D02*
X10065301Y-13346674D01*
X10065301Y-13346674D02*
X10046253Y-13337150D01*
X10046253Y-13337150D02*
X10017682Y-13337150D01*
X10017682Y-13337150D02*
X9998634Y-13346674D01*
X9998634Y-13346674D02*
X9989111Y-13356198D01*
X10198634Y-13470484D02*
X10179587Y-13460960D01*
X10179587Y-13460960D02*
X10170063Y-13451436D01*
X10170063Y-13451436D02*
X10160539Y-13432388D01*
X10160539Y-13432388D02*
X10160539Y-13375246D01*
X10160539Y-13375246D02*
X10170063Y-13356198D01*
X10170063Y-13356198D02*
X10179587Y-13346674D01*
X10179587Y-13346674D02*
X10198634Y-13337150D01*
X10198634Y-13337150D02*
X10227206Y-13337150D01*
X10227206Y-13337150D02*
X10246253Y-13346674D01*
X10246253Y-13346674D02*
X10255777Y-13356198D01*
X10255777Y-13356198D02*
X10265301Y-13375246D01*
X10265301Y-13375246D02*
X10265301Y-13432388D01*
X10265301Y-13432388D02*
X10255777Y-13451436D01*
X10255777Y-13451436D02*
X10246253Y-13460960D01*
X10246253Y-13460960D02*
X10227206Y-13470484D01*
X10227206Y-13470484D02*
X10198634Y-13470484D01*
X10379587Y-13470484D02*
X10360539Y-13460960D01*
X10360539Y-13460960D02*
X10351015Y-13441912D01*
X10351015Y-13441912D02*
X10351015Y-13270484D01*
X10531968Y-13460960D02*
X10512920Y-13470484D01*
X10512920Y-13470484D02*
X10474825Y-13470484D01*
X10474825Y-13470484D02*
X10455777Y-13460960D01*
X10455777Y-13460960D02*
X10446253Y-13441912D01*
X10446253Y-13441912D02*
X10446253Y-13365722D01*
X10446253Y-13365722D02*
X10455777Y-13346674D01*
X10455777Y-13346674D02*
X10474825Y-13337150D01*
X10474825Y-13337150D02*
X10512920Y-13337150D01*
X10512920Y-13337150D02*
X10531968Y-13346674D01*
X10531968Y-13346674D02*
X10541492Y-13365722D01*
X10541492Y-13365722D02*
X10541492Y-13384769D01*
X10541492Y-13384769D02*
X10446253Y-13403817D01*
X10617682Y-13460960D02*
X10636730Y-13470484D01*
X10636730Y-13470484D02*
X10674825Y-13470484D01*
X10674825Y-13470484D02*
X10693873Y-13460960D01*
X10693873Y-13460960D02*
X10703396Y-13441912D01*
X10703396Y-13441912D02*
X10703396Y-13432388D01*
X10703396Y-13432388D02*
X10693873Y-13413341D01*
X10693873Y-13413341D02*
X10674825Y-13403817D01*
X10674825Y-13403817D02*
X10646253Y-13403817D01*
X10646253Y-13403817D02*
X10627206Y-13394293D01*
X10627206Y-13394293D02*
X10617682Y-13375246D01*
X10617682Y-13375246D02*
X10617682Y-13365722D01*
X10617682Y-13365722D02*
X10627206Y-13346674D01*
X10627206Y-13346674D02*
X10646253Y-13337150D01*
X10646253Y-13337150D02*
X10674825Y-13337150D01*
X10674825Y-13337150D02*
X10693873Y-13346674D01*
X10770063Y-13546674D02*
X10779587Y-13537150D01*
X10779587Y-13537150D02*
X10798634Y-13508579D01*
X10798634Y-13508579D02*
X10808158Y-13489531D01*
X10808158Y-13489531D02*
X10817682Y-13460960D01*
X10817682Y-13460960D02*
X10827206Y-13413341D01*
X10827206Y-13413341D02*
X10827206Y-13375246D01*
X10827206Y-13375246D02*
X10817682Y-13327627D01*
X10817682Y-13327627D02*
X10808158Y-13299055D01*
X10808158Y-13299055D02*
X10798634Y-13280008D01*
X10798634Y-13280008D02*
X10779587Y-13251436D01*
X10779587Y-13251436D02*
X10770063Y-13241912D01*
X11131968Y-13546674D02*
X11122444Y-13537150D01*
X11122444Y-13537150D02*
X11103396Y-13508579D01*
X11103396Y-13508579D02*
X11093873Y-13489531D01*
X11093873Y-13489531D02*
X11084349Y-13460960D01*
X11084349Y-13460960D02*
X11074825Y-13413341D01*
X11074825Y-13413341D02*
X11074825Y-13375246D01*
X11074825Y-13375246D02*
X11084349Y-13327627D01*
X11084349Y-13327627D02*
X11093873Y-13299055D01*
X11093873Y-13299055D02*
X11103396Y-13280008D01*
X11103396Y-13280008D02*
X11122444Y-13251436D01*
X11122444Y-13251436D02*
X11131968Y-13241912D01*
X11208158Y-13337150D02*
X11208158Y-13470484D01*
X11208158Y-13356198D02*
X11217682Y-13346674D01*
X11217682Y-13346674D02*
X11236730Y-13337150D01*
X11236730Y-13337150D02*
X11265301Y-13337150D01*
X11265301Y-13337150D02*
X11284349Y-13346674D01*
X11284349Y-13346674D02*
X11293872Y-13365722D01*
X11293872Y-13365722D02*
X11293872Y-13470484D01*
X11417682Y-13470484D02*
X11398634Y-13460960D01*
X11398634Y-13460960D02*
X11389111Y-13451436D01*
X11389111Y-13451436D02*
X11379587Y-13432388D01*
X11379587Y-13432388D02*
X11379587Y-13375246D01*
X11379587Y-13375246D02*
X11389111Y-13356198D01*
X11389111Y-13356198D02*
X11398634Y-13346674D01*
X11398634Y-13346674D02*
X11417682Y-13337150D01*
X11417682Y-13337150D02*
X11446253Y-13337150D01*
X11446253Y-13337150D02*
X11465301Y-13346674D01*
X11465301Y-13346674D02*
X11474825Y-13356198D01*
X11474825Y-13356198D02*
X11484349Y-13375246D01*
X11484349Y-13375246D02*
X11484349Y-13432388D01*
X11484349Y-13432388D02*
X11474825Y-13451436D01*
X11474825Y-13451436D02*
X11465301Y-13460960D01*
X11465301Y-13460960D02*
X11446253Y-13470484D01*
X11446253Y-13470484D02*
X11417682Y-13470484D01*
X11541492Y-13337150D02*
X11617682Y-13337150D01*
X11570063Y-13270484D02*
X11570063Y-13441912D01*
X11570063Y-13441912D02*
X11579587Y-13460960D01*
X11579587Y-13460960D02*
X11598634Y-13470484D01*
X11598634Y-13470484D02*
X11617682Y-13470484D01*
X11836730Y-13337150D02*
X11836730Y-13537150D01*
X11836730Y-13346674D02*
X11855777Y-13337150D01*
X11855777Y-13337150D02*
X11893873Y-13337150D01*
X11893873Y-13337150D02*
X11912920Y-13346674D01*
X11912920Y-13346674D02*
X11922444Y-13356198D01*
X11922444Y-13356198D02*
X11931968Y-13375246D01*
X11931968Y-13375246D02*
X11931968Y-13432388D01*
X11931968Y-13432388D02*
X11922444Y-13451436D01*
X11922444Y-13451436D02*
X11912920Y-13460960D01*
X11912920Y-13460960D02*
X11893873Y-13470484D01*
X11893873Y-13470484D02*
X11855777Y-13470484D01*
X11855777Y-13470484D02*
X11836730Y-13460960D01*
X12046253Y-13470484D02*
X12027206Y-13460960D01*
X12027206Y-13460960D02*
X12017682Y-13441912D01*
X12017682Y-13441912D02*
X12017682Y-13270484D01*
X12208158Y-13470484D02*
X12208158Y-13365722D01*
X12208158Y-13365722D02*
X12198634Y-13346674D01*
X12198634Y-13346674D02*
X12179587Y-13337150D01*
X12179587Y-13337150D02*
X12141492Y-13337150D01*
X12141492Y-13337150D02*
X12122444Y-13346674D01*
X12208158Y-13460960D02*
X12189111Y-13470484D01*
X12189111Y-13470484D02*
X12141492Y-13470484D01*
X12141492Y-13470484D02*
X12122444Y-13460960D01*
X12122444Y-13460960D02*
X12112920Y-13441912D01*
X12112920Y-13441912D02*
X12112920Y-13422865D01*
X12112920Y-13422865D02*
X12122444Y-13403817D01*
X12122444Y-13403817D02*
X12141492Y-13394293D01*
X12141492Y-13394293D02*
X12189111Y-13394293D01*
X12189111Y-13394293D02*
X12208158Y-13384769D01*
X12274825Y-13337150D02*
X12351015Y-13337150D01*
X12303396Y-13270484D02*
X12303396Y-13441912D01*
X12303396Y-13441912D02*
X12312920Y-13460960D01*
X12312920Y-13460960D02*
X12331968Y-13470484D01*
X12331968Y-13470484D02*
X12351015Y-13470484D01*
X12493873Y-13460960D02*
X12474825Y-13470484D01*
X12474825Y-13470484D02*
X12436730Y-13470484D01*
X12436730Y-13470484D02*
X12417682Y-13460960D01*
X12417682Y-13460960D02*
X12408158Y-13441912D01*
X12408158Y-13441912D02*
X12408158Y-13365722D01*
X12408158Y-13365722D02*
X12417682Y-13346674D01*
X12417682Y-13346674D02*
X12436730Y-13337150D01*
X12436730Y-13337150D02*
X12474825Y-13337150D01*
X12474825Y-13337150D02*
X12493873Y-13346674D01*
X12493873Y-13346674D02*
X12503396Y-13365722D01*
X12503396Y-13365722D02*
X12503396Y-13384769D01*
X12503396Y-13384769D02*
X12408158Y-13403817D01*
X12674825Y-13470484D02*
X12674825Y-13270484D01*
X12674825Y-13460960D02*
X12655777Y-13470484D01*
X12655777Y-13470484D02*
X12617682Y-13470484D01*
X12617682Y-13470484D02*
X12598634Y-13460960D01*
X12598634Y-13460960D02*
X12589111Y-13451436D01*
X12589111Y-13451436D02*
X12579587Y-13432388D01*
X12579587Y-13432388D02*
X12579587Y-13375246D01*
X12579587Y-13375246D02*
X12589111Y-13356198D01*
X12589111Y-13356198D02*
X12598634Y-13346674D01*
X12598634Y-13346674D02*
X12617682Y-13337150D01*
X12617682Y-13337150D02*
X12655777Y-13337150D01*
X12655777Y-13337150D02*
X12674825Y-13346674D01*
X12751015Y-13546674D02*
X12760539Y-13537150D01*
X12760539Y-13537150D02*
X12779587Y-13508579D01*
X12779587Y-13508579D02*
X12789111Y-13489531D01*
X12789111Y-13489531D02*
X12798634Y-13460960D01*
X12798634Y-13460960D02*
X12808158Y-13413341D01*
X12808158Y-13413341D02*
X12808158Y-13375246D01*
X12808158Y-13375246D02*
X12798634Y-13327627D01*
X12798634Y-13327627D02*
X12789111Y-13299055D01*
X12789111Y-13299055D02*
X12779587Y-13280008D01*
X12779587Y-13280008D02*
X12760539Y-13251436D01*
X12760539Y-13251436D02*
X12751015Y-13241912D01*
M02*
